<svg xmlns="http://www.w3.org/2000/svg" xmlns:xlink="http://www.w3.org/1999/xlink" width="72" height="72" viewBox="0 0 72 72">
  <defs>
    <linearGradient id="linear-gradient" x1="0.5" y1="1" x2="0.5" gradientUnits="objectBoundingBox">
      <stop offset="0" stop-color="#2eaa66"/>
      <stop offset="0.768" stop-color="#1ed37c"/>
      <stop offset="1" stop-color="#3ec76d"/>
    </linearGradient>
  </defs>
  <g id="Group_1369" data-name="Group 1369" transform="translate(-975.5 -838.5)">
    <g id="Group_1357" data-name="Group 1357" transform="translate(0 3)">
      <rect id="Rectangle_60" data-name="Rectangle 60" width="71" height="71" rx="22" transform="translate(976 836)" stroke="rgba(0,0,0,0)" stroke-miterlimit="10" stroke-width="1" fill="url(#linear-gradient)"/>
      <g id="_x37_33_x2C__Finance_x2C__financial_x2C__growth_x2C__money_x2C__profit" transform="translate(951.622 826.855)">
        <g id="Group_711" data-name="Group 711" transform="translate(44.707 26.002)">
          <path id="Path_924" data-name="Path 924" d="M48.427,35.32a.908.908,0,1,1-.906.908.908.908,0,0,1,.906-.908M47.3,38.661a.266.266,0,0,1,0-.532h2.254a.266.266,0,0,1,0,.532Zm0,.743a.266.266,0,1,1,0-.532h2.254a.266.266,0,0,1,0,.532Zm2.907,8.507a.266.266,0,1,1-.532,0V46.046a.266.266,0,1,1,.532,0Zm-1.74-.266a.266.266,0,1,1-.531,0V44.985a.266.266,0,1,1,.531,0ZM60.693,33a.429.429,0,0,0,.249-.145.385.385,0,0,0,.1-.264.351.351,0,0,0-.08-.233.518.518,0,0,0-.264-.151ZM60.4,30.848a.376.376,0,0,0-.188.141.351.351,0,0,0-.069.214.334.334,0,0,0,.063.2.453.453,0,0,0,.195.149Zm0,2.125v-.847a1.122,1.122,0,0,1-.579-.341.862.862,0,0,1-.184-.558.789.789,0,0,1,.207-.558.833.833,0,0,1,.556-.259v-.2h.294v.2a.871.871,0,0,1,.517.218.856.856,0,0,1,.242.486l-.512.067a.415.415,0,0,0-.247-.324v.791a1.306,1.306,0,0,1,.666.339.8.8,0,0,1,.177.538.889.889,0,0,1-.222.616,1.007,1.007,0,0,1-.62.313v.376H60.4v-.372a.953.953,0,0,1-.568-.26,1.076,1.076,0,0,1-.279-.612l.528-.063a.68.68,0,0,0,.121.279A.554.554,0,0,0,60.4,32.972ZM47.31,61.835a.266.266,0,1,1,0-.532H66.991a.266.266,0,0,1,0,.532Zm11.524.811a.266.266,0,0,1,0-.532H72.453a.266.266,0,0,1,0,.532Zm15.012,0a.266.266,0,1,1,0-.532h1.7a.266.266,0,0,1,0,.532Zm-27.311-.026a.266.266,0,1,1,0-.532h6.452a.266.266,0,1,1,0,.532ZM60.82,35.391V38.6a4.55,4.55,0,0,1,1.189-2.187c1.325-1.327,3.454-1.662,6.017-1.152.51,2.563.175,4.692-1.15,6.019-1.269,1.269-3.277,1.63-5.7,1.21l.947-.988,2.857-.45a.276.276,0,0,0-.084-.545l-2.142.337,1.258-1.312c.008-.009.019-.019.028-.03L65.86,37.61a.276.276,0,1,0-.4-.383l-1.405,1.465-.173-2.129a.276.276,0,1,0-.551.043l.212,2.62L60.82,42.069v3h8.942L68.6,48.2h-.553L66.4,58.58l-6.957,0a.265.265,0,1,0,0,.53h6.873l-.21,1.327H55.415c-.478-2.511-1.055-5.533-1.835-9.64h8.058a.265.265,0,1,0,0-.53H53.508l-.03,0L53.085,48.2h-.553l-1.165-3.134h8.9V42.084l-.75-.782.112-1.712a.276.276,0,1,0-.551-.035L59,40.764l-1.781-1.857a.276.276,0,1,0-.4.383l.642.668-.905.341a.276.276,0,1,0,.195.517l1.126-.426,1.145,1.193,0,.007,0,0,0,0,0,0,0,0,.962,1a4.24,4.24,0,0,1-3.8-.847c-.906-.908-1.137-2.367-.787-4.122,1.755-.35,3.214-.119,4.122.787a3.048,3.048,0,0,1,.724,1.191V35.391a3.383,3.383,0,1,1,.553,0Zm-.542-9.125a.266.266,0,0,1,.532,0v1.321a.266.266,0,1,1-.532,0Zm5.1,2.637a.263.263,0,0,1,.361.1.266.266,0,0,1-.1.361l-1.141.659a.266.266,0,0,1-.361-.1.262.262,0,0,1,.1-.361Zm-9.923.458a.264.264,0,0,1,.264-.458l1.141.659a.263.263,0,0,1,.1.361.266.266,0,0,1-.361.1Zm7.368-1.837a.267.267,0,0,1,.361-.1.263.263,0,0,1,.1.361l-.4.7a.264.264,0,1,1-.458-.264Zm2.734,4.206a.266.266,0,1,1,0,.532h-.8a.266.266,0,1,1,0-.532Zm-10.02.532a.266.266,0,0,1,0-.532h.8a.266.266,0,0,1,0,.532Zm2.276-4.474a.264.264,0,0,1,.458-.264l.4.7a.263.263,0,0,1-.1.361.267.267,0,0,1-.361-.1ZM77.553,56.753H75.995V59.5h1.558ZM74.94,55.426H73.382V59.5H74.94Zm-2.613-.893H70.771V59.5h1.556Zm-2.613-.7H68.158V59.5h1.556ZM67.6,60.648a.266.266,0,1,1,0-.532h10.5a.266.266,0,0,1,0,.532Zm2.676-7.643a.266.266,0,0,1-.441.3l-.992-1.487,0,0,0,0,0,0,0,0v0l0,0v0h0l0,0v0l0,0,0,0h0l0,0v0l0,0,0,0h0v0l0,0v0l0,0v0h0l0,0v0h0l0,0,0,0h0v0l0,0h0v0l0,0h0v-.007h0v0l0-.006,0-.009h0V51.7h0a.286.286,0,0,1,0-.063v-.011h0v-.009l0,0h0v-.006l0-.007h0V51.6h0l0-.006,0,0v0l.009-.026.013-.026,0,0h0a.312.312,0,0,1,.028-.043h0l.009-.011,0,0h0l0,0v0l0,0,0,0,0,0,.009-.006,0,0,0,0h0l0,0h0l0,0h0l0,0,0,0,0,0,0,0h0l0,0,0,0,0,0h0l0,0,0,0,0,0h0l0,0h0l0,0,0,0h0l0,0h0l0,0h0l0,0h0l0,0h.006l0,0h0l0,0H69l.006,0h0l0,0h0l.013,0,1.606-.3a.265.265,0,1,1,.1.521l-.732.138,7.66,3.1a.266.266,0,0,1-.2.493l-7.7-3.115ZM49.8,52.154a.265.265,0,1,1-.378.372l-.748-.761v4.787a.266.266,0,1,1-.532,0V51.765l-.75.761a.264.264,0,1,1-.376-.372l1.191-1.21a.264.264,0,0,1,.4,0Zm2.49,4.316a.264.264,0,1,1-.376.372l-.75-.761v4.787a.266.266,0,1,1-.532,0V56.081l-.748.761a.265.265,0,1,1-.378-.372l1.191-1.21a.264.264,0,0,1,.4,0Zm-6-12.555h.359v2.661a.266.266,0,1,0,.532,0V43.915h1.74v2.661a.266.266,0,1,0,.532,0V43.915h1.115v-.581H46.29Zm4.679-10.059v3.579l1.18,1.085v4.048h-1.18v.266l-.653.5H46.54l-.652-.5v-.266H44.707V38.52l1.181-1.085V33.856l2.524-3.337Z" transform="translate(-44.707 -26.002)" fill="#fff" fill-rule="evenodd"/>
        </g>
      </g>
    </g>
  </g>
</svg>
