<svg xmlns="http://www.w3.org/2000/svg" xmlns:xlink="http://www.w3.org/1999/xlink" width="72" height="72" viewBox="0 0 72 72">
  <defs>
    <linearGradient id="linear-gradient" x1="0.5" y1="1" x2="0.5" gradientUnits="objectBoundingBox">
      <stop offset="0" stop-color="#2eaa66"/>
      <stop offset="0.768" stop-color="#1ed37c"/>
      <stop offset="1" stop-color="#3ec76d"/>
    </linearGradient>
  </defs>
  <g id="Group_1371" data-name="Group 1371" transform="translate(-977.5 -937.5)">
    <rect id="Rectangle_62" data-name="Rectangle 62" width="71" height="71" rx="22" transform="translate(978 938)" stroke="rgba(0,0,0,0)" stroke-miterlimit="10" stroke-width="1" fill="url(#linear-gradient)"/>
    <g id="Group_712" data-name="Group 712" transform="translate(997.046 957)">
      <path id="Path_927" data-name="Path 927" d="M16.39,17a8,8,0,1,0-8-8,8,8,0,0,0,8,8ZM14.26,8l-.19-.47a2.1,2.1,0,0,1,2-2.89h1.25a2.11,2.11,0,0,1,2.11,2.11,1,1,0,0,1-2,0,.1.1,0,0,0-.11-.11H16a.1.1,0,0,0-.09,0,.11.11,0,0,0,0,.11L16.4,8h.66a1,1,0,0,1,0,2h-.43a5.52,5.52,0,0,1-.4,1.33h2.16a1,1,0,0,1,0,2h-4a1,1,0,0,1-.78-1.62l.31-.38A3.77,3.77,0,0,0,14.58,10h-.19a1,1,0,0,1-.13-2Z" fill="#fff"/>
      <path id="Path_928" data-name="Path 928" d="M26.81,25.41A1,1,0,0,0,26,25H6a1,1,0,0,0-1,1.3l1.25,4a1,1,0,0,0,1,.7h17.5a1,1,0,0,0,.95-.7l1.25-4a1,1,0,0,0-.14-.89Z" fill="#fff"/>
      <path id="Path_929" data-name="Path 929" d="M22.49,19.19a5.63,5.63,0,0,0-3.1.07V23h3.75a5.72,5.72,0,0,0,.06-3.1,1,1,0,0,0-.71-.71Z" fill="#fff"/>
      <path id="Path_930" data-name="Path 930" d="M15.39,18.92V23h2V18.92h-1A4.181,4.181,0,0,1,15.39,18.92Z" fill="#fff"/>
    </g>
  </g>
</svg>
