<svg xmlns="http://www.w3.org/2000/svg" xmlns:xlink="http://www.w3.org/1999/xlink" width="115" height="115" viewBox="0 0 115 115">
  <defs>
    <linearGradient id="linear-gradient" x1="0.5" y1="1" x2="0.5" gradientUnits="objectBoundingBox">
      <stop offset="0" stop-color="#2eaa66"/>
      <stop offset="0.768" stop-color="#1ed37c"/>
      <stop offset="1" stop-color="#3ec76d"/>
    </linearGradient>
  </defs>
  <g id="Group_1372" data-name="Group 1372" transform="translate(-1416.5 -556.5)">
    <rect id="Rectangle_111" data-name="Rectangle 111" width="114" height="114" rx="22" transform="translate(1417 557)" stroke="rgba(0,0,0,0)" stroke-miterlimit="10" stroke-width="1" fill="url(#linear-gradient)"/>
    <path id="Path_1415" data-name="Path 1415" d="M390.645,283.348l3.425-3.426a5.055,5.055,0,0,0,0-7.149l-16.442-16.442a5.055,5.055,0,0,0-7.149,0l-16.442,16.442a5.055,5.055,0,0,0,0,7.149l3.278,3.278-3.426,3.426a5.055,5.055,0,0,0,0,7.149l16.442,16.442a5.055,5.055,0,0,0,7.149,0l16.442-16.442a5.055,5.055,0,0,0,0-7.149Zm-14.53-23.493a4.02,4.02,0,0,1,.777.606l13.05,13.05a4.012,4.012,0,0,1,0,5.674l-1.73,1.73-10.73-10.73a5.038,5.038,0,0,0-1.367-.973Zm-17.948,13.656,13.05-13.05a4.05,4.05,0,0,1,.482-.411v9.163a5.045,5.045,0,0,0-1.367.973L359.75,280.767l-1.583-1.582A4.012,4.012,0,0,1,358.167,273.511ZM371.7,306.6a4.033,4.033,0,0,1-.629-.514l-13.05-13.05a4.012,4.012,0,0,1,0-5.674l1.73-1.73,10.73,10.73a5.053,5.053,0,0,0,1.219.9Zm-9.546-23.328.052-.052-.021-.022,8.887-8.887a4.013,4.013,0,0,1,.358-.314l2.553-2.553,11.828,11.828-.052.052.022.022-8.887,8.887c-.1.1-.2.177-.3.261L373.98,295.1Zm27.641,9.764-13.05,13.05a4.023,4.023,0,0,1-.629.514v-9.2a5.041,5.041,0,0,0,1.514-1.042l10.583-10.583,1.582,1.583A4.012,4.012,0,0,1,389.794,293.038Z" transform="translate(1099.819 325.973)" fill="#f4f8fa"/>
  </g>
</svg>
