<svg xmlns="http://www.w3.org/2000/svg" xmlns:xlink="http://www.w3.org/1999/xlink" width="72" height="72" viewBox="0 0 72 72">
  <defs>
    <linearGradient id="linear-gradient" x1="0.5" y1="1" x2="0.5" gradientUnits="objectBoundingBox">
      <stop offset="0" stop-color="#2eaa66"/>
      <stop offset="0.768" stop-color="#1ed37c"/>
      <stop offset="1" stop-color="#3ec76d"/>
    </linearGradient>
  </defs>
  <g id="Group_1374" data-name="Group 1374" transform="translate(-1261.5 -835.5)">
    <rect id="Rectangle_56" data-name="Rectangle 56" width="71" height="71" rx="22" transform="translate(1262 836)" stroke="rgba(0,0,0,0)" stroke-miterlimit="10" stroke-width="1" fill="url(#linear-gradient)"/>
    <g id="bx-money-withdraw" transform="translate(1263 837)">
      <path id="Path_466" data-name="Path 466" d="M71.388,64.622c-3.4,0-3.694-1.588-3.694-1.847H64c0,1.7,1.219,4.71,5.541,5.393v1.995h3.694V68.169c3.694-.628,5.541-3.011,5.541-5.393,0-2.069-.96-5.541-7.388-5.541-3.694,0-3.694-1.164-3.694-1.847s1.293-1.847,3.694-1.847,2.567,1.182,2.586,1.847h3.694a5.541,5.541,0,0,0-4.433-5.319V48H69.541v2.013C65.847,50.623,64,53.005,64,55.388c0,2.069.96,5.541,7.388,5.541,3.694,0,3.694,1.256,3.694,1.847S73.937,64.622,71.388,64.622Z" transform="translate(-36.918 -24.612)" fill="#fff"/>
      <path id="Path_467" data-name="Path 467" d="M21.541,16H16v3.694h3.694v31.4a1.847,1.847,0,0,0,1.847,1.847H47.4a1.847,1.847,0,0,0,1.847-1.847v-31.4h3.694V16Zm24.01,33.245H23.388V19.694H45.551Z" fill="#fff"/>
    </g>
  </g>
</svg>
