<svg xmlns="http://www.w3.org/2000/svg" xmlns:xlink="http://www.w3.org/1999/xlink" width="21.266" height="21.266" viewBox="0 0 21.266 21.266">
  <defs>
    <linearGradient id="linear-gradient" x1="0.5" y1="1" x2="0.5" gradientUnits="objectBoundingBox">
      <stop offset="0" stop-color="#2eaa66"/>
      <stop offset="0.768" stop-color="#1ed37c"/>
      <stop offset="1" stop-color="#3ec76d"/>
    </linearGradient>
  </defs>
  <g id="walletalt" transform="translate(-0.081)">
    <path id="Path_931" data-name="Path 931" d="M20.018,15.949H14.7a1.267,1.267,0,0,1-.945-.395,1.3,1.3,0,0,1-.384-.935V13.291A1.312,1.312,0,0,1,14.7,11.962h5.316a1.294,1.294,0,0,1,.935.384,1.267,1.267,0,0,1,.395.945V14.62a1.348,1.348,0,0,1-1.329,1.329ZM17.36,10.633H14.7a2.659,2.659,0,0,0-2.658,2.658V14.62A2.659,2.659,0,0,0,14.7,17.279h5.316v1.329a2.659,2.659,0,0,1-2.658,2.658H2.74A2.561,2.561,0,0,1,.86,20.487a2.561,2.561,0,0,1-.779-1.879V2.658A2.561,2.561,0,0,1,.86.779,2.561,2.561,0,0,1,2.74,0H18.689a1.294,1.294,0,0,1,.935.384,1.255,1.255,0,0,1,.395.935,1.289,1.289,0,0,1-.395.945,1.277,1.277,0,0,1-.935.395H3.4A.661.661,0,0,0,2.937,3.79a.639.639,0,0,0,.467.2H17.36a2.659,2.659,0,0,1,2.658,2.658v3.987Zm0,9.3a1.348,1.348,0,0,0,1.329-1.329H17.36Zm-2.658,0h1.329V18.608H14.7Zm-2.658,0h1.329V18.608H12.043ZM2.74,5.316a1.3,1.3,0,0,0-.935.384,1.267,1.267,0,0,0-.395.945H2.74Zm0,2.658H1.41V9.3H2.74Zm0,2.658H1.41v1.329H2.74Zm0,2.658H1.41V14.62H2.74Zm0,2.658H1.41v1.329H2.74Zm0,2.658H1.41a1.277,1.277,0,0,0,.395.935,1.277,1.277,0,0,0,.935.395ZM5.4,5.316H4.069V6.646H5.4Zm0,13.291H4.069v1.329H5.4ZM8.056,5.316H6.727V6.646H8.056Zm0,13.291H6.727v1.329H8.056ZM10.714,5.316H9.385V6.646h1.329Zm0,13.291H9.385v1.329h1.329ZM13.372,5.316H12.043V6.646h1.329Zm2.658,0H14.7V6.646h1.329Zm1.329,0V6.646h1.329A1.312,1.312,0,0,0,17.36,5.316Zm1.329,2.658H17.36V9.3h1.329Z" transform="translate(0)" fill="url(#linear-gradient)"/>
  </g>
</svg>
