<svg xmlns="http://www.w3.org/2000/svg" xmlns:xlink="http://www.w3.org/1999/xlink" width="72" height="72" viewBox="0 0 72 72">
  <defs>
    <linearGradient id="linear-gradient" x1="0.5" y1="1" x2="0.5" gradientUnits="objectBoundingBox">
      <stop offset="0" stop-color="#2eaa66"/>
      <stop offset="0.768" stop-color="#1ed37c"/>
      <stop offset="1" stop-color="#3ec76d"/>
    </linearGradient>
  </defs>
  <g id="Group_1364" data-name="Group 1364" transform="translate(-190.5 -846.5)">
    <rect id="Rectangle_63" data-name="Rectangle 63" width="71" height="71" rx="22" transform="translate(191 847)" stroke="rgba(0,0,0,0)" stroke-miterlimit="10" stroke-width="1" fill="url(#linear-gradient)"/>
    <g id="Group_1363" data-name="Group 1363">
      <g id="walletalt" transform="translate(210.919 867)">
        <path id="Path_931" data-name="Path 931" d="M28.527,22.756H20.941a1.808,1.808,0,0,1-1.348-.563,1.847,1.847,0,0,1-.548-1.333v-1.9a1.872,1.872,0,0,1,1.9-1.9h7.585a1.847,1.847,0,0,1,1.333.548,1.808,1.808,0,0,1,.563,1.348v1.9a1.923,1.923,0,0,1-1.9,1.9Zm-3.793-7.585H20.941a3.794,3.794,0,0,0-3.793,3.793v1.9a3.794,3.794,0,0,0,3.793,3.793h7.585v1.9a3.794,3.794,0,0,1-3.793,3.793H3.874A3.654,3.654,0,0,1,1.192,29.23,3.654,3.654,0,0,1,.081,26.549V3.793A3.654,3.654,0,0,1,1.192,1.111,3.654,3.654,0,0,1,3.874,0H26.63a1.847,1.847,0,0,1,1.333.548,1.791,1.791,0,0,1,.563,1.333,1.839,1.839,0,0,1-.563,1.348,1.822,1.822,0,0,1-1.333.563H4.822a.943.943,0,0,0-.667,1.615.911.911,0,0,0,.667.281H24.734a3.794,3.794,0,0,1,3.793,3.793v5.689Zm0,13.274a1.923,1.923,0,0,0,1.9-1.9h-1.9Zm-3.793,0h1.9v-1.9h-1.9Zm-3.793,0h1.9v-1.9h-1.9ZM3.874,7.585a1.847,1.847,0,0,0-1.333.548,1.808,1.808,0,0,0-.563,1.348h1.9Zm0,3.793h-1.9v1.9h1.9Zm0,3.793h-1.9v1.9h1.9Zm0,3.793h-1.9v1.9h1.9Zm0,3.793h-1.9v1.9h1.9Zm0,3.793h-1.9a1.822,1.822,0,0,0,.563,1.333,1.822,1.822,0,0,0,1.333.563ZM7.667,7.585H5.77v1.9h1.9Zm0,18.964H5.77v1.9h1.9ZM11.459,7.585h-1.9v1.9h1.9Zm0,18.964h-1.9v1.9h1.9ZM15.252,7.585h-1.9v1.9h1.9Zm0,18.964h-1.9v1.9h1.9ZM19.045,7.585h-1.9v1.9h1.9Zm3.793,0h-1.9v1.9h1.9Zm1.9,0v1.9h1.9a1.872,1.872,0,0,0-1.9-1.9Zm1.9,3.793h-1.9v1.9h1.9Z" fill="#fff"/>
      </g>
    </g>
  </g>
</svg>
