<svg xmlns="http://www.w3.org/2000/svg" xmlns:xlink="http://www.w3.org/1999/xlink" width="27.846" height="40.047" viewBox="0 0 27.846 40.047">
  <defs>
    <linearGradient id="linear-gradient" x1="0.5" y1="1" x2="0.5" gradientUnits="objectBoundingBox">
      <stop offset="0" stop-color="#2eaa66"/>
      <stop offset="0.768" stop-color="#1ed37c"/>
      <stop offset="1" stop-color="#3ec76d"/>
    </linearGradient>
  </defs>
  <g id="lock-solid" transform="translate(-37.31 -12.579)">
    <path id="Path_1401" data-name="Path 1401" d="M61.359,28.577V23.16a10.136,10.136,0,1,0-20.251,0v5.417h-3.8V50.095a2.531,2.531,0,0,0,2.531,2.531H62.624a2.531,2.531,0,0,0,2.531-2.531V28.577ZM52.5,41.526v3.506H49.967v-3.62a3.038,3.038,0,1,1,2.531.114Zm6.329-12.948H43.639V23.16a7.607,7.607,0,1,1,15.189,0Z" transform="translate(0 0)" fill="url(#linear-gradient)"/>
  </g>
</svg>
