<svg xmlns="http://www.w3.org/2000/svg" width="26.274" height="36.784" viewBox="0 0 26.274 36.784">
  <g id="Group_1698" data-name="Group 1698" transform="translate(-4.5 -2)">
    <path id="Path_1885" data-name="Path 1885" d="M27.7,16.334a11.093,11.093,0,0,0-3.619-8.485,1.752,1.752,0,1,0-2.477,2.479A7.593,7.593,0,0,1,24.2,16.334a9.563,9.563,0,0,1-2.822,6.81,8.893,8.893,0,0,1-6,2.79l2.182-2.184a1.751,1.751,0,0,0-2.477-2.477L8.586,27.766l6.493,6.493a1.751,1.751,0,0,0,2.477-2.477l-2.342-2.34a12.5,12.5,0,0,0,8.641-3.82A13.043,13.043,0,0,0,27.7,16.334Z" transform="translate(3.071 4.011)" fill="#fff"/>
    <path id="Path_1886" data-name="Path 1886" d="M8,20.392a9.57,9.57,0,0,1,2.822-6.812,8.893,8.893,0,0,1,6.055-2.792l-2.233,2.233A1.752,1.752,0,1,0,17.124,15.5l6.493-6.493L17.124,2.513A1.751,1.751,0,0,0,14.647,4.99l2.3,2.3a12.471,12.471,0,0,0-8.6,3.817A13.043,13.043,0,0,0,4.5,20.392a11.093,11.093,0,0,0,3.619,8.485A1.753,1.753,0,0,0,10.6,26.4,7.587,7.587,0,0,1,8,20.392Z" transform="translate(0 0)" fill="#fff"/>
  </g>
</svg>
