<svg id="XMLID_5691_" xmlns="http://www.w3.org/2000/svg" width="30.377" height="30.377" viewBox="0 0 30.377 30.377">
  <g id="XMLID_5693_">
    <path id="XMLID_5705_" d="M24.313,325.8H9.7a14.821,14.821,0,0,0,1.086,2.759H37.84a14.984,14.984,0,0,0,1.086-2.759Z" transform="translate(-9.124 -306.47)" fill="#fff"/>
    <path id="XMLID_5704_" d="M41.527,372.4H28a15.082,15.082,0,0,0,1.815,2.759H53.233a15.639,15.639,0,0,0,1.821-2.759Z" transform="translate(-26.339 -350.305)" fill="#bf0a30"/>
    <path id="XMLID_5703_" d="M117.722,465.5H109a15.122,15.122,0,0,0,8.722,2.759h0a15.094,15.094,0,0,0,8.721-2.759Z" transform="translate(-102.533 -437.882)" fill="#bf0a30"/>
    <path id="XMLID_5702_" d="M70.406,418.9H58.7a15.326,15.326,0,0,0,2.984,2.759H79.127a15.326,15.326,0,0,0,2.984-2.759Z" transform="translate(-55.217 -394.047)" fill="#fff"/>
    <path id="XMLID_5701_" d="M16.223,279.3H1.1a15.1,15.1,0,0,0,.51,2.759H30.836a14.7,14.7,0,0,0,.51-2.759Z" transform="translate(-1.035 -262.729)" fill="#bf0a30"/>
    <path id="XMLID_5700_" d="M264.721,2.759A15.094,15.094,0,0,0,256,0h0V2.759Z" transform="translate(-240.812)" fill="#bf0a30"/>
    <path id="XMLID_5699_" d="M256,142.459h14.613a14.82,14.82,0,0,0-1.086-2.759H256Z" transform="translate(-240.812 -131.412)" fill="#fff"/>
    <path id="XMLID_5698_" d="M256,95.859h13.527a15.392,15.392,0,0,0-1.815-2.759H256Z" transform="translate(-240.812 -87.576)" fill="#bf0a30"/>
    <path id="XMLID_5697_" d="M256,49.359h11.712a15.326,15.326,0,0,0-2.984-2.759H256Z" transform="translate(-240.812 -43.835)" fill="#fff"/>
    <path id="XMLID_5696_" d="M256,188.959h15.129a15.1,15.1,0,0,0-.51-2.759H256Z" transform="translate(-240.812 -175.153)" fill="#bf0a30"/>
    <path id="XMLID_5695_" d="M7.5,2.759A15.356,15.356,0,0,0,4.517,5.524,15.059,15.059,0,0,0,1.61,11.041,14.7,14.7,0,0,0,1.1,13.8H16.223V0A15.108,15.108,0,0,0,7.5,2.759Z" transform="translate(-1.035)" fill="#002868"/>
    <path id="XMLID_5694_" d="M30.318,232.7H.065c-.042.457-.065.914-.065,1.382s.024.926.065,1.382H30.318c.042-.451.059-.914.059-1.382S30.359,233.157,30.318,232.7Z" transform="translate(0 -218.894)" fill="#fff"/>
  </g>
  <path id="XMLID_5692_" d="M84.292,65.3l.92,2.824h2.972l-2.4,1.75.914,2.824-2.4-1.744L81.883,72.7l.926-2.824L80.4,68.124h2.972Z" transform="translate(-75.63 -61.426)" fill="#fff"/>
</svg>
