<svg xmlns="http://www.w3.org/2000/svg" xmlns:xlink="http://www.w3.org/1999/xlink" width="132.205" height="239.24" viewBox="0 0 132.205 239.24">
  <defs>
    <linearGradient id="linear-gradient" x1="69.74" y1="0.5" x2="70.743" y2="0.5" gradientUnits="objectBoundingBox">
      <stop offset="0" stop-color="#d5d5d5"/>
      <stop offset="0.206" stop-color="#dedede"/>
      <stop offset="0.61" stop-color="#eaeaea"/>
      <stop offset="1" stop-color="#efefef"/>
    </linearGradient>
    <linearGradient id="linear-gradient-2" x1="63.343" y1="0.5" x2="64.343" y2="0.5" gradientUnits="objectBoundingBox">
      <stop offset="0" stop-color="#cfd1d2"/>
      <stop offset="1" stop-color="#e5e5e6"/>
    </linearGradient>
    <linearGradient id="linear-gradient-3" x1="0" x2="1" xlink:href="#linear-gradient-2"/>
    <linearGradient id="linear-gradient-6" y1="0.5" x2="1" y2="0.5" gradientUnits="objectBoundingBox">
      <stop offset="0" stop-color="#cfd1d2"/>
      <stop offset="0.102" stop-color="#d7d9da"/>
      <stop offset="0.353" stop-color="#e8e9e9"/>
      <stop offset="0.54" stop-color="#efefef"/>
      <stop offset="0.747" stop-color="#ececec"/>
      <stop offset="0.882" stop-color="#e3e3e3"/>
      <stop offset="0.996" stop-color="#d4d4d5"/>
      <stop offset="1" stop-color="#d4d4d5"/>
    </linearGradient>
    <linearGradient id="linear-gradient-8" x1="0.023" y1="0.5" x2="1.025" y2="0.5" xlink:href="#linear-gradient"/>
    <linearGradient id="linear-gradient-11" x1="0" x2="1" xlink:href="#linear-gradient-2"/>
    <linearGradient id="linear-gradient-12" x1="0.351" y1="1.578" x2="0.649" y2="-0.305" gradientUnits="objectBoundingBox">
      <stop offset="0" stop-color="#2eaa66"/>
      <stop offset="0.33" stop-color="#1ed37c"/>
      <stop offset="0.73" stop-color="#fe8420"/>
      <stop offset="1" stop-color="#ff7d19"/>
    </linearGradient>
    <linearGradient id="linear-gradient-13" x1="0.186" y1="1.112" x2="0.733" y2="-0.172" xlink:href="#linear-gradient-12"/>
    <linearGradient id="linear-gradient-14" x1="0.152" y1="0.96" x2="0.667" y2="0.113" xlink:href="#linear-gradient-12"/>
    <linearGradient id="linear-gradient-15" x1="0.366" y1="3.195" x2="0.634" y2="-2.265" xlink:href="#linear-gradient-12"/>
    <linearGradient id="linear-gradient-16" x1="0.378" y1="2.646" x2="0.624" y2="-1.367" xlink:href="#linear-gradient-12"/>
    <linearGradient id="linear-gradient-17" x1="0.361" y1="1.347" x2="0.642" y2="-0.337" xlink:href="#linear-gradient-12"/>
  </defs>
  <g id="Group_1517" data-name="Group 1517" transform="translate(-288.875 -161.318)">
    <g id="Group_1512" data-name="Group 1512" transform="translate(288.875 161.318)">
      <g id="Group_1485" data-name="Group 1485" transform="translate(0 85.706)">
        <path id="Path_1716" data-name="Path 1716" d="M312.155,281.6a10.373,10.373,0,1,1-10.368-10.368A10.368,10.368,0,0,1,312.155,281.6Z" transform="translate(-288.432 -227.79)" fill="#363435"/>
        <path id="Path_1717" data-name="Path 1717" d="M311.5,282.782h-3.08V245.35l3.08,1.229Z" transform="translate(-285.454 -232.319)" fill="#babcbe"/>
        <path id="Path_1718" data-name="Path 1718" d="M295.675,240.417l4.6,1.595v39.246l-9.393,2.184V246.206Z" transform="translate(-288.524 -233.183)" fill="#babcbe"/>
        <g id="Group_1483" data-name="Group 1483" transform="translate(4.457)">
          <g id="Group_1482" data-name="Group 1482">
            <path id="Path_1719" data-name="Path 1719" d="M314.375,238.677,303.6,234.26v2.4l10.778,4.419Z" transform="translate(-290.756 -234.26)" fill="#434244"/>
            <path id="Path_1720" data-name="Path 1720" d="M302.291,258.106l-9.622-4.784,12.841-19.063,10.778,4.417Z" transform="translate(-292.668 -234.26)" fill="#434244"/>
            <path id="Path_1721" data-name="Path 1721" d="M300.858,259.8v-2.351l14-19.43v2.348Z" transform="translate(-291.235 -233.602)" fill="#59595b"/>
          </g>
          <path id="Path_1722" data-name="Path 1722" d="M302.291,257.449l-9.622-4.786v-2.179l9.622,4.784Z" transform="translate(-292.668 -231.421)" fill="#363435"/>
        </g>
        <g id="Group_1484" data-name="Group 1484" transform="translate(0 7.234)">
          <path id="Path_1723" data-name="Path 1723" d="M315.191,246.4V281c0,4.429-5.9,8.019-13.16,8.019s-13.156-3.591-13.156-8.019V246.4s3.029,5.662,12.256,5.809C311.7,252.373,315.191,246.4,315.191,246.4Z" transform="translate(-288.875 -239.371)" fill="url(#linear-gradient)"/>
          <path id="Path_1724" data-name="Path 1724" d="M312,246.641c0,2.968-4.329,5.366-9.667,5.366s-8.752-2.163-8.752-5.129c0-2.363,3.229-4.147,7.045-4.866l-4.6-1.6c-4.2,1.344-7.151,3.937-7.151,7.025,0,4.431,5.895,8.022,13.156,8.022s13.16-3.591,13.16-8.022l-3.346-1.229C311.866,246.362,312,246.489,312,246.641Z" transform="translate(-288.875 -240.417)" fill="#fff"/>
        </g>
      </g>
      <g id="Group_1488" data-name="Group 1488" transform="translate(53.792 141.767)">
        <path id="Path_1725" data-name="Path 1725" d="M337.076,320.591a11.379,11.379,0,1,0,11.372-11.375A11.371,11.371,0,0,0,337.076,320.591Z" transform="translate(-334.233 -277.205)" fill="#363435"/>
        <g id="Group_1487" data-name="Group 1487">
          <g id="Group_1486" data-name="Group 1486">
            <path id="Path_1726" data-name="Path 1726" d="M334.656,281.972v37.959c0,4.856,6.465,8.795,14.434,8.795s14.435-3.939,14.435-8.795V281.972s-3.513,4.351-13.635,4.514C338.3,286.668,334.656,281.972,334.656,281.972Z" transform="translate(-334.656 -281.972)" fill="url(#linear-gradient-2)"/>
          </g>
          <path id="Path_1727" data-name="Path 1727" d="M363.524,319.931V281.972s-3.513,4.351-13.635,4.514c-11.591.182-15.234-4.514-15.234-4.514V301.16a2.116,2.116,0,0,0,.661.251c6.641,1.255,23.741,2.854,25.06,11.831a17.551,17.551,0,0,1-4.122,14.32C360.592,326.043,363.524,323.2,363.524,319.931Z" transform="translate(-334.656 -281.972)" opacity="0.4" fill="url(#linear-gradient-3)" style="mix-blend-mode: multiply;isolation: isolate"/>
        </g>
      </g>
      <path id="Path_1728" data-name="Path 1728" d="M363.524,282.749c0,2.873-6.462,5.209-14.435,5.209s-14.434-2.336-14.434-5.209,6.46-5.215,14.434-5.215S363.524,279.867,363.524,282.749Z" transform="translate(-280.864 -140.981)" fill="url(#linear-gradient-3)"/>
      <g id="Group_1489" data-name="Group 1489" transform="translate(14.092 74.879)">
        <path id="Path_1729" data-name="Path 1729" d="M409.471,287.375c-18.819,35.754-97.479,30.035-108.6,1.026V225.568c20.539,24.192,80.406,29.241,108.6-.523Z" transform="translate(-300.868 -225.045)" fill="url(#linear-gradient-3)"/>
      </g>
      <g id="Group_1490" data-name="Group 1490" transform="translate(14.092 74.879)">
        <path id="Path_1730" data-name="Path 1730" d="M409.471,287.375c-18.819,35.754-97.479,30.035-108.6,1.026V225.568c20.539,24.192,80.406,29.241,108.6-.523Z" transform="translate(-300.868 -225.045)" fill="url(#linear-gradient-6)"/>
      </g>
      <g id="Group_1492" data-name="Group 1492" transform="translate(14.092 63.516)">
        <path id="Path_1731" data-name="Path 1731" d="M380.441,294.747c-27.286,23.326-55.09,14.173-63.413,10.58,27.64,12.373,75.781,8.988,89.958-17.951v-62.33c-22.5,23.747-65.139,25.316-91.9,12.7l-.02.009a105.451,105.451,0,0,0,39.621,14.557C370.61,254.552,413.022,266.895,380.441,294.747Z" transform="translate(-298.383 -213.683)" opacity="0.4" fill="url(#linear-gradient-3)" style="mix-blend-mode: multiply;isolation: isolate"/>
        <g id="Group_1491" data-name="Group 1491">
          <path id="Path_1732" data-name="Path 1732" d="M409.471,226.737c0,6.276-23.888,21.08-53.881,21.08s-54.722-14.8-54.722-21.08,24.314-11.362,54.3-11.362S409.471,220.462,409.471,226.737Z" transform="translate(-300.868 -215.375)" fill="#919395"/>
          <path id="Path_1733" data-name="Path 1733" d="M364.563,215.54c14.75,2.918,23.539,7.229,24.957,10.859,4.345,11.125-25.159,19.98-54.706,16.467-11.869-1.411-23.885-6.075-31.122-11.087,7.7,6.948,27.947,16.009,51.4,16.009,29.994,0,53.881-14.8,53.881-21.08C408.977,221.141,389.83,216.511,364.563,215.54Z" transform="translate(-300.374 -215.346)" fill="#919395" opacity="0.2" style="mix-blend-mode: multiply;isolation: isolate"/>
        </g>
      </g>
      <g id="Group_1499" data-name="Group 1499" transform="translate(101.405 93.272)">
        <g id="Group_1496" data-name="Group 1496">
          <path id="Path_1734" data-name="Path 1734" d="M379.242,292.638a11.379,11.379,0,1,0,11.372-11.375A11.368,11.368,0,0,0,379.242,292.638Z" transform="translate(-374.467 -233.601)" fill="#363435"/>
          <path id="Path_1735" data-name="Path 1735" d="M377.068,293.931h3.378V252.869l-3.378,1.346Z" transform="translate(-374.847 -238.57)" fill="#babcbe"/>
          <path id="Path_1736" data-name="Path 1736" d="M395.467,247.456l-5.049,1.75v43.055l10.3,2.395v-40.85Z" transform="translate(-372.511 -239.517)" fill="#babcbe"/>
          <g id="Group_1494" data-name="Group 1494">
            <g id="Group_1493" data-name="Group 1493">
              <path id="Path_1737" data-name="Path 1737" d="M375.178,245.545,387,240.7v2.639l-11.823,4.844Z" transform="translate(-375.178 -240.699)" fill="#434244"/>
              <path id="Path_1738" data-name="Path 1738" d="M390.531,266.862l10.557-5.248L387,240.7l-11.823,4.846Z" transform="translate(-375.178 -240.699)" fill="#434244"/>
              <path id="Path_1739" data-name="Path 1739" d="M390.531,268.717v-2.576l-15.353-21.317V247.4Z" transform="translate(-375.178 -239.978)" fill="#59595b"/>
            </g>
            <path id="Path_1740" data-name="Path 1740" d="M388.244,266.139l10.557-5.251V258.5l-10.557,5.248Z" transform="translate(-372.891 -237.585)" fill="#363435"/>
          </g>
          <g id="Group_1495" data-name="Group 1495" transform="translate(1.932 7.939)">
            <path id="Path_1741" data-name="Path 1741" d="M376.822,254.015v37.96c0,4.86,6.465,8.8,14.434,8.8s14.435-3.939,14.435-8.8v-37.96s-3.323,6.209-13.447,6.371C380.652,260.57,376.822,254.015,376.822,254.015Z" transform="translate(-376.822 -246.308)" fill="url(#linear-gradient-8)"/>
            <path id="Path_1742" data-name="Path 1742" d="M380.32,254.284c0,3.254,4.748,5.886,10.6,5.886s9.6-2.373,9.6-5.627c0-2.6-3.543-4.552-7.729-5.336l5.049-1.751c4.6,1.473,7.844,4.317,7.844,7.707,0,4.857-6.467,8.8-14.435,8.8s-14.434-3.94-14.434-8.8l3.668-1.347C380.469,253.978,380.32,254.115,380.32,254.284Z" transform="translate(-376.822 -247.456)" fill="#fff"/>
          </g>
        </g>
        <g id="Group_1498" data-name="Group 1498" transform="translate(17.086 29.482)">
          <g id="Group_1497" data-name="Group 1497">
            <path id="Path_1743" data-name="Path 1743" d="M392.76,265.791c1.563,0,2.841.788,2.841,1.752v12.282c0,.964-1.278,1.752-2.841,1.752h-.2c-1.558,0-2.836-.788-2.836-1.752V267.543c0-.963,1.278-1.752,2.836-1.752Z" transform="translate(-389.719 -265.791)" fill="#e48200"/>
          </g>
          <path id="Path_1744" data-name="Path 1744" d="M389.719,267.543v.82c1.146-1.03,4.011-1.288,4.011,1.633v11.458c1.086-.246,1.871-.877,1.871-1.63V267.543c0-.963-1.278-1.752-2.841-1.752h-.2C391,265.791,389.719,266.579,389.719,267.543Z" transform="translate(-389.719 -265.791)" fill="#ea8b00" style="mix-blend-mode: multiply;isolation: isolate"/>
        </g>
      </g>
      <g id="Group_1511" data-name="Group 1511" transform="translate(14.047)">
        <g id="Group_1501" data-name="Group 1501" transform="translate(39.745 42.166)">
          <g id="Group_1500" data-name="Group 1500">
            <path id="Path_1745" data-name="Path 1745" d="M334.656,197.2v37.959c0,4.86,6.465,8.8,14.434,8.8s14.435-3.94,14.435-8.8V197.2s-3.513,4.352-13.635,4.515C338.3,201.9,334.656,197.2,334.656,197.2Z" transform="translate(-334.656 -197.204)" fill="#59595b"/>
          </g>
          <path id="Path_1746" data-name="Path 1746" d="M363.524,235.163V197.2s-3.513,4.352-13.635,4.515c-11.591.183-15.234-4.515-15.234-4.515v19.189a2.241,2.241,0,0,0,.661.253c6.641,1.256,23.741,2.854,25.06,11.832a17.54,17.54,0,0,1-4.122,14.316C360.592,241.278,363.524,238.431,363.524,235.163Z" transform="translate(-334.656 -197.204)" fill="#59595b" opacity="0.4" style="mix-blend-mode: multiply;isolation: isolate"/>
        </g>
        <g id="Group_1503" data-name="Group 1503">
          <path id="Path_1747" data-name="Path 1747" d="M409.521,210.242c0,20.081-28.643,32.524-54.348,32.514-30.01-.012-54.343-13.505-54.343-32.514,0-16.16,24.333-48.924,54.343-48.924S409.521,194.083,409.521,210.242Z" transform="translate(-300.83 -161.318)" fill="url(#linear-gradient-6)"/>
          <g id="Group_1502" data-name="Group 1502" transform="translate(37.154)" opacity="0.4" style="mix-blend-mode: multiply;isolation: isolate">
            <path id="Path_1748" data-name="Path 1748" d="M403.5,210.242c0-16.16-24.331-48.924-54.348-48.924a43.97,43.97,0,0,0-13.888,2.321c15.14-3.761,65.462,16.093,45.55,53.926-9.371,17.8-22.112,23.868-33.327,25.168.558.009,1.109.024,1.666.024C374.854,242.766,403.5,230.323,403.5,210.242Z" transform="translate(-331.959 -161.318)" opacity="0.4" fill="url(#linear-gradient-3)" style="mix-blend-mode: multiply;isolation: isolate"/>
            <path id="Path_1749" data-name="Path 1749" d="M332.451,164.425a6.013,6.013,0,0,0,1.276-.518C333.3,164.071,332.876,164.249,332.451,164.425Z" transform="translate(-332.451 -160.865)" fill="url(#linear-gradient-11)"/>
          </g>
        </g>
        <g id="Group_1510" data-name="Group 1510" transform="translate(14.452 38.728)">
          <g id="Group_1506" data-name="Group 1506">
            <g id="Group_1505" data-name="Group 1505">
              <g id="Group_1504" data-name="Group 1504">
                <path id="Path_1750" data-name="Path 1750" d="M379.7,209.015c-.249,4.555-2.283,8.066-4.506,7.811l-58.807-6.561c-1.926-.216-3.384-3.833-3.254-8.051l.02-.555c.133-4.224,1.819-7.554,3.755-7.374l59.205,5.438c2.237.209,3.875,4.13,3.62,8.693Z" transform="translate(-313.13 -194.278)" fill="#434244"/>
              </g>
              <path id="Path_1751" data-name="Path 1751" d="M376.093,198.938l-1.9-.174a16.728,16.728,0,0,1,.128,2.855l-.032.589c-.241,4.552-2.254,8.058-4.453,7.827l-56.562-5.962c.394,2.986,1.585,5.242,3.091,5.407l58.807,6.561c2.223.255,4.257-3.256,4.506-7.811l.034-.6C379.969,203.068,378.331,199.147,376.093,198.938Z" transform="translate(-313.105 -193.493)" fill="#434244" opacity="0.4" style="mix-blend-mode: multiply;isolation: isolate"/>
            </g>
          </g>
          <g id="Group_1509" data-name="Group 1509" transform="translate(9.667 5.331)">
            <g id="Group_1508" data-name="Group 1508">
              <g id="Group_1507" data-name="Group 1507">
                <path id="Path_1752" data-name="Path 1752" d="M362.3,206.545c-.074,2.084-1.181,3.691-2.458,3.568l-36.294-3.442c-1.277-.119-2.258-1.925-2.183-4.008l.011-.275c.078-2.08,1.18-3.688,2.458-3.567l36.3,3.442c1.275.121,2.259,1.928,2.182,4.008Z" transform="translate(-321.358 -198.816)" fill="#e48200"/>
              </g>
              <path id="Path_1753" data-name="Path 1753" d="M360.108,201.765l-1.087-.1a6.319,6.319,0,0,1,.112,1.311l-.011.269c-.075,2.088-1.186,3.691-2.463,3.568l-35.2-3.337c.269,1.48,1.069,2.607,2.068,2.7l36.294,3.442c1.277.122,2.384-1.484,2.458-3.568l.011-.274C362.367,203.694,361.383,201.886,360.108,201.765Z" transform="translate(-321.34 -198.317)" fill="#ea8b00" style="mix-blend-mode: multiply;isolation: isolate"/>
            </g>
          </g>
        </g>
      </g>
    </g>
    <g id="Group_1516" data-name="Group 1516" transform="translate(295.115 363.485)">
      <path id="Path_1754" data-name="Path 1754" d="M370.775,333.383l-17.9,9.879a21.375,21.375,0,0,1,5.5,1.939l37.715-6.655A95.692,95.692,0,0,0,370.775,333.383Z" transform="translate(-283.915 -333.376)" fill="url(#linear-gradient-12)"/>
      <g id="Group_1515" data-name="Group 1515" transform="translate(0 0)">
        <g id="Group_1513" data-name="Group 1513" transform="translate(0 5.037)">
          <path id="Path_1755" data-name="Path 1755" d="M298.884,352.913c-3.048-5.585,3.47-11,17.228-14.669l-1.946-.58c-15.338,3.971-22.734,10.009-19.043,16.205Z" transform="translate(-294.186 -337.664)" fill="url(#linear-gradient-13)"/>
        </g>
        <g id="Group_1514" data-name="Group 1514" transform="translate(23.005)">
          <path id="Path_1756" data-name="Path 1756" d="M382.594,340.866c11.148,4.974,12.447,12.049-1.614,17.666a1.339,1.339,0,0,1-.213.06l9.07,2.633.183-.082c16.255-7,13.407-15.533-.672-21.315Z" transform="translate(-302.04 -332.248)" fill="url(#linear-gradient-14)"/>
          <path id="Path_1757" data-name="Path 1757" d="M318.552,338.313c.07-.02.119-.032.19-.048,14.62-3.239,33.841-3.927,49.864-2.216l3.095-1.623c-18.486-1.954-40.639-1.2-57.767,2.446-.058.016-.116.027-.169.042Z" transform="translate(-313.765 -333.377)" fill="url(#linear-gradient-15)"/>
        </g>
        <path id="Path_1758" data-name="Path 1758" d="M369.807,360.27a170.624,170.624,0,0,1-45.781-.637l-6.621,3.68a198.961,198.961,0,0,0,58.638.718Z" transform="translate(-290.123 -328.782)" fill="url(#linear-gradient-16)"/>
      </g>
      <path id="Path_1759" data-name="Path 1759" d="M359.015,343.871c-1.388-.36-2.9-.656-4.461-.9l7.556-3.794c-2.439-.258-4.961-.426-7.488-.523l.1,1.678c-2.771-.133-5.6-.142-8.387-.028l.167-1.663a102.662,102.662,0,0,0-14.627,1.48l4.339,1.222c-1.156.2-2.291.426-3.365.683-1.218.294-2.306.6-3.3.94l-4.29-1.289c-3.949,1.187-6.8,2.62-8.391,4.169l7.234.007a2.938,2.938,0,0,0-1.094,2.74h-.183l-7.424,0c-.107,1.752,1.34,3.538,4.553,5.171l6.068-1.683c.159-.032.321-.081.478-.107a19.851,19.851,0,0,0,2.439,1.046,37.7,37.7,0,0,0,4.28,1.23c-.183.074-.358.143-.566.206l-5.995,1.765a86.126,86.126,0,0,0,17.8,2.505l.26-2.58a.681.681,0,0,1,.215-.368,94.739,94.739,0,0,0,10.557-.023.611.611,0,0,1,.22.4l.17,2.572a87.557,87.557,0,0,0,17.753-2.516l-5.764-1.73a5.03,5.03,0,0,1-.817-.328c1.379-.329,2.667-.69,3.838-1.094a22.133,22.133,0,0,0,2.724-1.147,9.35,9.35,0,0,1,.964.209l5.839,1.63c3.209-1.613,4.672-3.384,4.652-5.1l-7.157,0c-.288,0-.56-.014-.841-.032a2.818,2.818,0,0,0-.939-2.7c.175,0,.358-.009.552-.009l7.041,0a13.272,13.272,0,0,0-3.62-2.43l-15.992,2.369A20.514,20.514,0,0,0,359.015,343.871Zm.907,5.6c-5.165,1.6-13.794,1.6-18.874,0-4.89-1.529-4.411-3.87.723-5.251a39.291,39.291,0,0,1,17.572,0C364.44,345.6,364.869,347.943,359.922,349.472Z" transform="translate(-290.475 -332.456)" fill="url(#linear-gradient-17)"/>
    </g>
  </g>
</svg>
