<svg xmlns="http://www.w3.org/2000/svg" xmlns:xlink="http://www.w3.org/1999/xlink" width="79" height="80" viewBox="0 0 79 80">
  <defs>
    <linearGradient id="linear-gradient" x1="0.5" y1="1" x2="0.5" gradientUnits="objectBoundingBox">
      <stop offset="0" stop-color="#2eaa66"/>
      <stop offset="0.768" stop-color="#1ed37c"/>
      <stop offset="1" stop-color="#3ec76d"/>
    </linearGradient>
  </defs>
  <g id="Group_1521" data-name="Group 1521" transform="translate(-991.5 -278.5)">
    <rect id="Rectangle_246" data-name="Rectangle 246" width="78" height="79" rx="22" transform="translate(992 279)" stroke="rgba(0,0,0,0)" stroke-miterlimit="10" stroke-width="1" fill="url(#linear-gradient)"/>
    <path id="profit-svgrepo-com_1_" data-name="profit-svgrepo-com (1)" d="M18.78,19.5v7.352A25.994,25.994,0,0,1,29.547,31.2l-2.284,1.852,9.394,4.791L34.079,27.53l-2.391,1.938A38.8,38.8,0,0,0,24.973,19.5Zm25.6,0a88.817,88.817,0,0,0-3.856,8.137l-2.787-.591,2.394,10.361,6.19-8.538-2.731-.58A62.53,62.53,0,0,1,53.565,19.5Zm18.229,8.662c-3.506.229-6.649,1.816-9.694,3.776l-1.151-3-7.39,7.646,10.531.548-1.223-3.19a15.423,15.423,0,0,1,8.927,1.973ZM44.7,39.979a2.176,2.176,0,0,0-1.563.886l-.606.643-.629-.62a2.279,2.279,0,0,0-1.765-.833,3.433,3.433,0,0,0-1.9.891l-.574.464-.545-.5a2.946,2.946,0,0,0-2.192-.929,3.127,3.127,0,0,0-1.5.531l3.781,6.8a7.406,7.406,0,0,0,6.346.19l3.654-6.77a12.072,12.072,0,0,0-1.855-.684,3.215,3.215,0,0,0-.551-.075Zm-8.3,8.878a9.2,9.2,0,0,0-3.519,6.175c-.5,2.879.289,4.824,1.687,6.149A8.09,8.09,0,0,0,40.2,63.16a8.546,8.546,0,0,0,5.688-2.117,6.312,6.312,0,0,0,1.78-6.017,9.234,9.234,0,0,0-3.248-6.008,8.558,8.558,0,0,1-8.018-.162Z" transform="translate(990.305 278)" fill="#fff"/>
  </g>
</svg>
