<svg xmlns="http://www.w3.org/2000/svg" xmlns:xlink="http://www.w3.org/1999/xlink" width="80" height="80" viewBox="0 0 80 80">
  <defs>
    <linearGradient id="linear-gradient" x1="0.5" y1="1" x2="0.5" gradientUnits="objectBoundingBox">
      <stop offset="0" stop-color="#2eaa66"/>
      <stop offset="0.768" stop-color="#1ed37c"/>
      <stop offset="1" stop-color="#3ec76d"/>
    </linearGradient>
  </defs>
  <g id="Group_1520" data-name="Group 1520" transform="translate(-1393.5 -278.5)">
    <rect id="Rectangle_245" data-name="Rectangle 245" width="79" height="79" rx="22" transform="translate(1394 279)" stroke="rgba(0,0,0,0)" stroke-miterlimit="10" stroke-width="1" fill="url(#linear-gradient)"/>
    <g id="profit-svgrepo-com" transform="translate(1404.898 297.5)">
      <path id="Path_1762" data-name="Path 1762" d="M11.358,179.62a17.5,17.5,0,0,1-.06-5.391,11.729,11.729,0,0,1-3.808-2.882v.994A8.774,8.774,0,0,0,11.358,179.62Z" transform="translate(0 -154.901)" fill="#fff"/>
      <path id="Path_1763" data-name="Path 1763" d="M16.273,271.388c.249,0,.5-.011.74-.031a17.56,17.56,0,0,1-4.594-6.465,11.7,11.7,0,0,1-4.928-3.342v1.056A8.782,8.782,0,0,0,16.273,271.388Z" transform="translate(-0.001 -236.447)" fill="#fff"/>
      <path id="Path_1764" data-name="Path 1764" d="M16.273,356.4a11.638,11.638,0,0,1-8.782-4v1.056a8.783,8.783,0,0,0,16.67,3.864,17.369,17.369,0,0,1-3.983-1.6A11.6,11.6,0,0,1,16.273,356.4Z" transform="translate(-0.001 -318.58)" fill="#fff"/>
      <path id="Path_1765" data-name="Path 1765" d="M11.971,16.439A17.555,17.555,0,0,1,24.162,4.92,8.783,8.783,0,1,0,11.971,16.439Z" transform="translate(-0.001)" fill="#fff"/>
      <path id="Path_1766" data-name="Path 1766" d="M407.178,174.229a17.5,17.5,0,0,1-.06,5.391,8.773,8.773,0,0,0,3.868-7.279v-.994A11.729,11.729,0,0,1,407.178,174.229Z" transform="translate(-361.272 -154.901)" fill="#fff"/>
      <path id="Path_1767" data-name="Path 1767" d="M352.8,264.894a17.561,17.561,0,0,1-4.594,6.465c.244.02.491.031.74.031a8.782,8.782,0,0,0,8.782-8.782v-1.056A11.7,11.7,0,0,1,352.8,264.894Z" transform="translate(-308.011 -236.449)" fill="#fff"/>
      <path id="Path_1768" data-name="Path 1768" d="M281.618,356.4a11.606,11.606,0,0,1-3.9-.674,17.368,17.368,0,0,1-3.983,1.6,8.783,8.783,0,0,0,16.67-3.864V352.4A11.637,11.637,0,0,1,281.618,356.4Z" transform="translate(-240.687 -318.578)" fill="#fff"/>
      <path id="Path_1769" data-name="Path 1769" d="M285.913,16.439A8.783,8.783,0,1,0,273.722,4.92,17.555,17.555,0,0,1,285.913,16.439Z" transform="translate(-240.68 0)" fill="#fff"/>
      <path id="Path_1770" data-name="Path 1770" d="M199.4,160.886a2.31,2.31,0,0,0,1.253,2.313v-4.586A2.692,2.692,0,0,0,199.4,160.886Z" transform="translate(-173.491 -143.389)" fill="#fff"/>
      <path id="Path_1771" data-name="Path 1771" d="M242.453,253.115a2.692,2.692,0,0,0,1.253-2.274,2.31,2.31,0,0,0-1.253-2.313Z" transform="translate(-212.412 -224.676)" fill="#fff"/>
      <path id="Path_1772" data-name="Path 1772" d="M104.5,89.9a14.6,14.6,0,1,0-14.6,14.6A14.6,14.6,0,0,0,104.5,89.9Zm-12.925-.979a5.23,5.23,0,0,1,3.892,5.314,5.581,5.581,0,0,1-4.132,5.382v1.207H88.456V99.621a5.581,5.581,0,0,1-4.132-5.382H87.2a2.692,2.692,0,0,0,1.253,2.274V90.959l-.24-.076a5.23,5.23,0,0,1-3.892-5.314,5.581,5.581,0,0,1,4.132-5.382V78.98h2.879v1.207a5.581,5.581,0,0,1,4.132,5.382H92.588A2.692,2.692,0,0,0,91.335,83.3v5.553Z" transform="translate(-61.294 -68.073)" fill="#fff"/>
    </g>
  </g>
</svg>
