<svg xmlns="http://www.w3.org/2000/svg" xmlns:xlink="http://www.w3.org/1999/xlink" width="435.957" height="144" viewBox="0 0 435.957 144">
  <defs>
    <linearGradient id="linear-gradient" x1="1.855" y1="0.419" x2="1.099" y2="0.462" gradientUnits="objectBoundingBox">
      <stop offset="0" stop-color="#53cd9f"/>
      <stop offset="1" stop-color="#0d7a5c"/>
    </linearGradient>
    <linearGradient id="linear-gradient-2" x1="0" y1="0.5" x2="1" y2="0.5" xlink:href="#linear-gradient"/>
    <linearGradient id="linear-gradient-3" x1="1.439" y1="0.373" x2="0.808" y2="0.465" xlink:href="#linear-gradient"/>
    <linearGradient id="linear-gradient-5" y1="0.5" x2="1" y2="0.5" gradientUnits="objectBoundingBox">
      <stop offset="0" stop-color="#c9cd55"/>
      <stop offset="0.507" stop-color="#659c52"/>
      <stop offset="1" stop-color="#287f50"/>
    </linearGradient>
    <linearGradient id="linear-gradient-6" y1="0.5" x2="1" y2="0.5" gradientUnits="objectBoundingBox">
      <stop offset="0" stop-color="#c7a44f"/>
      <stop offset="1" stop-color="#609a3f"/>
    </linearGradient>
    <linearGradient id="linear-gradient-8" x1="0" y1="0.5" x2="1" y2="0.5" xlink:href="#linear-gradient-5"/>
    <linearGradient id="linear-gradient-10" x1="0.443" y1="0.073" x2="0.644" y2="1.724" xlink:href="#linear-gradient-5"/>
    <linearGradient id="linear-gradient-11" x1="0.609" y1="1.64" x2="0.538" y2="0.894" xlink:href="#linear-gradient-5"/>
    <linearGradient id="linear-gradient-12" x1="0.674" y1="4.652" x2="0.583" y2="2.471" xlink:href="#linear-gradient-5"/>
    <linearGradient id="linear-gradient-14" x1="0.45" y1="-0.323" x2="0.644" y2="1.962" xlink:href="#linear-gradient-5"/>
    <linearGradient id="linear-gradient-15" x1="0.573" y1="1.282" x2="0.504" y2="0.529" xlink:href="#linear-gradient-5"/>
    <linearGradient id="linear-gradient-16" y1="0.5" x2="1" y2="0.5" gradientUnits="objectBoundingBox">
      <stop offset="0" stop-color="#00503e"/>
      <stop offset="1" stop-color="#023222"/>
    </linearGradient>
    <linearGradient id="linear-gradient-25" x1="0.802" y1="1.755" x2="0.532" y2="0.713" xlink:href="#linear-gradient-5"/>
    <linearGradient id="linear-gradient-26" x1="1.124" y1="-3.918" x2="-0.157" y2="4.927" xlink:href="#linear-gradient"/>
    <linearGradient id="linear-gradient-27" x1="0.243" y1="-2.95" x2="0.921" y2="5.857" gradientUnits="objectBoundingBox">
      <stop offset="0" stop-color="#fb9a2b"/>
      <stop offset="1" stop-color="#e65925"/>
    </linearGradient>
    <linearGradient id="linear-gradient-28" x1="1.113" y1="-3.846" x2="-0.167" y2="4.999" xlink:href="#linear-gradient"/>
    <linearGradient id="linear-gradient-29" x1="0.254" y1="-2.805" x2="0.932" y2="6.002" xlink:href="#linear-gradient-27"/>
    <linearGradient id="linear-gradient-36" x1="0" y1="0.5" x2="1" y2="0.5" xlink:href="#linear-gradient-27"/>
    <linearGradient id="linear-gradient-42" x1="1.704" y1="-0.095" x2="0.187" y2="0.657" xlink:href="#linear-gradient"/>
    <linearGradient id="linear-gradient-44" x1="-0.768" y1="1.492" x2="0.232" y2="0.773" xlink:href="#linear-gradient"/>
    <linearGradient id="linear-gradient-50" x1="0.529" y1="1.707" x2="0.507" y2="0.805" xlink:href="#linear-gradient"/>
    <linearGradient id="linear-gradient-51" x1="2.626" y1="-0.525" x2="1.482" y2="0.048" xlink:href="#linear-gradient"/>
    <linearGradient id="linear-gradient-52" x1="-0.104" y1="1.34" x2="0.425" y2="0.593" xlink:href="#linear-gradient-16"/>
    <linearGradient id="linear-gradient-55" x1="-0.146" y1="0.272" x2="1.452" y2="0.949" xlink:href="#linear-gradient-16"/>
    <linearGradient id="linear-gradient-58" x1="0.771" y1="-4.149" x2="0.153" y2="6.448" xlink:href="#linear-gradient"/>
    <linearGradient id="linear-gradient-59" x1="1.7" y1="-3.619" x2="-0.398" y2="3.375" xlink:href="#linear-gradient"/>
    <linearGradient id="linear-gradient-61" x1="0.107" y1="-5.871" x2="0.644" y2="2.551" xlink:href="#linear-gradient-27"/>
  </defs>
  <g id="Group_1525" data-name="Group 1525" transform="translate(-547.043 -428)">
    <path id="Subtraction_3" data-name="Subtraction 3" d="M846.547,202.58H446.59c33.389-26.458,62.457-54.405,86.4-83.067,9.457-11.323,18.134-22.794,25.789-34.095,6.169-9.107,11.7-18.136,16.44-26.838H846.547a9.01,9.01,0,0,1,9,9v126A9.01,9.01,0,0,1,846.547,202.58Z" transform="translate(100.453 369.42)" fill="#b9efd4" opacity="0.827"/>
    <path id="Subtraction_4" data-name="Subtraction 4" d="M846.547,202.58H440.484c29.66-25.658,54.774-52.952,74.643-81.126a340.907,340.907,0,0,0,21.451-34.5A276.136,276.136,0,0,0,549.922,58.58H846.547a9.01,9.01,0,0,1,9,9v126A9.01,9.01,0,0,1,846.547,202.58Z" transform="translate(127.453 369.42)" fill="#b9efd4"/>
    <g id="Group_1432" data-name="Group 1432" transform="translate(-543.475 -58.515)">
      <g id="Group_1368" data-name="Group 1368" transform="translate(1349.345 546.268)">
        <g id="Group_1362" data-name="Group 1362" transform="translate(0 27.286)">
          <path id="Path_1450" data-name="Path 1450" d="M2155.717,1280.855a56.708,56.708,0,0,1,4-21.682l-.424-.226a57.306,57.306,0,0,0-4.038,21.909Z" transform="translate(-2155.239 -1258.929)" fill="#b7d972"/>
          <path id="Path_1451" data-name="Path 1451" d="M2155.634,1280.735h-.489v-.012a57.435,57.435,0,0,1,4.039-21.913l0-.012.445.238,0,.01a56.822,56.822,0,0,0-4,21.678Zm-.466-.024h.442a56.832,56.832,0,0,1,3.993-21.665l-.4-.215A57.414,57.414,0,0,0,2155.169,1280.711Z" transform="translate(-2155.145 -1258.798)" fill="#b7d972"/>
        </g>
        <g id="Group_1363" data-name="Group 1363" transform="translate(34.282)">
          <path id="Path_1452" data-name="Path 1452" d="M2459.562,1018.574a45.882,45.882,0,0,1,17.972-.691q.038-.251.076-.5a46.362,46.362,0,0,0-18.159.7Z" transform="translate(-2459.436 -1016.786)" fill="#b7d972"/>
          <path id="Path_1453" data-name="Path 1453" d="M2459.441,1018.495l-.117-.518.011,0a46.384,46.384,0,0,1,18.164-.7l.012,0-.08.526-.012,0a45.879,45.879,0,0,0-17.967.691Zm-.088-.5.106.472a45.906,45.906,0,0,1,17.953-.69l.072-.478a46.355,46.355,0,0,0-18.131.7Z" transform="translate(-2459.324 -1016.692)" fill="#b7d972"/>
        </g>
        <g id="Group_1364" data-name="Group 1364" transform="translate(57.791 1.808)">
          <path id="Path_1454" data-name="Path 1454" d="M2668.036,1033.354a43.077,43.077,0,0,1,16.471,8.971l.3-.4a43.528,43.528,0,0,0-16.643-9.065C2668.124,1033.028,2668.08,1033.191,2668.036,1033.354Z" transform="translate(-2668.021 -1032.85)" fill="#b7d972"/>
          <path id="Path_1455" data-name="Path 1455" d="M2684.394,1042.227l-.01-.009a42.8,42.8,0,0,0-16.467-8.969l-.011,0,.138-.512.012,0a44.444,44.444,0,0,1,8.757,3.581,42.915,42.915,0,0,1,7.89,5.487l.008.007Zm-16.459-9a44,44,0,0,1,8.656,3.541,42.467,42.467,0,0,1,7.8,5.422l.29-.377a43.246,43.246,0,0,0-16.619-9.052Z" transform="translate(-2667.906 -1032.734)" fill="#b7d972"/>
        </g>
        <g id="Group_1365" data-name="Group 1365" transform="translate(76.697 13.213)">
          <path id="Path_1456" data-name="Path 1456" d="M2835.8,1134.455a43.538,43.538,0,0,1,8.508,12.658l.418-.24a44,44,0,0,0-8.6-12.79Z" transform="translate(-2835.786 -1134.065)" fill="#b7d972"/>
          <path id="Path_1457" data-name="Path 1457" d="M2844.175,1146.991l-.005-.012a43.581,43.581,0,0,0-8.505-12.655l-.008-.008.087-.1.259-.292.009.009a44.053,44.053,0,0,1,8.6,12.794l0,.01Zm-8.486-12.675a43.6,43.6,0,0,1,8.5,12.641l.4-.228a44.017,44.017,0,0,0-8.58-12.767Z" transform="translate(-2835.657 -1133.927)" fill="#b7d972"/>
        </g>
        <g id="Group_1366" data-name="Group 1366" transform="translate(88.056 34.447)">
          <path id="Path_1458" data-name="Path 1458" d="M2937.015,1322.469l-.448.152a60.952,60.952,0,0,1,1.691,14.6h.466A61.594,61.594,0,0,0,2937.015,1322.469Z" transform="translate(-2936.553 -1322.454)" fill="#b7d972"/>
          <path id="Path_1459" data-name="Path 1459" d="M2938.134,1337.109v-.012a61.152,61.152,0,0,0-1.69-14.594l0-.011.47-.16,0,.012a61.849,61.849,0,0,1,1.709,14.752v.012Zm-1.665-14.6a61.224,61.224,0,0,1,1.689,14.577h.441a61.834,61.834,0,0,0-1.705-14.722Z" transform="translate(-2936.441 -1322.332)" fill="#b7d972"/>
        </g>
        <g id="Group_1367" data-name="Group 1367" transform="translate(7.073 6.833)">
          <path id="Path_1460" data-name="Path 1460" d="M2218.435,1092.124a42.273,42.273,0,0,1,13.836-14.217l-.248-.437a42.714,42.714,0,0,0-13.98,14.365Z" transform="translate(-2218.026 -1077.453)" fill="#b7d972"/>
          <path id="Path_1461" data-name="Path 1461" d="M2218.314,1092.009l-.412-.3.006-.009a43.333,43.333,0,0,1,6.292-8.174,42.658,42.658,0,0,1,7.692-6.194l.01-.007.26.458-.01.006A42.1,42.1,0,0,0,2218.321,1092Zm-.38-.31.373.275a42.888,42.888,0,0,1,6.22-8.079,42.208,42.208,0,0,1,7.6-6.125l-.237-.417A42.536,42.536,0,0,0,2217.934,1091.7Z" transform="translate(-2217.902 -1077.321)" fill="#b7d972"/>
        </g>
      </g>
      <g id="Group_1373" data-name="Group 1373" transform="translate(1355.861 569.822)">
        <g id="Group_1370" data-name="Group 1370" transform="translate(0 0)">
          <g id="Group_1369" data-name="Group 1369" transform="translate(1.748)">
            <path id="Path_1462" data-name="Path 1462" d="M2228.82,1283.411s24.352-12.007,28.54-18.27-1.968-6.617-1.968-6.617,10.867-10.569,9.338-15.019-7.234-.2-7.234-.2,7.063-15.726,3.769-17.29c-6.137-2.912-14.746,13.824-14.746,13.824s1.85-7.271-2.376-7.034c-6.373.356-6.11,16.8-6.11,16.8s-.72-6.306-4.561-4.258C2226.58,1249.028,2228.82,1283.411,2228.82,1283.411Z" transform="translate(-2228.472 -1225.678)" fill="url(#linear-gradient)"/>
          </g>
          <path id="Path_1463" data-name="Path 1463" d="M2218.325,1242.809a5.6,5.6,0,0,1,5.222-.285s.462-9.359,6.835-9.716c4.226-.236,2.376,7.034,2.376,7.034s8.609-16.736,14.746-13.824l-32.473,57.126C2214.8,1279.155,2208.82,1247.675,2218.325,1242.809Z" transform="translate(-2212.964 -1225.678)" fill="url(#linear-gradient-2)"/>
        </g>
        <g id="Group_1372" data-name="Group 1372" transform="translate(8.216 30.721)">
          <g id="Group_1371" data-name="Group 1371" transform="translate(0.06 1.873)">
            <path id="Path_1464" data-name="Path 1464" d="M2286.4,1540.494s20.35,2.906,25.507.7,1.029-5.36,1.029-5.36,11.073-2.177,11.927-5.573-4.432-3.063-4.432-3.063,10.8-6.938,9.376-9.253c-2.645-4.31-14.815,2.63-14.815,2.63s4.108-3.783,1.376-5.353c-4.12-2.367-10.639,8-10.639,8s.405-2.555-2.823-2.838C2297.11,1519.876,2286.4,1540.494,2286.4,1540.494Z" transform="translate(-2286.395 -1514.873)" fill="url(#linear-gradient-3)"/>
          </g>
          <path id="Path_1465" data-name="Path 1465" d="M2300.465,1502.7c3.228.283,4.784,5.781,4.784,5.781s6.636-12.286,10.756-9.919c2.732,1.57-.5,6.725-.5,6.725s11.176-6.392,13.821-2.082l-43.467,22.436C2287.337,1523.057,2295.054,1502.221,2300.465,1502.7Z" transform="translate(-2285.859 -1498.255)" fill="url(#linear-gradient-2)"/>
        </g>
      </g>
      <g id="Group_1374" data-name="Group 1374" transform="translate(1310.856 521.809)">
        <path id="Path_1466" data-name="Path 1466" d="M1813.989,866.271h36.618c-1.354-12.476,2.073-23.169,8.945-31.076,6.83-7.907,17.105-13.029,28.486-14.364a49.11,49.11,0,0,1,33.993,8.356c10.168,7.24,18.1,19.267,19.454,37.083h4.577c1.354-19.342-4.648-35.184-15.382-46.524-10.692-11.34-26.117-18.178-42.647-19.513-16.489-1.335-34.083,2.833-48.154,13.505C1825.85,824.412,1815.343,841.589,1813.989,866.271Z" transform="translate(-1813.951 -799.957)" fill="#b7d972"/>
        <path id="Path_1467" data-name="Path 1467" d="M1945.794,866.021h-4.645l0-.034c-1.542-20.285-11.422-31.348-19.439-37.056a48.105,48.105,0,0,0-28.027-8.7,51.015,51.015,0,0,0-5.94.347c-11.528,1.352-21.637,6.449-28.463,14.351-7.157,8.235-10.247,18.971-8.936,31.048l0,.04h-36.7l0-.038c1.554-28.335,14.945-44.221,25.906-52.559a66.525,66.525,0,0,1,20.237-10.4,72.8,72.8,0,0,1,21.963-3.353c1.99,0,4,.081,5.978.241a70.462,70.462,0,0,1,23.525,6.008,60.406,60.406,0,0,1,19.146,13.517,55.419,55.419,0,0,1,12.232,20.274,66.361,66.361,0,0,1,3.16,26.277Zm-4.578-.073h4.51c1.281-18.417-4.035-34.483-15.374-46.462-10.569-11.21-25.706-18.135-42.623-19.5-1.976-.16-3.985-.241-5.973-.241a69.993,69.993,0,0,0-42.157,13.739c-10.943,8.324-24.313,24.182-25.875,52.466h36.539a43.855,43.855,0,0,1,1.393-17.225,36.923,36.923,0,0,1,7.565-13.838,40.424,40.424,0,0,1,12.547-9.655,47.806,47.806,0,0,1,15.961-4.721,51.093,51.093,0,0,1,5.949-.348,50.3,50.3,0,0,1,14.473,2.106,46.6,46.6,0,0,1,13.6,6.6C1929.775,834.586,1939.665,845.656,1941.217,865.948Z" transform="translate(-1813.648 -799.67)" fill="#9bc1f9"/>
      </g>
      <g id="Group_1376" data-name="Group 1376" transform="translate(1312.921 569.592)">
        <path id="Path_1468" data-name="Path 1468" d="M1856.466,1241.919a8.253,8.253,0,1,1-6.218-9.877A8.253,8.253,0,0,1,1856.466,1241.919Z" transform="translate(-1839.24 -1230.911)" fill="#edfdfc"/>
        <circle id="Ellipse_388" data-name="Ellipse 388" cx="6.925" cy="6.925" r="6.925" transform="translate(0 5.762) rotate(-24.581)" fill="url(#linear-gradient-5)"/>
        <g id="Group_1375" data-name="Group 1375" transform="translate(5.484 4.719)">
          <path id="Path_1469" data-name="Path 1469" d="M1881.243,1273.829l.625-.972a5.626,5.626,0,0,1-1.085-1.006.7.7,0,0,1,.067-.96l.033-.03a.7.7,0,0,1,1.028.075,4.1,4.1,0,0,0,.987.905c.584.375,1.128.407,1.391,0,.25-.389.08-.845-.513-1.588-.858-1.073-1.277-2.065-.638-3.058a2.249,2.249,0,0,1,2.9-.71l.625-.972,1,.645-.579.9a5.185,5.185,0,0,1,.847.735.7.7,0,0,1-.044.987h0a.7.7,0,0,1-1.01-.054,3.742,3.742,0,0,0-.817-.706c-.665-.428-1.065-.279-1.249.007-.217.338,0,.783.662,1.67.942,1.213,1.071,2.092.479,3.013a2.332,2.332,0,0,1-3.04.722l-.671,1.044Z" transform="translate(-1880.625 -1265.509)" fill="#edfdfc"/>
        </g>
      </g>
      <path id="Path_1470" data-name="Path 1470" d="M2906.078,1343.615l6.17-16.562-6.3,3.261-7.414-3.261Z" transform="translate(-1465.405 -745.805)" fill="#b7d972"/>
      <g id="Group_1377" data-name="Group 1377" transform="translate(1387.71 602.89)">
        <path id="Path_1471" data-name="Path 1471" d="M2522.348,1573.922h-21.384a1.51,1.51,0,0,1-1.554-1.463h0a1.51,1.51,0,0,1,1.554-1.463h21.384a1.51,1.51,0,0,1,1.553,1.463h0A1.51,1.51,0,0,1,2522.348,1573.922Z" transform="translate(-2498.975 -1565.146)" fill="url(#linear-gradient-6)"/>
        <path id="Path_1472" data-name="Path 1472" d="M2518.583,1547.965h-21.566a1.463,1.463,0,0,1-1.463-1.463h0a1.463,1.463,0,0,1,1.463-1.463h21.566a1.463,1.463,0,0,1,1.463,1.463h0A1.463,1.463,0,0,1,2518.583,1547.965Z" transform="translate(-2495.554 -1542.114)" fill="#edfdfc"/>
        <path id="Path_1473" data-name="Path 1473" d="M2540.756,1522.008h-21.385a1.51,1.51,0,0,1-1.553-1.463h0a1.51,1.51,0,0,1,1.553-1.463h21.385a1.51,1.51,0,0,1,1.554,1.463h0A1.51,1.51,0,0,1,2540.756,1522.008Z" transform="translate(-2515.309 -1519.082)" fill="url(#linear-gradient-6)"/>
      </g>
      <g id="Group_1390" data-name="Group 1390" transform="translate(1263.629 570.862)">
        <rect id="Rectangle_131" data-name="Rectangle 131" width="80.222" height="8.397" transform="translate(35.806 24.276)" fill="#f47257"/>
        <g id="Group_1379" data-name="Group 1379" transform="translate(36.778 10.385)">
          <path id="Path_1474" data-name="Path 1474" d="M1778.845,1370.665a154.912,154.912,0,0,0-57.912-17.352q1.121-13.13,2.242-26.259a179.109,179.109,0,0,1,66.959,20.063Z" transform="translate(-1720.933 -1327.053)" fill="url(#linear-gradient-8)"/>
          <path id="Path_1475" data-name="Path 1475" d="M1736.711,1364.017l1.528-16.377a3.755,3.755,0,0,0,4.25-3.112,177.812,177.812,0,0,1,56.142,16.822,3.992,3.992,0,0,0,2.047,5l-6.931,14.758a3.333,3.333,0,0,0-4.626,1.635,156.151,156.151,0,0,0-49.3-14.772A3.533,3.533,0,0,0,1736.711,1364.017Z" transform="translate(-1734.933 -1342.558)" fill="#b7d972"/>
          <g id="Group_1378" data-name="Group 1378" transform="translate(8.875 10.212)">
            <path id="Path_1476" data-name="Path 1476" d="M1964.282,1429.807a9.09,9.09,0,0,1-11.323,5.654,9.7,9.7,0,0,1-6.608-11.189c1.045-4.867,6.219-7.784,11.464-6.162S1965.911,1425.12,1964.282,1429.807Z" transform="translate(-1929.635 -1417.659)" fill="#50bfa5"/>
            <path id="Path_1477" data-name="Path 1477" d="M1990.638,1454.747q.2-.786.391-1.573a8.511,8.511,0,0,1-1.9-.89,1.015,1.015,0,0,1-.366-1.317l.029-.055a.975.975,0,0,1,1.406-.343,6.263,6.263,0,0,0,1.743.807c.952.266,1.7.094,1.87-.566.163-.626-.271-1.183-1.424-1.947-1.667-1.1-2.73-2.249-2.363-3.864.332-1.463,1.682-2.338,3.649-2.166l.386-1.574q.868.24,1.733.49l-.371,1.454a8.014,8.014,0,0,1,1.539.686,1.01,1.01,0,0,1,.4,1.37h0a1.024,1.024,0,0,1-1.431.3,5.716,5.716,0,0,0-1.469-.647c-1.129-.321-1.608.046-1.721.509-.134.548.388,1.057,1.708,2.005,1.857,1.286,2.413,2.449,2.005,3.925s-1.793,2.382-3.775,2.164l-.436,1.684Q1991.442,1454.969,1990.638,1454.747Z" transform="translate(-1967.353 -1438.598)" fill="#3c8f7c"/>
            <path id="Path_1478" data-name="Path 1478" d="M1813.634,1434.392q-6.916-1.6-13.954-2.6.162-1.263.325-2.525,7.131,1.013,14.15,2.633Z" transform="translate(-1799.68 -1427.961)" fill="#50bfa5"/>
            <path id="Path_1479" data-name="Path 1479" d="M2139.464,1524.079q-6.436-3.148-13.086-5.728l.841-2.39q6.738,2.614,13.269,5.807Z" transform="translate(-2089.558 -1504.883)" fill="#50bfa5"/>
          </g>
        </g>
        <g id="Group_1381" data-name="Group 1381" transform="translate(38.564)">
          <path id="Path_1480" data-name="Path 1480" d="M1802.093,1260.809a139.886,139.886,0,0,0-52.383,23.032l-12.925-22.3a161.747,161.747,0,0,1,60.567-26.63Z" transform="translate(-1736.784 -1234.908)" fill="url(#linear-gradient-8)"/>
          <path id="Path_1481" data-name="Path 1481" d="M1776.752,1298.487l-7.965-13.992a4.114,4.114,0,0,0,1.409-5.177,160.53,160.53,0,0,1,50.782-22.327,3.547,3.547,0,0,0,4.286,2.672l3.078,16.141a3.513,3.513,0,0,0-2.507,4.242,140.965,140.965,0,0,0-44.594,19.607A3.046,3.046,0,0,0,1776.752,1298.487Z" transform="translate(-1765.18 -1254.502)" fill="url(#linear-gradient-10)"/>
          <g id="Group_1380" data-name="Group 1380" transform="translate(11.533 11.568)">
            <path id="Path_1482" data-name="Path 1482" d="M1983.408,1349.448a9.8,9.8,0,0,1-5.219,11.7,8.42,8.42,0,0,1-11.091-4.694,9.455,9.455,0,0,1,5.041-12.189A8.174,8.174,0,0,1,1983.408,1349.448Z" transform="translate(-1952.055 -1342.861)" fill="url(#linear-gradient-11)"/>
            <path id="Path_1483" data-name="Path 1483" d="M2014.645,1381.165l-.585-1.5a7.408,7.408,0,0,1-1.9.5.922.922,0,0,1-1-.815c0-.021-.006-.042-.009-.062a1.008,1.008,0,0,1,.848-1.167,5.451,5.451,0,0,0,1.734-.467c.851-.394,1.306-1,1.066-1.639-.228-.6-.857-.768-2.132-.643-1.841.185-3.264-.052-3.89-1.57a3.356,3.356,0,0,1,1.491-4.042l-.589-1.5q.774-.361,1.551-.713l.533,1.392a6.989,6.989,0,0,1,1.517-.434.917.917,0,0,1,1.057.834h0a1.055,1.055,0,0,1-.888,1.151,5,5,0,0,0-1.444.419c-1.011.463-1.162,1.059-.988,1.5.205.521.874.594,2.374.508,2.085-.159,3.141.412,3.66,1.845a3.505,3.505,0,0,1-1.585,4.121l.614,1.616Q2015.362,1380.831,2014.645,1381.165Z" transform="translate(-1989.457 -1364.172)" fill="#edfdfc"/>
            <path id="Path_1484" data-name="Path 1484" d="M1852.017,1454.241q-5.991,3.129-11.742,6.809l-1.162-2.214q5.826-3.729,11.907-6.9Z" transform="translate(-1839.113 -1439.041)" fill="#50bfa5"/>
            <path id="Path_1485" data-name="Path 1485" d="M2145.328,1340.038q-6.5,1.591-12.84,3.768l-.706-2.435q6.424-2.206,13.02-3.821Z" transform="translate(-2098.797 -1337.551)" fill="url(#linear-gradient-12)"/>
          </g>
        </g>
        <g id="Group_1383" data-name="Group 1383" transform="translate(41.209 13.646)">
          <path id="Path_1486" data-name="Path 1486" d="M1825.163,1382.607a141.951,141.951,0,0,0-57.294,8.4l-7.618-25.013a164.127,164.127,0,0,1,66.244-9.709Q1825.829,1369.445,1825.163,1382.607Z" transform="translate(-1760.251 -1355.984)" fill="url(#linear-gradient-8)"/>
          <path id="Path_1487" data-name="Path 1487" d="M1789.662,1396.708l-4.637-15.654a3.96,3.96,0,0,0,2.6-4.636,162.888,162.888,0,0,1,55.542-8.14A3.744,3.744,0,0,0,1846.8,1372q-.354,8.218-.708,16.437a3.4,3.4,0,0,0-3.473,3.44,143.04,143.04,0,0,0-48.774,7.149A3.22,3.22,0,0,0,1789.662,1396.708Z" transform="translate(-1782.233 -1366.836)" fill="url(#linear-gradient-14)"/>
          <g id="Group_1382" data-name="Group 1382" transform="translate(10.33 5.083)">
            <path id="Path_1488" data-name="Path 1488" d="M2013.837,1409.181a9.428,9.428,0,0,1-7.9,9.935,8.924,8.924,0,0,1-9.9-7.484,9.111,9.111,0,0,1,7.837-10.459A8.643,8.643,0,0,1,2013.837,1409.181Z" transform="translate(-1979.679 -1401.085)" fill="url(#linear-gradient-15)"/>
            <path id="Path_1489" data-name="Path 1489" d="M2046.643,1436.939q-.115-.8-.23-1.605a7.638,7.638,0,0,1-2-.018.968.968,0,0,1-.8-1.054l.005-.063a.98.98,0,0,1,1.112-.9,5.629,5.629,0,0,0,1.828.008c.936-.155,1.528-.626,1.439-1.3-.085-.642-.67-.97-1.964-1.187-1.868-.31-3.224-.916-3.49-2.551-.242-1.48.626-2.849,2.42-3.517l-.235-1.6q.851-.144,1.7-.278l.2,1.489a7.2,7.2,0,0,1,1.605-.018.962.962,0,0,1,.853,1.087h0a1.025,1.025,0,0,1-1.148.878,5.151,5.151,0,0,0-1.529.023c-1.111.18-1.4.717-1.328,1.189.082.559.728.806,2.235,1.121,2.1.4,3.018,1.232,3.2,2.756a3.369,3.369,0,0,1-2.531,3.568q.116.863.232,1.726Q2047.432,1436.805,2046.643,1436.939Z" transform="translate(-2021.021 -1420.406)" fill="#edfdfc"/>
            <path id="Path_1490" data-name="Path 1490" d="M1865.769,1483.8q-6.669,1.439-13.226,3.475l-.636-2.451q6.644-2.064,13.412-3.524Z" transform="translate(-1851.907 -1472.26)" fill="#50bfa5"/>
            <path id="Path_1491" data-name="Path 1491" d="M2188.792,1452.946q-6.813-.184-13.606.241-.067-1.272-.133-2.544,6.883-.431,13.8-.245Q2188.821,1451.672,2188.792,1452.946Z" transform="translate(-2138.633 -1444.791)" fill="#50bfa5"/>
          </g>
        </g>
        <rect id="Rectangle_132" data-name="Rectangle 132" width="80.222" height="35.306" transform="translate(35.806 24.276)" fill="url(#linear-gradient-16)"/>
        <rect id="Rectangle_133" data-name="Rectangle 133" width="73.027" height="2.742" transform="translate(38.762 26.014)" fill="#847d3d"/>
        <rect id="Rectangle_134" data-name="Rectangle 134" width="34.05" height="0.91" transform="translate(39.689 33.29)" fill="#847d3d"/>
        <g id="Group_1385" data-name="Group 1385" transform="translate(92.8 36.514)">
          <path id="Path_1492" data-name="Path 1492" d="M2231.8,1562.113a7.583,7.583,0,1,1-10.564-1.851A7.583,7.583,0,0,1,2231.8,1562.113Z" transform="translate(-2218.005 -1558.885)" fill="#edfdfc"/>
          <path id="Path_1493" data-name="Path 1493" d="M2240.4,1572.418a6.363,6.363,0,1,1-8.864-1.553A6.363,6.363,0,0,1,2240.4,1572.418Z" transform="translate(-2227.61 -1568.49)" fill="url(#linear-gradient-8)"/>
          <g id="Group_1384" data-name="Group 1384" transform="translate(4.894 2.951)">
            <path id="Path_1494" data-name="Path 1494" d="M2264.854,1594.177l-.277-1.026a5.158,5.158,0,0,1-1.355.119.646.646,0,0,1-.613-.637v-.041a.645.645,0,0,1,.685-.654,3.763,3.763,0,0,0,1.226-.115c.615-.167.972-.518.855-.95-.111-.41-.526-.576-1.4-.63-1.26-.076-2.194-.4-2.477-1.45a2.067,2.067,0,0,1,1.3-2.415l-.277-1.025,1.058-.286.257.95a4.763,4.763,0,0,1,1.023-.124.645.645,0,0,1,.646.638h0a.646.646,0,0,1-.659.655,3.43,3.43,0,0,0-.985.122c-.7.19-.846.553-.765.855.1.356.535.481,1.546.578,1.407.106,2.086.56,2.348,1.531a2.142,2.142,0,0,1-1.381,2.517l.3,1.1Z" transform="translate(-2261.43 -1585.068)" fill="#fff"/>
          </g>
        </g>
        <g id="Group_1387" data-name="Group 1387" transform="translate(78.062 27.021)">
          <circle id="Ellipse_389" data-name="Ellipse 389" cx="7.583" cy="7.583" r="7.583" fill="#edfdfc"/>
          <circle id="Ellipse_390" data-name="Ellipse 390" cx="6.363" cy="6.363" r="6.363" transform="translate(1.22 1.22)" fill="url(#linear-gradient-8)"/>
          <g id="Group_1386" data-name="Group 1386" transform="translate(4.55 3.11)">
            <path id="Path_1495" data-name="Path 1495" d="M2128.675,1510.806l.362-1a5.151,5.151,0,0,1-1.177-.681.646.646,0,0,1-.135-.874l.023-.034a.645.645,0,0,1,.936-.142,3.763,3.763,0,0,0,1.069.61c.6.217,1.093.135,1.245-.286.145-.4-.1-.774-.782-1.319-.988-.786-1.565-1.59-1.2-2.61a2.067,2.067,0,0,1,2.455-1.227l.362-1,1.03.374-.335.925a4.763,4.763,0,0,1,.909.486.646.646,0,0,1,.162.893h0a.646.646,0,0,1-.916.157,3.439,3.439,0,0,0-.876-.466c-.683-.248-1.01-.033-1.117.261-.126.347.162.7.934,1.361,1.091.9,1.386,1.656,1.043,2.6a2.143,2.143,0,0,1-2.576,1.266l-.389,1.072Z" transform="translate(-2127.612 -1502.247)" fill="#edfdfc"/>
          </g>
        </g>
        <rect id="Rectangle_135" data-name="Rectangle 135" width="34.345" height="18.407" transform="translate(77.444 38.977)" fill="#847d3d"/>
        <path id="Path_1496" data-name="Path 1496" d="M2235.006,1669.076h-19.851a1.813,1.813,0,0,0-1.594,1.971h0a1.813,1.813,0,0,0,1.594,1.971h-2.574a1.813,1.813,0,0,0-1.594,1.972h0a1.813,1.813,0,0,0,1.594,1.971h.446a1.813,1.813,0,0,0-1.594,1.971,2.365,2.365,0,0,0,.134.792h23.438Z" transform="translate(-2118.979 -1620.143)" fill="url(#linear-gradient-16)"/>
        <g id="Group_1389" data-name="Group 1389" transform="translate(0 58.358)">
          <g id="Group_1388" data-name="Group 1388">
            <path id="Path_1497" data-name="Path 1497" d="M1394.615,1753.349h0c0,.357.4.647.892.647h222.422c.493,0,.892-.29.892-.647h0c0-.358-.4-.647-.892-.647H1395.507C1395.014,1752.7,1394.615,1752.992,1394.615,1753.349Z" transform="translate(-1394.615 -1752.702)" fill="url(#linear-gradient-2)"/>
          </g>
        </g>
        <path id="Path_1498" data-name="Path 1498" d="M2252.771,1729.253h-20.5a1.489,1.489,0,0,1-1.49-1.489h0a1.489,1.489,0,0,1,1.49-1.489h20.5a1.489,1.489,0,0,1,1.489,1.489h0A1.489,1.489,0,0,1,2252.771,1729.253Z" transform="translate(-2136.542 -1670.895)" fill="url(#linear-gradient-6)"/>
        <path id="Path_1499" data-name="Path 1499" d="M2249.074,1702.824h-20.5a1.489,1.489,0,0,1-1.489-1.489h0a1.489,1.489,0,0,1,1.489-1.489h20.5a1.489,1.489,0,0,1,1.489,1.489h0A1.489,1.489,0,0,1,2249.074,1702.824Z" transform="translate(-2133.262 -1647.444)" fill="#edfdfc"/>
        <path id="Path_1500" data-name="Path 1500" d="M2270.416,1676.4h-20.5a1.489,1.489,0,0,1-1.489-1.489h0a1.489,1.489,0,0,1,1.489-1.489h20.5a1.489,1.489,0,0,1,1.489,1.489h0A1.489,1.489,0,0,1,2270.416,1676.4Z" transform="translate(-2152.198 -1623.995)" fill="url(#linear-gradient-6)"/>
      </g>
      <g id="Group_1393" data-name="Group 1393" transform="translate(1246.992 570.011)">
        <g id="Group_1391" data-name="Group 1391" transform="translate(8.127 0)">
          <path id="Path_1501" data-name="Path 1501" d="M1355.251,1285.232s-24.413-12.037-28.612-18.316,1.973-6.634,1.973-6.634-10.895-10.6-9.362-15.056,7.252-.2,7.252-.2-7.081-15.765-3.778-17.333c6.152-2.92,14.783,13.858,14.783,13.858s-1.855-7.289,2.382-7.052c6.389.357,6.125,16.845,6.125,16.845s.721-6.322,4.572-4.268C1357.5,1250.762,1355.251,1285.232,1355.251,1285.232Z" transform="translate(-1319.103 -1227.354)" fill="url(#linear-gradient-8)"/>
        </g>
        <path id="Path_1502" data-name="Path 1502" d="M1380.492,1244.527c-3.007-1.669-6,3.209-6,3.209s.3-12.878-6.086-13.235c-4.236-.237-2.382,7.052-2.382,7.052s-8.631-16.778-14.783-13.858l32.554,57.269C1384.024,1280.964,1386.449,1247.833,1380.492,1244.527Z" transform="translate(-1339.491 -1227.353)" fill="#b7d972"/>
        <g id="Group_1392" data-name="Group 1392" transform="translate(0 32.342)">
          <path id="Path_1503" data-name="Path 1503" d="M1290.636,1540s-19.967,2.48-25.137.27-1.465-4.94-1.465-4.94-11.1-2.182-11.957-5.587,4.443-3.071,4.443-3.071-10.823-6.956-9.4-9.276c2.651-4.321,14.852,2.637,14.852,2.637s-4.119-3.793-1.38-5.366c4.13-2.373,10.665,8.018,10.665,8.018s-.406-2.561,2.83-2.845C1279.895,1519.335,1290.636,1540,1290.636,1540Z" transform="translate(-1246.992 -1514.319)" fill="url(#linear-gradient-8)"/>
        </g>
        <path id="Path_1504" data-name="Path 1504" d="M1274.763,1500.969a3.383,3.383,0,0,0-3.186,3.428s-5.957-9.431-10.087-7.057c-2.739,1.574.5,6.742.5,6.742s-11.2-6.408-13.855-2.087l43.576,22.493C1290.23,1521.9,1280.187,1500.493,1274.763,1500.969Z" transform="translate(-1248.007 -1466.571)" fill="url(#linear-gradient-25)"/>
      </g>
      <path id="Path_1505" data-name="Path 1505" d="M2159.479,531.35l-.235-1.624,1.2-1.115a.226.226,0,0,0-.115-.388l-1.617-.278-.688-1.489a.225.225,0,0,0-.4-.01l-.764,1.452-1.629.194a.225.225,0,0,0-.135.381l1.145,1.175-.319,1.609a.225.225,0,0,0,.321.246l1.471-.726,1.432.8A.225.225,0,0,0,2159.479,531.35Z" transform="translate(-805.699 -35.325)" fill="url(#linear-gradient-26)"/>
      <path id="Path_1506" data-name="Path 1506" d="M1901.383,546.507l-.236-1.624,1.2-1.115a.225.225,0,0,0-.115-.388l-1.617-.278-.688-1.489a.225.225,0,0,0-.4-.01l-.764,1.452-1.629.194a.225.225,0,0,0-.135.381l1.145,1.175-.319,1.609a.225.225,0,0,0,.321.246l1.471-.726,1.432.8A.225.225,0,0,0,1901.383,546.507Z" transform="translate(-576.692 -48.773)" fill="url(#linear-gradient-27)"/>
      <path id="Path_1507" data-name="Path 1507" d="M2715.226,611.51l-.236-1.624,1.2-1.115a.225.225,0,0,0-.115-.388l-1.617-.277-.688-1.489a.226.226,0,0,0-.4-.01l-.764,1.452-1.629.194a.226.226,0,0,0-.135.381l1.145,1.175-.319,1.609a.226.226,0,0,0,.321.246l1.471-.726,1.432.8A.225.225,0,0,0,2715.226,611.51Z" transform="translate(-1298.811 -106.45)" fill="url(#linear-gradient-28)"/>
      <path id="Path_1508" data-name="Path 1508" d="M2503.232,491.539l-.236-1.624,1.2-1.115a.226.226,0,0,0-.115-.388l-1.617-.278-.688-1.489a.226.226,0,0,0-.4-.01l-.764,1.452-1.629.194a.226.226,0,0,0-.135.381l1.145,1.175-.319,1.609a.225.225,0,0,0,.321.246l1.471-.726,1.432.8A.226.226,0,0,0,2503.232,491.539Z" transform="translate(-1110.709)" fill="url(#linear-gradient-29)"/>
      <path id="Rectangle_136" data-name="Rectangle 136" d="M12.861,0h7.566A12.862,12.862,0,0,1,33.288,12.862v0A12.861,12.861,0,0,1,20.427,25.723H12.862A12.862,12.862,0,0,1,0,12.861v0A12.861,12.861,0,0,1,12.861,0Z" transform="translate(1283.527 572.836)" fill="#50bfa5"/>
      <g id="Group_1394" data-name="Group 1394" transform="translate(1280.526 554.643)">
        <rect id="Rectangle_137" data-name="Rectangle 137" width="39.517" height="74.79" rx="19.759" transform="translate(39.517 74.79) rotate(180)" fill="url(#linear-gradient-16)"/>
        <path id="Rectangle_138" data-name="Rectangle 138" d="M17.555,0H46.129A17.555,17.555,0,0,1,63.684,17.555v0A17.555,17.555,0,0,1,46.129,35.11H17.555A17.555,17.555,0,0,1,0,17.555v0A17.555,17.555,0,0,1,17.555,0Z" transform="translate(37.605 3.151) rotate(90)" fill="#edfdfc"/>
      </g>
      <g id="Group_1395" data-name="Group 1395" transform="translate(1265.217 612.035)">
        <path id="Path_1509" data-name="Path 1509" d="M1438.232,1732.943H1418.1a1.463,1.463,0,0,1-1.463-1.463h0a1.463,1.463,0,0,1,1.463-1.463h20.134a1.463,1.463,0,0,1,1.463,1.463h0A1.463,1.463,0,0,1,1438.232,1732.943Z" transform="translate(-1415.74 -1715.39)" fill="#b7d972"/>
        <path id="Path_1510" data-name="Path 1510" d="M1434.6,1706.986h-20.134a1.463,1.463,0,0,1-1.463-1.463h0a1.463,1.463,0,0,1,1.463-1.463H1434.6a1.463,1.463,0,0,1,1.463,1.463h0A1.463,1.463,0,0,1,1434.6,1706.986Z" transform="translate(-1412.519 -1692.358)" fill="#edfdfc"/>
        <path id="Path_1511" data-name="Path 1511" d="M1455.564,1681.029H1435.43a1.463,1.463,0,0,1-1.463-1.463h0a1.463,1.463,0,0,1,1.463-1.463h20.134a1.463,1.463,0,0,1,1.463,1.463h0A1.463,1.463,0,0,1,1455.564,1681.029Z" transform="translate(-1431.119 -1669.326)" fill="#b7d972"/>
        <path id="Path_1512" data-name="Path 1512" d="M1433.926,1655.065h-20.134a1.463,1.463,0,0,1-1.463-1.463h0a1.463,1.463,0,0,1,1.463-1.463h20.134a1.463,1.463,0,0,1,1.463,1.463h0A1.463,1.463,0,0,1,1433.926,1655.065Z" transform="translate(-1411.92 -1646.289)" fill="#b7d972"/>
        <path id="Path_1513" data-name="Path 1513" d="M1430.294,1629.108H1410.16a1.463,1.463,0,0,1-1.463-1.463h0a1.463,1.463,0,0,1,1.463-1.463h20.134a1.463,1.463,0,0,1,1.463,1.463h0A1.463,1.463,0,0,1,1430.294,1629.108Z" transform="translate(-1408.697 -1623.257)" fill="#edfdfc"/>
        <path id="Path_1514" data-name="Path 1514" d="M1451.256,1603.151h-20.134a1.463,1.463,0,0,1-1.463-1.463h0a1.463,1.463,0,0,1,1.463-1.463h20.134a1.463,1.463,0,0,1,1.463,1.463h0A1.463,1.463,0,0,1,1451.256,1603.151Z" transform="translate(-1427.297 -1600.225)" fill="#b7d972"/>
      </g>
      <g id="Group_1396" data-name="Group 1396" transform="translate(1383.33 611.667)">
        <path id="Path_1515" data-name="Path 1515" d="M2486.225,1729.671h-20.134a1.463,1.463,0,0,1-1.463-1.463h0a1.463,1.463,0,0,1,1.463-1.463h20.134a1.463,1.463,0,0,1,1.463,1.463h0A1.463,1.463,0,0,1,2486.225,1729.671Z" transform="translate(-2463.733 -1712.118)" fill="url(#linear-gradient-6)"/>
        <path id="Path_1516" data-name="Path 1516" d="M2482.592,1703.715h-20.134a1.463,1.463,0,0,1-1.463-1.463h0a1.463,1.463,0,0,1,1.463-1.463h20.134a1.463,1.463,0,0,1,1.463,1.463h0A1.463,1.463,0,0,1,2482.592,1703.715Z" transform="translate(-2460.51 -1689.086)" fill="#edfdfc"/>
        <path id="Path_1517" data-name="Path 1517" d="M2503.556,1677.758h-20.134a1.463,1.463,0,0,1-1.463-1.463h0a1.463,1.463,0,0,1,1.463-1.463h20.134a1.463,1.463,0,0,1,1.463,1.463h0A1.463,1.463,0,0,1,2503.556,1677.758Z" transform="translate(-2479.111 -1666.055)" fill="url(#linear-gradient-6)"/>
        <path id="Path_1518" data-name="Path 1518" d="M2481.917,1651.794h-20.134a1.463,1.463,0,0,1-1.463-1.463h0a1.463,1.463,0,0,1,1.463-1.463h20.134a1.463,1.463,0,0,1,1.463,1.463h0A1.463,1.463,0,0,1,2481.917,1651.794Z" transform="translate(-2459.912 -1643.018)" fill="url(#linear-gradient-6)"/>
        <path id="Path_1519" data-name="Path 1519" d="M2478.286,1625.837h-20.134a1.463,1.463,0,0,1-1.463-1.463h0a1.463,1.463,0,0,1,1.463-1.463h20.134a1.463,1.463,0,0,1,1.463,1.463h0A1.463,1.463,0,0,1,2478.286,1625.837Z" transform="translate(-2456.689 -1619.986)" fill="#edfdfc"/>
        <path id="Path_1520" data-name="Path 1520" d="M2499.249,1599.88h-20.134a1.463,1.463,0,0,1-1.463-1.463h0a1.463,1.463,0,0,1,1.463-1.463h20.134a1.463,1.463,0,0,1,1.463,1.463h0A1.463,1.463,0,0,1,2499.249,1599.88Z" transform="translate(-2475.289 -1596.954)" fill="url(#linear-gradient-6)"/>
      </g>
      <g id="Group_1399" data-name="Group 1399" transform="translate(1289.112 572.17)">
        <path id="Path_1521" data-name="Path 1521" d="M1642.512,1380.633h-20.2a1.6,1.6,0,0,1-1.6-1.6h0a1.6,1.6,0,0,1,1.6-1.6h20.2a1.6,1.6,0,0,1,1.6,1.6h0A1.6,1.6,0,0,1,1642.512,1380.633Z" transform="translate(-1620.717 -1362.685)" fill="#847d3d"/>
        <g id="Group_1398" data-name="Group 1398" transform="translate(3.39)">
          <path id="Path_1522" data-name="Path 1522" d="M1668.007,1252.484a8.844,8.844,0,1,1-11.239-5.486A8.843,8.843,0,0,1,1668.007,1252.484Z" transform="translate(-1650.798 -1246.515)" fill="#b7d972"/>
          <path id="Path_1523" data-name="Path 1523" d="M1677.865,1264.15a7.421,7.421,0,1,1-9.431-4.6A7.421,7.421,0,0,1,1677.865,1264.15Z" transform="translate(-1662.001 -1257.718)" fill="url(#linear-gradient-8)"/>
          <g id="Group_1397" data-name="Group 1397" transform="translate(6.179 3.46)">
            <path id="Path_1524" data-name="Path 1524" d="M1707.67,1287.857l.02-1.239a6.006,6.006,0,0,1-1.557-.3.754.754,0,0,1-.481-.912l.013-.046a.752.752,0,0,1,.979-.511,4.391,4.391,0,0,0,1.41.267c.743.012,1.257-.266,1.265-.788.008-.5-.4-.815-1.363-1.157-1.387-.492-2.328-1.16-2.308-2.425a2.41,2.41,0,0,1,2.242-2.285l.021-1.239,1.278.021-.019,1.147a5.573,5.573,0,0,1,1.187.191.753.753,0,0,1,.517.924h0a.753.753,0,0,1-.951.521,4.007,4.007,0,0,0-1.143-.181c-.848-.014-1.127.347-1.133.712-.007.43.445.712,1.546,1.147,1.542.573,2.156,1.3,2.137,2.474a2.5,2.5,0,0,1-2.361,2.374l-.022,1.33Z" transform="translate(-1705.626 -1277.218)" fill="#edfdfc"/>
          </g>
        </g>
      </g>
      <g id="Group_1400" data-name="Group 1400" transform="translate(1287.201 595.526)">
        <path id="Path_1525" data-name="Path 1525" d="M1629.774,1458.309h-23.727a2.284,2.284,0,0,1-2.284-2.283h0a2.283,2.283,0,0,1,2.284-2.283h23.727a2.283,2.283,0,0,1,2.283,2.283h0A2.284,2.284,0,0,1,1629.774,1458.309Z" transform="translate(-1603.763 -1453.742)" fill="#13375b"/>
      </g>
      <g id="Group_1401" data-name="Group 1401" transform="translate(1287.201 595.526)">
        <path id="Path_1526" data-name="Path 1526" d="M1629.774,1458.309h-23.727a2.284,2.284,0,0,1-2.284-2.283h0a2.283,2.283,0,0,1,2.284-2.283h23.727a2.283,2.283,0,0,1,2.283,2.283h0A2.284,2.284,0,0,1,1629.774,1458.309Z" transform="translate(-1603.763 -1453.742)" fill="#473b1e"/>
      </g>
      <path id="Path_1527" data-name="Path 1527" d="M1630.144,1456.025a2.283,2.283,0,0,0-2.283-2.283h-21.814a2.283,2.283,0,1,0,0,4.567h21.814A2.283,2.283,0,0,0,1630.144,1456.025Z" transform="translate(-316.562 -858.216)" fill="url(#linear-gradient-36)"/>
      <g id="Group_1403" data-name="Group 1403" transform="translate(1352.004 510.828)">
        <path id="Path_1528" data-name="Path 1528" d="M2191.845,703.819a8.253,8.253,0,1,1-11.527,1.828A8.253,8.253,0,0,1,2191.845,703.819Z" transform="translate(-2178.742 -702.243)" fill="#edfdfc"/>
        <circle id="Ellipse_391" data-name="Ellipse 391" cx="6.925" cy="6.925" r="6.925" transform="translate(0.505 2.264) rotate(-7.294)" fill="url(#linear-gradient-8)"/>
        <g id="Group_1402" data-name="Group 1402" transform="translate(4.879 3.674)">
          <path id="Path_1529" data-name="Path 1529" d="M2227.745,743.768l-.648-.958a5.624,5.624,0,0,1-1.353.6.7.7,0,0,1-.856-.439l-.015-.042a.7.7,0,0,1,.474-.915,4.092,4.092,0,0,0,1.22-.551c.575-.389.818-.876.545-1.28-.259-.383-.745-.407-1.662-.154-1.324.367-2.4.361-3.062-.617a2.249,2.249,0,0,1,.49-2.947l-.648-.958.988-.668.6.887a5.191,5.191,0,0,1,1.009-.49.7.7,0,0,1,.89.429h0a.7.7,0,0,1-.448.907,3.731,3.731,0,0,0-.97.473c-.656.443-.676.869-.485,1.151.225.333.721.305,1.8.048,1.486-.388,2.345-.161,2.959.746a2.332,2.332,0,0,1-.533,3.079l.7,1.028Z" transform="translate(-2222.032 -734.841)" fill="#edfdfc"/>
        </g>
      </g>
      <g id="Group_1405" data-name="Group 1405" transform="translate(1328.523 530.374)">
        <path id="Path_1530" data-name="Path 1530" d="M1986.7,885.748a8.253,8.253,0,1,1-6.218-9.877A8.253,8.253,0,0,1,1986.7,885.748Z" transform="translate(-1970.4 -875.664)" fill="#edfdfc"/>
        <path id="Path_1531" data-name="Path 1531" d="M1995.862,895.908a6.925,6.925,0,1,1-5.218-8.288A6.925,6.925,0,0,1,1995.862,895.908Z" transform="translate(-1980.854 -886.118)" fill="url(#linear-gradient-8)"/>
        <g id="Group_1404" data-name="Group 1404" transform="translate(4.56 3.795)">
          <path id="Path_1532" data-name="Path 1532" d="M2011.48,917.658l.625-.973a5.614,5.614,0,0,1-1.085-1.006.7.7,0,0,1,.067-.96l.033-.031a.7.7,0,0,1,1.028.076,4.105,4.105,0,0,0,.987.905c.583.375,1.128.406,1.391,0,.25-.389.081-.845-.512-1.588-.858-1.073-1.277-2.065-.638-3.058a2.249,2.249,0,0,1,2.9-.71l.625-.973,1,.645-.579.9a5.174,5.174,0,0,1,.847.735.7.7,0,0,1-.044.987h0a.7.7,0,0,1-1.01-.055,3.742,3.742,0,0,0-.817-.706c-.665-.428-1.064-.279-1.249.007-.217.338,0,.783.662,1.67.942,1.213,1.071,2.092.479,3.013a2.332,2.332,0,0,1-3.04.722l-.671,1.044Z" transform="translate(-2010.862 -909.338)" fill="#edfdfc"/>
        </g>
      </g>
      <g id="Group_1407" data-name="Group 1407" transform="translate(1388.969 506.001)">
        <path id="Path_1533" data-name="Path 1533" d="M2523.229,667.864a8.253,8.253,0,1,1-8.054-8.447A8.253,8.253,0,0,1,2523.229,667.864Z" transform="translate(-2506.725 -659.415)" fill="#edfdfc"/>
        <path id="Path_1534" data-name="Path 1534" d="M2532.354,678.283a6.925,6.925,0,1,1-6.759-7.088A6.925,6.925,0,0,1,2532.354,678.283Z" transform="translate(-2517.178 -669.866)" fill="url(#linear-gradient-8)"/>
        <g id="Group_1406" data-name="Group 1406" transform="translate(4.903 3.417)">
          <path id="Path_1535" data-name="Path 1535" d="M2551.331,698.961l.42-1.077a5.6,5.6,0,0,1-1.263-.771.7.7,0,0,1-.125-.954l.026-.036a.7.7,0,0,1,1.022-.13,4.1,4.1,0,0,0,1.147.691c.646.252,1.186.175,1.363-.279.168-.431-.089-.844-.818-1.455-1.054-.881-1.661-1.771-1.232-2.87a2.249,2.249,0,0,1,2.7-1.271l.42-1.077,1.111.433-.389,1a5.177,5.177,0,0,1,.977.552.7.7,0,0,1,.153.976h0a.7.7,0,0,1-1,.147,3.739,3.739,0,0,0-.941-.529c-.737-.287-1.1-.062-1.223.255-.146.374.159.767.981,1.505,1.164,1,1.465,1.838,1.067,2.858a2.332,2.332,0,0,1-2.836,1.311l-.451,1.157Z" transform="translate(-2550.23 -689.73)" fill="#edfdfc"/>
        </g>
      </g>
      <g id="Group_1409" data-name="Group 1409" transform="translate(1423.906 525.575)">
        <path id="Path_1536" data-name="Path 1536" d="M2831.352,836.119a8.253,8.253,0,1,1-11.612-1.173A8.253,8.253,0,0,1,2831.352,836.119Z" transform="translate(-2816.706 -833.085)" fill="#edfdfc"/>
        <path id="Path_1537" data-name="Path 1537" d="M2840.775,847.411a6.925,6.925,0,1,1-9.744-.984A6.925,6.925,0,0,1,2840.775,847.411Z" transform="translate(-2827.158 -843.538)" fill="url(#linear-gradient-8)"/>
        <g id="Group_1408" data-name="Group 1408" transform="translate(5.217 3.267)">
          <path id="Path_1538" data-name="Path 1538" d="M2867.179,871.859l-.382-1.091a5.613,5.613,0,0,1-1.461.237.7.7,0,0,1-.716-.643l0-.045a.7.7,0,0,1,.692-.764,4.1,4.1,0,0,0,1.321-.222c.654-.229,1.014-.639.853-1.1-.153-.436-.617-.583-1.567-.573-1.374.017-2.414-.264-2.8-1.378a2.249,2.249,0,0,1,1.225-2.724l-.382-1.091,1.125-.394.354,1.011a5.2,5.2,0,0,1,1.1-.216.7.7,0,0,1,.751.642h0a.7.7,0,0,1-.664.763,3.737,3.737,0,0,0-1.059.21c-.747.261-.875.668-.762.989.133.379.619.48,1.724.505,1.536,0,2.308.442,2.67,1.476a2.332,2.332,0,0,1-1.3,2.841l.41,1.172Z" transform="translate(-2862.991 -862.072)" fill="#edfdfc"/>
        </g>
      </g>
      <g id="Group_1411" data-name="Group 1411" transform="translate(1437.111 557.288)">
        <circle id="Ellipse_392" data-name="Ellipse 392" cx="8.253" cy="8.253" r="8.253" transform="translate(0 16.439) rotate(-84.829)" fill="#edfdfc"/>
        <path id="Path_1539" data-name="Path 1539" d="M2964.544,1135.491a6.925,6.925,0,1,1-9.647-1.69A6.926,6.926,0,0,1,2964.544,1135.491Z" transform="translate(-2949.912 -1130.506)" fill="url(#linear-gradient-8)"/>
        <g id="Group_1410" data-name="Group 1410" transform="translate(6.036 3.921)">
          <path id="Path_1540" data-name="Path 1540" d="M2991.155,1159.172l-.3-1.116a5.621,5.621,0,0,1-1.474.13.7.7,0,0,1-.667-.694v-.045a.7.7,0,0,1,.745-.712,4.092,4.092,0,0,0,1.334-.125c.669-.181,1.058-.563.931-1.033-.121-.446-.573-.627-1.522-.685-1.372-.083-2.388-.438-2.7-1.578a2.249,2.249,0,0,1,1.42-2.628l-.3-1.116,1.152-.311.28,1.034a5.2,5.2,0,0,1,1.114-.135.7.7,0,0,1,.7.695h0a.7.7,0,0,1-.718.712,3.734,3.734,0,0,0-1.072.133c-.764.207-.921.6-.833.931.1.388.583.523,1.683.629,1.531.115,2.27.609,2.556,1.666a2.332,2.332,0,0,1-1.5,2.739l.324,1.2Z" transform="translate(-2987.429 -1149.259)" fill="#edfdfc"/>
        </g>
      </g>
      <g id="Group_1415" data-name="Group 1415" transform="translate(1297.911 518.452)">
        <g id="Group_1414" data-name="Group 1414" transform="translate(0 0)">
          <g id="Group_1413" data-name="Group 1413">
            <path id="Path_1541" data-name="Path 1541" d="M1703.1,791.374c4.59,1.889,6.068-2.238,5.953-2.129a12.194,12.194,0,0,1,1.22-.612c1.839-.9,1.785-4.083,1.743-6.193,2.639-1.607,3.3-4.685,1.491-6.566.557-2.091.675-3.407-1.193-4.467-1.414-2.465-5.376-1.629-7.3.3a5.458,5.458,0,0,0-1.524,3.849,5.192,5.192,0,0,0-2.932,5.947C1697.51,784.022,1698.421,789.446,1703.1,791.374Z" transform="translate(-1698.788 -769.883)" fill="#002a24"/>
            <path id="Path_1542" data-name="Path 1542" d="M1784.927,913.286c-.368-.364-1.017-.686-.979-.74.153-.217,1.757,1.441,1.652.974-.058-.26-1.206-1.614-1.613-1.665s-2.951-.453-2.951-.453l-5.908-3.927s-.292-4.644.961-7.773a6.063,6.063,0,0,0-3.047-.4c-.8,3.173-1.669,8.519-.624,10.077.439.655,8.118,3.19,8.118,3.19a18.226,18.226,0,0,0,1.971.645c.235.015.882-.039,1.2.01.718.111,1.607,1.179,1.667,1.056A1.4,1.4,0,0,0,1784.927,913.286Z" transform="translate(-1763.692 -884.681)" fill="#f48c7f"/>
            <path id="Path_1543" data-name="Path 1543" d="M1747.66,873.222a20.8,20.8,0,0,0-1.126-1.841,4.3,4.3,0,0,0-2.062-1.546s-.5.01-1.068.038a.454.454,0,0,1-.108.19c-.215.161-1.444-.047-2.239.494-2.663,2.29-1.926,13.39-1.717,16.9l6.647.028s.439-7.495,2.087-9.433C1749.222,876.7,1748.483,874.745,1747.66,873.222Z" transform="translate(-1734.545 -858.571)" fill="url(#linear-gradient-42)"/>
            <path id="Path_1544" data-name="Path 1544" d="M1817.812,1060.078a21.962,21.962,0,0,1,1.75-3.352c1.1-1.441,10.572-14.491,10.182-17.667-.17-1.387-4.276-2.563-4.764-2.647-2.613.35.133,2.6-1.831,4.449,1.276.437,2.029.982,1.753,1.34-1.1,1.437-6.97,13.014-7.225,13.164-1.136.666-1.582.357-1.582.357s.261,6.512.8,6.307S1817.008,1061.558,1817.812,1060.078Z" transform="translate(-1802.874 -1006.374)" fill="#f79c8d"/>
            <path id="Path_1545" data-name="Path 1545" d="M1811.841,1204.977l1.1,6.561c.247.849.661.839.767.726a10.489,10.489,0,0,0,.345-2.982c-.494-1.52-.448-4.381-.143-4.7A5.16,5.16,0,0,0,1811.841,1204.977Z" transform="translate(-1799.099 -1155.586)" fill="url(#linear-gradient-16)"/>
            <path id="Path_1546" data-name="Path 1546" d="M1846.6,1040.052c1.47-2.438,1.392-2.129,3.951-3.231a37.056,37.056,0,0,1,4.892,2.96l-5.458,3.958C1850.163,1043.3,1848.263,1041.1,1846.6,1040.052Z" transform="translate(-1829.941 -1006.736)" fill="#f7a491"/>
            <path id="Path_1547" data-name="Path 1547" d="M1776.512,833.428a33.167,33.167,0,0,1-.757,3.97c-.311.776,1.712,2.436,3.4,2.94s-.515-1.714-.445-2.544.376-4.758.376-4.758Z" transform="translate(-1767.052 -825.918)" fill="#f7a491"/>
            <path id="Path_1548" data-name="Path 1548" d="M1784.135,834.163c.049-.65.085-1.127.085-1.127l-2.569.392s-.065.375-.136.906A2.105,2.105,0,0,0,1784.135,834.163Z" transform="translate(-1772.191 -825.918)" fill="#f47458"/>
            <path id="Path_1549" data-name="Path 1549" d="M1772.914,784.526a2.919,2.919,0,0,0-1.638,1.186c-.625.957-1.054,3.776,1.005,5.091s3.661-.545,3.688-2.36S1775.607,784.206,1772.914,784.526Z" transform="translate(-1762.648 -782.85)" fill="#f7a491"/>
            <path id="Path_1550" data-name="Path 1550" d="M1813.127,806.592c-.176.438-.524.71-.779.607s-.318-.541-.142-.979.524-.71.779-.607S1813.3,806.154,1813.127,806.592Z" transform="translate(-1799.335 -801.567)" fill="#f7a491"/>
            <path id="Path_1551" data-name="Path 1551" d="M1765.51,812.227c.149.472.013.936-.305,1.038s-.7-.2-.846-.671-.013-.937.305-1.038S1765.36,811.755,1765.51,812.227Z" transform="translate(-1756.915 -806.842)" fill="#f7a491"/>
            <path id="Path_1552" data-name="Path 1552" d="M1743.143,1017.183c-1.137-.1-4.9-.487-4.9-.487l-6.675-.9a16.981,16.981,0,0,0-1.226,4.587c-.081,3.093,2.766,5.7,5.2,5.551,1.449-.089,9.654-.269,11.255-.863.331-2.52.711-5.251,2.41-7.065C1746.488,1017.636,1744.686,1017.325,1743.143,1017.183Z" transform="translate(-1726.784 -988.083)" fill="#473b1e"/>
            <path id="Path_1553" data-name="Path 1553" d="M1832.15,1082.474c.183-.189,1.648-10.207,2.531-14.411a3.533,3.533,0,0,1,1.765-2.377l4.762-2.6c1.65,1.509-6.048,18.453-6.752,20.229a23.148,23.148,0,0,0-.825,3.9c-.4,1.732.12,1.879-.373,2.243s-2.7-5.961-2.7-5.961S1831.184,1083.475,1832.15,1082.474Z" transform="translate(-1815.706 -1030.042)" fill="#f7a491"/>
            <path id="Path_1554" data-name="Path 1554" d="M1831.967,1028.358h0a.491.491,0,0,0,.518.458l8.088.019a.763.763,0,0,0,.667-.554l-.147.1a.491.491,0,0,0-.518-.458l-8.088-.019A.491.491,0,0,0,1831.967,1028.358Z" transform="translate(-1816.957 -998.823)" fill="#847d3d"/>
            <g id="Group_1412" data-name="Group 1412" transform="translate(22.761 18.146)">
              <path id="Path_1555" data-name="Path 1555" d="M1901.515,942.587a1.16,1.16,0,0,1-.146-.009c-.419-.053-.693-.32-.613-.6l3.087-10.681a.815.815,0,0,1,.9-.406c.418.053.693.32.613.6l-3.087,10.681A.759.759,0,0,1,1901.515,942.587Z" transform="translate(-1900.742 -930.885)" fill="#847d3d"/>
            </g>
            <path id="Path_1556" data-name="Path 1556" d="M1763.386,939.877c-.463-.232-1.18-.337-1.16-.4.079-.253,2.136,1.058,1.891.646-.136-.229-1.666-1.392-2.069-1.314s-2.946.484-2.946.484l-6.578-2.377a24.853,24.853,0,0,1-1.031-7.454,9.337,9.337,0,0,0-3.74.805c.219,3.266,1.053,8.617,2.529,9.774.621.487,8.707.517,8.707.517a18.215,18.215,0,0,0,2.073,0c.228-.059.826-.311,1.141-.362.717-.116,1.893.623,1.913.487A1.4,1.4,0,0,0,1763.386,939.877Z" transform="translate(-1742.234 -911.477)" fill="#f7a491"/>
            <path id="Path_1557" data-name="Path 1557" d="M1748.766,876.714c-.092-1.034-.218-2.075-1.272-2.522a2.218,2.218,0,0,0-2.026.2,2.712,2.712,0,0,0-1.072,2.076,31.33,31.33,0,0,0-.178,5.541c1.306-.54,3.082-.254,4.515-.281A19.237,19.237,0,0,0,1748.766,876.714Z" transform="translate(-1739.05 -862.296)" fill="url(#linear-gradient-44)"/>
          </g>
          <path id="Path_1558" data-name="Path 1558" d="M1875.411,1013.152a7.554,7.554,0,0,1,1.107.295c.794.5.731.717-.488.195a.241.241,0,0,0-.1-.019l-.578.006a.242.242,0,0,1-.163-.424h0A.242.242,0,0,1,1875.411,1013.152Z" transform="translate(-1855.237 -985.728)" fill="#f7a491"/>
          <path id="Path_1559" data-name="Path 1559" d="M1832.392,1239.572a3.708,3.708,0,0,0,.219,1.431c.267.637,1.287.877,1.041,1.205s-2.219,0-2.219,0l-2.282-5.581a.516.516,0,0,1,.131-.6,4.19,4.19,0,0,1,1.569-.819S1830.728,1238.708,1832.392,1239.572Z" transform="translate(-1814.418 -1182.764)" fill="url(#linear-gradient-16)"/>
        </g>
      </g>
      <g id="Group_1423" data-name="Group 1423" transform="translate(1401.882 591.131)">
        <path id="Path_1560" data-name="Path 1560" d="M2802.967,1439.41l-20.308,2.8a1.489,1.489,0,0,1-1.678-1.272h0a1.489,1.489,0,0,1,1.272-1.679l20.307-2.8a1.489,1.489,0,0,1,1.679,1.272h0A1.49,1.49,0,0,1,2802.967,1439.41Z" transform="translate(-2762.971 -1434)" fill="url(#linear-gradient-16)"/>
        <g id="Group_1416" data-name="Group 1416" transform="translate(28.835 5.335)">
          <path id="Path_1561" data-name="Path 1561" d="M2899.089,1465.521l-20.494-.461a1.49,1.49,0,0,1-1.456-1.522h0a1.49,1.49,0,0,1,1.523-1.455l20.494.461a1.489,1.489,0,0,1,1.455,1.522h0A1.489,1.489,0,0,1,2899.089,1465.521Z" transform="translate(-2877.138 -1462.082)" fill="url(#linear-gradient-16)"/>
        </g>
        <path id="Path_1562" data-name="Path 1562" d="M2798.2,1447.26l-19.117-7.4a1.49,1.49,0,0,1-.851-1.927h0a1.489,1.489,0,0,1,1.927-.851l19.117,7.4a1.489,1.489,0,0,1,.851,1.927h0A1.489,1.489,0,0,1,2798.2,1447.26Z" transform="translate(-2760.459 -1434.475)" fill="#edfdfc"/>
        <path id="Path_1563" data-name="Path 1563" d="M2887.188,1455.605l-19.117-7.4a1.489,1.489,0,0,1-.851-1.927h0a1.489,1.489,0,0,1,1.926-.851l19.117,7.4a1.489,1.489,0,0,1,.851,1.926h0A1.489,1.489,0,0,1,2887.188,1455.605Z" transform="translate(-2839.413 -1441.879)" fill="url(#linear-gradient-6)"/>
        <g id="Group_1422" data-name="Group 1422">
          <path id="Path_1564" data-name="Path 1564" d="M2693.7,1471.452a20.04,20.04,0,0,0,2.448-9.284c-.356-5.23-9.522-13.483-9.61-18.723-.036-2.126,3.64-7.718,3.64-7.718l-26.792,9.576-26.647-9.576s3.676,5.592,3.64,7.718c-.088,5.24-9.254,13.494-9.61,18.723a20.041,20.041,0,0,0,2.448,9.284Z" transform="translate(-2629.689 -1433.362)" fill="url(#linear-gradient-2)"/>
          <g id="Group_1417" data-name="Group 1417" transform="translate(7.052 2.365)">
            <path id="Path_1565" data-name="Path 1565" d="M2710.509,1445.3l-26.647-9.576s1.239,1.884,2.271,3.881Z" transform="translate(-2683.862 -1435.727)" fill="url(#linear-gradient-50)"/>
            <path id="Path_1566" data-name="Path 1566" d="M3068.185,1462.168c-.356-5.23-9.522-13.483-9.611-18.723-.036-2.126,3.641-7.718,3.641-7.718l-10.786,3.855a10.372,10.372,0,0,0-1.383,3.863c.088,5.24,9.254,13.494,9.61,18.723a20.039,20.039,0,0,1-2.447,9.284h8.529A20.046,20.046,0,0,0,3068.185,1462.168Z" transform="translate(-3008.775 -1435.727)" fill="url(#linear-gradient-51)"/>
          </g>
          <g id="Group_1421" data-name="Group 1421">
            <g id="Group_1418" data-name="Group 1418" transform="translate(3.623)">
              <path id="Path_1567" data-name="Path 1567" d="M2683.517,1428.145l-29.287-10.706a1.2,1.2,0,0,1,.825-2.257l28.461,10.4,29.4-10.768a1.2,1.2,0,1,1,.826,2.256Z" transform="translate(-2653.441 -1414.745)" fill="#b7d972"/>
            </g>
            <path id="Path_1568" data-name="Path 1568" d="M2896.923,1497.377a3.495,3.495,0,1,1-3.495-3.495A3.495,3.495,0,0,1,2896.923,1497.377Z" transform="translate(-2859.657 -1484.963)" fill="#b7d972"/>
            <path id="Path_1569" data-name="Path 1569" d="M2911.229,1513.764a1.413,1.413,0,1,1-1.413-1.413A1.413,1.413,0,0,1,2911.229,1513.764Z" transform="translate(-2876.044 -1501.35)" fill="#edfdfc"/>
            <g id="Group_1419" data-name="Group 1419" transform="translate(1.802 1.748)">
              <path id="Path_1570" data-name="Path 1570" d="M2637.572,1432.141l-.295-.5a10.355,10.355,0,0,1,3.715-1.387v.583A10.082,10.082,0,0,0,2637.572,1432.141Z" transform="translate(-2637.277 -1430.252)" fill="#b7d972"/>
            </g>
            <g id="Group_1420" data-name="Group 1420" transform="translate(62.779 1.15)">
              <path id="Path_1571" data-name="Path 1571" d="M3182,1427.543c-.023-.02-2.277-2.008-3.691-2.008v-.583c1.635,0,3.979,2.067,4.078,2.155Z" transform="translate(-3178.312 -1424.953)" fill="#f7cc7f"/>
            </g>
            <path id="Path_1572" data-name="Path 1572" d="M3198.745,1433.755a1.8,1.8,0,1,1-1.8-1.8A1.8,1.8,0,0,1,3198.745,1433.755Z" transform="translate(-3130.467 -1430.014)" fill="#fae0b2"/>
            <path id="Path_1573" data-name="Path 1573" d="M2624.9,1433.755a1.8,1.8,0,1,1-1.8-1.8A1.8,1.8,0,0,1,2624.9,1433.755Z" transform="translate(-2621.292 -1430.014)" fill="#b7d972"/>
          </g>
        </g>
      </g>
      <g id="Group_1429" data-name="Group 1429" transform="translate(1452.664 540.368)">
        <g id="Group_1428" data-name="Group 1428" transform="translate(0)">
          <g id="Group_1425" data-name="Group 1425" transform="translate(6.823 14.829)">
            <path id="Path_1574" data-name="Path 1574" d="M3197.369,1702.577a20.487,20.487,0,0,0-.037,3.3c.086.434.571,1.326.349,1.734a1.107,1.107,0,0,1-.476.51l-5.755.091c-.313,0-.106-.193.146-.376a11.677,11.677,0,0,1,2.069-1.126c.086-.041.4-.237.513-.305a3.956,3.956,0,0,0,.823-.715c.414-.453.45-2.647.45-2.647Z" transform="translate(-3184.655 -1634.204)" fill="#f7a491"/>
            <path id="Path_1575" data-name="Path 1575" d="M3189.1,1403.779s-2.474-1.22-2,1.433,4.1,32.48,4.1,32.48l3.395.188s.434-9.945.339-11.373a26.06,26.06,0,0,0-.658-3.637l-.288-8.822-3.2-10.893Z" transform="translate(-3180.886 -1368.528)" fill="url(#linear-gradient-52)"/>
            <path id="Path_1576" data-name="Path 1576" d="M3190.915,1735.559a5.3,5.3,0,0,0,3.277-.127,2.566,2.566,0,0,1,.263,1.347c-.14.4-.322.579-.5.583-1.39.036-5.11,0-6.17.011a.17.17,0,0,1-.135-.28A28.087,28.087,0,0,1,3190.915,1735.559Z" transform="translate(-3181.391 -1663.357)" fill="url(#linear-gradient-36)"/>
            <path id="Path_1577" data-name="Path 1577" d="M3140.313,1113.246a39.173,39.173,0,0,1-2.416-5.5c-.324-1.478-1.448-8.918-1.354-9.4s1.872-1.632,1.653-2.039-1.912-.408-2.3-.373a3.507,3.507,0,0,0-1.5.536c-.333.275.375,9.191.587,11.111s2.81,7.831,2.81,7.831Z" transform="translate(-3134.094 -1095.921)" fill="#f7a491"/>
            <g id="Group_1424" data-name="Group 1424" transform="translate(3.216 11.053)">
              <path id="Path_1578" data-name="Path 1578" d="M3332.179,1494.7a20.516,20.516,0,0,0,2.109-2.54c.206-.392.392-1.39.821-1.567a1.105,1.105,0,0,1,.691-.1l4.527,3.555c.247.194-.04.217-.351.2a11.675,11.675,0,0,1-2.316-.429c-.093-.023-.46-.068-.591-.086a3.968,3.968,0,0,0-1.09.037c-.606.091-2.017,1.772-2.017,1.772Z" transform="translate(-3312.88 -1457.064)" fill="#f7a491"/>
              <path id="Path_1579" data-name="Path 1579" d="M3354.907,1492.978a5.293,5.293,0,0,0-2.624-1.966c.159-.454.333-1.047.627-1.229.361-.223.61-.177.749-.07,1.1.848,3.988,3.168,4.82,3.826a.17.17,0,0,1-.072.3A28.074,28.074,0,0,1,3354.907,1492.978Z" transform="translate(-3330.719 -1456.306)" fill="url(#linear-gradient-36)"/>
              <path id="Path_1580" data-name="Path 1580" d="M3211.808,1199.041a5.043,5.043,0,0,0-5.758-2.892,5.3,5.3,0,0,0-3.436-2.09c-2.625-.372-6.012.9-5.666,3.641-.83,1.917-.626,4.557,1.03,5.852-.3,2.519,2.222,4.754,5.211,4.452a5.418,5.418,0,0,0,5.25,2.255,11.81,11.81,0,0,1,1.305-.241c-.153-.017,3.41,2.316,5.867-1.839C3218.118,1203.939,3215.649,1199.2,3211.808,1199.041Z" transform="translate(-3192.468 -1193.995)" fill="#473b1e"/>
              <path id="Path_1581" data-name="Path 1581" d="M3196.474,1399.841s5.548-2.467,5.635-2.186c.7,2.24,2.86,1.518,4.145,5.464.538,1.652,1.09,12.644,1.09,12.644s2.188-1.815,5.314-4.988c.24-.243,2.59,1.992,2.59,1.992-6.206,8.384-8.882,8.822-9.918,8.352-2.162-.98-6.723-14.687-6.715-14.686C3198.068,1405.367,3196.474,1399.841,3196.474,1399.841Z" transform="translate(-3192.47 -1374.682)" fill="url(#linear-gradient-55)"/>
              <path id="Path_1582" data-name="Path 1582" d="M3278.084,1259.929s8.019-.01,9.736-.109c1.554-.09,7.717.067,7.958.039s1.834-2.726,2.1-2.437-.887,1.338-.531,1.61,4.181-.337,4.13-.054c-.095.529-2.326.462-2.324.717s2.336-.143,2.494.281-2.244.173-2.34.362,2.229.536,1.991.93c-.129.214-2.06-.358-2.05-.066s1.417.956,1.245,1.189-1.1-.714-1.922-.725-1.4-.438-2.707-.081c-.645.177-5.561.778-9.716,1.133-4.259.364-7.75.479-7.75.479Z" transform="translate(-3264.882 -1250.255)" fill="#f7a491"/>
              <path id="Path_1583" data-name="Path 1583" d="M3162.257,1250.441a10.215,10.215,0,0,1,.205-2.706c-.39-1.337-1.218-4.191-1.516-4.751,0,0,1.4-2.683,2.825-2.665,0,0,1.46,3.29,2.588,3.879a2.8,2.8,0,0,0,.567.169c1.09-.008,4.9-.123,5.608-.136l-.4,5.4c-2.759,5.408-2.012,8.247-.962,9.3.494.494-6.885,2.5-7.225,1.8A75.73,75.73,0,0,1,3162.257,1250.441Z" transform="translate(-3160.946 -1235.097)" fill="#edfdfc"/>
              <path id="Path_1584" data-name="Path 1584" d="M3246.609,1275.193c.7-.336,5.785-.167,5.785-.167s.71,3.539.137,4.39c0,0-4.544.676-4.416,1.049Z" transform="translate(-3236.954 -1265.856)" fill="#edfdfc"/>
              <path id="Path_1585" data-name="Path 1585" d="M3208.427,1248.539a26.248,26.248,0,0,0,0,2.734,2.813,2.813,0,0,1-2.529,2.722c-1.7.033-.25-1.809-.1-2.6s.329-3.888.329-3.888Z" transform="translate(-3200.105 -1241.476)" fill="#f7a491"/>
              <path id="Path_1586" data-name="Path 1586" d="M3213.582,1247.507s-.042.719-.1,1.552a1.982,1.982,0,0,0,2.368.578c.011-.6.034-1.1.034-1.1Z" transform="translate(-3207.559 -1241.476)" fill="#f47458"/>
              <path id="Path_1587" data-name="Path 1587" d="M3210.679,1205.107a2.831,2.831,0,0,1,1.506,1.254c.542.965.77,3.713-1.312,4.844s-3.507-.77-3.412-2.523S3208.093,1204.618,3210.679,1205.107Z" transform="translate(-3202.215 -1203.796)" fill="#f7a491"/>
              <path id="Path_1588" data-name="Path 1588" d="M3203.261,1224.738c.141.434.46.72.713.638s.344-.5.2-.935-.46-.72-.713-.638S3203.121,1224.3,3203.261,1224.738Z" transform="translate(-3198.433 -1220.431)" fill="#f7a491"/>
              <path id="Path_1589" data-name="Path 1589" d="M3233.465,1204.94s1.057,2.889,2.137,3.215.967,1.735.967,1.735.2-3.258-.777-4.076A4.338,4.338,0,0,0,3233.465,1204.94Z" transform="translate(-3225.292 -1203.706)" fill="#473b1e"/>
              <path id="Path_1590" data-name="Path 1590" d="M3247.52,1233.49c-.176.445-.074.9.227,1.021s.687-.146.863-.591.074-.9-.226-1.021S3247.7,1233.045,3247.52,1233.49Z" transform="translate(-3237.686 -1228.489)" fill="#f7a491"/>
            </g>
            <path id="Path_1591" data-name="Path 1591" d="M3132.41,1101.161s2.35.1,2.625.1,1.079-.83,1.079-.83Z" transform="translate(-3132.41 -1099.925)" fill="#f47458"/>
          </g>
          <g id="Group_1427" data-name="Group 1427">
            <path id="Path_1592" data-name="Path 1592" d="M3086.575,967.784a8.083,8.083,0,1,1-11.26-1.973A8.084,8.084,0,0,1,3086.575,967.784Z" transform="translate(-3071.875 -964.344)" fill="#edfdfc"/>
            <path id="Path_1593" data-name="Path 1593" d="M3095.749,978.769a6.783,6.783,0,1,1-9.449-1.656A6.783,6.783,0,0,1,3095.749,978.769Z" transform="translate(-3082.113 -974.582)" fill="url(#linear-gradient-8)"/>
            <g id="Group_1426" data-name="Group 1426" transform="translate(5.217 3.146)">
              <path id="Path_1594" data-name="Path 1594" d="M3121.814,1001.964l-.3-1.093a5.5,5.5,0,0,1-1.444.127.689.689,0,0,1-.653-.679v-.044a.688.688,0,0,1,.73-.7,4.022,4.022,0,0,0,1.306-.123c.656-.177,1.036-.552.912-1.012-.118-.437-.561-.614-1.49-.671-1.343-.081-2.339-.429-2.641-1.546a2.2,2.2,0,0,1,1.391-2.574l-.3-1.093,1.127-.3.274,1.013a5.076,5.076,0,0,1,1.091-.132.688.688,0,0,1,.688.68h0a.689.689,0,0,1-.7.7,3.66,3.66,0,0,0-1.05.13c-.748.2-.9.59-.815.912.1.38.571.512,1.648.616,1.5.113,2.223.6,2.5,1.632a2.285,2.285,0,0,1-1.473,2.683l.318,1.174Z" transform="translate(-3118.164 -992.254)" fill="#edfdfc"/>
            </g>
          </g>
        </g>
        <path id="Path_1595" data-name="Path 1595" d="M3155.7,1095.58l.97-.872s-.458-.547-.268-.652c.309-.171.839.49.792.651a3.794,3.794,0,0,1-.616.679Z" transform="translate(-3146.256 -1079.411)" fill="#f7a491"/>
      </g>
      <path id="Path_1596" data-name="Path 1596" d="M2757.345,1184.686l.425,1.641,1.7.309.346,1.874,1.913-.23.485,2.1,1.787.005.8,1.945-.736.3-.6-1.454-1.885-.006-.466-2.02-1.945.234-.382-2.068-1.66-.3-.394-1.521-1.132.03-.019-.8Z" transform="translate(-1338.566 -619.484)" fill="url(#linear-gradient-2)"/>
      <path id="Path_1597" data-name="Path 1597" d="M2883.884,620.474l1.609.536,1.183-1.259,1.761.728.847-1.731,2.027.735.976-1.5,2.066.388-.145.783-1.545-.29-1.029,1.58-1.949-.707-.861,1.76-1.944-.8-1.155,1.229-1.491-.5-.59.966-.679-.417Z" transform="translate(-1451.592 -116.654)" fill="url(#linear-gradient-58)"/>
      <path id="Path_1598" data-name="Path 1598" d="M2369.366,594.6l.182-1.974-1.432-.321.112-1.954-1.337-.521-.1-1.478-.589.073.14,1.976,1.267.494-.116,2.033,1.408.316-.165,1.789Z" transform="translate(-993.066 -90.357)" fill="url(#linear-gradient-59)"/>
      <g id="Group_1430" data-name="Group 1430" transform="translate(1297.076 604.988)">
        <path id="Path_1599" data-name="Path 1599" d="M1695.586,1551.792l-4.21-7.461.954-.539,3.136,5.557,5.143-11.652,1,.442Z" transform="translate(-1691.375 -1537.697)" fill="url(#linear-gradient-36)"/>
      </g>
      <g id="Group_1431" data-name="Group 1431" transform="translate(1339.443 508.067)">
        <path id="Path_1600" data-name="Path 1600" d="M2070.657,683.264l-3.372-2.562.352-.464,2.885,2.193,3.221-4.69.48.33Z" transform="translate(-2067.285 -677.741)" fill="url(#linear-gradient-61)"/>
      </g>
    </g>
  </g>
</svg>
