<svg xmlns="http://www.w3.org/2000/svg" xmlns:xlink="http://www.w3.org/1999/xlink" width="435.957" height="144" viewBox="0 0 435.957 144">
  <defs>
    <linearGradient id="linear-gradient" y1="0.5" x2="1" y2="0.5" gradientUnits="objectBoundingBox">
      <stop offset="0" stop-color="#00503e"/>
      <stop offset="1" stop-color="#023222"/>
    </linearGradient>
    <linearGradient id="linear-gradient-2" x1="-2.236" y1="-4.341" x2="0.474" y2="0.474" gradientUnits="objectBoundingBox">
      <stop offset="0" stop-color="#fb9a2b"/>
      <stop offset="1" stop-color="#e65925"/>
    </linearGradient>
    <linearGradient id="linear-gradient-3" y1="0.5" x2="1" y2="0.5" gradientUnits="objectBoundingBox">
      <stop offset="0" stop-color="#53cd9f"/>
      <stop offset="1" stop-color="#0d7a5c"/>
    </linearGradient>
    <linearGradient id="linear-gradient-9" x1="0.829" y1="-0.342" x2="0.214" y2="1.232" xlink:href="#linear-gradient-3"/>
    <linearGradient id="linear-gradient-13" x1="0.31" y1="-0.28" x2="0.688" y2="1.269" xlink:href="#linear-gradient-2"/>
    <linearGradient id="linear-gradient-15" x1="0.529" y1="-0.086" x2="0.478" y2="0.946" gradientUnits="objectBoundingBox">
      <stop offset="0" stop-color="#c9cd55"/>
      <stop offset="0.507" stop-color="#659c52"/>
      <stop offset="1" stop-color="#287f50"/>
    </linearGradient>
    <linearGradient id="linear-gradient-16" x1="0.855" y1="-0.764" x2="0.472" y2="0.601" xlink:href="#linear-gradient-15"/>
    <linearGradient id="linear-gradient-17" x1="0.745" y1="-0.374" x2="0.362" y2="0.991" xlink:href="#linear-gradient-15"/>
    <linearGradient id="linear-gradient-18" x1="1.273" y1="2.425" x2="0.497" y2="0.493" xlink:href="#linear-gradient-3"/>
    <linearGradient id="linear-gradient-21" x1="0.302" y1="-2.729" x2="0.663" y2="3.171" gradientUnits="objectBoundingBox">
      <stop offset="0" stop-color="#c7a44f"/>
      <stop offset="1" stop-color="#609a3f"/>
    </linearGradient>
    <linearGradient id="linear-gradient-22" x1="0.386" y1="-1.368" x2="0.747" y2="4.532" xlink:href="#linear-gradient-21"/>
    <linearGradient id="linear-gradient-23" x1="-1.388" y1="-2.207" x2="1.4" y2="1.781" xlink:href="#linear-gradient-2"/>
    <linearGradient id="linear-gradient-24" x1="0" y1="0.5" x2="1" y2="0.5" xlink:href="#linear-gradient-2"/>
    <linearGradient id="linear-gradient-25" x1="1.59" y1="-2.011" x2="-0.279" y2="2.647" xlink:href="#linear-gradient-3"/>
    <linearGradient id="linear-gradient-26" x1="1.459" y1="-2.36" x2="-1.104" y2="5.316" xlink:href="#linear-gradient-3"/>
    <linearGradient id="linear-gradient-27" x1="0.791" y1="-0.474" x2="0.113" y2="2.07" xlink:href="#linear-gradient-3"/>
    <linearGradient id="linear-gradient-28" x1="-0.039" y1="-0.254" x2="2.607" y2="4.114" xlink:href="#linear-gradient-2"/>
    <linearGradient id="linear-gradient-33" x1="0" y1="0.5" x2="1" y2="0.5" xlink:href="#linear-gradient-15"/>
    <linearGradient id="linear-gradient-36" x1="0.503" y1="-0.079" x2="0.499" y2="0.771" xlink:href="#linear-gradient-15"/>
  </defs>
  <g id="Group_1527" data-name="Group 1527" transform="translate(-547.043 -595)">
    <path id="Subtraction_5" data-name="Subtraction 5" d="M846.547,202.58H446.59c33.389-26.458,62.457-54.405,86.4-83.067,9.457-11.323,18.134-22.794,25.789-34.095,6.169-9.107,11.7-18.136,16.44-26.838H846.547a9.01,9.01,0,0,1,9,9v126A9.01,9.01,0,0,1,846.547,202.58Z" transform="translate(100.453 536.42)" fill="#b9efd4" opacity="0.827"/>
    <path id="Subtraction_6" data-name="Subtraction 6" d="M846.547,202.58H440.484c29.66-25.658,54.774-52.952,74.643-81.126a340.907,340.907,0,0,0,21.451-34.5A276.136,276.136,0,0,0,549.922,58.58H846.547a9.01,9.01,0,0,1,9,9v126A9.01,9.01,0,0,1,846.547,202.58Z" transform="translate(127.453 536.42)" fill="#b9efd4"/>
    <g id="Group_1460" data-name="Group 1460" transform="translate(-677.131 181.003)">
      <g id="Group_1433" data-name="Group 1433" transform="translate(1553.034 526.779)">
        <path id="Path_1601" data-name="Path 1601" d="M2967.347,1552.88a24.785,24.785,0,0,1-4.9-5.358l10.725-6.775s-.015-.025-.046-.071a13.9,13.9,0,0,0,2.688,2.745,16.742,16.742,0,0,0,7.877,3.433c3.751.6,7.621-.653,10.208-1.808a27.721,27.721,0,0,0,4.834-2.742l9.51,1.838-1.788,8.227a39.527,39.527,0,0,1-15.1,6.755A28.671,28.671,0,0,1,2967.347,1552.88Z" transform="translate(-2962.452 -1540.675)" fill="url(#linear-gradient)"/>
      </g>
      <path id="Path_1602" data-name="Path 1602" d="M3146.587,690.032l2.517-1.3,2.5,1.334a.39.39,0,0,0,.568-.407l-.463-2.8,2.042-1.967a.39.39,0,0,0-.212-.666l-2.8-.424-1.24-2.55a.39.39,0,0,0-.7,0l-1.27,2.535-2.808.391a.39.39,0,0,0-.22.663l2.019,1.991-.5,2.792A.39.39,0,0,0,3146.587,690.032Z" transform="translate(-1573.139 -240.303)" fill="url(#linear-gradient-2)"/>
      <rect id="Rectangle_139" data-name="Rectangle 139" width="123.853" height="12.964" transform="translate(1444.317 500.946)" fill="#f47257"/>
      <g id="Group_1435" data-name="Group 1435" transform="translate(1445.817 479.501)">
        <path id="Path_1603" data-name="Path 1603" d="M1980.791,1135.7a239.162,239.162,0,0,0-89.409-26.79q1.731-20.271,3.462-40.542a276.536,276.536,0,0,1,103.377,30.975Z" transform="translate(-1891.382 -1068.373)" fill="url(#linear-gradient-3)"/>
        <path id="Path_1604" data-name="Path 1604" d="M1918.808,1128.839q1.18-12.642,2.359-25.284a5.8,5.8,0,0,0,6.561-4.8,274.515,274.515,0,0,1,86.676,25.971c-1.219,2.769.211,6.188,3.16,7.717l-10.7,22.785a5.145,5.145,0,0,0-7.143,2.524,241.067,241.067,0,0,0-76.114-22.807A5.454,5.454,0,0,0,1918.808,1128.839Z" transform="translate(-1916.063 -1095.71)" fill="#b7d972"/>
        <g id="Group_1434" data-name="Group 1434" transform="translate(13.702 15.766)">
          <path id="Path_1605" data-name="Path 1605" d="M2310.856,1244.625a14.033,14.033,0,0,1-17.481,8.729,14.976,14.976,0,0,1-10.2-17.275c1.614-7.514,9.6-12.017,17.7-9.512S2313.371,1237.389,2310.856,1244.625Z" transform="translate(-2257.365 -1225.871)" fill="#50bfa5"/>
          <path id="Path_1606" data-name="Path 1606" d="M2359.81,1287.715q.3-1.214.6-2.428a13.14,13.14,0,0,1-2.935-1.374,1.567,1.567,0,0,1-.565-2.034l.045-.085a1.505,1.505,0,0,1,2.172-.53,9.66,9.66,0,0,0,2.69,1.246c1.471.412,2.621.146,2.887-.873.251-.967-.418-1.826-2.2-3.006-2.573-1.7-4.215-3.472-3.648-5.966.512-2.259,2.6-3.61,5.633-3.344q.3-1.215.6-2.43,1.34.371,2.676.756-.286,1.123-.573,2.245a12.357,12.357,0,0,1,2.377,1.059,1.559,1.559,0,0,1,.62,2.115h0a1.581,1.581,0,0,1-2.209.468,8.835,8.835,0,0,0-2.268-1c-1.743-.5-2.483.071-2.657.786-.207.846.6,1.633,2.637,3.1,2.868,1.985,3.726,3.781,3.1,6.06-.628,2.259-2.769,3.677-5.828,3.341q-.336,1.3-.673,2.6Q2361.051,1288.059,2359.81,1287.715Z" transform="translate(-2323.861 -1262.784)" fill="#3c8f7c"/>
          <path id="Path_1607" data-name="Path 1607" d="M2049.806,1253.96q-10.678-2.464-21.543-4.009.251-1.949.5-3.9,11.008,1.564,21.845,4.065Z" transform="translate(-2028.263 -1244.033)" fill="#50bfa5"/>
          <path id="Path_1608" data-name="Path 1608" d="M2616.348,1409.277q-9.937-4.859-20.2-8.843l1.3-3.69q10.4,4.036,20.486,8.966Z" transform="translate(-2539.299 -1379.64)" fill="#50bfa5"/>
        </g>
      </g>
      <g id="Group_1437" data-name="Group 1437" transform="translate(1447.448 460.46)">
        <path id="Path_1609" data-name="Path 1609" d="M2008.5,918.148a215.974,215.974,0,0,0-80.874,35.558l-19.955-34.433a249.715,249.715,0,0,1,93.508-41.113Z" transform="translate(-1907.671 -878.16)" fill="url(#linear-gradient-3)"/>
        <path id="Path_1610" data-name="Path 1610" d="M1975.6,980.61l-12.3-21.6a6.351,6.351,0,0,0,2.176-7.992,247.832,247.832,0,0,1,78.4-34.471,5.476,5.476,0,0,0,6.617,4.126l4.753,24.919a5.423,5.423,0,0,0-3.871,6.548,217.628,217.628,0,0,0-68.848,30.271A4.7,4.7,0,0,0,1975.6,980.61Z" transform="translate(-1957.729 -912.703)" fill="#b7d972"/>
        <g id="Group_1436" data-name="Group 1436" transform="translate(17.805 17.86)">
          <path id="Path_1611" data-name="Path 1611" d="M2333.057,1076.11c2.167,7.365-1.513,15.237-8.057,18.057a13,13,0,0,1-17.122-7.246,14.6,14.6,0,0,1,7.783-18.818A12.62,12.62,0,0,1,2333.057,1076.11Z" transform="translate(-2284.652 -1065.941)" fill="url(#linear-gradient-3)"/>
          <path id="Path_1612" data-name="Path 1612" d="M2389.477,1129.745l-.9-2.314a11.432,11.432,0,0,1-2.929.774,1.423,1.423,0,0,1-1.547-1.258c-.005-.032-.01-.064-.014-.1a1.556,1.556,0,0,1,1.309-1.8,8.419,8.419,0,0,0,2.677-.72c1.314-.608,2.016-1.551,1.646-2.53-.351-.928-1.323-1.185-3.292-.992-2.843.285-5.04-.08-6.006-2.423-.875-2.121-.087-4.521,2.3-6.241q-.455-1.155-.91-2.311,1.195-.557,2.4-1.1l.824,2.149a10.784,10.784,0,0,1,2.342-.67A1.416,1.416,0,0,1,2389,1111.5h0a1.628,1.628,0,0,1-1.371,1.777,7.715,7.715,0,0,0-2.229.648c-1.562.715-1.793,1.635-1.525,2.315.317.8,1.349.917,3.665.785,3.219-.246,4.85.636,5.65,2.849.791,2.2,0,4.684-2.447,6.362l.947,2.494Q2390.584,1129.229,2389.477,1129.745Z" transform="translate(-2350.59 -1103.509)" fill="#edfdfc"/>
          <path id="Path_1613" data-name="Path 1613" d="M2105.465,1258.969q-9.25,4.831-18.129,10.512l-1.794-3.419q8.995-5.757,18.383-10.659Z" transform="translate(-2085.543 -1235.5)" fill="#50bfa5"/>
          <path id="Path_1614" data-name="Path 1614" d="M2615.188,1060.417q-10.033,2.456-19.823,5.818l-1.091-3.759q9.919-3.406,20.1-5.9Q2614.781,1058.5,2615.188,1060.417Z" transform="translate(-2543.349 -1056.577)" fill="url(#linear-gradient-3)"/>
        </g>
      </g>
      <g id="Group_1439" data-name="Group 1439" transform="translate(1452.659 484.535)">
        <path id="Path_1615" data-name="Path 1615" d="M2059.94,1159.766a219.152,219.152,0,0,0-88.454,12.964l-11.761-38.616A253.389,253.389,0,0,1,2062,1119.124Q2060.969,1139.445,2059.94,1159.766Z" transform="translate(-1959.725 -1118.663)" fill="url(#linear-gradient-3)"/>
        <path id="Path_1616" data-name="Path 1616" d="M2009.947,1183.914l-7.159-24.167a6.113,6.113,0,0,0,4.019-7.157,251.477,251.477,0,0,1,85.75-12.568,5.781,5.781,0,0,0,5.6,5.748q-.547,12.688-1.093,25.377a5.245,5.245,0,0,0-5.363,5.311,220.841,220.841,0,0,0-75.3,11.036A4.971,4.971,0,0,0,2009.947,1183.914Z" transform="translate(-1998.477 -1137.794)" fill="#b7d972"/>
        <g id="Group_1438" data-name="Group 1438" transform="translate(15.948 7.848)">
          <path id="Path_1617" data-name="Path 1617" d="M2397.037,1209.56a14.555,14.555,0,0,1-12.193,15.339,13.777,13.777,0,0,1-15.286-11.554,14.067,14.067,0,0,1,12.1-16.148A13.343,13.343,0,0,1,2397.037,1209.56Z" transform="translate(-2344.301 -1197.059)" fill="url(#linear-gradient-3)"/>
          <path id="Path_1618" data-name="Path 1618" d="M2456.743,1256.646q-.178-1.239-.356-2.479a11.8,11.8,0,0,1-3.084-.028,1.5,1.5,0,0,1-1.24-1.627c0-.032.005-.065.008-.1a1.513,1.513,0,0,1,1.717-1.4,8.685,8.685,0,0,0,2.822.013c1.444-.24,2.36-.966,2.222-2.012-.132-.992-1.035-1.5-3.032-1.833-2.885-.478-4.977-1.414-5.389-3.938-.374-2.285.967-4.4,3.735-5.43q-.181-1.239-.363-2.477,1.314-.222,2.63-.43.158,1.149.316,2.3a11.1,11.1,0,0,1,2.478-.027,1.486,1.486,0,0,1,1.318,1.678h0a1.583,1.583,0,0,1-1.773,1.356,7.958,7.958,0,0,0-2.361.036c-1.715.278-2.159,1.107-2.051,1.836.127.863,1.124,1.245,3.451,1.731,3.248.616,4.659,1.9,4.937,4.255.272,2.334-1.093,4.532-3.907,5.508q.179,1.332.358,2.665Q2457.96,1256.44,2456.743,1256.646Z" transform="translate(-2417.185 -1231.121)" fill="#edfdfc"/>
          <path id="Path_1619" data-name="Path 1619" d="M2140.449,1340.355q-10.295,2.222-20.42,5.366l-.982-3.784q10.257-3.186,20.706-5.441Z" transform="translate(-2119.047 -1322.538)" fill="#50bfa5"/>
          <path id="Path_1620" data-name="Path 1620" d="M2701.966,1286.7q-10.518-.284-21.006.373-.1-1.964-.205-3.927,10.626-.665,21.3-.378Z" transform="translate(-2624.526 -1274.11)" fill="#50bfa5"/>
        </g>
      </g>
      <rect id="Rectangle_140" data-name="Rectangle 140" width="123.853" height="54.508" transform="translate(1444.317 500.946)" fill="url(#linear-gradient-9)"/>
      <path id="Path_1621" data-name="Path 1621" d="M2780.3,1688.115h-30.647a2.52,2.52,0,0,0-2.46,2.576h0a2.52,2.52,0,0,0,2.46,2.577h-3.974a2.52,2.52,0,0,0-2.46,2.576h0a2.52,2.52,0,0,0,2.46,2.576h.688a2.52,2.52,0,0,0-2.46,2.576,2.678,2.678,0,0,0,.207,1.034H2780.3Z" transform="translate(-1212.132 -1146.577)" fill="url(#linear-gradient)"/>
      <rect id="Rectangle_141" data-name="Rectangle 141" width="112.745" height="4.233" transform="translate(1448.881 503.63)" fill="url(#linear-gradient)"/>
      <g id="Group_1440" data-name="Group 1440" transform="translate(1442.953 520.926)">
        <path id="Rectangle_142" data-name="Rectangle 142" d="M16.926,0H42.275A16.926,16.926,0,0,1,59.2,16.926v0A16.926,16.926,0,0,1,42.276,33.853H16.926A16.926,16.926,0,0,1,0,16.926v0A16.926,16.926,0,0,1,16.926,0Z" fill="url(#linear-gradient)"/>
        <rect id="Rectangle_143" data-name="Rectangle 143" width="14.579" height="8.476" transform="translate(3.806 6.732)" fill="url(#linear-gradient-13)"/>
        <rect id="Rectangle_144" data-name="Rectangle 144" width="25.853" height="1.582" transform="translate(29.601 4.585)" fill="#b7d972"/>
        <rect id="Rectangle_145" data-name="Rectangle 145" width="47.579" height="1.955" transform="translate(5.954 22.667)" fill="#b7d972"/>
        <rect id="Rectangle_146" data-name="Rectangle 146" width="47.579" height="1.955" transform="translate(5.954 27.27)" fill="#b7d972"/>
      </g>
      <rect id="Rectangle_147" data-name="Rectangle 147" width="52.569" height="1.405" transform="translate(1450.313 514.863)" fill="url(#linear-gradient)"/>
      <g id="Group_1442" data-name="Group 1442" transform="translate(1521.265 482.372)">
        <circle id="Ellipse_393" data-name="Ellipse 393" cx="11.708" cy="11.708" r="11.708" transform="translate(0)" fill="#edfdfc"/>
        <path id="Path_1622" data-name="Path 1622" d="M2681.76,1120.038a9.824,9.824,0,1,1-13.685-2.4A9.824,9.824,0,0,1,2681.76,1120.038Z" transform="translate(-2662.011 -1113.974)" fill="url(#linear-gradient-15)"/>
        <g id="Group_1441" data-name="Group 1441" transform="translate(7.555 4.555)">
          <path id="Path_1623" data-name="Path 1623" d="M2725.847,1156.616l-.428-1.583a7.966,7.966,0,0,1-2.091.184,1,1,0,0,1-.947-.984v-.063a1,1,0,0,1,1.057-1.009,5.812,5.812,0,0,0,1.892-.177c.95-.257,1.5-.8,1.321-1.466-.171-.633-.813-.889-2.159-.972-1.945-.118-3.387-.622-3.824-2.238-.4-1.467.326-2.9,2.014-3.728l-.428-1.583,1.633-.442.4,1.467a7.352,7.352,0,0,1,1.58-.192,1,1,0,0,1,1,.985h0a1,1,0,0,1-1.018,1.011,5.307,5.307,0,0,0-1.521.188c-1.083.293-1.307.854-1.181,1.321.149.55.827.742,2.387.892,2.173.164,3.22.864,3.626,2.364a3.308,3.308,0,0,1-2.132,3.885l.459,1.7Z" transform="translate(-2720.56 -1142.553)" fill="#edfdfc"/>
        </g>
      </g>
      <g id="Group_1444" data-name="Group 1444" transform="translate(1527.461 514.992)">
        <circle id="Ellipse_394" data-name="Ellipse 394" cx="11.708" cy="11.708" r="11.708" transform="translate(0 16.557) rotate(-45)" fill="#edfdfc"/>
        <path id="Path_1624" data-name="Path 1624" d="M2792.1,1494.354a9.824,9.824,0,1,1-13.685-2.4A9.824,9.824,0,0,1,2792.1,1494.354Z" transform="translate(-2767.501 -1483.441)" fill="url(#linear-gradient-16)"/>
        <g id="Group_1443" data-name="Group 1443" transform="translate(12.404 9.404)">
          <path id="Path_1625" data-name="Path 1625" d="M2836.187,1530.933l-.428-1.583a7.967,7.967,0,0,1-2.092.184,1,1,0,0,1-.946-.984v-.063a1,1,0,0,1,1.058-1.009,5.815,5.815,0,0,0,1.891-.177c.95-.257,1.5-.8,1.321-1.466-.171-.633-.813-.889-2.159-.972-1.946-.118-3.387-.622-3.824-2.239-.4-1.466.326-2.9,2.014-3.728l-.428-1.583,1.633-.442.4,1.466a7.373,7.373,0,0,1,1.58-.192,1,1,0,0,1,1,.985h0a1,1,0,0,1-1.018,1.011,5.307,5.307,0,0,0-1.52.188c-1.083.293-1.307.854-1.181,1.321.149.55.826.742,2.387.892,2.173.164,3.22.864,3.626,2.364a3.308,3.308,0,0,1-2.133,3.885l.46,1.7Z" transform="translate(-2830.9 -1516.87)" fill="#fff"/>
        </g>
      </g>
      <g id="Group_1446" data-name="Group 1446" transform="translate(1508.292 503.92)">
        <circle id="Ellipse_395" data-name="Ellipse 395" cx="11.708" cy="11.708" r="11.708" transform="matrix(1, -0.017, 0.017, 1, 1.07, 1.46)" fill="#edfdfc"/>
        <circle id="Ellipse_396" data-name="Ellipse 396" cx="9.824" cy="9.824" r="9.824" transform="translate(0 7.994) rotate(-24.006)" fill="url(#linear-gradient-17)"/>
        <g id="Group_1445" data-name="Group 1445" transform="translate(8.288 6.065)">
          <path id="Path_1626" data-name="Path 1626" d="M2599.933,1386.12l.559-1.542a7.96,7.96,0,0,1-1.818-1.051,1,1,0,0,1-.209-1.349l.035-.052a1,1,0,0,1,1.446-.219,5.822,5.822,0,0,0,1.65.941c.925.335,1.688.208,1.923-.441.224-.617-.155-1.195-1.208-2.036-1.525-1.214-2.415-2.455-1.845-4.029.518-1.428,1.93-2.183,3.791-1.894l.559-1.542,1.591.577-.518,1.428a7.352,7.352,0,0,1,1.4.75,1,1,0,0,1,.25,1.379h0a1,1,0,0,1-1.414.242,5.312,5.312,0,0,0-1.353-.719c-1.055-.382-1.561-.052-1.725.4-.194.536.25,1.083,1.442,2.1,1.684,1.382,2.139,2.557,1.61,4.018a3.308,3.308,0,0,1-3.978,1.955l-.6,1.656Z" transform="translate(-2598.291 -1372.906)" fill="#edfdfc"/>
        </g>
      </g>
      <rect id="Rectangle_148" data-name="Rectangle 148" width="53.025" height="28.418" transform="translate(1508.601 523.643)" fill="url(#linear-gradient-18)"/>
      <path id="Path_1627" data-name="Path 1627" d="M2747.194,1690.691h0a2.52,2.52,0,0,0,2.46,2.577h-3.974a2.52,2.52,0,0,0-2.46,2.576h0a2.52,2.52,0,0,0,2.46,2.576h.688a2.359,2.359,0,0,0-.989.217h28.378v-10.522h-24.1A2.52,2.52,0,0,0,2747.194,1690.691Z" transform="translate(-1212.132 -1146.577)" fill="url(#linear-gradient)"/>
      <g id="Group_1448" data-name="Group 1448" transform="translate(1400.969 543.201)">
        <g id="Group_1447" data-name="Group 1447" transform="translate(0 10.592)">
          <path id="Path_1628" data-name="Path 1628" d="M1443.355,1811.365h0a.8.8,0,0,0,.771.831H1636.37a.8.8,0,0,0,.771-.831h0a.8.8,0,0,0-.771-.831H1444.126A.8.8,0,0,0,1443.355,1811.365Z" transform="translate(-1443.355 -1810.534)" fill="url(#linear-gradient-3)"/>
        </g>
        <path id="Path_1629" data-name="Path 1629" d="M2811.574,1801.2h-31.649a2.3,2.3,0,0,1-2.3-2.3h0a2.3,2.3,0,0,1,2.3-2.3h31.649a2.3,2.3,0,0,1,2.3,2.3h0A2.3,2.3,0,0,1,2811.574,1801.2Z" transform="translate(-2644.063 -1787.401)" fill="url(#linear-gradient-21)"/>
        <path id="Path_1630" data-name="Path 1630" d="M2805.146,1755.258H2773.5a2.3,2.3,0,0,1-2.3-2.3h0a2.3,2.3,0,0,1,2.3-2.3h31.648a2.3,2.3,0,0,1,2.3,2.3h0A2.3,2.3,0,0,1,2805.146,1755.258Z" transform="translate(-2638.278 -1746.061)" fill="#edfdfc"/>
        <path id="Path_1631" data-name="Path 1631" d="M2842.246,1709.319H2810.6a2.3,2.3,0,0,1-2.3-2.3h0a2.3,2.3,0,0,1,2.3-2.3h31.649a2.3,2.3,0,0,1,2.3,2.3h0A2.3,2.3,0,0,1,2842.246,1709.319Z" transform="translate(-2671.665 -1704.72)" fill="url(#linear-gradient-22)"/>
      </g>
      <path id="Path_1632" data-name="Path 1632" d="M2683.275,755.018l.4,2.724-4.311,1.132.1,4.056-3.088,1.375.7,1.563,4.13-1.839-.093-3.843,4.486-1.178-.606-4.1Z" transform="translate(-1151.979 -306.786)" fill="url(#linear-gradient-23)"/>
      <g id="Group_1449" data-name="Group 1449" transform="translate(1488.459 421.941)">
        <path id="Path_1633" data-name="Path 1633" d="M2319.425,511.027l.831-2.062a10.793,10.793,0,0,1-2.412-1.511,1.353,1.353,0,0,1-.22-1.837l.051-.069a1.35,1.35,0,0,1,1.969-.227,7.876,7.876,0,0,0,2.191,1.354c1.237.5,2.276.362,2.626-.506.332-.825-.152-1.626-1.54-2.815-2.007-1.717-3.155-3.441-2.306-5.546.77-1.91,2.719-2.865,5.225-2.385l.831-2.062,2.127.857-.77,1.91a9.982,9.982,0,0,1,1.865,1.084,1.351,1.351,0,0,1,.272,1.88h0a1.352,1.352,0,0,1-1.927.261,7.19,7.19,0,0,0-1.8-1.039c-1.411-.568-2.111-.144-2.356.463-.289.716.288,1.478,1.853,2.916,2.215,1.952,2.776,3.566,1.989,5.519-.779,1.932-2.811,3.03-5.481,2.458l-.892,2.214Z" transform="translate(-2317.361 -493.36)" fill="url(#linear-gradient-24)"/>
      </g>
      <path id="Path_1634" data-name="Path 1634" d="M2253.857,784.836a.864.864,0,0,1-.148,1.088,8.495,8.495,0,0,1-2.7,1.627,6.829,6.829,0,0,1-5.253-.072,6.292,6.292,0,0,1-2.7-2.459l-1,.375a.656.656,0,0,1-.845-.384l-.01-.026a.656.656,0,0,1,.384-.845l.819-.307c-.131-.272-.224-.441-.282-.595a6.429,6.429,0,0,1-.259-.924l-.845.317a.656.656,0,0,1-.844-.384h0a.656.656,0,0,1,.384-.845l1.024-.384a6.736,6.736,0,0,1,.488-3.6,7.248,7.248,0,0,1,4.116-3.734,7.41,7.41,0,0,1,2.561-.508.885.885,0,0,1,.893.843v.015a.887.887,0,0,1-.855.926,6.346,6.346,0,0,0-1.991.422,4.721,4.721,0,0,0-2.687,2.41,3.935,3.935,0,0,0-.3,2.39l5.758-2.161a.656.656,0,0,1,.844.384h0a.656.656,0,0,1-.384.845l-6.014,2.257c.08.291.16.582.228.761.086.23.173.46.314.758l6.026-2.262a.67.67,0,0,1,.862.392h0a.67.67,0,0,1-.392.862l-5.771,2.166a4.169,4.169,0,0,0,1.689,1.468,4.611,4.611,0,0,0,3.7.044,7.226,7.226,0,0,0,1.921-1.083.864.864,0,0,1,1.271.223Z" transform="translate(-759.404 -323.225)" fill="url(#linear-gradient-25)"/>
      <path id="Path_1635" data-name="Path 1635" d="M2129.656,621.864l-2.614.265-.892-4.159-3.87-.083-1.176-3-1.52.6,1.573,4.017,3.668.079.928,4.327,3.934-.4Z" transform="translate(-650.922 -180.778)" fill="url(#linear-gradient-26)"/>
      <g id="Group_1450" data-name="Group 1450" transform="translate(1505.849 433.392)">
        <path id="Path_1636" data-name="Path 1636" d="M2494.184,612.34l2.8.923s4.435-1.437,4.871-2.341.56-3.1,1.191-3.157a1.91,1.91,0,0,1,2.141,1.646c.211,1.089-1.384,4.238-1.135,4.573a15.289,15.289,0,0,0,2.918,1.188,2.181,2.181,0,0,1,1.443,1.758v0a1.2,1.2,0,0,1-.75,1.289l-.8.311.257.831a1.2,1.2,0,0,1-.759,1.488l-.622.209.2.506a1.2,1.2,0,0,1-.774,1.586l-.544.158.022.145a1.2,1.2,0,0,1-.872,1.341l-.54.142-7.449-2.458a5.31,5.31,0,0,1-1.888-1.1l-2.474-1.305a.615.615,0,0,1-.288-.747l2.293-6.6A.613.613,0,0,1,2494.184,612.34Z" transform="translate(-2491.088 -607.756)" fill="url(#linear-gradient-27)"/>
      </g>
      <path id="Path_1637" data-name="Path 1637" d="M2025.036,862.11l.592-2.935,2.754-1.176a.411.411,0,0,0,.04-.737l-2.608-1.47-.268-2.982a.412.412,0,0,0-.688-.266l-2.2,2.027-2.919-.667a.412.412,0,0,0-.466.572l1.246,2.723-1.536,2.57a.412.412,0,0,0,.4.62l2.974-.344,1.969,2.255A.411.411,0,0,0,2025.036,862.11Z" transform="translate(-560.335 -394.549)" fill="url(#linear-gradient-28)"/>
      <g id="Group_1453" data-name="Group 1453" transform="translate(1396.254 413.996)">
        <g id="Group_1451" data-name="Group 1451" transform="translate(0 49.983)">
          <path id="Path_1638" data-name="Path 1638" d="M1682.258,1669.3a39.116,39.116,0,0,0-4.248,3.435c-.832,1.137,6.218,3.264,5.448,1.932-.177-.306-.684-1.337-.707-1.438-.118-.542,1.377-2,1.377-2Z" transform="translate(-1649.744 -1593.621)" fill="#f7a491"/>
          <path id="Path_1639" data-name="Path 1639" d="M1680.512,1694.082l-2.492-3.522a6.792,6.792,0,0,1-3.153-2.158,5.841,5.841,0,0,0-2.318,1.735,40.639,40.639,0,0,0,4.239,3.822,11.775,11.775,0,0,0,3.63,2.061C1682.523,1696.732,1680.512,1694.082,1680.512,1694.082Z" transform="translate(-1644.89 -1610.814)" fill="#002a24"/>
          <path id="Path_1640" data-name="Path 1640" d="M1398.1,1184.16s.451.4.611.52c.188.142.779.527.779.527a11.442,11.442,0,0,0,2.215,1.058,1.06,1.06,0,0,0-.036-.745c-.106-.122-.414-.247-.52-.369a.393.393,0,0,1-.006-.5c.136-.136.868.264.868.264a2.729,2.729,0,0,1,.841.727,3.527,3.527,0,0,1,.713,1.633,33.281,33.281,0,0,0,3.14,1.57s8.983,3.734,9.467,3.938h.006a2.612,2.612,0,0,1-.271,1.167c-.215,1.283-.6,1.369-.888,2.606-1.378-.7-10.915-5.951-11.885-6.5,0,0-1.452-.248-2.36-.433a8.108,8.108,0,0,1-1.948-.851,8.542,8.542,0,0,1-1.742-1.056c-.77-.6.224-.372.224-.372s1.617.857,1.659.721c.032-.1-.877-.522-1.735-1.174-.22-.167-.438-.333-.636-.488-.521-.4-.43-.829.18-.49a6.771,6.771,0,0,1,.8.51,5.638,5.638,0,0,0,.777.435,7.352,7.352,0,0,0,.8.443c0-.032.128-.043-.1-.228-.275-.222-.961-.569-1.341-.926-.216-.2-.691-.6-.691-.6a5.933,5.933,0,0,1-.58-.778c.161-.262.716.124.974.436a4.579,4.579,0,0,1,.753.549s1.178.658,1.269.5a15.588,15.588,0,0,0-1.229-1.135c-.549-.538-1.018-1.167-.931-1.288C1397.425,1183.625,1398.1,1184.16,1398.1,1184.16Z" transform="translate(-1396.254 -1156.709)" fill="#f8a492"/>
          <path id="Path_1641" data-name="Path 1641" d="M1664.985,1391.868l.581,2.871,14.594,13.274-10.446,10.572,2.821,2.883s15.428-11.329,15.984-12.814c.856-2.286-11.06-17.427-11.06-17.427Z" transform="translate(-1638.084 -1343.387)" fill="#473b1e"/>
          <path id="Path_1642" data-name="Path 1642" d="M1531.538,1744.468s-2.944,3.208-3.522,4c-.833,1.137,5.385,2.815,4.615,1.484-.177-.306-.684-1.336-.707-1.438-.118-.542,1.377-2,1.377-2Z" transform="translate(-1514.757 -1661.268)" fill="#f7a491"/>
          <path id="Path_1643" data-name="Path 1643" d="M1528.494,1784.9l-4.052-1.481a6.347,6.347,0,0,1-3.867.126,5.365,5.365,0,0,0-.875,2.636s7.681.979,9.818.368S1528.494,1784.9,1528.494,1784.9Z" transform="translate(-1507.343 -1696.32)" fill="#002a24"/>
          <path id="Path_1644" data-name="Path 1644" d="M1559.457,1400.714l.655,18.113-12.949,15.877,3.5,1.918s14.324-12.294,15.9-15.719c.975-2.124,4.258-21.325,4.258-21.325Z" transform="translate(-1532.057 -1350.903)" fill="#473b1e"/>
          <path id="Path_1645" data-name="Path 1645" d="M1698.181,1158.9c-1.187-2.679-1.05-21.883-5.669-26.382-1.625.275-2.784.428-3.056.5-.241,1.978-.506,9.238-.669,15.891-.108,4.432,0,9.081-.542,11.531C1687.906,1161.962,1699.265,1161.349,1698.181,1158.9Z" transform="translate(-1659.009 -1110.578)" fill="#b7d972"/>
          <path id="Path_1646" data-name="Path 1646" d="M1490.48,1138.446c-1.3.3-2.251.5-3.951,3.014-1.627,2.4-5.24,8.107-5.24,8.107l-9.516-4.227-.445,4.82s10.766,5.6,12.285,5.092,5.789-6.747,6.105-7.168c.074-.1-.358,6.667-.358,7.748s-2.064,10.494-2.064,10.494,5.237,1.289,6.259-1.052c3.134-7.178.728-27.825.728-27.825S1491.413,1138.234,1490.48,1138.446Z" transform="translate(-1463.812 -1115.012)" fill="url(#linear-gradient)"/>
          <path id="Path_1647" data-name="Path 1647" d="M1850.573,916.193a2.85,2.85,0,0,1-.64-1.654l-.178-.684c.162-.066,3.336-.518,4.293-.543a1.742,1.742,0,0,1,.11.722c-.142.782-1.141,5.861-1.141,5.861l-2.733.054S1850.878,916.938,1850.573,916.193Z" transform="translate(-1804.359 -913.312)" fill="#f7a491"/>
          <path id="Path_1648" data-name="Path 1648" d="M1741.638,987.09s1.875,5.336,3.418,4.567,10.213-9.607,10.3-10.035.686-11.276.686-11.276l-3.429-.683-1.972,8.884s-6.344,6.065-7.63,6.663A2.383,2.383,0,0,0,1741.638,987.09Z" transform="translate(-1707.064 -964.022)" fill="url(#linear-gradient)"/>
          <path id="Path_1649" data-name="Path 1649" d="M1737.074,1153.44a5.814,5.814,0,0,0,2.113-.352s-1.977-11.142-3.126-22.191c-.454-4.365-.875-6.154-2.676-5.838-.521.091-1.931.628-2.443.715,4.525,12.8,4.541,22.657,5.181,25.515C1736.444,1152.723,1736.724,1153.448,1737.074,1153.44Z" transform="translate(-1697.438 -1103.831)" fill="url(#linear-gradient)"/>
          <path id="Path_1650" data-name="Path 1650" d="M1696.017,1087l.474,1.934s.108,1.684-.674,1.835c-.943.183-2.344-1.228-2.344-1.228l-.811-5.455Z" transform="translate(-1662.992 -1066.996)" fill="#f7a491"/>
          <path id="Path_1651" data-name="Path 1651" d="M1696.017,1087l.474,1.934s.108,1.684-.674,1.835c-.943.183-2.344-1.228-2.344-1.228l-.811-5.455Z" transform="translate(-1662.992 -1066.996)" fill="#f7a491"/>
          <path id="Path_1652" data-name="Path 1652" d="M1692.743,1084.342l3.346,2.888.354,1.445A5.6,5.6,0,0,1,1692.743,1084.342Z" transform="translate(-1663.064 -1067.222)" fill="#f47458"/>
          <path id="Path_1653" data-name="Path 1653" d="M1693.718,1034.2a1.976,1.976,0,0,1,1.822,1.367,17.164,17.164,0,0,1,.73,2.8c.354,2.1-.84,4.018-1.88,4.171a3.933,3.933,0,0,1-4.063-3.507c-.235-1.274-.544-2.945.5-3.822A4.711,4.711,0,0,1,1693.718,1034.2Z" transform="translate(-1660.681 -1022.101)" fill="#f7a491"/>
          <path id="Path_1654" data-name="Path 1654" d="M1661.337,1016.849s-3.664-3.265-3.824-5.817,2.2-3.918,4.211-3.989a13.67,13.67,0,0,1,2.466.127c2.019.255,3.326,1.149,2.866,2.8-.618,2.22-4.807.347-5.664,1.036-.707.569.439,1.937-.248,2.458-.646.49-.317.324-.1,1.257A16.457,16.457,0,0,1,1661.337,1016.849Z" transform="translate(-1631.353 -997.652)" fill="url(#linear-gradient-24)"/>
          <path id="Path_1655" data-name="Path 1655" d="M1681.491,1064.661c.091.611.465,1.063.835,1.008s.6-.594.506-1.206-.464-1.062-.835-1.008S1681.4,1064.049,1681.491,1064.661Z" transform="translate(-1652.92 -1048.421)" fill="#f7a491"/>
          <path id="Path_1656" data-name="Path 1656" d="M1859.787,915.879A4.4,4.4,0,0,1,1860.97,917s1.545-.991,1.491-1.3c-.072-.416-1.651.356-1.651.356Z" transform="translate(-1813.386 -915.344)" fill="#f47458"/>
        </g>
        <g id="Group_1452" data-name="Group 1452" transform="translate(4.171)">
          <path id="Path_1657" data-name="Path 1657" d="M1440.306,444l41.724,21.483a4.783,4.783,0,0,0,6.34-2.324l10.655-20.694a4.783,4.783,0,0,0-1.791-6.511l-41.724-21.483a4.783,4.783,0,0,0-6.34,2.324l-10.655,20.694A4.783,4.783,0,0,0,1440.306,444Z" transform="translate(-1437.921 -413.996)" fill="url(#linear-gradient-33)"/>
          <rect id="Rectangle_149" data-name="Rectangle 149" width="7.061" height="56.076" transform="matrix(0.458, -0.889, 0.889, 0.458, 0.833, 23.025)" fill="#473b1e"/>
        </g>
        <rect id="Rectangle_150" data-name="Rectangle 150" width="12.363" height="6.858" transform="translate(20.939 3.427) rotate(27.293)" fill="#b7d972"/>
        <path id="Path_1658" data-name="Path 1658" d="M1850.733,903.706c-.073-.2-.216-.47-.145-.578.445-.68-.035-1.419-.358-.84a3.628,3.628,0,0,0-.489,1.459c.02.278.3,1.34.3,1.34A.985.985,0,0,0,1850.733,903.706Z" transform="translate(-1804.344 -853.222)" fill="#f7a491"/>
      </g>
      <g id="Group_1459" data-name="Group 1459" transform="translate(1538.306 424.22)">
        <g id="Group_1458" data-name="Group 1458" transform="translate(0 0)">
          <g id="Group_1455" data-name="Group 1455" transform="translate(13.708 23.986)">
            <path id="Path_1659" data-name="Path 1659" d="M3045.166,1632.482a26.306,26.306,0,0,0-.048,4.238c.112.556.733,1.7.448,2.226a1.419,1.419,0,0,1-.611.655l-7.387.117c-.4.006-.137-.248.188-.483a14.974,14.974,0,0,1,2.657-1.445c.11-.053.513-.3.659-.392a5.09,5.09,0,0,0,1.056-.918c.531-.581.577-3.4.577-3.4Z" transform="translate(-3028.845 -1544.718)" fill="#f7a491"/>
            <path id="Path_1660" data-name="Path 1660" d="M3033.867,1200.556s-3.175-1.566-2.565,1.839,5.264,41.692,5.264,41.692l4.358.242s.557-12.765.435-14.6a33.472,33.472,0,0,0-.844-4.669l-.37-11.324-4.111-13.982Z" transform="translate(-3023.321 -1155.308)" fill="#473b1e"/>
            <path id="Path_1661" data-name="Path 1661" d="M3036.286,1680.127a6.793,6.793,0,0,0,4.206-.162,3.3,3.3,0,0,1,.338,1.729c-.18.514-.413.743-.639.749-1.785.046-6.559,0-7.919.014a.218.218,0,0,1-.173-.359A36.042,36.042,0,0,1,3036.286,1680.127Z" transform="translate(-3024.061 -1587.448)" fill="url(#linear-gradient-24)"/>
            <path id="Path_1662" data-name="Path 1662" d="M2962.719,777.977s-2.685-5.166-3.1-7.062-1.859-11.447-1.737-12.062,2.4-2.095,2.121-2.617-2.454-.524-2.951-.479a4.5,4.5,0,0,0-1.925.688c-.428.353.481,11.8.753,14.262s3.607,10.052,3.607,10.052Z" transform="translate(-2954.737 -755.739)" fill="#f7a491"/>
            <g id="Group_1454" data-name="Group 1454" transform="translate(4.128 14.188)">
              <path id="Path_1663" data-name="Path 1663" d="M3240.975,1331.375a26.323,26.323,0,0,0,2.707-3.261c.264-.5.5-1.784,1.055-2.011a1.42,1.42,0,0,1,.887-.124l5.811,4.564c.316.249-.05.279-.45.256a14.954,14.954,0,0,1-2.973-.551c-.119-.029-.591-.087-.759-.111a5.1,5.1,0,0,0-1.4.047c-.778.117-2.589,2.275-2.589,2.275Z" transform="translate(-3216.203 -1283.065)" fill="#f7a491"/>
              <path id="Path_1664" data-name="Path 1664" d="M3273.4,1329.026a6.8,6.8,0,0,0-3.369-2.523c.2-.582.427-1.344.806-1.578.463-.286.783-.227.962-.089,1.415,1.089,5.119,4.067,6.186,4.911a.218.218,0,0,1-.092.388A36.032,36.032,0,0,1,3273.4,1329.026Z" transform="translate(-3242.348 -1281.953)" fill="url(#linear-gradient-24)"/>
              <path id="Path_1665" data-name="Path 1665" d="M3064.536,903.953a6.471,6.471,0,0,0-7.39-3.713,6.805,6.805,0,0,0-4.411-2.683c-3.369-.477-7.717,1.157-7.273,4.674-1.064,2.46-.8,5.85,1.323,7.512-.39,3.233,2.851,6.1,6.689,5.715a6.954,6.954,0,0,0,6.738,2.894,15.158,15.158,0,0,1,1.675-.309c-.2-.022,4.377,2.973,7.531-2.36C3072.635,910.241,3069.466,904.157,3064.536,903.953Z" transform="translate(-3039.712 -897.476)" fill="#002a24"/>
              <path id="Path_1666" data-name="Path 1666" d="M3044.853,1194.608s7.121-3.167,7.234-2.805c.892,2.876,3.67,1.948,5.319,7.013.691,2.121,1.4,16.23,1.4,16.23s2.808-2.33,6.821-6.4c.308-.313,3.325,2.557,3.325,2.557-7.966,10.762-11.4,11.324-12.731,10.721-2.774-1.258-8.629-18.852-8.62-18.85C3046.9,1201.7,3044.853,1194.608,3044.853,1194.608Z" transform="translate(-3039.713 -1162.314)" fill="#847d3d"/>
              <path id="Path_1667" data-name="Path 1667" d="M3162.8,992.357s10.293-.013,12.5-.14c1.995-.115,9.906.086,10.215.051s2.354-3.5,2.694-3.127-1.138,1.717-.681,2.066,5.367-.433,5.3-.07c-.122.679-2.987.593-2.984.921s3-.184,3.2.36-2.881.222-3,.465,2.861.688,2.556,1.194c-.166.275-2.644-.459-2.631-.084s1.82,1.227,1.6,1.526-1.418-.916-2.467-.931-1.8-.562-3.475-.1c-.827.227-7.138,1-12.472,1.454-5.467.467-9.949.616-9.949.616Z" transform="translate(-3145.851 -979.939)" fill="#f7a491"/>
              <path id="Path_1668" data-name="Path 1668" d="M2995.191,977.416a13.082,13.082,0,0,1,.263-3.474c-.5-1.717-1.564-5.379-1.946-6.1,0,0,1.792-3.444,3.626-3.42,0,0,1.874,4.223,3.322,4.979a3.6,3.6,0,0,0,.729.218c1.4-.01,6.286-.158,7.2-.175l-.513,6.934c-3.542,6.942-2.583,10.586-1.235,11.933.634.634-8.838,3.206-9.274,2.309C2996.847,989.562,2995.467,980.757,2995.191,977.416Z" transform="translate(-2993.508 -957.721)" fill="#edfdfc"/>
              <path id="Path_1669" data-name="Path 1669" d="M3117.308,1014.791c.9-.431,7.425-.215,7.425-.215s.912,4.543.175,5.635c0,0-5.833.868-5.667,1.347Z" transform="translate(-3104.915 -1002.806)" fill="#edfdfc"/>
              <path id="Path_1670" data-name="Path 1670" d="M3061.586,976.136a33.76,33.76,0,0,0,0,3.51,3.611,3.611,0,0,1-3.246,3.494c-2.187.042-.321-2.321-.129-3.337s.421-4.991.421-4.991Z" transform="translate(-3050.903 -967.07)" fill="#f7a491"/>
              <path id="Path_1671" data-name="Path 1671" d="M3069.561,974.811s-.053.923-.13,1.993a2.544,2.544,0,0,0,3.039.742c.014-.767.043-1.41.043-1.41Z" transform="translate(-3061.831 -967.07)" fill="#f47458"/>
              <path id="Path_1672" data-name="Path 1672" d="M3064.862,913.523a3.634,3.634,0,0,1,1.934,1.609c.7,1.239.988,4.766-1.683,6.218s-4.5-.989-4.38-3.238S3061.542,912.9,3064.862,913.523Z" transform="translate(-3053.998 -911.84)" fill="#f7a491"/>
              <path id="Path_1673" data-name="Path 1673" d="M3054.651,941.752c.181.557.591.924.916.818s.441-.643.26-1.2-.591-.924-.916-.818S3054.471,941.2,3054.651,941.752Z" transform="translate(-3048.454 -936.224)" fill="#f7a491"/>
              <path id="Path_1674" data-name="Path 1674" d="M3098.312,913.294s1.356,3.708,2.743,4.126,1.242,2.227,1.242,2.227.257-4.182-1-5.232A5.568,5.568,0,0,0,3098.312,913.294Z" transform="translate(-3087.821 -911.711)" fill="#002a24"/>
              <path id="Path_1675" data-name="Path 1675" d="M3118.61,954.453c-.226.571-.1,1.158.291,1.311s.882-.187,1.108-.758.1-1.158-.291-1.311S3118.836,953.882,3118.61,954.453Z" transform="translate(-3105.988 -948.034)" fill="#f7a491"/>
            </g>
            <path id="Path_1676" data-name="Path 1676" d="M2952.267,763.194s3.016.132,3.37.132,1.384-1.065,1.384-1.065Z" transform="translate(-2952.267 -761.607)" fill="#f47458"/>
          </g>
          <g id="Group_1457" data-name="Group 1457" transform="translate(0)">
            <circle id="Ellipse_397" data-name="Ellipse 397" cx="11.708" cy="11.708" r="11.708" transform="matrix(0.976, -0.22, 0.22, 0.976, 0, 5.149)" fill="#edfdfc"/>
            <path id="Path_1677" data-name="Path 1677" d="M2874.854,561.968a9.824,9.824,0,1,1-13.686-2.4A9.825,9.825,0,0,1,2874.854,561.968Z" transform="translate(-2852.816 -553.616)" fill="url(#linear-gradient-36)"/>
            <g id="Group_1456" data-name="Group 1456" transform="translate(9.843 6.843)">
              <path id="Path_1678" data-name="Path 1678" d="M2918.941,598.547l-.428-1.583a7.966,7.966,0,0,1-2.092.184,1,1,0,0,1-.946-.984V596.1a1,1,0,0,1,1.057-1.009,5.816,5.816,0,0,0,1.892-.177c.95-.257,1.5-.8,1.32-1.466-.171-.633-.813-.889-2.159-.972-1.945-.118-3.387-.622-3.824-2.239-.4-1.467.326-2.9,2.014-3.728l-.428-1.583,1.633-.442.4,1.466a7.369,7.369,0,0,1,1.58-.192,1,1,0,0,1,1,.985h0a1,1,0,0,1-1.018,1.011,5.3,5.3,0,0,0-1.52.188c-1.083.293-1.307.854-1.181,1.321.149.55.827.742,2.387.892,2.173.164,3.22.864,3.626,2.364a3.308,3.308,0,0,1-2.133,3.885l.46,1.7Z" transform="translate(-2913.654 -584.484)" fill="#edfdfc"/>
            </g>
          </g>
        </g>
        <path id="Path_1679" data-name="Path 1679" d="M2985.933,754.994l1.245-1.119s-.588-.7-.344-.837c.4-.219,1.077.629,1.016.835a4.873,4.873,0,0,1-.791.871Z" transform="translate(-2968.855 -729.29)" fill="#f7a491"/>
      </g>
    </g>
  </g>
</svg>
