<svg xmlns="http://www.w3.org/2000/svg" xmlns:xlink="http://www.w3.org/1999/xlink" width="64.389" height="64.389" viewBox="0 0 64.389 64.389">
  <defs>
    <linearGradient id="linear-gradient" x1="0.5" y1="1" x2="0.5" gradientUnits="objectBoundingBox">
      <stop offset="0" stop-color="#2eaa66"/>
      <stop offset="0.768" stop-color="#1ed37c"/>
      <stop offset="1" stop-color="#3ec76d"/>
    </linearGradient>
  </defs>
  <g id="Group_1359" data-name="Group 1359" transform="translate(0 0.001)">
    <path id="Path_1442" data-name="Path 1442" d="M73.3,100.328v4.821c-1.267.064-2.593.1-3.958.1-1.483,0-2.918-.041-4.284-.117v-3.849h0v-.939c-7.575.365-13.182,1.674-13.182,3.235,0,1.843,7.82,3.336,17.467,3.336s17.467-1.493,17.467-3.336C86.805,101.994,81.036,100.67,73.3,100.328Z" transform="translate(-37.144 -71.843)" fill="url(#linear-gradient)"/>
    <path id="Path_1443" data-name="Path 1443" d="M32.194,0A32.195,32.195,0,1,0,64.389,32.193,32.194,32.194,0,0,0,32.194,0Zm3.957,37.66v14.2H27.91V37.64c-8.823-.511-15.423-2.563-15.423-5.018s6.6-4.507,15.423-5.018V23.624H16.689V15.382H47.374v8.242H36.152v3.96c8.988.478,15.751,2.552,15.751,5.037S45.14,37.182,36.152,37.659Z" fill="url(#linear-gradient)"/>
  </g>
</svg>
