<svg xmlns="http://www.w3.org/2000/svg" xmlns:xlink="http://www.w3.org/1999/xlink" width="66.387" height="64.389" viewBox="0 0 66.387 64.389">
  <defs>
    <linearGradient id="linear-gradient" x1="0.5" y1="1" x2="0.5" gradientUnits="objectBoundingBox">
      <stop offset="0" stop-color="#2eaa66"/>
      <stop offset="0.768" stop-color="#1ed37c"/>
      <stop offset="1" stop-color="#3ec76d"/>
    </linearGradient>
  </defs>
  <g id="Group_1464" data-name="Group 1464" transform="translate(-2.342 -2.303)">
    <path id="Path_1692" data-name="Path 1692" d="M56.914,32.6h-7.36l5.03,8.259h9.05a3.193,3.193,0,0,0-.394-.905l-3.8-5.971A2.989,2.989,0,0,0,56.914,32.6Z" transform="translate(5.096 3.271)" fill="url(#linear-gradient)"/>
    <path id="Path_1693" data-name="Path 1693" d="M47.55,32.6H42.14L38.3,40.864h8.321a1.385,1.385,0,1,1,0,2.77h-8.55L44.585,62.7a1.06,1.06,0,0,0,2.005,0l6.933-20.292Z" transform="translate(3.857 3.271)" fill="url(#linear-gradient)"/>
    <path id="Path_1694" data-name="Path 1694" d="M49.326,58.529,63.056,42.6c.011-.014.019-.03.03-.044H54.818Z" transform="translate(5.071 4.345)" fill="url(#linear-gradient)"/>
    <path id="Path_1695" data-name="Path 1695" d="M31.719,33.988l-3.8,5.971a3.193,3.193,0,0,0-.394.905h8.868L40.225,32.6H34.24a2.989,2.989,0,0,0-2.521,1.383Z" transform="translate(2.718 3.271)" fill="url(#linear-gradient)"/>
    <path id="Path_1696" data-name="Path 1696" d="M28.037,42.559c.011.014.019.03.03.044L41.71,58.5,36.23,42.559Z" transform="translate(2.773 4.345)" fill="url(#linear-gradient)"/>
    <path id="Path_1697" data-name="Path 1697" d="M38.764,10.337H48.7a4.882,4.882,0,0,1,4.876,4.876v6.519L51.849,20.2a1.939,1.939,0,0,0-2.577,2.9l4.95,4.4a1.939,1.939,0,0,0,2.577,0l4.95-4.4a1.939,1.939,0,0,0-2.577-2.9l-1.723,1.533V15.214a8.765,8.765,0,0,0-8.754-8.754H38.764a1.939,1.939,0,1,0,0,3.878Z" transform="translate(3.722 0.449)" fill="url(#linear-gradient)"/>
    <path id="Path_1698" data-name="Path 1698" d="M19.5,36.621A17.159,17.159,0,1,0,2.342,19.462,17.159,17.159,0,0,0,19.5,36.621Zm1.312-15.434H18.139a4.772,4.772,0,0,1-.274-9.536V9.432a1.5,1.5,0,1,1,2.991,0v2.191h3.292a1.5,1.5,0,0,1,0,2.991H18.139a1.791,1.791,0,1,0,0,3.582h2.674a4.551,4.551,0,1,1,.043,9.1v2.194a1.5,1.5,0,1,1-2.991,0V27.3H14.852a1.5,1.5,0,0,1,0-2.991h5.961a1.562,1.562,0,1,0,0-3.124Z" transform="translate(0)" fill="url(#linear-gradient)"/>
    <path id="Path_1699" data-name="Path 1699" d="M28.22,58.39H18.289a4.882,4.882,0,0,1-4.876-4.876v-6.5l1.723,1.533a1.939,1.939,0,1,0,2.577-2.9l-4.95-4.406a1.938,1.938,0,0,0-2.578,0L5.235,45.647a1.939,1.939,0,1,0,2.58,2.9l1.72-1.532v6.5a8.765,8.765,0,0,0,8.754,8.754h9.931a1.939,1.939,0,1,0,0-3.878Z" transform="translate(0.242 4.15)" fill="url(#linear-gradient)"/>
  </g>
</svg>
