<svg xmlns="http://www.w3.org/2000/svg" xmlns:xlink="http://www.w3.org/1999/xlink" width="65" height="65" viewBox="0 0 65 65">
  <defs>
    <linearGradient id="linear-gradient" x1="0.5" y1="1" x2="0.5" gradientUnits="objectBoundingBox">
      <stop offset="0" stop-color="#2eaa66"/>
      <stop offset="0.768" stop-color="#1ed37c"/>
      <stop offset="1" stop-color="#3ec76d"/>
    </linearGradient>
  </defs>
  <g id="Group_1465" data-name="Group 1465" transform="translate(-0.5 -1.5)">
    <path id="Path_1700" data-name="Path 1700" d="M1,34A32,32,0,1,0,33,2,32,32,0,0,0,1,34Z" stroke="rgba(0,0,0,0)" stroke-miterlimit="10" stroke-width="1" fill="url(#linear-gradient)"/>
    <g id="User">
      <path id="Path_1701" data-name="Path 1701" d="M44.51,43.58v5.56a.85.85,0,0,1-.84.86H18.39a.85.85,0,0,1-.84-.86V43.58c0-4.49,6-8.13,13.48-8.13S44.51,39.09,44.51,43.58Z" fill="none" stroke="#fff" stroke-linecap="round" stroke-miterlimit="10" stroke-width="2"/>
      <ellipse id="Ellipse_398" data-name="Ellipse 398" cx="5.99" cy="5.82" rx="5.99" ry="5.82" transform="translate(25.04 18)" fill="none" stroke="#fff" stroke-linecap="round" stroke-miterlimit="10" stroke-width="2"/>
    </g>
    <line id="Line_5" data-name="Line 5" x2="6" transform="translate(43 21)" fill="none" stroke="#fff" stroke-linecap="round" stroke-linejoin="round" stroke-width="2"/>
    <line id="Line_6" data-name="Line 6" y1="6" transform="translate(46 18)" fill="none" stroke="#fff" stroke-linecap="round" stroke-linejoin="round" stroke-width="2"/>
  </g>
</svg>
