<svg xmlns="http://www.w3.org/2000/svg" width="202.425" height="133.133" viewBox="0 0 202.425 133.133">
  <g id="Group_1039" data-name="Group 1039" transform="translate(-333.996 -561.314)" opacity="0.401">
    <g id="Group_735" data-name="Group 735" transform="translate(476.227 595.713)">
      <g id="Group_713" data-name="Group 713" transform="translate(0 3.126)">
        <path id="Path_933" data-name="Path 933" d="M1421.173,889.058s20.331-46.37,32.706-40.381-20.508,28.053-26,41.74Z" transform="translate(-1421.173 -848.143)" fill="#00a76e"/>
      </g>
      <g id="Group_717" data-name="Group 717" transform="translate(11.326 11.436)">
        <g id="Group_714" data-name="Group 714">
          <path id="Path_934" data-name="Path 934" d="M1507.748,942.538s29.957-38.494,42.341-29.521-27.017,21.1-35.306,32.6Z" transform="translate(-1507.748 -911.661)" fill="#ffdf76"/>
        </g>
        <g id="Group_716" data-name="Group 716" transform="translate(3.599 5.863)">
          <g id="Group_715" data-name="Group 715">
            <path id="Path_935" data-name="Path 935" d="M1535.576,983.248c5.58-8.045,14.362-14.8,20.746-19.048a117.385,117.385,0,0,1,12.647-7.369l-.169-.353a117.715,117.715,0,0,0-12.695,7.4c-6.413,4.268-15.236,11.055-20.851,19.15Z" transform="translate(-1535.255 -956.479)" fill="#f4f4f4"/>
          </g>
        </g>
      </g>
      <g id="Group_718" data-name="Group 718" transform="translate(39.113)">
        <path id="Path_936" data-name="Path 936" d="M1720.461,826.32c.427-1.8,1.127-2.2,1.833-2.036s1.153.839.726,2.642a8.338,8.338,0,0,1-2.434,4.569A8.163,8.163,0,0,1,1720.461,826.32Z" transform="translate(-1720.14 -824.25)" fill="#00a76e"/>
      </g>
      <g id="Group_719" data-name="Group 719" transform="translate(43.089 34.898)">
        <path id="Path_937" data-name="Path 937" d="M1755.808,1091.007c1.969-.064,2.575.542,2.6,1.313s-.54,1.417-2.509,1.481a8.862,8.862,0,0,1-5.365-1.223S1752.169,1091.125,1755.808,1091.007Z" transform="translate(-1750.534 -1091.002)" fill="#00a76e"/>
      </g>
      <g id="Group_720" data-name="Group 720" transform="translate(40.636 29.911)">
        <path id="Path_938" data-name="Path 938" d="M1734.177,1054.069c1.245-1.372,2.052-1.384,2.589-.9s.6,1.292-.642,2.664a8.337,8.337,0,0,1-4.339,2.823A8.161,8.161,0,0,1,1734.177,1054.069Z" transform="translate(-1731.786 -1052.88)" fill="#00a76e"/>
      </g>
      <g id="Group_734" data-name="Group 734" transform="translate(0.197 38.627)">
        <g id="Group_722" data-name="Group 722">
          <g id="Group_721" data-name="Group 721">
            <path id="Path_939" data-name="Path 939" d="M1467.9,1149.358c-6.848-1.624-10.308,8.264-16.547,3.14s-5.435-5.3-10.3-3.854c0,0-2.744,2.336-5.792,1.485-12.029-3.358-19.357-27.023-3.456-30.533a8.247,8.247,0,0,1,3.934.51c7.854,2.354,8.527,6.8,18.4.936s11.788,10.225,16.9,12.133,10.131,2.5,11.468,9.523S1474.748,1150.986,1467.9,1149.358Z" transform="translate(-1422.681 -1119.508)" fill="#00a76e"/>
          </g>
        </g>
        <g id="Group_733" data-name="Group 733" transform="translate(6.881 1.483)">
          <g id="Group_724" data-name="Group 724" transform="translate(0 11.548)">
            <g id="Group_723" data-name="Group 723">
              <path id="Path_940" data-name="Path 940" d="M1475.348,1219.8l-.067-.458c.2-.03,20.573-2.811,53.115,11.825l-.19.422C1495.786,1217.014,1475.549,1219.775,1475.348,1219.8Z" transform="translate(-1475.281 -1219.118)" fill="#f4f4f4"/>
            </g>
          </g>
          <g id="Group_726" data-name="Group 726" transform="translate(24.231)">
            <g id="Group_725" data-name="Group 725">
              <path id="Path_941" data-name="Path 941" d="M1662.3,1140.227c-2.418-5.85-1.715-9.24-1.684-9.381l.452.1c-.007.033-.7,3.4,1.66,9.106Z" transform="translate(-1660.494 -1130.846)" fill="#f4f4f4"/>
            </g>
          </g>
          <g id="Group_728" data-name="Group 728" transform="translate(24.599 1.956)">
            <g id="Group_727" data-name="Group 727">
              <path id="Path_942" data-name="Path 942" d="M1663.325,1158.081c-.188-2.672,1.374-5.647,4.515-8.6a30.9,30.9,0,0,1,4.818-3.679l.235.4c-.1.056-9.537,5.708-9.106,11.852Z" transform="translate(-1663.31 -1145.799)" fill="#f4f4f4"/>
            </g>
          </g>
          <g id="Group_730" data-name="Group 730" transform="translate(32.98 16.325)">
            <g id="Group_729" data-name="Group 729">
              <path id="Path_943" data-name="Path 943" d="M1727.825,1256.865c-.3-.664-.445-1.07-.451-1.088l.438-.149c.029.086,3.022,8.619,11.641,12.426l-.187.423A23.5,23.5,0,0,1,1727.825,1256.865Z" transform="translate(-1727.374 -1255.628)" fill="#f4f4f4"/>
            </g>
          </g>
          <g id="Group_732" data-name="Group 732" transform="translate(32.483 19.666)">
            <g id="Group_731" data-name="Group 731">
              <path id="Path_944" data-name="Path 944" d="M1724.079,1290.715a10.918,10.918,0,0,1,.138-7.008,8.088,8.088,0,0,1,1.468-2.541l.337.318c-.032.034-3.155,3.443-1.5,9.1Z" transform="translate(-1723.575 -1281.167)" fill="#f4f4f4"/>
            </g>
          </g>
        </g>
      </g>
    </g>
    <g id="Group_739" data-name="Group 739" transform="translate(336.289 623.692)">
      <g id="Group_736" data-name="Group 736">
        <path id="Path_945" data-name="Path 945" d="M394.569,1063.037s-30.661-32.523-41.182-23.265,26.473,16.909,35.031,26.68Z" transform="translate(-351.52 -1038.114)" fill="#7fc064"/>
      </g>
      <g id="Group_738" data-name="Group 738" transform="translate(6.874 5.32)">
        <g id="Group_737" data-name="Group 737">
          <path id="Path_946" data-name="Path 946" d="M436.814,1100.325c-5.787-6.855-14.383-12.256-20.575-15.58a107.568,107.568,0,0,0-12.176-5.627l.124-.336a107.836,107.836,0,0,1,12.221,5.648c6.22,3.338,14.856,8.766,20.68,15.665Z" transform="translate(-404.063 -1078.782)" fill="#f4f4f4"/>
        </g>
      </g>
    </g>
    <g id="Group_753" data-name="Group 753" transform="translate(333.996 631.645)">
      <g id="Group_741" data-name="Group 741" transform="translate(0 0)">
        <g id="Group_740" data-name="Group 740">
          <path id="Path_947" data-name="Path 947" d="M350.63,1132.167c9.818,1.908,8.507,16.737,19.587,13.758s10.141-3.68,15.6,1.045c0,0,2.185,4.632,6.631,5.315,17.542,2.7,40.893-23.655,22.358-37.513-1.338-1-3.263-1.356-5.392-1.644-11.548-1.552-15.023,3.807-24.377-9.566s-21.253,6.336-28.986,5.815-14.585-2.692-20.427,5.614S340.811,1130.265,350.63,1132.167Z" transform="translate(-333.996 -1098.9)" fill="#ffdf76"/>
        </g>
      </g>
      <g id="Group_752" data-name="Group 752" transform="translate(0.289 1.641)">
        <g id="Group_743" data-name="Group 743" transform="translate(0 16.802)">
          <g id="Group_742" data-name="Group 742">
            <path id="Path_948" data-name="Path 948" d="M411.559,1256.227l.355-.553c-.244-.157-24.993-15.688-75.7-15.8v.658C386.729,1240.643,411.316,1256.071,411.559,1256.227Z" transform="translate(-336.209 -1239.876)" fill="#f4f4f4"/>
          </g>
        </g>
        <g id="Group_745" data-name="Group 745" transform="translate(42.948 2.952)">
          <g id="Group_744" data-name="Group 744">
            <path id="Path_949" data-name="Path 949" d="M664.943,1145.3c6.557-6.159,7.633-10.96,7.675-11.161l-.644-.136c-.01.047-1.092,4.817-7.483,10.818Z" transform="translate(-664.492 -1134.004)" fill="#f4f4f4"/>
          </g>
        </g>
        <g id="Group_747" data-name="Group 747" transform="translate(36.963)">
          <g id="Group_746" data-name="Group 746">
            <path id="Path_950" data-name="Path 950" d="M624.172,1132.812c1.808-3.35,1.529-8.117-.807-13.784a43.931,43.931,0,0,0-4.084-7.586l-.538.378c.091.129,9.006,12.976,4.85,20.68Z" transform="translate(-618.743 -1111.442)" fill="#f4f4f4"/>
          </g>
        </g>
        <g id="Group_749" data-name="Group 749" transform="translate(7.412 18.915)">
          <g id="Group_748" data-name="Group 748">
            <path id="Path_951" data-name="Path 951" d="M414.483,1257.617c.781-.683,1.2-1.125,1.221-1.145l-.48-.45c-.088.094-8.961,9.391-22.351,9.272l-.006.658C403.657,1266.047,411.572,1260.16,414.483,1257.617Z" transform="translate(-392.868 -1256.022)" fill="#f4f4f4"/>
          </g>
        </g>
        <g id="Group_751" data-name="Group 751" transform="translate(22.278 22.553)">
          <g id="Group_750" data-name="Group 750">
            <path id="Path_952" data-name="Path 952" d="M507,1297.136a15.52,15.52,0,0,0,3.926-9.155,11.5,11.5,0,0,0-.413-4.15l-.622.214c.021.062,2.069,6.306-3.39,12.662Z" transform="translate(-506.5 -1283.831)" fill="#f4f4f4"/>
          </g>
        </g>
      </g>
    </g>
    <g id="Group_782" data-name="Group 782" transform="translate(341.283 593.737)">
      <g id="Group_781" data-name="Group 781" transform="translate(0 0)">
        <g id="Group_754" data-name="Group 754" transform="translate(14.913 5.452)">
          <path id="Path_953" data-name="Path 953" d="M505.786,854.364c-.723,1.122-1.295,1.227-1.735.943s-.582-.847.142-1.969a6.007,6.007,0,0,1,2.75-2.52A5.88,5.88,0,0,1,505.786,854.364Z" transform="translate(-503.686 -850.818)" fill="#00a76e"/>
        </g>
        <g id="Group_755" data-name="Group 755" transform="translate(18.892 13.017)">
          <path id="Path_954" data-name="Path 954" d="M536.072,912.374c-.321,1.3-.828,1.58-1.336,1.454s-.824-.613-.5-1.909a6.009,6.009,0,0,1,1.787-3.274A5.881,5.881,0,0,1,536.072,912.374Z" transform="translate(-534.102 -908.644)" fill="#00a76e"/>
        </g>
        <g id="Group_780" data-name="Group 780">
          <g id="Group_757" data-name="Group 757" transform="translate(5.729 14.844)">
            <g id="Group_756" data-name="Group 756">
              <path id="Path_955" data-name="Path 955" d="M458.293,944.848l-.235.094a34.781,34.781,0,0,0-5.246-8.187,49,49,0,0,0-19.326-13.914l.1-.234a49.24,49.24,0,0,1,19.432,14A35.017,35.017,0,0,1,458.293,944.848Z" transform="translate(-433.486 -922.606)" fill="#00a76e"/>
            </g>
          </g>
          <g id="Group_759" data-name="Group 759" transform="translate(10.084 4.254)">
            <g id="Group_758" data-name="Group 758">
              <path id="Path_956" data-name="Path 956" d="M473.056,858.092l-.251-.026c.934-9.129-5.958-16.161-6.027-16.231l.179-.178C467.026,841.728,474,848.841,473.056,858.092Z" transform="translate(-466.777 -841.657)" fill="#00a76e"/>
            </g>
          </g>
          <g id="Group_761" data-name="Group 761" transform="translate(6.489 17.913)">
            <g id="Group_760" data-name="Group 760">
              <path id="Path_957" data-name="Path 957" d="M443.927,946.9a8.951,8.951,0,0,1-4.628.881l.032-.251a8.482,8.482,0,0,0,5.474-1.461l.149.2A7.418,7.418,0,0,1,443.927,946.9Z" transform="translate(-439.299 -946.07)" fill="#00a76e"/>
            </g>
          </g>
          <g id="Group_763" data-name="Group 763" transform="translate(12.671 30.686)">
            <g id="Group_762" data-name="Group 762">
              <path id="Path_958" data-name="Path 958" d="M501.47,1045.207a17.163,17.163,0,0,1-14.551-1.079,3.781,3.781,0,0,0-.359-.18.079.079,0,0,0,.029,0l-.037-.25c.074-.011.141.023.485.206a16.92,16.92,0,0,0,14.345,1.065Z" transform="translate(-486.552 -1043.697)" fill="#00a76e"/>
            </g>
          </g>
          <g id="Group_765" data-name="Group 765" transform="translate(14.665 26.185)">
            <g id="Group_764" data-name="Group 764">
              <path id="Path_959" data-name="Path 959" d="M506.935,1016.187l-.248.051c-.692-3.359-4.857-6.709-4.9-6.743l.157-.2a20.98,20.98,0,0,1,2.221,2.131A11.256,11.256,0,0,1,506.935,1016.187Z" transform="translate(-501.789 -1009.297)" fill="#00a76e"/>
            </g>
          </g>
          <g id="Group_767" data-name="Group 767" transform="translate(0 13.383)">
            <g id="Group_766" data-name="Group 766">
              <path id="Path_960" data-name="Path 960" d="M394.64,911.95c1.737.474,2.142,1.024,2,1.529s-.766.773-2.5.3a10.149,10.149,0,0,1-4.444-2.195A9.922,9.922,0,0,1,394.64,911.95Z" transform="translate(-389.697 -911.436)" fill="#00a76e"/>
            </g>
          </g>
          <g id="Group_769" data-name="Group 769" transform="translate(1.902 18.582)">
            <g id="Group_768" data-name="Group 768">
              <path id="Path_961" data-name="Path 961" d="M409.062,951.185c1.8-.072,2.351.331,2.372.854s-.5.968-2.3,1.04a10.153,10.153,0,0,1-4.9-.752A9.923,9.923,0,0,1,409.062,951.185Z" transform="translate(-404.239 -951.176)" fill="#00a76e"/>
            </g>
          </g>
          <g id="Group_771" data-name="Group 771" transform="translate(11.489 23.958)">
            <g id="Group_770" data-name="Group 770">
              <path id="Path_962" data-name="Path 962" d="M480.995,993.623c1.081.784,1.153,1.36.846,1.784s-.878.534-1.959-.25a6.008,6.008,0,0,1-2.365-2.885A5.88,5.88,0,0,1,480.995,993.623Z" transform="translate(-477.518 -992.271)" fill="#00a76e"/>
            </g>
          </g>
          <g id="Group_773" data-name="Group 773" transform="translate(8.566 11.83)">
            <g id="Group_772" data-name="Group 772">
              <path id="Path_963" data-name="Path 963" d="M458.22,901.723c.858,1.023.788,1.6.387,1.936s-.981.3-1.839-.719a6.009,6.009,0,0,1-1.592-3.373A5.881,5.881,0,0,1,458.22,901.723Z" transform="translate(-455.176 -899.567)" fill="#00a76e"/>
            </g>
          </g>
          <g id="Group_775" data-name="Group 775" transform="translate(19.796 27.449)">
            <g id="Group_774" data-name="Group 774">
              <path id="Path_964" data-name="Path 964" d="M543.408,1021.88c.536,1.223.306,1.757-.173,1.967s-1.027.016-1.563-1.207a6.008,6.008,0,0,1-.579-3.685A5.88,5.88,0,0,1,543.408,1021.88Z" transform="translate(-541.013 -1018.956)" fill="#00a76e"/>
            </g>
          </g>
          <g id="Group_777" data-name="Group 777" transform="translate(10.269 29.74)">
            <g id="Group_776" data-name="Group 776">
              <path id="Path_965" data-name="Path 965" d="M471.879,1037.132c1.224.534,1.418,1.082,1.209,1.562s-.743.709-1.967.175a6.007,6.007,0,0,1-2.927-2.312A5.881,5.881,0,0,1,471.879,1037.132Z" transform="translate(-468.194 -1036.472)" fill="#00a76e"/>
            </g>
          </g>
          <g id="Group_779" data-name="Group 779" transform="translate(6.409)">
            <g id="Group_778" data-name="Group 778">
              <path id="Path_966" data-name="Path 966" d="M442.557,812.244c1.164,1.374,1.186,2.057.787,2.395s-1.069.2-2.233-1.17a10.153,10.153,0,0,1-2.422-4.325A9.922,9.922,0,0,1,442.557,812.244Z" transform="translate(-438.689 -809.144)" fill="#00a76e"/>
            </g>
          </g>
        </g>
      </g>
    </g>
    <g id="Group_783" data-name="Group 783" transform="translate(353.003 568.288)">
      <path id="Path_967" data-name="Path 967" d="M494.954,616.8a4.55,4.55,0,0,0-4.512-2.15c-3.234.308-2.849,2.772-4.389,2.541s-3.7,0-4.158,1.54-2.541.693-2.618,2,2.387,2.233,5.236,1.078,4.235.9,8.239.526,4.5-.834,6.87-.6,2.314-1.392,1.236-2.47S495.416,618.285,494.954,616.8Z" transform="translate(-479.276 -614.62)" fill="#f4f4f4"/>
    </g>
    <g id="Group_784" data-name="Group 784" transform="translate(425.957 570.687)">
      <path id="Path_968" data-name="Path 968" d="M1065.918,636.98a8.417,8.417,0,0,0-8.345-3.977c-5.981.57-5.269,5.127-8.117,4.7s-6.835,0-7.69,2.848-4.7,1.282-4.842,3.7,4.415,4.13,9.684,1.994,7.832,1.66,15.238.972,8.323-1.542,12.706-1.114,4.279-2.574,2.285-4.568S1066.773,639.734,1065.918,636.98Z" transform="translate(-1036.921 -632.954)" fill="#f4f4f4"/>
    </g>
    <g id="Group_785" data-name="Group 785" transform="translate(460.963 561.314)">
      <path id="Path_969" data-name="Path 969" d="M1328.42,565.943s-3.13-5.421-8.855-4.53-.127,3.335-7.634,4.53-9.161,3.74-5.726,5.776,9.034-3.69,15.142-.891S1335.621,571.237,1328.42,565.943Z" transform="translate(-1304.493 -561.314)" fill="#f4f4f4"/>
    </g>
    <g id="Group_832" data-name="Group 832" transform="translate(443.707 585.466)">
      <g id="Group_792" data-name="Group 792" transform="translate(41.03 0)">
        <g id="Group_786" data-name="Group 786" transform="translate(3.601 1.242)">
          <path id="Path_970" data-name="Path 970" d="M1513.97,760.112h0a.538.538,0,0,0,.749-.123l2.672-3.722a.538.538,0,0,0-.123-.749h0a.538.538,0,0,0-.749.123l-2.673,3.722A.539.539,0,0,0,1513.97,760.112Z" transform="translate(-1513.747 -755.418)" fill="#ffa076"/>
        </g>
        <g id="Group_787" data-name="Group 787" transform="translate(2.485)">
          <path id="Path_971" data-name="Path 971" d="M1505.439,751.059h0a.538.538,0,0,0,.749-.123l2.989-4.162a.538.538,0,0,0-.123-.749h0a.538.538,0,0,0-.749.123l-2.989,4.162A.538.538,0,0,0,1505.439,751.059Z" transform="translate(-1505.216 -745.925)" fill="#ffa076"/>
        </g>
        <g id="Group_788" data-name="Group 788" transform="translate(0 2.306)">
          <path id="Path_972" data-name="Path 972" d="M1487.074,768.332l.191-.01a.651.651,0,0,0,.616-.68l-.172-3.473a.651.651,0,0,0-.68-.616l-.191.009a.651.651,0,0,0-.616.68l.172,3.473A.651.651,0,0,0,1487.074,768.332Z" transform="translate(-1486.221 -763.553)" fill="#ffa076"/>
        </g>
        <g id="Group_789" data-name="Group 789" transform="translate(1.369 0.024)">
          <path id="Path_973" data-name="Path 973" d="M1496.907,750.42h0a.538.538,0,0,0,.749-.123l2.4-3.337a.538.538,0,0,0-.123-.749h0a.538.538,0,0,0-.749.123l-2.4,3.337A.538.538,0,0,0,1496.907,750.42Z" transform="translate(-1496.684 -746.112)" fill="#ffa076"/>
        </g>
        <g id="Group_790" data-name="Group 790" transform="translate(0.347 2.598)">
          <path id="Path_974" data-name="Path 974" d="M1491.584,771.783s2.8-1.243,3.339-3.355c.185-.731-3.165-3-3.909-2.6s-2.142,2.812-2.142,2.812Z" transform="translate(-1488.872 -765.781)" fill="#ffa076"/>
        </g>
        <g id="Group_791" data-name="Group 791" transform="translate(4.708 2.435)">
          <path id="Path_975" data-name="Path 975" d="M1522.427,768.84h0a.537.537,0,0,0,.748-.123l2.391-3.33a.538.538,0,0,0-.123-.748h0a.537.537,0,0,0-.747.123l-2.391,3.33A.537.537,0,0,0,1522.427,768.84Z" transform="translate(-1522.205 -764.54)" fill="#ffa076"/>
        </g>
      </g>
      <g id="Group_794" data-name="Group 794" transform="translate(18.264 4.604)">
        <g id="Group_793" data-name="Group 793">
          <path id="Path_976" data-name="Path 976" d="M1335.029,781.117c-4.673,3.742-11.678,8.754-18.515,11.383a20.405,20.405,0,0,1-3.17,1.04c-.782.178-1.358,1.759-1.067,3.1a2.6,2.6,0,0,0,2.352,2.135,10.74,10.74,0,0,0,3.242-.877c6.172-2.259,12.874-6.5,20.54-12.98Z" transform="translate(-1312.201 -781.117)" fill="#ffa076"/>
        </g>
      </g>
      <g id="Group_795" data-name="Group 795" transform="translate(23.217 85.554)">
        <path id="Path_977" data-name="Path 977" d="M1353.216,1399.879s.375,1.688,1.616,1.942,4.653.035,3.624,1.369c-.591.766-4.031,1.019-4.98,1.2s-1.759.774-2.589.277c-.913-.547-.818-4.177-.818-4.177a3.862,3.862,0,0,0,1.635.1A3.078,3.078,0,0,0,1353.216,1399.879Z" transform="translate(-1350.067 -1399.879)" fill="#561c17"/>
      </g>
      <g id="Group_796" data-name="Group 796" transform="translate(10.032 88.135)">
        <path id="Path_978" data-name="Path 978" d="M1252.431,1419.606s.375,1.688,1.616,1.942,4.653.035,3.623,1.369c-.591.765-4.031,1.019-4.98,1.2s-1.759.774-2.589.277c-.912-.547-.817-4.177-.817-4.177a3.862,3.862,0,0,0,1.635.1A3.08,3.08,0,0,0,1252.431,1419.606Z" transform="translate(-1249.281 -1419.606)" fill="#561c17"/>
      </g>
      <g id="Group_797" data-name="Group 797" transform="translate(14.958 37.369)">
        <path id="Path_979" data-name="Path 979" d="M1297.769,1031.566s1.6,7.061,2,21.13c.289,10.157.3,20.446.28,25.384a3.778,3.778,0,0,1-2.874,3.689l-.9.215a3.171,3.171,0,0,1-3.845-2.747l-3.994-32.6-1.5-10.692Z" transform="translate(-1286.932 -1031.566)" fill="#8a4d27"/>
      </g>
      <g id="Group_798" data-name="Group 798" transform="translate(6.949 41.848)">
        <path id="Path_980" data-name="Path 980" d="M1225.72,1070.618c.17.871,5.13.4,11.156-.812s10.769-2.426,10.6-3.3-5.19-1.07-11.215.144S1225.55,1069.747,1225.72,1070.618Z" transform="translate(-1225.716 -1065.798)" fill="#561c17"/>
      </g>
      <g id="Group_799" data-name="Group 799" transform="translate(7.589 43.703)">
        <path id="Path_981" data-name="Path 981" d="M1245.26,1080.621l-7.066,42.985a4.2,4.2,0,0,1-3.271,3.678l-.765.164a2.97,2.97,0,0,1-3.548-2.908v-41.233c.012-.478,1.585-1.005,2.036-1.133C1236.387,1081.112,1245.163,1078.878,1245.26,1080.621Z" transform="translate(-1230.609 -1079.978)" fill="#8a4d27"/>
      </g>
      <g id="Group_800" data-name="Group 800" transform="translate(5.375 17.421)">
        <path id="Path_982" data-name="Path 982" d="M1216.11,884.125s1.489-4.953,7.663-5.038c2.918-.04,6.1.317,7.8,5.37,1.526,4.538,4.381,10.613,5.444,19.764a38.889,38.889,0,0,0-21.769,4.036s-2.135-13.321-1.416-21.278C1214.036,884.74,1215.593,885.714,1216.11,884.125Z" transform="translate(-1213.686 -879.085)" fill="#ffdf76"/>
      </g>
      <g id="Group_801" data-name="Group 801" transform="translate(2.41 15.656)">
        <path id="Path_983" data-name="Path 983" d="M1191.018,870.676l5.552,4.223s14.569,1.214,15.468-1.682a8.474,8.474,0,0,0-1.632-7.623s-5.062,1.183-7.539,1.71c-.9.191-3.068.417-3.959.561C1192.693,868.871,1191.018,870.676,1191.018,870.676Z" transform="translate(-1191.018 -865.593)" fill="#ffdf76"/>
      </g>
      <g id="Group_802" data-name="Group 802" transform="translate(18.178 49.079)">
        <path id="Path_984" data-name="Path 984" d="M1311.767,1140.39l-.219-.008.514-14.049a8.294,8.294,0,0,1,2.789-5.263l.143.166a8.069,8.069,0,0,0-2.714,5.115Z" transform="translate(-1311.548 -1121.07)" fill="#020202"/>
      </g>
      <g id="Group_827" data-name="Group 827" transform="translate(6.325 6.687)">
        <g id="Group_803" data-name="Group 803" transform="translate(9.459 4.718)">
          <path id="Path_985" data-name="Path 985" d="M1294.13,837.388l-.028-.066c.007,0,.749-.328.875-.894a1.052,1.052,0,0,0-.328-.925c-.133-.15-.255-.286-.367-.41-.772-.857-1.06-1.177-1.033-1.993l.072,0c-.027.787.236,1.079,1.014,1.943.112.124.235.26.368.411a1.118,1.118,0,0,1,.344.988C1294.913,837.046,1294.163,837.374,1294.13,837.388Z" transform="translate(-1293.248 -833.099)" fill="#561c17"/>
        </g>
        <g id="Group_804" data-name="Group 804" transform="translate(6.389 4.719)">
          <path id="Path_986" data-name="Path 986" d="M1272.894,833.108a3.642,3.642,0,0,0,.975,2.4c1.031,1.135.315,2.221-.865,1.922s-1.353,1.169-2.887.642S1272.894,833.108,1272.894,833.108Z" transform="translate(-1269.787 -833.108)" fill="#561c17"/>
        </g>
        <g id="Group_805" data-name="Group 805" transform="translate(3.965 4.361)">
          <path id="Path_987" data-name="Path 987" d="M1251.266,837.249a1.706,1.706,0,0,0,1.194-1.242l.447-1.881.13-.546.763-3.211.318,3.133.191,1.881.054.536a.858.858,0,0,0,.853.769h.008c.294.332.742,1.033-.15,1.5a3.757,3.757,0,0,1-3.819-.934Z" transform="translate(-1251.257 -830.369)" fill="#ffa076"/>
        </g>
        <g id="Group_806" data-name="Group 806" transform="translate(5.586 7.441)">
          <path id="Path_988" data-name="Path 988" d="M1263.663,854.537c0,.017.008.034.012.051a1.992,1.992,0,0,0,1.4,1.264l.006-.007-.191-1.881a1.607,1.607,0,0,0-1.081.078A.442.442,0,0,0,1263.663,854.537Z" transform="translate(-1263.645 -853.911)" fill="#561c17"/>
        </g>
        <g id="Group_807" data-name="Group 807" transform="translate(3.762 1.209)">
          <path id="Path_989" data-name="Path 989" d="M1255.583,809.387c-.346-1.981-1.929-3.359-3.534-3.078s-2.626,2.114-2.28,4.095,1.929,3.359,3.535,3.078S1255.93,811.368,1255.583,809.387Z" transform="translate(-1249.702 -806.273)" fill="#ffa076"/>
        </g>
        <g id="Group_808" data-name="Group 808" transform="translate(3.881 4.502)">
          <path id="Path_990" data-name="Path 990" d="M1251.045,832.758a.725.725,0,0,0,1.041-.108.811.811,0,0,0-.351-1.038.725.725,0,0,0-1.041.108A.811.811,0,0,0,1251.045,832.758Z" transform="translate(-1250.614 -831.447)" fill="#ffa076"/>
        </g>
        <g id="Group_809" data-name="Group 809" transform="translate(6.665 6.878)">
          <path id="Path_991" data-name="Path 991" d="M1273.935,849.611a6.41,6.41,0,0,1-2.043.021.983.983,0,0,0,1.176.871C1273.7,850.432,1273.935,849.611,1273.935,849.611Z" transform="translate(-1271.892 -849.611)" fill="#db6b49"/>
        </g>
        <g id="Group_810" data-name="Group 810" transform="translate(6.665 6.878)">
          <path id="Path_992" data-name="Path 992" d="M1273.935,849.611a1.319,1.319,0,0,1-.767.337,2.361,2.361,0,0,1-1.276-.315A9.637,9.637,0,0,0,1273.935,849.611Z" transform="translate(-1271.892 -849.611)" fill="#fff"/>
        </g>
        <g id="Group_812" data-name="Group 812" transform="translate(6.175 4.665)">
          <g id="Group_811" data-name="Group 811">
            <path id="Path_993" data-name="Path 993" d="M1269,832.846a.067.067,0,0,0-.014-.126.727.727,0,0,0-.823.34.068.068,0,0,0,.019.093.074.074,0,0,0,.093-.019,1.149,1.149,0,0,1,.683-.284A.066.066,0,0,0,1269,832.846Z" transform="translate(-1268.151 -832.694)" fill="#060633"/>
          </g>
        </g>
        <g id="Group_813" data-name="Group 813" transform="translate(6.623 5.317)">
          <path id="Path_994" data-name="Path 994" d="M1271.58,837.992c.022.159.134.274.249.257s.19-.158.167-.317-.134-.274-.249-.257S1271.558,837.834,1271.58,837.992Z" transform="translate(-1271.576 -837.674)" fill="#060633"/>
        </g>
        <g id="Group_815" data-name="Group 815" transform="translate(8.559 4.474)">
          <g id="Group_814" data-name="Group 814">
            <path id="Path_995" data-name="Path 995" d="M1287.255,831.508a.067.067,0,0,0,.035-.122.727.727,0,0,0-.89,0,.068.068,0,0,0-.018.093.074.074,0,0,0,.093.018,1.15,1.15,0,0,1,.74,0A.066.066,0,0,0,1287.255,831.508Z" transform="translate(-1286.37 -831.234)" fill="#060633"/>
          </g>
        </g>
        <g id="Group_816" data-name="Group 816" transform="translate(8.754 5.12)">
          <path id="Path_996" data-name="Path 996" d="M1287.873,836.406a.26.26,0,0,0,.132.333c.113.029.236-.074.276-.229a.26.26,0,0,0-.132-.333C1288.035,836.148,1287.912,836.251,1287.873,836.406Z" transform="translate(-1287.86 -836.172)" fill="#060633"/>
        </g>
        <g id="Group_817" data-name="Group 817">
          <path id="Path_997" data-name="Path 997" d="M1228.405,798.715a1.694,1.694,0,0,1-1.362,1.739c-1.517.484-2.474,1.329-2.069,2.412s3.316,2.967,1.632,4.189-1.585-.524-3.513.214-2.754-1.864-1.65-3.651-.169-5.783,5.016-6.5,4.016,3.722,4.016,3.722S1228.642,800.089,1228.405,798.715Z" transform="translate(-1220.948 -797.035)" fill="#561c17"/>
        </g>
        <g id="Group_818" data-name="Group 818" transform="translate(2.105 1.171)">
          <path id="Path_998" data-name="Path 998" d="M1240.1,815.158l-.022-.036a1.044,1.044,0,0,0,.567-.785c.079-.853-1.106-1.936-2.151-2.891-.277-.253-.539-.493-.775-.724a2.012,2.012,0,0,1-.523-2.271,2.312,2.312,0,0,1,2.347-1.267,2.957,2.957,0,0,0,2.053-.557,1.922,1.922,0,0,0,.543-.64l.039.017a2.583,2.583,0,0,1-2.637,1.221,2.268,2.268,0,0,0-2.306,1.242,1.947,1.947,0,0,0,.513,2.223c.235.231.5.47.774.723,1.053.962,2.246,2.053,2.165,2.927A1.1,1.1,0,0,1,1240.1,815.158Z" transform="translate(-1237.041 -805.987)" fill="#fff"/>
        </g>
        <g id="Group_820" data-name="Group 820" transform="translate(8.173 2.966)">
          <g id="Group_819" data-name="Group 819">
            <path id="Path_999" data-name="Path 999" d="M1284.9,823.874a.841.841,0,0,1-.468-.053,2.418,2.418,0,0,1-.983-2.524h0a1.975,1.975,0,0,1,.8-1.468.844.844,0,0,1,.768-.057,2.412,2.412,0,0,1,.982,2.522,1.974,1.974,0,0,1-.8,1.469A.925.925,0,0,1,1284.9,823.874Zm-1.32-2.557a2.288,2.288,0,0,0,.9,2.384.734.734,0,0,0,.652-.051,1.85,1.85,0,0,0,.737-1.374,2.286,2.286,0,0,0-.9-2.384.73.73,0,0,0-.653.051,1.846,1.846,0,0,0-.737,1.374Z" transform="translate(-1283.417 -819.706)" fill="#f4f4f4"/>
          </g>
        </g>
        <g id="Group_821" data-name="Group 821" transform="translate(4.716 2.878)" opacity="0.3">
          <path id="Path_1000" data-name="Path 1000" d="M1257,820.616a2.261,2.261,0,0,0,1.262,2.31c.751.211,1.4-.481,1.458-1.546a2.261,2.261,0,0,0-1.262-2.31C1257.706,818.859,1257.053,819.551,1257,820.616Z" transform="translate(-1256.996 -819.033)" fill="#fff"/>
        </g>
        <g id="Group_822" data-name="Group 822" transform="translate(8.186 3.097)" opacity="0.3">
          <path id="Path_1001" data-name="Path 1001" d="M1283.521,822.257a2.419,2.419,0,0,0,1.131,2.37c.679.239,1.272-.434,1.326-1.5a2.418,2.418,0,0,0-1.131-2.37C1284.169,820.514,1283.575,821.187,1283.521,822.257Z" transform="translate(-1283.517 -820.705)" fill="#fff"/>
        </g>
        <g id="Group_824" data-name="Group 824" transform="translate(4.623 2.595)">
          <g id="Group_823" data-name="Group 823">
            <path id="Path_1002" data-name="Path 1002" d="M1258.153,821.09a1.078,1.078,0,0,1-.482-.027,2.4,2.4,0,0,1-1.384-2.473h0a1.947,1.947,0,0,1,.7-1.506,1.084,1.084,0,0,1,.943-.173,2.4,2.4,0,0,1,1.385,2.473,1.95,1.95,0,0,1-.7,1.508A1.128,1.128,0,0,1,1258.153,821.09Zm-.685-4.075a.979.979,0,0,0-.407.175,1.852,1.852,0,0,0-.645,1.408h0a2.271,2.271,0,0,0,1.288,2.339.979.979,0,0,0,.829-.151,1.85,1.85,0,0,0,.647-1.41,2.274,2.274,0,0,0-1.288-2.339A.985.985,0,0,0,1257.468,817.015Z" transform="translate(-1256.282 -816.871)" fill="#f4f4f4"/>
          </g>
        </g>
        <g id="Group_826" data-name="Group 826" transform="translate(7.252 4.654)">
          <g id="Group_825" data-name="Group 825">
            <path id="Path_1003" data-name="Path 1003" d="M1277.52,832.965a.121.121,0,0,1-.082-.015h0a1.106,1.106,0,0,0-.893,0,.127.127,0,0,1-.159-.07.12.12,0,0,1,.071-.157,1.322,1.322,0,0,1,1.1.015.123.123,0,0,1,.045.168A.118.118,0,0,1,1277.52,832.965Z" transform="translate(-1276.378 -832.612)" fill="#f4f4f4"/>
          </g>
        </g>
      </g>
      <g id="Group_828" data-name="Group 828" transform="translate(2.284 20.538)">
        <path id="Path_1004" data-name="Path 1004" d="M1190.154,903.153c-.39.556.351,1.775,2.275,3.036s2.843,2.281,3.656,1.6c.664-.559.236-2.724-2.341-4.157C1192.269,902.808,1190.432,902.756,1190.154,903.153Z" transform="translate(-1190.053 -902.912)" fill="#561c17"/>
      </g>
      <g id="Group_829" data-name="Group 829" transform="translate(9.846 43.075)">
        <path id="Path_1005" data-name="Path 1005" d="M1247.857,1077.941a49.34,49.34,0,0,1,16.221-2.751.757.757,0,0,1,.736.681l.3,3.034-8.758-.444Z" transform="translate(-1247.857 -1075.18)" fill="#8a4d27"/>
      </g>
      <g id="Group_831" data-name="Group 831" transform="translate(0 20.775)">
        <g id="Group_830" data-name="Group 830">
          <path id="Path_1006" data-name="Path 1006" d="M1191.788,927.209l1.018-1.911c.112-.574-1.337-2.48-1.918-2.422a11.048,11.048,0,0,1-10.342-4.279c-1.6-2.219-1.274-6.967-.418-9.258.438-1.172-1.36-4-3.784-4.552-.625-.142-1.266-.077-1.535.5a26.08,26.08,0,0,0-1.479,4.059c-1.11,4.087-.954,7.842.451,10.86,1.724,3.7,8.807,8.513,17.18,9.481C1191.587,929.765,1191.667,927.828,1191.788,927.209Z" transform="translate(-1172.598 -904.724)" fill="#ffa076"/>
        </g>
      </g>
    </g>
    <g id="Group_865" data-name="Group 865" transform="translate(402.488 588.315)">
      <g id="Group_834" data-name="Group 834" transform="translate(23.172 15.367)">
        <g id="Group_833" data-name="Group 833">
          <path id="Path_1007" data-name="Path 1007" d="M1034.925,900.1c1.6-2.219,1.274-6.967.419-9.258-.438-1.172,2.346-6.008,2.892-5.671,3.476,2.149,5.185,6.275,5.987,7.867,2.312,4.588,3.627,9.621,2.222,12.639C1044.72,909.384,1032.67,903.23,1034.925,900.1Z" transform="translate(-1034.645 -885.157)" fill="#ffa076"/>
        </g>
      </g>
      <g id="Group_835" data-name="Group 835" transform="translate(15.034 86.624)">
        <path id="Path_1008" data-name="Path 1008" d="M975.979,1429.827s.043,1.717,1.2,2.2,4.528.921,3.271,2.026c-.722.633-4.124.224-5.084.224s-1.862.418-2.576-.224c-.785-.707,0-4.227,0-4.227a3.836,3.836,0,0,0,1.574.412A3.057,3.057,0,0,0,975.979,1429.827Z" transform="translate(-972.446 -1429.827)" fill="#561c17"/>
      </g>
      <g id="Group_836" data-name="Group 836" transform="translate(13.168 34.804)">
        <path id="Path_1009" data-name="Path 1009" d="M973.6,1033.732s.232,7.749-2.241,22.615c-1.785,10.732-3.893,21.546-4.927,26.731a4.044,4.044,0,0,1-3.778,3.285l-.993.04a3.4,3.4,0,0,1-3.475-3.678l2.508-35.076.618-11.545Z" transform="translate(-958.18 -1033.732)" fill="#f4f4f4"/>
      </g>
      <g id="Group_837" data-name="Group 837" transform="translate(4.03 86.624)">
        <path id="Path_1010" data-name="Path 1010" d="M891.867,1429.827s.043,1.717,1.2,2.2,4.528.921,3.271,2.026c-.722.633-4.124.224-5.084.224s-1.862.418-2.576-.224c-.785-.707,0-4.227,0-4.227a3.836,3.836,0,0,0,1.574.412A3.057,3.057,0,0,0,891.867,1429.827Z" transform="translate(-888.333 -1429.827)" fill="#561c17"/>
      </g>
      <g id="Group_838" data-name="Group 838" transform="translate(2.164 34.804)">
        <path id="Path_1011" data-name="Path 1011" d="M889.492,1033.732s.232,7.749-2.241,22.615c-1.785,10.732-3.893,21.546-4.927,26.731a4.045,4.045,0,0,1-3.778,3.285l-.994.04a3.4,3.4,0,0,1-3.475-3.678l2.508-35.076.618-11.545Z" transform="translate(-874.068 -1033.732)" fill="#f4f4f4"/>
      </g>
      <g id="Group_839" data-name="Group 839" transform="translate(4.085 40.951)">
        <path id="Path_1012" data-name="Path 1012" d="M888.75,1083.066c.024.935,5.677,1.306,12.67,1.088s12.58-1.185,12.556-2.12-5.65-1.484-12.643-1.266S888.727,1082.131,888.75,1083.066Z" transform="translate(-888.75 -1080.721)" fill="#561c17"/>
      </g>
      <g id="Group_840" data-name="Group 840" transform="translate(3.854 11.877)">
        <path id="Path_1013" data-name="Path 1013" d="M888.931,863.437s1.236-4.9,10.359-4.95c13.156-.072,11.938,12.016,13.155,30.387,0,0-12.958-1.833-25.232.8C887.213,889.676,886.074,870.925,888.931,863.437Z" transform="translate(-886.989 -858.487)" fill="#f4f4f4"/>
      </g>
      <g id="Group_841" data-name="Group 841" transform="translate(2.429 11.837)">
        <path id="Path_1014" data-name="Path 1014" d="M876.095,862.466l5.958,3.3s13.046,1.185,16.509.614a5.547,5.547,0,0,0,4.413-3.114,19.088,19.088,0,0,0-9.958-4.836c-.589-.1-1.2-.167-1.833-.209a18.014,18.014,0,0,0-3.169.063C880.069,859.177,876.095,862.466,876.095,862.466Z" transform="translate(-876.095 -858.177)" fill="#f4f4f4"/>
      </g>
      <g id="Group_842" data-name="Group 842" transform="translate(13.139 4.622)">
        <path id="Path_1015" data-name="Path 1015" d="M959.554,809.255l.643-2.074.187-.6,1.1-3.551.145,3.532.086,2.12.027.671c.019.455.3.551.634.947.137.161,1.013,1.133.019,1.572-1.239.547-3.554-.281-4.435-1.367C957.968,810.5,959.347,809.925,959.554,809.255Z" transform="translate(-957.961 -803.026)" fill="#ffa076"/>
      </g>
      <g id="Group_843" data-name="Group 843" transform="translate(4.821 42.237)">
        <path id="Path_1016" data-name="Path 1016" d="M917.768,1091.333s-7.576-2.229-23.267.831l-.121,2.257,23,.813Z" transform="translate(-894.38 -1090.549)" fill="#f4f4f4"/>
      </g>
      <g id="Group_844" data-name="Group 844" transform="translate(17.559 41.909)">
        <path id="Path_1017" data-name="Path 1017" d="M997.246,1088.45s-3.353-.083-4.649,2.667c0,0,.724-2.744-.687-2.7-.583.018.583-.376.583-.376Z" transform="translate(-991.747 -1088.039)" fill="#561c17"/>
      </g>
      <g id="Group_845" data-name="Group 845" transform="translate(2.18 15.93)">
        <path id="Path_1018" data-name="Path 1018" d="M874.317,889.793c-.5.716.555,2.356,2.363,3.663s3.68,1.785,4.183,1.068-.555-2.357-2.363-3.663S874.82,889.077,874.317,889.793Z" transform="translate(-874.192 -889.46)" fill="#561c17"/>
      </g>
      <g id="Group_862" data-name="Group 862" transform="translate(10.876 0)">
        <g id="Group_846" data-name="Group 846" transform="translate(7.297 3.288)">
          <path id="Path_1019" data-name="Path 1019" d="M997.754,792.834a4.668,4.668,0,0,1,0,1.937c-.224,1.077-1.32-1.571-1.32-1.571Z" transform="translate(-996.434 -792.834)" fill="#632c1e"/>
        </g>
        <g id="Group_847" data-name="Group 847" transform="translate(1.995 1.764)">
          <ellipse id="Ellipse_371" data-name="Ellipse 371" cx="3.155" cy="3.805" rx="3.155" ry="3.805" transform="translate(0 0.821) rotate(-7.478)" fill="#ffa076"/>
        </g>
        <g id="Group_848" data-name="Group 848">
          <path id="Path_1020" data-name="Path 1020" d="M943.07,772.967l1.527-.159a1.112,1.112,0,0,0,.825-.5c.313-.49.69-.741,2.114-.688a3,3,0,0,0,3.19-1.952,1.078,1.078,0,0,0-1.631-1.157c-.906.459-.517-.667-1.389-.787-1.628-.223-1.933,1.032-3.266.991-1.748-.054-4.879,1.275-3.394,4.352Z" transform="translate(-940.659 -767.698)" fill="#561c17"/>
        </g>
        <g id="Group_850" data-name="Group 850" transform="translate(5.012 5.663)">
          <g id="Group_849" data-name="Group 849">
            <path id="Path_1021" data-name="Path 1021" d="M979.744,811.113a.064.064,0,0,0-.029-.118.692.692,0,0,0-.737.42.064.064,0,0,0,.029.086.07.07,0,0,0,.086-.029,1.1,1.1,0,0,1,.612-.349A.064.064,0,0,0,979.744,811.113Z" transform="translate(-978.972 -810.988)" fill="#060633"/>
          </g>
        </g>
        <g id="Group_851" data-name="Group 851" transform="translate(5.494 6.284)">
          <path id="Path_1022" data-name="Path 1022" d="M982.668,816.054c.04.147.16.243.266.214a.248.248,0,0,0,.121-.319c-.04-.147-.159-.243-.266-.214A.248.248,0,0,0,982.668,816.054Z" transform="translate(-982.655 -815.729)" fill="#060633"/>
        </g>
        <g id="Group_853" data-name="Group 853" transform="translate(7.494 5.37)">
          <g id="Group_852" data-name="Group 852">
            <path id="Path_1023" data-name="Path 1023" d="M998.6,808.97a.046.046,0,0,0,.034-.032.077.077,0,0,0-.025-.086.449.449,0,0,0-.652.074.076.076,0,0,0,0,.089.047.047,0,0,0,.071.009.671.671,0,0,1,.542-.062A.043.043,0,0,0,998.6,808.97Z" transform="translate(-997.938 -808.742)" fill="#060633"/>
          </g>
        </g>
        <g id="Group_854" data-name="Group 854" transform="translate(7.565 6.003)">
          <path id="Path_1024" data-name="Path 1024" d="M998.486,813.833c-.019.151.055.285.165.3s.214-.1.233-.249-.055-.285-.165-.3S998.505,813.682,998.486,813.833Z" transform="translate(-998.483 -813.583)" fill="#060633"/>
        </g>
        <g id="Group_855" data-name="Group 855" transform="translate(0.388 4.926)">
          <path id="Path_1025" data-name="Path 1025" d="M943.627,805.8s1.055,2.276,2.551,2.443c0,0-1.21-1.735,1.34-2.792A8.121,8.121,0,0,0,943.627,805.8Z" transform="translate(-943.627 -805.355)" fill="#632c1e"/>
        </g>
        <g id="Group_856" data-name="Group 856" transform="translate(2.16 5.473)">
          <path id="Path_1026" data-name="Path 1026" d="M957.505,810.683a.617.617,0,1,0-.25-.886A.653.653,0,0,0,957.505,810.683Z" transform="translate(-957.168 -809.53)" fill="#ffa076"/>
        </g>
        <g id="Group_857" data-name="Group 857" transform="translate(3.156 5.021)">
          <path id="Path_1027" data-name="Path 1027" d="M965.9,806.078s-.2,1.91.184,2.271,2.956.516,4.154.053h0a2.5,2.5,0,0,1-2.055,2.513,3.624,3.624,0,0,1-1.226,0h0a2.5,2.5,0,0,1-2-1.271,7.281,7.281,0,0,1,.2-1.693,1.648,1.648,0,0,0-.382-1.3A2.433,2.433,0,0,1,965.9,806.078Z" transform="translate(-964.78 -806.078)" fill="#632c1e"/>
        </g>
        <g id="Group_858" data-name="Group 858" transform="translate(5.926 8.035)">
          <path id="Path_1028" data-name="Path 1028" d="M988.016,829.114a6.477,6.477,0,0,1-2.058.162.993.993,0,0,0,1.245.8C987.836,829.958,988.016,829.114,988.016,829.114Z" transform="translate(-985.958 -829.114)" fill="#fff"/>
        </g>
        <g id="Group_859" data-name="Group 859" transform="translate(7.728 0.243)">
          <path id="Path_1029" data-name="Path 1029" d="M1000.244,769.973a.479.479,0,0,1-.516-.413l.086-.008a.393.393,0,0,0,.454.334l0,.086Z" transform="translate(-999.728 -769.552)" fill="#561c17"/>
        </g>
        <g id="Group_860" data-name="Group 860" transform="translate(7.377 1.106)">
          <path id="Path_1030" data-name="Path 1030" d="M997.059,778.466l-.012-.041c.019-.006,1.939-.575,2.018-1.563a.649.649,0,0,0-.143-.567c-.19-.164-.537-.083-.842-.012l-.137.031-.009-.042.136-.031c.316-.074.673-.157.88.021a.687.687,0,0,1,.158.6c-.034.422-.4.834-1.059,1.189A5.761,5.761,0,0,1,997.059,778.466Z" transform="translate(-997.047 -776.156)" fill="#fff"/>
        </g>
        <g id="Group_861" data-name="Group 861" transform="translate(3.033 0.52)">
          <path id="Path_1031" data-name="Path 1031" d="M964.415,772.565a4.294,4.294,0,0,1-.576-.04l.006-.043a3.118,3.118,0,0,0,2.785-.81l.033.027A3.014,3.014,0,0,1,964.415,772.565Z" transform="translate(-963.839 -771.672)" fill="#fff"/>
        </g>
      </g>
      <g id="Group_864" data-name="Group 864" transform="translate(0 16.438)">
        <g id="Group_863" data-name="Group 863">
          <path id="Path_1032" data-name="Path 1032" d="M876.717,915.834l1.018-1.911c.112-.574-1.337-2.48-1.919-2.422a11.048,11.048,0,0,1-10.342-4.279c-1.6-2.219-1.274-6.967-.418-9.258.438-1.172-1.36-4-3.784-4.552-.625-.143-1.265-.077-1.535.5a26.071,26.071,0,0,0-1.479,4.059c-1.11,4.087-.954,7.842.451,10.86,1.725,3.7,8.808,8.512,17.18,9.481C876.516,918.39,876.6,916.453,876.717,915.834Z" transform="translate(-857.527 -893.349)" fill="#ffa076"/>
        </g>
      </g>
    </g>
    <g id="Group_911" data-name="Group 911" transform="translate(339.915 582.471)">
      <g id="Group_872" data-name="Group 872" transform="translate(64.868 0.399)">
        <g id="Group_866" data-name="Group 866" transform="translate(4.04 1.313)">
          <path id="Path_1033" data-name="Path 1033" d="M906.218,741.374h0a.586.586,0,0,0,.809-.17l2.729-4.178a.586.586,0,0,0-.17-.809h0a.587.587,0,0,0-.809.17l-2.729,4.178A.586.586,0,0,0,906.218,741.374Z" transform="translate(-905.954 -736.123)" fill="#ffa076"/>
        </g>
        <g id="Group_867" data-name="Group 867" transform="translate(2.787)">
          <path id="Path_1034" data-name="Path 1034" d="M896.643,731.833h0a.586.586,0,0,0,.809-.17l3.052-4.672a.586.586,0,0,0-.17-.809h0a.586.586,0,0,0-.809.17l-3.052,4.672A.586.586,0,0,0,896.643,731.833Z" transform="translate(-896.378 -726.087)" fill="#ffa076"/>
        </g>
        <g id="Group_868" data-name="Group 868" transform="translate(0 2.757)">
          <path id="Path_1035" data-name="Path 1035" d="M876.2,752.363l.207-.02a.709.709,0,0,0,.638-.77l-.353-3.77a.709.709,0,0,0-.77-.638l-.207.019a.709.709,0,0,0-.638.77l.353,3.77A.709.709,0,0,0,876.2,752.363Z" transform="translate(-875.074 -747.162)" fill="#ffa076"/>
        </g>
        <g id="Group_869" data-name="Group 869" transform="translate(1.534 0.109)">
          <path id="Path_1036" data-name="Path 1036" d="M887.066,731.736h0a.586.586,0,0,0,.809-.17l2.447-3.745a.586.586,0,0,0-.17-.809h0a.586.586,0,0,0-.809.17l-2.447,3.745A.586.586,0,0,0,887.066,731.736Z" transform="translate(-886.802 -726.918)" fill="#ffa076"/>
        </g>
        <g id="Group_870" data-name="Group 870" transform="translate(0.498 2.984)">
          <path id="Path_1037" data-name="Path 1037" d="M881.98,755.412s2.992-1.486,3.472-3.811c.166-.8-3.588-3.112-4.378-2.641s-2.2,3.162-2.2,3.162Z" transform="translate(-878.878 -748.898)" fill="#ffa076"/>
        </g>
        <g id="Group_871" data-name="Group 871" transform="translate(5.282 2.572)">
          <path id="Path_1038" data-name="Path 1038" d="M915.714,750.555h0a.585.585,0,0,0,.807-.169l2.442-3.738a.585.585,0,0,0-.169-.807h0a.585.585,0,0,0-.807.169l-2.442,3.737A.585.585,0,0,0,915.714,750.555Z" transform="translate(-915.45 -745.746)" fill="#ffa076"/>
        </g>
      </g>
      <g id="Group_874" data-name="Group 874" transform="translate(40.882 5.695)">
        <g id="Group_873" data-name="Group 873">
          <path id="Path_1039" data-name="Path 1039" d="M715.864,766.563c-4.9,4.3-12.286,10.085-19.6,13.274a22.22,22.22,0,0,1-3.4,1.284c-.842.232-1.393,1.979-1.012,3.424.357,1.356,1.786,2.551,2.25,2.49a19.633,19.633,0,0,0,3.9-1.389c6.608-2.754,13.695-7.69,21.726-15.108Z" transform="translate(-691.731 -766.563)" fill="#ffa076"/>
        </g>
      </g>
      <g id="Group_875" data-name="Group 875" transform="translate(37.181 94.561)">
        <path id="Path_1040" data-name="Path 1040" d="M667.314,1445.831s.047,1.883,1.321,2.414,4.966,1.01,3.586,2.221c-.792.695-4.522.246-5.575.246s-2.042.459-2.825-.246c-.861-.776,0-4.635,0-4.635a4.207,4.207,0,0,0,1.726.452A3.352,3.352,0,0,0,667.314,1445.831Z" transform="translate(-663.439 -1445.831)" fill="#561c17"/>
      </g>
      <g id="Group_876" data-name="Group 876" transform="translate(22.548 94.56)">
        <path id="Path_1041" data-name="Path 1041" d="M555.467,1445.829s.047,1.883,1.321,2.414,4.966,1.011,3.587,2.221c-.792.695-4.522.246-5.575.246s-2.042.459-2.825-.246c-.861-.776,0-4.635,0-4.635a4.206,4.206,0,0,0,1.726.452A3.354,3.354,0,0,0,555.467,1445.829Z" transform="translate(-551.592 -1445.829)" fill="#561c17"/>
      </g>
      <g id="Group_877" data-name="Group 877" transform="translate(34.101 42.941)">
        <path id="Path_1042" data-name="Path 1042" d="M656.327,1051.261s-.091,8.679-.789,23.991c-.547,12.005-.435,23.131-1.486,28.4-.376,1.886-14.3.924-14.147-1.152l3.3-37.088.629-11.743Z" transform="translate(-639.903 -1051.261)" fill="#8a4d27"/>
      </g>
      <g id="Group_878" data-name="Group 878" transform="translate(27.511 45.841)">
        <path id="Path_1043" data-name="Path 1043" d="M589.529,1077.468c.116.959,5.54.843,12.182,0s11.811-2.279,11.7-3.239-5.474-1.076-12.115-.235S589.413,1076.509,589.529,1077.468Z" transform="translate(-589.528 -1073.432)" fill="#561c17"/>
      </g>
      <g id="Group_879" data-name="Group 879" transform="translate(18.576 47.832)">
        <path id="Path_1044" data-name="Path 1044" d="M545.556,1089.384l-12.362,46.755c-.593,1.907-12.321,1.652-11.954-.373l9.592-44.222a1.409,1.409,0,0,1,.979-1.055C534.47,1089.722,545.817,1087.5,545.556,1089.384Z" transform="translate(-521.232 -1088.645)" fill="#8a4d27"/>
      </g>
      <g id="Group_880" data-name="Group 880" transform="translate(27.477 18.826)">
        <path id="Path_1045" data-name="Path 1045" d="M591.846,870.945s1.261-4.242,7.982-4c3.687.132,7.567-.906,9.3,4.873a111.994,111.994,0,0,1,4.054,22.931,42.353,42.353,0,0,0-23.9,3.217S588.895,878.682,591.846,870.945Z" transform="translate(-589.264 -866.935)" fill="#7fc064"/>
      </g>
      <g id="Group_881" data-name="Group 881" transform="translate(29.485 18.045)">
        <path id="Path_1046" data-name="Path 1046" d="M605.307,861.1l-.694,7.488s15.53,2.82,17.582.233c2.435-3.069.651-8.012.321-7.857,0,0-6.892,1.1-9.049.538a9.046,9.046,0,0,0-2.651.02A35.066,35.066,0,0,1,605.307,861.1Z" transform="translate(-604.613 -860.966)" fill="#7fc064"/>
      </g>
      <g id="Group_882" data-name="Group 882" transform="translate(35.608 54.553)">
        <path id="Path_1047" data-name="Path 1047" d="M651.654,1161.208l-.232-.054,3.778-16.1a9.027,9.027,0,0,1,4.079-5.031l.119.207a8.789,8.789,0,0,0-3.97,4.894Z" transform="translate(-651.422 -1140.024)" fill="#020202"/>
      </g>
      <g id="Group_883" data-name="Group 883" transform="translate(35.687 11.701)">
        <path id="Path_1048" data-name="Path 1048" d="M652.031,819.377a1.858,1.858,0,0,0,1.514-1.108l.833-1.934.242-.562,1.421-3.3-.246,3.421-.148,2.053-.042.585a.934.934,0,0,0,.771.985l.008,0c.253.411.6,1.247-.441,1.579a4.092,4.092,0,0,1-3.922-1.719Z" transform="translate(-652.02 -812.472)" fill="#ffa076"/>
      </g>
      <g id="Group_884" data-name="Group 884" transform="translate(38.041 14.937)">
        <path id="Path_1049" data-name="Path 1049" d="M670.014,837.78c0,.019,0,.038,0,.057a2.17,2.17,0,0,0,1.261,1.618l.007-.006.148-2.053a1.751,1.751,0,0,0-1.175-.12A.482.482,0,0,0,670.014,837.78Z" transform="translate(-670.013 -837.211)" fill="#561c17"/>
      </g>
      <g id="Group_885" data-name="Group 885" transform="translate(36.649 8.283)">
        <ellipse id="Ellipse_372" data-name="Ellipse 372" cx="3.214" cy="3.965" rx="3.214" ry="3.965" fill="#ffa076"/>
      </g>
      <g id="Group_886" data-name="Group 886" transform="translate(39.396 14.454)">
        <path id="Path_1050" data-name="Path 1050" d="M682.574,833.873a6.98,6.98,0,0,1-2.2-.36,1.07,1.07,0,0,0,1.1,1.155C682.168,834.71,682.574,833.873,682.574,833.873Z" transform="translate(-680.377 -833.513)" fill="#fff"/>
      </g>
      <g id="Group_888" data-name="Group 888" transform="translate(39.216 12.072)">
        <g id="Group_887" data-name="Group 887">
          <path id="Path_1051" data-name="Path 1051" d="M679.954,815.526a.073.073,0,0,0,.008-.138.792.792,0,0,0-.946.211.074.074,0,0,0,0,.1.08.08,0,0,0,.1,0,1.252,1.252,0,0,1,.786-.176A.073.073,0,0,0,679.954,815.526Z" transform="translate(-678.996 -815.312)" fill="#060633"/>
        </g>
      </g>
      <g id="Group_889" data-name="Group 889" transform="translate(39.595 12.781)">
        <path id="Path_1052" data-name="Path 1052" d="M681.9,821.038c-.006.174.092.319.219.323s.234-.134.239-.308-.092-.319-.219-.323S681.9,820.864,681.9,821.038Z" transform="translate(-681.896 -820.729)" fill="#060633"/>
      </g>
      <g id="Group_891" data-name="Group 891" transform="translate(41.845 12.286)">
        <g id="Group_890" data-name="Group 890">
          <path id="Path_1053" data-name="Path 1053" d="M700.031,817.323a.072.072,0,0,0,.062-.021.073.073,0,0,0,0-.1.791.791,0,0,0-.955-.166.074.074,0,0,0-.037.1.08.08,0,0,0,.1.037,1.251,1.251,0,0,1,.794.137A.071.071,0,0,0,700.031,817.323Z" transform="translate(-699.093 -816.942)" fill="#060633"/>
        </g>
      </g>
      <g id="Group_892" data-name="Group 892" transform="translate(41.906 12.981)">
        <path id="Path_1054" data-name="Path 1054" d="M699.593,822.463a.283.283,0,0,0,.08.382c.115.052.267-.035.339-.194a.284.284,0,0,0-.08-.382C699.817,822.217,699.665,822.3,699.593,822.463Z" transform="translate(-699.556 -822.254)" fill="#060633"/>
      </g>
      <g id="Group_893" data-name="Group 893" transform="translate(32.853 47.179)">
        <path id="Path_1055" data-name="Path 1055" d="M630.36,1085.318s13.255-2.532,17.553-1.338l-2.061,3.054-7.662.434Z" transform="translate(-630.36 -1083.661)" fill="#8a4d27"/>
      </g>
      <g id="Group_894" data-name="Group 894" transform="translate(41.087 14.188)">
        <path id="Path_1056" data-name="Path 1056" d="M694.092,833.77a1.612,1.612,0,0,1-.752-.19.082.082,0,0,1,.085-.141,1.3,1.3,0,0,0,1.6-.244,1.264,1.264,0,0,0,.2-1.583.082.082,0,0,1,.138-.09,1.5,1.5,0,0,1-1.267,2.249Z" transform="translate(-693.3 -831.484)" fill="#00784d"/>
      </g>
      <g id="Group_895" data-name="Group 895" transform="translate(37.353 6.701)">
        <path id="Path_1057" data-name="Path 1057" d="M666.287,777c.115.718-.069,1.275,2.139,1.809,0,0,.363.24.384-.151s-.532-.987-.235-1.439c0,0,1.584,3.281,2.113,2.586s1.22-2.943,0-4.313-5.047-1.665-5.688-.548C664.053,776.585,666.188,776.382,666.287,777Z" transform="translate(-664.758 -774.255)" fill="#561c17"/>
      </g>
      <g id="Group_896" data-name="Group 896" transform="translate(34.882 8.085)">
        <path id="Path_1058" data-name="Path 1058" d="M648.517,784.886s.972.242.929.677.642,1.256,0,1.53-.8.439-.794.92c0,.335-.585,1.075-.795,1.748a2.275,2.275,0,0,0,.083.913,3.2,3.2,0,0,1-2.017-3.632A2.357,2.357,0,0,1,648.517,784.886Z" transform="translate(-645.868 -784.832)" fill="#561c17"/>
      </g>
      <g id="Group_897" data-name="Group 897" transform="translate(36.373 11.46)">
        <path id="Path_1059" data-name="Path 1059" d="M657.6,812.02a.79.79,0,0,0,1.137.08.884.884,0,0,0-.181-1.179.79.79,0,0,0-1.137-.079A.883.883,0,0,0,657.6,812.02Z" transform="translate(-657.265 -810.634)" fill="#ffa076"/>
      </g>
      <g id="Group_898" data-name="Group 898" transform="translate(35.754 12.586)">
        <path id="Path_1060" data-name="Path 1060" d="M653.814,822.283a1.287,1.287,0,0,1-.2-.016,1.225,1.225,0,0,1-1.073-.972,2.071,2.071,0,0,1,.792-1.486.082.082,0,1,1,.1.129,1.944,1.944,0,0,0-.73,1.348,1.072,1.072,0,0,0,.935.819,1.132,1.132,0,0,0,1.25-.844,1.391,1.391,0,0,0,.015-1.173,1.567,1.567,0,0,0-.924-.691.082.082,0,0,1,.039-.16,1.713,1.713,0,0,1,1.031.775,1.545,1.545,0,0,1-.007,1.309A1.29,1.29,0,0,1,653.814,822.283Z" transform="translate(-652.534 -819.235)" fill="#00784d"/>
      </g>
      <g id="Group_899" data-name="Group 899" transform="translate(35.605 7.586)">
        <path id="Path_1061" data-name="Path 1061" d="M651.474,781.366a.082.082,0,0,1-.041-.154,1.326,1.326,0,0,1,1.392,0,.082.082,0,0,1-.094.135h0a1.162,1.162,0,0,0-1.216,0A.082.082,0,0,1,651.474,781.366Z" transform="translate(-651.392 -781.017)" fill="#561c17"/>
      </g>
      <g id="Group_900" data-name="Group 900" transform="translate(37.105 6.728)">
        <path id="Path_1062" data-name="Path 1062" d="M662.942,775.367a.082.082,0,0,1-.082-.081c0-.024,0-.59.258-.8a.082.082,0,1,1,.1.127,1.051,1.051,0,0,0-.2.676.082.082,0,0,1-.082.083Z" transform="translate(-662.86 -774.462)" fill="#561c17"/>
      </g>
      <g id="Group_907" data-name="Group 907" transform="translate(0 0)">
        <g id="Group_901" data-name="Group 901" transform="translate(0.952 1.313)">
          <path id="Path_1063" data-name="Path 1063" d="M390.152,738.321h0a.586.586,0,0,1-.809-.17l-2.729-4.178a.586.586,0,0,1,.17-.809h0a.586.586,0,0,1,.809.17l2.729,4.178A.586.586,0,0,1,390.152,738.321Z" transform="translate(-386.519 -733.07)" fill="#ffa076"/>
        </g>
        <g id="Group_902" data-name="Group 902" transform="translate(1.882)">
          <path id="Path_1064" data-name="Path 1064" d="M397.581,728.779h0a.586.586,0,0,1-.809-.17l-3.052-4.672a.586.586,0,0,1,.17-.809h0a.587.587,0,0,1,.809.17l3.052,4.672A.586.586,0,0,1,397.581,728.779Z" transform="translate(-393.625 -723.034)" fill="#ffa076"/>
        </g>
        <g id="Group_903" data-name="Group 903" transform="translate(6.915 2.757)">
          <path id="Path_1065" data-name="Path 1065" d="M432.947,749.309l-.207-.019a.709.709,0,0,1-.638-.77l.353-3.77a.709.709,0,0,1,.77-.638l.207.019a.709.709,0,0,1,.638.77l-.353,3.77A.709.709,0,0,1,432.947,749.309Z" transform="translate(-432.099 -744.109)" fill="#ffa076"/>
        </g>
        <g id="Group_904" data-name="Group 904" transform="translate(3.74 0.109)">
          <path id="Path_1066" data-name="Path 1066" d="M411.181,728.682h0a.586.586,0,0,1-.809-.17l-2.447-3.745a.586.586,0,0,1,.17-.809h0a.587.587,0,0,1,.809.17l2.447,3.745A.586.586,0,0,1,411.181,728.682Z" transform="translate(-407.831 -723.864)" fill="#ffa076"/>
        </g>
        <g id="Group_905" data-name="Group 905" transform="translate(1.812 2.984)">
          <path id="Path_1067" data-name="Path 1067" d="M396.568,752.359s-2.992-1.486-3.472-3.811c-.166-.8,3.588-3.112,4.378-2.641s2.2,3.162,2.2,3.162Z" transform="translate(-393.09 -745.844)" fill="#ffa076"/>
        </g>
        <g id="Group_906" data-name="Group 906" transform="translate(0 2.572)">
          <path id="Path_1068" data-name="Path 1068" d="M382.584,747.5h0a.585.585,0,0,1-.807-.169l-2.442-3.738a.585.585,0,0,1,.169-.807h0a.585.585,0,0,1,.807.169l2.442,3.738A.585.585,0,0,1,382.584,747.5Z" transform="translate(-379.24 -742.693)" fill="#ffa076"/>
        </g>
      </g>
      <g id="Group_908" data-name="Group 908" transform="translate(28.398 18.175)">
        <path id="Path_1069" data-name="Path 1069" d="M599.628,865.706c0,2.07-.744,3.749-1.661,3.749s-1.661-1.678-1.661-3.749.744-3.749,1.661-3.749S599.628,863.635,599.628,865.706Z" transform="translate(-596.305 -861.957)" fill="#561c17"/>
      </g>
      <g id="Group_910" data-name="Group 910" transform="translate(5.29 5.982)">
        <g id="Group_909" data-name="Group 909">
          <path id="Path_1070" data-name="Path 1070" d="M423.041,768.76A69.43,69.43,0,0,0,441.316,780.1a19.605,19.605,0,0,0,3.2,1.074c.8.184,1.084,1.786.819,3.221-.3,1.6-1.322,2.759-1.764,2.721a25.14,25.14,0,0,1-4.173-1.4c-6.208-2.335-12.358-6.723-19.725-13.444l1.431-1.942Z" transform="translate(-419.672 -768.76)" fill="#ffa076"/>
        </g>
      </g>
    </g>
    <g id="Group_1022" data-name="Group 1022" transform="translate(373.51 596.764)">
      <g id="Group_912" data-name="Group 912" transform="translate(102.528 17.087)">
        <path id="Path_1071" data-name="Path 1071" d="M1426.9,962.9s-7.369,8.275-7.173,9.368,7.415,1.693,7.415,1.693l2.088-6.5Z" transform="translate(-1419.722 -962.895)" fill="#ffa076"/>
      </g>
      <g id="Group_913" data-name="Group 913" transform="translate(115.078 86.565)">
        <path id="Path_1072" data-name="Path 1072" d="M1520.351,1493.962s-.042,1.7-1.19,2.175-4.474.91-3.231,2c.713.626,4.074.222,5.022.222s1.84.413,2.545-.222c.776-.7,0-4.176,0-4.176a3.793,3.793,0,0,1-1.555.407A3.02,3.02,0,0,1,1520.351,1493.962Z" transform="translate(-1515.655 -1493.962)" fill="#561c17"/>
      </g>
      <g id="Group_914" data-name="Group 914" transform="translate(108.956 35.65)">
        <path id="Path_1073" data-name="Path 1073" d="M1468.866,1104.787s-.229,7.655,2.214,22.341c1.764,10.6,3.846,21.286,4.867,26.408a4,4,0,0,0,3.733,3.245l.981.039a3.354,3.354,0,0,0,3.433-3.634l-2.478-34.652-.611-11.405Z" transform="translate(-1468.86 -1104.787)" fill="#8a4d27"/>
      </g>
      <g id="Group_915" data-name="Group 915" transform="translate(125.041 86.844)">
        <path id="Path_1074" data-name="Path 1074" d="M1596.505,1496.1s-.042,1.7-1.19,2.175-4.474.91-3.231,2c.713.626,4.074.221,5.022.221s1.84.414,2.545-.221c.776-.7,0-4.176,0-4.176a3.787,3.787,0,0,1-1.555.407A3.023,3.023,0,0,1,1596.505,1496.1Z" transform="translate(-1591.81 -1496.098)" fill="#561c17"/>
      </g>
      <g id="Group_916" data-name="Group 916" transform="translate(119.827 35.65)">
        <path id="Path_1075" data-name="Path 1075" d="M1551.963,1104.787s-.229,7.655,2.214,22.341c1.764,10.6,3.846,21.286,4.868,26.408a4,4,0,0,0,3.733,3.245l.981.039a3.354,3.354,0,0,0,3.433-3.634l-2.478-34.652-.611-11.405Z" transform="translate(-1551.957 -1104.787)" fill="#8a4d27"/>
      </g>
      <g id="Group_917" data-name="Group 917" transform="translate(108.252 41.723)">
        <path id="Path_1076" data-name="Path 1076" d="M1488.4,1153.524c-.024.924-5.609,1.291-12.517,1.075s-12.428-1.171-12.4-2.094,5.582-1.466,12.49-1.25S1488.422,1152.6,1488.4,1153.524Z" transform="translate(-1463.477 -1151.207)" fill="#561c17"/>
      </g>
      <g id="Group_918" data-name="Group 918" transform="translate(108.252 13)">
        <path id="Path_1077" data-name="Path 1077" d="M1486.708,936.547s-1.221-4.841-10.234-4.89c-13-.071-11.793,11.871-13,30.02,0,0,12.8-1.811,24.927.792C1488.406,962.469,1489.53,943.945,1486.708,936.547Z" transform="translate(-1463.478 -931.657)" fill="#f4f4f4"/>
      </g>
      <g id="Group_919" data-name="Group 919" transform="translate(108.252 12.96)">
        <path id="Path_1078" data-name="Path 1078" d="M1490.035,935.587l-5.886,3.257s-12.889,1.17-16.31.607a5.48,5.48,0,0,1-4.36-3.076,18.859,18.859,0,0,1,9.838-4.777c.582-.1,1.185-.165,1.811-.206a17.788,17.788,0,0,1,3.131.062C1486.109,932.338,1490.035,935.587,1490.035,935.587Z" transform="translate(-1463.478 -931.351)" fill="#f4f4f4"/>
      </g>
      <g id="Group_920" data-name="Group 920" transform="translate(109.34 42.994)">
        <path id="Path_1079" data-name="Path 1079" d="M1471.793,1161.691s7.485-2.2,22.986.821l.12,2.23-22.724.8Z" transform="translate(-1471.793 -1160.917)" fill="#8a4d27"/>
      </g>
      <g id="Group_921" data-name="Group 921" transform="translate(129.684 16.931)">
        <path id="Path_1080" data-name="Path 1080" d="M1632.544,962.1c.5.706-.236,2.1-1.642,3.116s-2.95,1.265-3.449.558.236-2.1,1.642-3.116S1632.045,961.4,1632.544,962.1Z" transform="translate(-1627.297 -961.704)" fill="#561c17"/>
      </g>
      <g id="Group_922" data-name="Group 922" transform="translate(110.425 17.446)">
        <path id="Path_1081" data-name="Path 1081" d="M1480.162,968.87l-.02,0a.074.074,0,0,1-.052-.091,12,12,0,0,1,1.664-3.1.074.074,0,0,1,.119.089,11.831,11.831,0,0,0-1.64,3.056A.074.074,0,0,1,1480.162,968.87Z" transform="translate(-1480.088 -965.641)" fill="#561c17"/>
      </g>
      <g id="Group_923" data-name="Group 923" transform="translate(119.266 50.062)">
        <path id="Path_1082" data-name="Path 1082" d="M1550.93,1225.931a.074.074,0,0,1-.073-.062c-.01-.063-1.015-6.295-1.7-8.518a5.984,5.984,0,0,0-1.469-2.278.074.074,0,1,1,.107-.1,6.125,6.125,0,0,1,1.5,2.336c.692,2.233,1.7,8.475,1.708,8.538a.074.074,0,0,1-.062.085Z" transform="translate(-1547.663 -1214.948)" fill="#561c17"/>
      </g>
      <g id="Group_947" data-name="Group 947" transform="translate(115.975 0)">
        <g id="Group_924" data-name="Group 924" transform="translate(3.576 5.511)">
          <path id="Path_1083" data-name="Path 1083" d="M1553.548,882.824c.5-.71-.18-.8-.371-1.536l-.59-2.292-.172-.667-1.009-3.923-.344,3.837-.206,2.3-.065.729c-.044.495-.183.559-.572.972-.157.167-.747.845-.033,1.219C1550.825,883.8,1552.916,883.73,1553.548,882.824Z" transform="translate(-1549.839 -874.406)" fill="#ffa076"/>
        </g>
        <g id="Group_925" data-name="Group 925" transform="translate(6.838 4.386)">
          <path id="Path_1084" data-name="Path 1084" d="M1575.155,870.679s3.827-1.2,3.355-4.032-3.534,2.435-3.534,2.435l-.2,1.468Z" transform="translate(-1574.775 -865.81)" fill="#561c17"/>
        </g>
        <g id="Group_926" data-name="Group 926" transform="translate(4.591 9.278)">
          <path id="Path_1085" data-name="Path 1085" d="M1559.347,903.965q-.006.031-.014.062a2.455,2.455,0,0,1-1.725,1.558l-.007-.008.207-2.3a2.055,2.055,0,0,1,1.354.086A.538.538,0,0,1,1559.347,903.965Z" transform="translate(-1557.601 -903.204)" fill="#561c17"/>
        </g>
        <g id="Group_927" data-name="Group 927" transform="translate(1.417 2.453)">
          <path id="Path_1086" data-name="Path 1086" d="M1533.4,854.558c.366-2.228,2.162-3.788,4.01-3.484s3.048,2.357,2.682,4.585-2.162,3.788-4.01,3.484S1533.038,856.786,1533.4,854.558Z" transform="translate(-1533.339 -851.036)" fill="#ffa076"/>
        </g>
        <g id="Group_928" data-name="Group 928" transform="translate(1.416 2.46)">
          <path id="Path_1087" data-name="Path 1087" d="M1533.395,854.609c.367-2.228,2.162-3.788,4.01-3.484s3.049,2.357,2.682,4.585-2.162,3.788-4.009,3.484S1533.028,856.837,1533.395,854.609Z" transform="translate(-1533.329 -851.088)" fill="#ffa076"/>
        </g>
        <g id="Group_929" data-name="Group 929" transform="translate(0.183)">
          <path id="Path_1088" data-name="Path 1088" d="M1531.484,838.81a1.559,1.559,0,0,1-1.571-.659c-.447-.847-.7-1.569-2.643-1.559s-3.474-1.178-3.358-2.208,1.187-1.334,2.144-.809.033-.59,1.166-1.174,2.394,1.213,3.474,1.178,4.324,1.071,3.6,3.928Z" transform="translate(-1523.905 -832.285)" fill="#561c17"/>
        </g>
        <g id="Group_930" data-name="Group 930" transform="translate(7.104 6.115)">
          <path id="Path_1089" data-name="Path 1089" d="M1577.862,880.278a.663.663,0,1,1,.3-.943A.7.7,0,0,1,1577.862,880.278Z" transform="translate(-1576.808 -879.03)" fill="#ffa076"/>
        </g>
        <g id="Group_931" data-name="Group 931" transform="translate(1.667 1.827)">
          <path id="Path_1090" data-name="Path 1090" d="M1536.372,847.164a1.359,1.359,0,0,1-.865-.228c-.286-.243-.3-.451-.216-.565a.474.474,0,0,1,.625-.01,1.4,1.4,0,0,0,.8.251l0,.046a1.412,1.412,0,0,1-.83-.258c-.243-.152-.478-.12-.564,0-.071.1-.054.281.208.5.542.46,2.053.041,2.068.037l.012.044A5.251,5.251,0,0,1,1536.372,847.164Z" transform="translate(-1535.247 -846.252)" fill="#fff"/>
        </g>
        <g id="Group_932" data-name="Group 932" transform="translate(4.766 0.838)">
          <path id="Path_1091" data-name="Path 1091" d="M1563.041,840.1a2.185,2.185,0,0,0-1.437-.267,7.844,7.844,0,0,1-.9-.014,2.722,2.722,0,0,1-1.761-1.12l.045-.012a2.7,2.7,0,0,0,1.721,1.085,7.763,7.763,0,0,0,.9.013,2.218,2.218,0,0,1,1.466.276Z" transform="translate(-1558.942 -838.688)" fill="#fff"/>
        </g>
        <g id="Group_933" data-name="Group 933" transform="translate(9.54 3.866)">
          <path id="Path_1092" data-name="Path 1092" d="M1595.8,862.643h-.008c-.145-.014-.36-.452-.361-.671,0-.112.056-.135.09-.138h.016c.26,0,.364.638.369.666v.008C1595.886,862.618,1595.84,862.643,1595.8,862.643Zm-.264-.764h-.011c-.012,0-.048,0-.048.092,0,.205.209.615.319.625.033,0,.053-.049.063-.095C1595.832,862.322,1595.72,861.879,1595.539,861.879Z" transform="translate(-1595.433 -861.833)" fill="#fff"/>
        </g>
        <g id="Group_935" data-name="Group 935" transform="translate(4.141 6.259)">
          <g id="Group_934" data-name="Group 934">
            <path id="Path_1093" data-name="Path 1093" d="M1554.2,880.292a.069.069,0,0,1,.008-.13.744.744,0,0,1,.86.3.069.069,0,0,1-.014.1.076.076,0,0,1-.1-.014,1.177,1.177,0,0,0-.714-.252A.069.069,0,0,1,1554.2,880.292Z" transform="translate(-1554.161 -880.124)" fill="#060633"/>
          </g>
        </g>
        <g id="Group_936" data-name="Group 936" transform="translate(4.037 6.87)">
          <path id="Path_1094" data-name="Path 1094" d="M1553.795,885.153c-.048.157-.18.255-.293.22a.266.266,0,0,1-.119-.347c.048-.157.18-.255.293-.22A.266.266,0,0,1,1553.795,885.153Z" transform="translate(-1553.365 -884.799)" fill="#060633"/>
        </g>
        <g id="Group_938" data-name="Group 938" transform="translate(1.622 5.805)">
          <g id="Group_937" data-name="Group 937">
            <path id="Path_1095" data-name="Path 1095" d="M1534.941,876.857a.05.05,0,0,1-.032-.039.083.083,0,0,1,.04-.088.482.482,0,0,1,.681.183.082.082,0,0,1-.013.1.051.051,0,0,1-.077,0,.721.721,0,0,0-.566-.153A.045.045,0,0,1,1534.941,876.857Z" transform="translate(-1534.908 -876.656)" fill="#060633"/>
          </g>
        </g>
        <g id="Group_939" data-name="Group 939" transform="translate(1.835 6.495)">
          <path id="Path_1096" data-name="Path 1096" d="M1536.967,882.205c.015.163-.069.3-.187.315s-.227-.113-.242-.276.069-.3.187-.315S1536.952,882.042,1536.967,882.205Z" transform="translate(-1536.536 -881.929)" fill="#060633"/>
        </g>
        <g id="Group_940" data-name="Group 940" transform="translate(0 4.245)">
          <path id="Path_1097" data-name="Path 1097" d="M1523.809,869.266a.936.936,0,0,1-.527-.167,2.145,2.145,0,0,1-.765-1.648,2.623,2.623,0,0,1,1.243-2.664.921.921,0,0,1,.827.117,2.146,2.146,0,0,1,.765,1.649h0a2.623,2.623,0,0,1-1.243,2.664A.954.954,0,0,1,1523.809,869.266Zm.251-4.386a.809.809,0,0,0-.254.042,2.482,2.482,0,0,0-1.146,2.518,2.007,2.007,0,0,0,.7,1.54.783.783,0,0,0,.7.1,2.483,2.483,0,0,0,1.146-2.519,2.009,2.009,0,0,0-.7-1.54A.8.8,0,0,0,1524.06,864.879Z" transform="translate(-1522.508 -864.736)" fill="#fff"/>
        </g>
        <g id="Group_941" data-name="Group 941" transform="translate(3.623 4.398)" opacity="0.3">
          <path id="Path_1098" data-name="Path 1098" d="M1553.2,867.707a2.456,2.456,0,0,1-1.531,2.415c-.829.176-1.488-.62-1.471-1.778a2.456,2.456,0,0,1,1.53-2.415C1552.562,865.753,1553.221,866.549,1553.2,867.707Z" transform="translate(-1550.203 -865.904)" fill="#fff"/>
        </g>
        <g id="Group_942" data-name="Group 942" transform="translate(0.127 4.401)" opacity="0.3">
          <path id="Path_1099" data-name="Path 1099" d="M1526.2,867.685a2.626,2.626,0,0,1-1.393,2.489c-.752.212-1.348-.56-1.331-1.723a2.625,2.625,0,0,1,1.393-2.488C1525.625,865.751,1526.222,866.522,1526.2,867.685Z" transform="translate(-1523.48 -865.927)" fill="#fff"/>
        </g>
        <g id="Group_943" data-name="Group 943" transform="translate(3.401 4.087)">
          <path id="Path_1100" data-name="Path 1100" d="M1549.913,868.095a1.17,1.17,0,0,1-.755-.279,2.118,2.118,0,0,1-.653-1.682,2.61,2.61,0,0,1,1.675-2.583,1.169,1.169,0,0,1,1.007.253,2.117,2.117,0,0,1,.653,1.681,2.611,2.611,0,0,1-1.674,2.583A1.277,1.277,0,0,1,1549.913,868.095Zm.518-4.426a1.1,1.1,0,0,0-.222.023,2.465,2.465,0,0,0-1.561,2.444,2.005,2.005,0,0,0,.6,1.57,1.032,1.032,0,0,0,.889.223,2.465,2.465,0,0,0,1.56-2.445h0a2,2,0,0,0-.6-1.57A1.03,1.03,0,0,0,1550.431,863.668Z" transform="translate(-1548.505 -863.526)" fill="#fff"/>
        </g>
        <g id="Group_944" data-name="Group 944" transform="translate(2.503 6.186)">
          <path id="Path_1101" data-name="Path 1101" d="M1542.857,879.982a.131.131,0,0,1-.056-.013,1.19,1.19,0,0,0-.968-.062.133.133,0,0,1-.117-.24,1.451,1.451,0,0,1,1.2.059.133.133,0,0,1-.056.254Z" transform="translate(-1541.643 -879.57)" fill="#fff"/>
        </g>
        <g id="Group_945" data-name="Group 945" transform="translate(10.556 4.304)">
          <path id="Path_1102" data-name="Path 1102" d="M1603.228,866.135l-.032-.068a.8.8,0,0,0,.434-.87l.073-.015A.877.877,0,0,1,1603.228,866.135Z" transform="translate(-1603.196 -865.181)" fill="#561c17"/>
        </g>
        <g id="Group_946" data-name="Group 946" transform="translate(10.36 5.456)">
          <path id="Path_1103" data-name="Path 1103" d="M1602.291,874.6s-.281-.463-.6-.544l.019-.073c.346.089.631.558.643.578Z" transform="translate(-1601.694 -873.986)" fill="#561c17"/>
        </g>
      </g>
      <g id="Group_948" data-name="Group 948" transform="translate(118.49 8.769)">
        <path id="Path_1104" data-name="Path 1104" d="M1541.735,899.314a6.854,6.854,0,0,0,2.179.171,1.051,1.051,0,0,1-1.318.843C1541.926,900.207,1541.735,899.314,1541.735,899.314Z" transform="translate(-1541.735 -899.314)" fill="#fff"/>
      </g>
      <g id="Group_1011" data-name="Group 1011" transform="translate(0 23.639)">
        <g id="Group_949" data-name="Group 949">
          <path id="Path_1105" data-name="Path 1105" d="M753.621,1021.2v51.292a8.22,8.22,0,0,1-8.221,8.22H644.248a8.22,8.22,0,0,1-8.221-8.22V1021.2a8.221,8.221,0,0,1,8.221-8.222H745.4A8.221,8.221,0,0,1,753.621,1021.2Z" transform="translate(-636.027 -1012.978)" fill="#4bae48"/>
        </g>
        <g id="Group_967" data-name="Group 967" transform="translate(94.634 54.818)">
          <g id="Group_962" data-name="Group 962">
            <g id="Group_959" data-name="Group 959" transform="translate(0 0.005)">
              <path id="Path_1114" data-name="Path 1114" d="M1359.385,1433.162a1.13,1.13,0,0,1,1.13-1.13,1.221,1.221,0,0,1,1.239.991c.2.887-.526,1.367-1.342,1.367A1.136,1.136,0,0,1,1359.385,1433.162Z" transform="translate(-1359.385 -1432.032)" fill="#f4f4f4"/>
            </g>
            <g id="Group_960" data-name="Group 960" transform="translate(4.363 0.005)">
              <path id="Path_1115" data-name="Path 1115" d="M1392.737,1433.162a1.13,1.13,0,0,1,1.13-1.13,1.322,1.322,0,0,1,1.334,1.13,1.232,1.232,0,1,1-2.464,0Z" transform="translate(-1392.737 -1432.032)" fill="#f4f4f4"/>
            </g>
            <g id="Group_961" data-name="Group 961" transform="translate(8.626)">
              <path id="Path_1116" data-name="Path 1116" d="M1425.32,1433.178a1.242,1.242,0,0,1,1.136-1.179,1.227,1.227,0,0,1,1.373,1.089c.107.706-.181,1.269-1.292,1.269A1.13,1.13,0,0,1,1425.32,1433.178Z" transform="translate(-1425.318 -1431.994)" fill="#f4f4f4"/>
            </g>
          </g>
          <g id="Group_966" data-name="Group 966" transform="translate(0 4.339)">
            <g id="Group_963" data-name="Group 963" transform="translate(0 0.035)">
              <path id="Path_1117" data-name="Path 1117" d="M1359.385,1466.582a1.109,1.109,0,0,1,1.047-1.138,1.123,1.123,0,0,1,1.322,1.13,1.185,1.185,0,0,1-2.369.009Z" transform="translate(-1359.385 -1465.435)" fill="#f4f4f4"/>
            </g>
            <g id="Group_964" data-name="Group 964" transform="translate(4.236 0.046)">
              <path id="Path_1118" data-name="Path 1118" d="M1391.771,1466.708c.05-.622.189-1.264,1.252-1.185a1.162,1.162,0,0,1,1.129,1.129,1.129,1.129,0,0,1-1.129,1.13C1392.4,1467.782,1391.706,1467.529,1391.771,1466.708Z" transform="translate(-1391.767 -1465.516)" fill="#f4f4f4"/>
            </g>
            <g id="Group_965" data-name="Group 965" transform="translate(8.628)">
              <path id="Path_1119" data-name="Path 1119" d="M1425.337,1466.32a1.161,1.161,0,0,1,1.1-1.156,1.18,1.18,0,0,1,1.33,1.231,1.158,1.158,0,0,1-1.207,1.08A1.116,1.116,0,0,1,1425.337,1466.32Z" transform="translate(-1425.334 -1465.164)" fill="#f4f4f4"/>
            </g>
          </g>
        </g>
        <g id="Group_968" data-name="Group 968">
          <path id="Path_1120" data-name="Path 1120" d="M726.728,1080.712h-82.48a8.22,8.22,0,0,1-8.221-8.22V1021.2a8.221,8.221,0,0,1,8.221-8.222h32.028l.538.306s10.737,2.125,11.562,9.383,1.659,14.106,12.933,16.459,24.065,6.341,20.352,18.995S730.437,1069.265,726.728,1080.712Z" transform="translate(-636.027 -1012.978)" fill="#b8e34d"/>
        </g>
        <g id="Group_1010" data-name="Group 1010" transform="translate(7.866 6.177)">
          <g id="Group_995" data-name="Group 995">
            <g id="Group_969" data-name="Group 969" transform="translate(2.109 19.201)">
              <path id="Path_1121" data-name="Path 1121" d="M752.255,1211.082l-.3,2.74-3,26.969H716.309l-.37-3.107-3.664-30.725,3.664.378.676.07.69.072,4.39.453,4.33.447.675.07.691.071,4.389.453,4.33.447.676.07.691.071,4.388.452,4.33.447.676.07.691.072,4.389.453Z" transform="translate(-712.274 -1206.959)" fill="#ffdf76"/>
            </g>
            <g id="Group_982" data-name="Group 982" transform="translate(5.773 19.579)">
              <g id="Group_972" data-name="Group 972">
                <g id="Group_970" data-name="Group 970" transform="translate(1.366 0.141)">
                  <path id="Path_1122" data-name="Path 1122" d="M755.116,1211.379v32.86h-4.39v-33.313Z" transform="translate(-750.726 -1210.926)" fill="#ffc655"/>
                </g>
                <g id="Group_971" data-name="Group 971">
                  <path id="Path_1123" data-name="Path 1123" d="M740.958,1209.916V1243.3h-.305l-.37-3.107v-30.348Z" transform="translate(-740.282 -1209.847)" fill="#ffc655"/>
                </g>
              </g>
              <g id="Group_975" data-name="Group 975" transform="translate(10.086 1.041)">
                <g id="Group_973" data-name="Group 973" transform="translate(1.366 0.14)">
                  <path id="Path_1124" data-name="Path 1124" d="M832.209,1219.327v31.82h-4.389v-32.273Z" transform="translate(-827.821 -1218.875)" fill="#ffc655"/>
                </g>
                <g id="Group_974" data-name="Group 974">
                  <path id="Path_1125" data-name="Path 1125" d="M817.377,1217.8v32.414h.675v-32.344Z" transform="translate(-817.377 -1217.802)" fill="#ffc655"/>
                </g>
              </g>
              <g id="Group_978" data-name="Group 978" transform="translate(20.171 2.081)">
                <g id="Group_976" data-name="Group 976" transform="translate(1.366 0.141)">
                  <path id="Path_1126" data-name="Path 1126" d="M909.3,1227.281v30.781h-4.389v-31.233Z" transform="translate(-904.909 -1226.829)" fill="#ffc655"/>
                </g>
                <g id="Group_977" data-name="Group 977">
                  <path id="Path_1127" data-name="Path 1127" d="M895.14,1225.82v31.3h-.676v-31.374Z" transform="translate(-894.464 -1225.751)" fill="#ffc655"/>
                </g>
              </g>
              <g id="Group_981" data-name="Group 981" transform="translate(30.256 3.12)">
                <g id="Group_979" data-name="Group 979" transform="translate(1.367 0.141)">
                  <path id="Path_1128" data-name="Path 1128" d="M986.391,1235.231V1238l-3,26.969H982v-30.193Z" transform="translate(-982.002 -1234.779)" fill="#ffc655"/>
                </g>
                <g id="Group_980" data-name="Group 980">
                  <path id="Path_1129" data-name="Path 1129" d="M972.227,1233.768v30.264h-.676V1233.7Z" transform="translate(-971.551 -1233.698)" fill="#ffc655"/>
                </g>
              </g>
            </g>
            <g id="Group_983" data-name="Group 983" transform="translate(4.006 35.085)">
              <path id="Path_1130" data-name="Path 1130" d="M726.775,1328.4c.4-.255,36.605,1.52,36.605,1.52l-.215,1.933-35.81,1.417Z" transform="translate(-726.775 -1328.373)" fill="#00784d"/>
            </g>
            <g id="Group_984" data-name="Group 984" transform="translate(0 16.171)">
              <path id="Path_1131" data-name="Path 1131" d="M696.153,1183.8l.642,4.32,42.854,4.489v-6.677Z" transform="translate(-696.153 -1183.8)" fill="#8a4d27"/>
            </g>
            <g id="Group_985" data-name="Group 985" transform="translate(20.719 17.187)">
              <path id="Path_1132" data-name="Path 1132" d="M854.521,1191.563v35.847h2.756l2.293-35.6Z" transform="translate(-854.521 -1191.563)" fill="#00784d"/>
            </g>
            <g id="Group_994" data-name="Group 994" transform="translate(0.291)">
              <g id="Group_986" data-name="Group 986">
                <path id="Path_1133" data-name="Path 1133" d="M721.327,1077.5a22.976,22.976,0,0,0-1.816-9.759c-2.934-6.113-7.9-8.4-10.148-7.275-4.279,2.14-3.546,2.506-8.253,3.546s-2.558,6.395.611,7.336c7.825,2.323,17.081,6.029,17.081,6.029Z" transform="translate(-698.375 -1060.191)" fill="#00784d"/>
              </g>
              <g id="Group_987" data-name="Group 987" transform="translate(3.457 2.982)">
                <path id="Path_1134" data-name="Path 1134" d="M730.744,1083.712c-.812,0-1.608-.073-2.363-.143-.4-.037-.773-.072-1.139-.1a9.151,9.151,0,0,0-2.382.221.046.046,0,0,1-.022-.089,9.247,9.247,0,0,1,2.41-.223c.368.023.744.058,1.142.095a11.246,11.246,0,0,0,5.729-.489.046.046,0,0,1,.061.023.046.046,0,0,1-.023.061A8.283,8.283,0,0,1,730.744,1083.712Z" transform="translate(-724.803 -1082.985)" fill="#f4f4f4"/>
              </g>
              <g id="Group_988" data-name="Group 988" transform="translate(0.512 5.329)">
                <path id="Path_1135" data-name="Path 1135" d="M722.205,1112.828a.046.046,0,0,1-.033-.014c-.027-.028-2.727-2.815-6.119-5.644-3.127-2.608-7.5-5.787-10.565-6.117-1.353-.146-2.282.14-2.76.849a3.259,3.259,0,0,0,.172,3.23.046.046,0,1,1-.081.043,3.431,3.431,0,0,1-.167-3.325c.5-.74,1.455-1.039,2.845-.889,3.089.333,7.478,3.522,10.615,6.139,3.4,2.832,6.1,5.622,6.125,5.65a.046.046,0,0,1,0,.065A.047.047,0,0,1,722.205,1112.828Z" transform="translate(-702.289 -1100.924)" fill="#f4f4f4"/>
              </g>
              <g id="Group_989" data-name="Group 989" transform="translate(21.457 7.895)">
                <path id="Path_1136" data-name="Path 1136" d="M862.388,1129.955s1.513-9.136,6.709-9.387a2.054,2.054,0,0,1,2.4,1.553c.5,1.926,2.338.78,3.118,2.8s-.138,3.851-4.035,3.9-5.181,1.375-5.181,1.375Z" transform="translate(-862.388 -1120.539)" fill="#00784d"/>
              </g>
              <g id="Group_990" data-name="Group 990" transform="translate(23.551 12.635)">
                <path id="Path_1137" data-name="Path 1137" d="M878.438,1161.49l-.015,0a.046.046,0,0,1-.029-.058c.006-.019.688-1.94,3.768-3.428a12.911,12.911,0,0,1,3.7-1.177c1.216-.163,2.047.028,2.34.538a1.135,1.135,0,0,1,.049,1.057,3.24,3.24,0,0,1-2.325,1.5.046.046,0,0,1-.021-.09,3.153,3.153,0,0,0,2.262-1.449,1.046,1.046,0,0,0-.044-.974c-.274-.475-1.072-.65-2.249-.493a12.822,12.822,0,0,0-3.667,1.168,8.853,8.853,0,0,0-3.015,2.245,4.091,4.091,0,0,0-.706,1.13A.046.046,0,0,1,878.438,1161.49Z" transform="translate(-878.392 -1156.768)" fill="#f4f4f4"/>
              </g>
              <g id="Group_991" data-name="Group 991" transform="translate(28.121 9.554)">
                <path id="Path_1138" data-name="Path 1138" d="M916.827,1134.468a5.66,5.66,0,0,1-3.489-1.17.046.046,0,0,1,.061-.069,5.586,5.586,0,0,0,3.577,1.146h0a.046.046,0,0,1,0,.092Z" transform="translate(-913.322 -1133.217)" fill="#f4f4f4"/>
              </g>
              <g id="Group_992" data-name="Group 992" transform="translate(21.411 13.019)">
                <path id="Path_1139" data-name="Path 1139" d="M862.083,1164.045h-.005a.046.046,0,0,1-.04-.051,12.327,12.327,0,0,1,1.261-4.266.046.046,0,0,1,.076.051,12.232,12.232,0,0,0-1.246,4.225A.046.046,0,0,1,862.083,1164.045Z" transform="translate(-862.038 -1159.707)" fill="#f4f4f4"/>
              </g>
              <g id="Group_993" data-name="Group 993" transform="translate(20.235 17.173)">
                <path id="Path_1140" data-name="Path 1140" d="M858.287,1191.765h0l-5.2-.216a.046.046,0,0,1-.044-.048.047.047,0,0,1,.048-.044l5.2.215a.046.046,0,0,1,0,.092Z" transform="translate(-853.045 -1191.458)" fill="#f4f4f4"/>
              </g>
            </g>
          </g>
          <g id="Group_1009" data-name="Group 1009" transform="translate(42.999 25.312)">
            <g id="Group_996" data-name="Group 996" transform="translate(0.733 10.008)">
              <path id="Path_1141" data-name="Path 1141" d="M1030.424,1332.315l.159,1.428,1.562,14.056h17.014l.193-1.619,1.91-16.014-1.91.2-.352.036-.36.037-2.288.236-2.257.233-.352.036-.36.037-2.287.236-2.257.233-.352.036-.36.037-2.287.236-2.257.233-.352.036-.36.037-2.287.236Z" transform="translate(-1030.424 -1330.166)" fill="#00784d"/>
            </g>
            <g id="Group_997" data-name="Group 997" transform="translate(1.503 18.286)">
              <path id="Path_1142" data-name="Path 1142" d="M1055.392,1393.459c-.206-.133-19.078.792-19.078.792l.112,1.007,18.664.739Z" transform="translate(-1036.314 -1393.446)" fill="#8a4d27"/>
            </g>
            <g id="Group_998" data-name="Group 998" transform="translate(0 8.428)">
              <path id="Path_1143" data-name="Path 1143" d="M1047.493,1318.094l-.334,2.252-22.335,2.34v-3.48Z" transform="translate(-1024.823 -1318.094)" fill="#00a76e"/>
            </g>
            <g id="Group_999" data-name="Group 999" transform="translate(9.24 8.958)">
              <path id="Path_1144" data-name="Path 1144" d="M1098.082,1322.141v18.683h-1.437l-1.195-18.554Z" transform="translate(-1095.451 -1322.141)" fill="#8a4d27"/>
            </g>
            <g id="Group_1008" data-name="Group 1008" transform="translate(4.83)">
              <g id="Group_1000" data-name="Group 1000" transform="translate(5.719)">
                <path id="Path_1145" data-name="Path 1145" d="M1105.461,1262.692a11.975,11.975,0,0,1,.947-5.086c1.529-3.186,4.115-4.379,5.289-3.792,2.23,1.115,1.848,1.306,4.3,1.848s1.333,3.333-.319,3.823c-4.078,1.211-8.9,3.142-8.9,3.142Z" transform="translate(-1105.454 -1253.67)" fill="#8a4d27"/>
              </g>
              <g id="Group_1001" data-name="Group 1001" transform="translate(10.998 1.554)">
                <path id="Path_1146" data-name="Path 1146" d="M1147.6,1265.929a4.315,4.315,0,0,1-1.778-.333.024.024,0,0,1-.012-.031.024.024,0,0,1,.031-.012,5.861,5.861,0,0,0,2.986.255c.208-.019.4-.037.595-.049a4.793,4.793,0,0,1,1.256.117.024.024,0,0,1,.018.029.023.023,0,0,1-.029.017,4.778,4.778,0,0,0-1.241-.115c-.191.012-.387.03-.594.05C1148.434,1265.891,1148.019,1265.929,1147.6,1265.929Z" transform="translate(-1145.803 -1265.55)" fill="#f4f4f4"/>
              </g>
              <g id="Group_1002" data-name="Group 1002" transform="translate(7.018 2.777)">
                <path id="Path_1147" data-name="Path 1147" d="M1115.405,1281.1a.024.024,0,0,1-.017-.007.024.024,0,0,1,0-.034c.056-.058,5.646-5.813,8.725-6.144a1.468,1.468,0,0,1,1.483.463,1.789,1.789,0,0,1-.087,1.733.024.024,0,0,1-.032.01.024.024,0,0,1-.01-.032,1.741,1.741,0,0,0,.09-1.683,1.428,1.428,0,0,0-1.438-.443c-3.061.33-8.64,6.072-8.7,6.13A.024.024,0,0,1,1115.405,1281.1Z" transform="translate(-1115.381 -1274.899)" fill="#f4f4f4"/>
              </g>
              <g id="Group_1003" data-name="Group 1003" transform="translate(0 4.115)">
                <path id="Path_1148" data-name="Path 1148" d="M1068.245,1290.032s-.789-4.762-3.5-4.892a1.07,1.07,0,0,0-1.251.809c-.263,1-1.219.406-1.625,1.458s.072,2.007,2.1,2.031a3.929,3.929,0,0,1,2.7.717Z" transform="translate(-1061.739 -1285.124)" fill="#8a4d27"/>
              </g>
              <g id="Group_1004" data-name="Group 1004" transform="translate(0.222 6.585)">
                <path id="Path_1149" data-name="Path 1149" d="M1068.6,1306.466a.024.024,0,0,1-.023-.016,3.638,3.638,0,0,0-1.939-1.759,6.688,6.688,0,0,0-1.912-.609c-.613-.082-1.029.009-1.172.257a.545.545,0,0,0-.023.508,1.644,1.644,0,0,0,1.179.756.024.024,0,0,1,.018.029.025.025,0,0,1-.029.018,1.688,1.688,0,0,1-1.212-.783.591.591,0,0,1,.025-.551c.153-.266.586-.365,1.22-.28a6.725,6.725,0,0,1,1.926.613,3.682,3.682,0,0,1,1.964,1.787.024.024,0,0,1-.015.03Z" transform="translate(-1063.437 -1304.005)" fill="#f4f4f4"/>
              </g>
              <g id="Group_1005" data-name="Group 1005" transform="translate(1.104 4.979)">
                <path id="Path_1150" data-name="Path 1150" d="M1070.278,1292.382h-.079a.024.024,0,0,1-.023-.024.025.025,0,0,1,.025-.023,2.893,2.893,0,0,0,1.864-.6.024.024,0,0,1,.031.036A2.951,2.951,0,0,1,1070.278,1292.382Z" transform="translate(-1070.176 -1291.73)" fill="#f4f4f4"/>
              </g>
              <g id="Group_1006" data-name="Group 1006" transform="translate(5.828 6.786)">
                <path id="Path_1151" data-name="Path 1151" d="M1106.963,1307.8a.024.024,0,0,1-.024-.021,6.374,6.374,0,0,0-.65-2.2.024.024,0,1,1,.04-.027,6.423,6.423,0,0,1,.657,2.223.024.024,0,0,1-.021.026Z" transform="translate(-1106.286 -1305.538)" fill="#f4f4f4"/>
              </g>
              <g id="Group_1007" data-name="Group 1007" transform="translate(4.386 8.951)">
                <path id="Path_1152" data-name="Path 1152" d="M1095.292,1322.246a.024.024,0,0,1,0-.048l2.708-.112a.027.027,0,0,1,.025.023.024.024,0,0,1-.023.025l-2.708.112Z" transform="translate(-1095.268 -1322.086)" fill="#f4f4f4"/>
              </g>
            </g>
          </g>
        </g>
      </g>
      <g id="Group_1021" data-name="Group 1021" transform="translate(112.659 17.984)">
        <g id="Group_1013" data-name="Group 1013" transform="translate(4.645)">
          <g id="Group_1012" data-name="Group 1012">
            <path id="Path_1153" data-name="Path 1153" d="M1533.226,985.9l-.555-1.717c-.008-.487,1.459-1.838,1.928-1.705a9.2,9.2,0,0,0,9.109-1.995c1.637-1.586,2.065-5.528,1.7-7.532-.188-1.026.151-1.712,1.39-2.369a8.478,8.478,0,0,1,2.38-.81.974.974,0,0,1,1.185.638,21.72,21.72,0,0,1,.619,3.546,13.178,13.178,0,0,1-1.961,8.841c-1.957,2.785-8.47,5.692-15.479,5.261C1533.016,988.028,1533.234,986.428,1533.226,985.9Z" transform="translate(-1532.671 -969.754)" fill="#ffa076"/>
          </g>
        </g>
        <g id="Group_1014" data-name="Group 1014" transform="translate(18.99 9.83)" opacity="0.5">
          <path id="Path_1154" data-name="Path 1154" d="M1643.046,1047.179a.713.713,0,0,1-.456-.153.8.8,0,0,1-.265-.714,1.581,1.581,0,0,1,.359-.845,1.139,1.139,0,0,1,1.5-.424.8.8,0,0,1,.265.714,1.68,1.68,0,0,1-1.108,1.375A1.025,1.025,0,0,1,1643.046,1047.179Zm.686-2.049a1.2,1.2,0,0,0-.862.487,1.341,1.341,0,0,0-.307.714.508.508,0,0,0,.711.573,1.342,1.342,0,0,0,.632-.452h0a1.341,1.341,0,0,0,.307-.714.569.569,0,0,0-.176-.509A.477.477,0,0,0,1643.732,1045.13Z" transform="translate(-1642.322 -1044.892)" fill="#f47c53"/>
        </g>
        <g id="Group_1020" data-name="Group 1020" transform="translate(0 9.097)">
          <g id="Group_1016" data-name="Group 1016">
            <g id="Group_1015" data-name="Group 1015">
              <path id="Path_1155" data-name="Path 1155" d="M1503.737,1042.92s-.868-2.626-2.353-3.269-3.87-.341-3.034.253a10.667,10.667,0,0,0,2.115,1.058s-2.778-.863-2.7-.126,2.5,1.464,2.5,1.464-3.387-.763-3.087-.091,2.878,1.233,2.878,1.233-3.18-.584-2.812.188,2.631.466,2.71,1.2.645,3.638,2.72,3.667Z" transform="translate(-1497.164 -1039.291)" fill="#ffa076"/>
            </g>
          </g>
          <g id="Group_1017" data-name="Group 1017" transform="translate(3.292 1.612)">
            <path id="Path_1156" data-name="Path 1156" d="M1523.328,1052.282c-.2-.424-.991-.55-1-.551l.018-.118c.035.005.861.137,1.089.618Z" transform="translate(-1522.328 -1051.613)" fill="#dd8964"/>
          </g>
          <g id="Group_1018" data-name="Group 1018" transform="translate(3.098 2.95)">
            <path id="Path_1157" data-name="Path 1157" d="M1522.049,1062.635a2.013,2.013,0,0,0-1.207-.675l.016-.118a2.1,2.1,0,0,1,1.287.722Z" transform="translate(-1520.842 -1061.842)" fill="#dd8964"/>
          </g>
          <g id="Group_1019" data-name="Group 1019" transform="translate(2.888 4.093)">
            <path id="Path_1158" data-name="Path 1158" d="M1520.362,1071.309c-.176-.468-1.115-.616-1.124-.618l.018-.118c.042.006,1.018.161,1.218.694Z" transform="translate(-1519.238 -1070.573)" fill="#dd8964"/>
          </g>
        </g>
      </g>
    </g>
    <g id="Group_1024" data-name="Group 1024" transform="translate(449.146 618.727)">
      <g id="Group_1023" data-name="Group 1023" transform="translate(0)">
        <path id="Path_1159" data-name="Path 1159" d="M1216.763,1000.22s-2.029-.5-2.473,1.355c-.565,2.363,1,5.85,1.375,4.357a17.774,17.774,0,0,0,.362-3.317s0,5.071,1.055,4.71.991-4.721.991-4.721.468,4.936,1.353,4.274.853-4.622.853-4.622.2,4.849,1.207,4.055.4-3.281.38-4.393c-.017-1.051-.7-1.381-1.713-1.292a2.931,2.931,0,0,0-1.707-.272c-.248.087-.5-.146-.684-.166A6.56,6.56,0,0,0,1216.763,1000.22Z" transform="translate(-1214.168 -1000.158)" fill="#ffa076"/>
      </g>
    </g>
    <g id="Group_1026" data-name="Group 1026" transform="translate(408.675 617.239)">
      <g id="Group_1025" data-name="Group 1025" transform="translate(0)">
        <path id="Path_1160" data-name="Path 1160" d="M907.17,988.939s-2.07-.283-2.316,1.608c-.313,2.41,1.609,5.712,1.828,4.188a13.234,13.234,0,0,0,.05-2.785s.5,4.491,1.507,4.021.634-4.134.634-4.134.839,4.194,1.649,3.442.591-3.329.591-3.329.478,3.444,1.4,2.548.05-3.3-.086-4.409c-.128-1.044-.842-1.3-1.84-1.1a2.93,2.93,0,0,0-1.726-.09c-.238.112-.512-.093-.7-.093A6.567,6.567,0,0,0,907.17,988.939Z" transform="translate(-904.82 -988.784)" fill="#ffa076"/>
      </g>
    </g>
    <g id="Group_1027" data-name="Group 1027" transform="translate(408.522 617.391)" opacity="0.5">
      <path id="Path_1161" data-name="Path 1161" d="M903.738,992.986a3.148,3.148,0,0,1,.31-2.409,1.512,1.512,0,0,1,.915-.627l.042.26a1.249,1.249,0,0,0-.747.525,2.917,2.917,0,0,0-.262,2.2Z" transform="translate(-903.647 -989.95)" fill="#f47c53"/>
    </g>
    <g id="Group_1031" data-name="Group 1031" transform="translate(434.039 617.623)">
      <g id="Group_1029" data-name="Group 1029" transform="translate(0.157 0.105)">
        <g id="Group_1028" data-name="Group 1028">
          <path id="Path_1162" data-name="Path 1162" d="M1102.633,992.651s-1.906-.659-2.5,1.086c-.751,2.222.445,5.711.94,4.309a17.14,17.14,0,0,0,.639-3.157s-.442,4.875.6,4.621,1.366-4.451,1.366-4.451.018,4.786.926,4.227,1.225-4.368,1.225-4.368-.235,4.679.8,4,.671-3.119.751-4.19c.076-1.012-.552-1.389-1.534-1.392a2.827,2.827,0,0,0-1.617-.411c-.246.061-.468-.185-.643-.219A6.327,6.327,0,0,0,1102.633,992.651Z" transform="translate(-1099.897 -992.529)" fill="#ffa076"/>
        </g>
      </g>
      <g id="Group_1030" data-name="Group 1030">
        <path id="Path_1163" data-name="Path 1163" d="M1098.728,994.526a2.9,2.9,0,0,1,.627-2.308,2.415,2.415,0,0,1,2.248-.4,5.019,5.019,0,0,1,.683.023l-.033.261a4.955,4.955,0,0,0-.656-.02h-.016l-.016,0a2.186,2.186,0,0,0-2.028.327,2.687,2.687,0,0,0-.549,2.078Z" transform="translate(-1098.699 -991.726)" fill="#f47c53"/>
      </g>
    </g>
    <g id="Group_1032" data-name="Group 1032" transform="translate(449.014 618.595)" opacity="0.5">
      <path id="Path_1164" data-name="Path 1164" d="M1213.428,1000.967l-.263-.015a1.872,1.872,0,0,1,1.934-1.8h.046l0,.263h-.043A1.622,1.622,0,0,0,1213.428,1000.967Z" transform="translate(-1213.165 -999.151)" fill="#f47c53"/>
    </g>
    <g id="Group_1034" data-name="Group 1034" transform="translate(514.217 671.929)">
      <g id="Group_1033" data-name="Group 1033" transform="translate(0 0)">
        <path id="Path_1165" data-name="Path 1165" d="M1714.693,1418.6a18.006,18.006,0,0,1-1.962-2.656c-1.2-2.011-1.482-3.606-.848-4.742.236-.423.519-.619.846-.584.66.072,1.4,1.126,2.268,3.221.255.617.481,1.233.66,1.748-.208-2.286-.444-6.81.759-8.273a1.232,1.232,0,0,1,.889-.486.94.94,0,0,1,.825.357c1.093,1.327.138,6.252-.389,8.562l.063-.107c.509-.844.99-1.306,1.433-1.373a.545.545,0,0,1,.591.272c.463.813-.413,2.738-1.49,4.056l-.219-.179a7.9,7.9,0,0,0,1.342-2.307,2.058,2.058,0,0,0,.121-1.43.265.265,0,0,0-.3-.132c-.724.11-1.57,1.783-1.835,2.418l-.267-.09c.005-.02.525-2.01.869-4.177.45-2.835.4-4.679-.134-5.332a.666.666,0,0,0-.589-.255.948.948,0,0,0-.688.384c-1.522,1.851-.563,9.322-.553,9.4l-.276.059c-.491-1.642-2.006-5.93-3.108-6.05-.2-.021-.39.121-.568.44-1.4,2.505,2.729,7.023,2.771,7.069Z" transform="translate(-1711.555 -1406.824)" fill="#00613e"/>
      </g>
    </g>
    <g id="Group_1036" data-name="Group 1036" transform="translate(452.406 677.698)">
      <g id="Group_1035" data-name="Group 1035" transform="translate(0 0)">
        <path id="Path_1166" data-name="Path 1166" d="M1242.224,1462.7a18.027,18.027,0,0,1-1.962-2.656c-1.2-2.011-1.482-3.606-.848-4.742.236-.422.519-.619.846-.583.66.072,1.4,1.126,2.267,3.221.255.617.481,1.233.66,1.748-.208-2.286-.443-6.81.76-8.273a1.231,1.231,0,0,1,.889-.486.941.941,0,0,1,.825.357c1.093,1.327.138,6.253-.389,8.562l.064-.107c.508-.844.99-1.306,1.432-1.373a.544.544,0,0,1,.591.272c.463.813-.413,2.738-1.49,4.056l-.219-.179a7.9,7.9,0,0,0,1.342-2.307,2.058,2.058,0,0,0,.121-1.43.266.266,0,0,0-.3-.132c-.724.11-1.57,1.783-1.835,2.418l-.268-.09c.005-.02.525-2.01.869-4.177.451-2.835.4-4.679-.134-5.332a.664.664,0,0,0-.589-.255.948.948,0,0,0-.688.384c-1.522,1.851-.563,9.322-.553,9.4l-.276.059c-.491-1.642-2.006-5.93-3.108-6.05-.2-.021-.39.122-.568.44-1.4,2.5,2.729,7.023,2.771,7.068Z" transform="translate(-1239.085 -1450.92)" fill="#00613e"/>
      </g>
    </g>
    <g id="Group_1037" data-name="Group 1037" transform="translate(421.856 689.701)">
      <path id="Path_1167" data-name="Path 1167" d="M1014.778,1547.412a1.715,1.715,0,0,0-.709-1.413,2.934,2.934,0,0,0-2.222-.016l-.485.188.338-.4c.01-.012,1.018-1.207.795-2.065a1.071,1.071,0,0,0-.741-.706,1.171,1.171,0,0,0-.942.05c-1.3.6-2.259,3.132-2.317,3.29l0,.009-.246-.091,0-.006a1.8,1.8,0,0,0-.052-1.4,1.332,1.332,0,0,0-1.12-.5,1.16,1.16,0,0,0-1.055.361c-.4.546-.035,1.542-.031,1.551l-.246.092a2.2,2.2,0,0,1,.065-1.8,1.393,1.393,0,0,1,1.28-.469,1.573,1.573,0,0,1,1.327.622,1.406,1.406,0,0,1,.214.658,5.487,5.487,0,0,1,2.073-2.55,1.44,1.44,0,0,1,1.144-.057,1.317,1.317,0,0,1,.9.887,2.711,2.711,0,0,1-.6,1.971,2.755,2.755,0,0,1,2.058.161,1.959,1.959,0,0,1,.833,1.615Z" transform="translate(-1005.57 -1542.665)" fill="#00613e"/>
    </g>
    <g id="Group_1038" data-name="Group 1038" transform="translate(358.967 686.676)">
      <path id="Path_1168" data-name="Path 1168" d="M530.157,1524.231l-.143-.2c.024-.017,2.381-1.7,1.314-3.231a.71.71,0,0,0-.615-.352c-.481.006-1.135.461-1.894,1.315a13.154,13.154,0,0,0-1.029,1.334l-.323.494.1-.582c0-.024.385-2.385-.408-3.044a.928.928,0,0,0-.963-.067,1.494,1.494,0,0,0-.911.848c-.531,1.269.4,3.315.405,3.335l-.226.1c-.04-.088-.982-2.166-.409-3.536a1.734,1.734,0,0,1,1.056-.986,1.168,1.168,0,0,1,1.208.109c.661.55.628,2,.556,2.774.561-.769,1.826-2.334,2.839-2.348a.956.956,0,0,1,.823.458C532.741,1522.392,530.183,1524.213,530.157,1524.231Z" transform="translate(-524.866 -1519.547)" fill="#00613e"/>
    </g>
  </g>
</svg>
