<svg xmlns="http://www.w3.org/2000/svg" xmlns:xlink="http://www.w3.org/1999/xlink" width="72" height="72" viewBox="0 0 72 72">
  <defs>
    <linearGradient id="linear-gradient" x1="0.5" y1="1" x2="0.5" gradientUnits="objectBoundingBox">
      <stop offset="0" stop-color="#2eaa66"/>
      <stop offset="0.768" stop-color="#1ed37c"/>
      <stop offset="1" stop-color="#3ec76d"/>
    </linearGradient>
  </defs>
  <g id="Group_1368" data-name="Group 1368" transform="translate(-724.5 -838.5)">
    <g id="Group_1366" data-name="Group 1366">
      <rect id="Rectangle_59" data-name="Rectangle 59" width="71" height="71" rx="22" transform="translate(725 839)" stroke="rgba(0,0,0,0)" stroke-miterlimit="10" stroke-width="1" fill="url(#linear-gradient)"/>
    </g>
    <g id="Group_1367" data-name="Group 1367">
      <g id="Group_710" data-name="Group 710" transform="translate(736.738 852)">
        <path id="Path_918" data-name="Path 918" d="M3,8.1a6.1,6.1,0,1,1,6.1,6.1A6.1,6.1,0,0,1,3,8.1Zm6.1-2.032A2.032,2.032,0,1,0,11.127,8.1,2.032,2.032,0,0,0,9.095,6.063Z" transform="translate(2.476)" fill="#fff" fill-rule="evenodd"/>
        <path id="Path_919" data-name="Path 919" d="M15,8.1a6.1,6.1,0,1,1,6.1,6.1A6.1,6.1,0,0,1,15,8.1Zm6.1-2.032A2.032,2.032,0,1,0,23.127,8.1,2.032,2.032,0,0,0,21.095,6.063Z" transform="translate(14.857)" fill="#fff" fill-rule="evenodd"/>
        <path id="Path_920" data-name="Path 920" d="M8,16.127a8.127,8.127,0,1,1,8.127,8.127A8.127,8.127,0,0,1,8,16.127Zm8.127-4.063a4.063,4.063,0,1,0,4.063,4.063A4.063,4.063,0,0,0,16.126,12.063Z" transform="translate(7.635 6.19)" fill="#fff" fill-rule="evenodd"/>
        <path id="Path_921" data-name="Path 921" d="M1.82,13.874A12.175,12.175,0,0,1,11.571,9H13.6v4.063H11.571a8.111,8.111,0,0,0-6.5,3.251l-1.22,1.624L.6,15.5Z" transform="translate(0 7.222)" fill="#fff"/>
        <path id="Path_922" data-name="Path 922" d="M17,9h2.032a12.175,12.175,0,0,1,9.752,4.875L30,15.5l-3.249,2.44-1.22-1.624a8.112,8.112,0,0,0-6.5-3.252H17Z" transform="translate(16.92 7.222)" fill="#fff"/>
        <path id="Path_923" data-name="Path 923" d="M6.024,23.964a16.256,16.256,0,0,1,26.678,0l1.162,1.666-3.333,2.325-1.162-1.666a12.193,12.193,0,0,0-20.013,0L8.194,27.956,4.861,25.631Z" transform="translate(4.397 15.475)" fill="#fff"/>
      </g>
    </g>
  </g>
</svg>
