<svg xmlns="http://www.w3.org/2000/svg" xmlns:xlink="http://www.w3.org/1999/xlink" width="23.389" height="21.266" viewBox="0 0 23.389 21.266">
  <defs>
    <linearGradient id="linear-gradient" x1="0.5" y1="1" x2="0.5" gradientUnits="objectBoundingBox">
      <stop offset="0" stop-color="#2eaa66"/>
      <stop offset="0.768" stop-color="#1ed37c"/>
      <stop offset="1" stop-color="#3ec76d"/>
    </linearGradient>
  </defs>
  <g id="Group_11" data-name="Group 11" transform="translate(-152.231 -183.796)">
    <path id="Path_9" data-name="Path 9" d="M174.611,183.8H153.24a1.012,1.012,0,0,0-1.009,1.009v2.448H175.62V184.8A1.012,1.012,0,0,0,174.611,183.8Zm-6.356,2.149h-.942a.42.42,0,1,1,0-.841h.942a.42.42,0,1,1,0,.841Zm2.808,0h-.942a.42.42,0,0,1,0-.841h.942a.42.42,0,0,1,0,.841Zm2.808,0h-.942a.42.42,0,0,1,0-.841h.942a.42.42,0,0,1,0,.841Z" transform="translate(0 0)" fill="url(#linear-gradient)"/>
    <path id="Path_10" data-name="Path 10" d="M486.041,370.639h-1.709a.629.629,0,0,1-.628-.628v-.027h-1.8V373h4.136Z" transform="translate(-318.588 -179.926)" fill="url(#linear-gradient)"/>
    <path id="Path_11" data-name="Path 11" d="M697.428,682.713a.692.692,0,1,0,.692-.692A.693.693,0,0,0,697.428,682.713Z" transform="translate(-526.864 -481.471)" fill="url(#linear-gradient)"/>
    <path id="Path_12" data-name="Path 12" d="M483.7,668.01v-.027h-1.8V671h4.136v-2.365h-1.709A.629.629,0,0,1,483.7,668.01Z" transform="translate(-318.588 -467.905)" fill="url(#linear-gradient)"/>
    <path id="Path_13" data-name="Path 13" d="M698.812,544.008a.692.692,0,1,0-.692.692A.693.693,0,0,0,698.812,544.008Z" transform="translate(-526.864 -347.431)" fill="url(#linear-gradient)"/>
    <path id="Path_14" data-name="Path 14" d="M152.231,327.556a1.012,1.012,0,0,0,1.009,1.009h21.371a1.012,1.012,0,0,0,1.009-1.009V311.6H152.231Zm16.063-.862a.749.749,0,0,1-.748.748h-4.321a.749.749,0,0,1-.748-.748v-1.182h-3.918a1.431,1.431,0,0,1-1.429-1.429v-1.23h.841v1.23a.589.589,0,0,0,.588.588h3.918v-1.183a.749.749,0,0,1,.748-.748h1.984a.749.749,0,0,1,.743.656h1.595a.749.749,0,0,1,.748.748Zm1.43-6.613a1.535,1.535,0,0,1,1.113-1.474V316.89a1.533,1.533,0,1,1,.841,0v1.717a1.532,1.532,0,0,1,0,2.947v1.717a1.533,1.533,0,1,1-.841,0v-1.717A1.535,1.535,0,0,1,169.724,320.08Zm-12.594-4a1.431,1.431,0,0,1,1.429-1.429h3.918v-1.183a.749.749,0,0,1,.748-.748h1.984a.749.749,0,0,1,.743.656h1.595a.749.749,0,0,1,.748.748v2.55a.749.749,0,0,1-.748.748h-4.321a.749.749,0,0,1-.748-.748V315.49h-3.918a.589.589,0,0,0-.588.588v1.394a1.162,1.162,0,0,0-.6-.164h-.244Zm-2.068,4.82v-2.421a.328.328,0,0,1,.328-.328h1.984a.328.328,0,0,1,.328.328v.328h2.009a.328.328,0,0,1,.328.328v2.55a.328.328,0,0,1-.328.328h-4.321a.328.328,0,0,1-.328-.328Z" transform="translate(0 -123.502)" fill="url(#linear-gradient)"/>
    <path id="Path_15" data-name="Path 15" d="M698.812,405.3a.692.692,0,1,0-.692.692A.693.693,0,0,0,698.812,405.3Z" transform="translate(-526.864 -213.391)" fill="url(#linear-gradient)"/>
  </g>
</svg>
