<svg xmlns="http://www.w3.org/2000/svg" xmlns:xlink="http://www.w3.org/1999/xlink" width="72" height="72" viewBox="0 0 72 72">
  <defs>
    <linearGradient id="linear-gradient" x1="0.5" y1="1" x2="0.5" gradientUnits="objectBoundingBox">
      <stop offset="0" stop-color="#2eaa66"/>
      <stop offset="0.768" stop-color="#1ed37c"/>
      <stop offset="1" stop-color="#3ec76d"/>
    </linearGradient>
  </defs>
  <g id="Group_1373" data-name="Group 1373" transform="translate(-1261.5 -727.5)">
    <rect id="Rectangle_55" data-name="Rectangle 55" width="71" height="71" rx="22" transform="translate(1262 728)" stroke="rgba(0,0,0,0)" stroke-miterlimit="10" stroke-width="1" fill="url(#linear-gradient)"/>
    <g id="C_-_180_x2C__capital_x2C__money_x2C__venture_x2C__business" transform="translate(1184.006 694.973)">
      <g id="Group_708" data-name="Group 708" transform="translate(98.958 48.027)">
        <path id="Path_911" data-name="Path 911" d="M260.824,345.054v2.358a1.312,1.312,0,0,0,.741-.431,1.161,1.161,0,0,0,.288-.786,1.047,1.047,0,0,0-.242-.693A1.529,1.529,0,0,0,260.824,345.054Z" transform="translate(-245.842 -317.561)" fill="#fff"/>
        <path id="Path_912" data-name="Path 912" d="M171.791,125.051h13.272a1.269,1.269,0,1,0,0-2.537H171.791a1.269,1.269,0,1,0,0,2.537Z" transform="translate(-163.892 -115.619)" fill="#fff"/>
        <path id="Path_913" data-name="Path 913" d="M243.213,301.637a1.064,1.064,0,0,0-.207.637,1.02,1.02,0,0,0,.189.592,1.309,1.309,0,0,0,.58.44v-2.085A1.14,1.14,0,0,0,243.213,301.637Z" transform="translate(-229.673 -277.785)" fill="#fff"/>
        <path id="Path_914" data-name="Path 914" d="M169.42,243.931a8.788,8.788,0,1,0,8.832,8.788A8.82,8.82,0,0,0,169.42,243.931Zm2.3,12.122a3,3,0,0,1-1.851.929V258.1h-.88v-1.11a2.816,2.816,0,0,1-1.695-.77,3.158,3.158,0,0,1-.834-1.821l1.574-.185a1.969,1.969,0,0,0,.363.828,1.664,1.664,0,0,0,.591.5v-2.519a3.3,3.3,0,0,1-1.729-1.017,2.555,2.555,0,0,1-.552-1.658,2.343,2.343,0,0,1,.624-1.658,2.5,2.5,0,0,1,1.657-.773v-.592h.88v.592a2.623,2.623,0,0,1,1.539.654,2.524,2.524,0,0,1,.729,1.444l-1.537.2a1.237,1.237,0,0,0-.731-.962v2.351a3.934,3.934,0,0,1,1.987,1.012,2.379,2.379,0,0,1,.529,1.6A2.652,2.652,0,0,1,171.717,256.053Z" transform="translate(-154.884 -225.798)" fill="#fff"/>
        <path id="Path_915" data-name="Path 915" d="M119.295,160.741a6.4,6.4,0,0,1-11.6,0,14.609,14.609,0,0,0-8.735,13.421v14.646H128.03V174.162A14.609,14.609,0,0,0,119.295,160.741Zm-5.8,26.144a9.656,9.656,0,1,1,9.7-9.656A9.688,9.688,0,0,1,113.494,186.885Z" transform="translate(-98.958 -150.308)" fill="#fff"/>
        <path id="Path_916" data-name="Path 916" d="M208.541,48.032l-5.126,3.2a.434.434,0,0,1-.458,0l-5.2-3.21v6.027h10.781Z" transform="translate(-188.615 -48.027)" fill="#fff"/>
        <path id="Path_917" data-name="Path 917" d="M207.992,162.263a5.6,5.6,0,0,0,4.9-2.966H203.1A5.6,5.6,0,0,0,207.992,162.263Z" transform="translate(-193.456 -148.998)" fill="#fff"/>
      </g>
    </g>
  </g>
</svg>
