<svg xmlns="http://www.w3.org/2000/svg" xmlns:xlink="http://www.w3.org/1999/xlink" width="26.957" height="26.855" viewBox="0 0 26.957 26.855">
  <defs>
    <linearGradient id="linear-gradient" x1="0.5" y1="1" x2="0.5" gradientUnits="objectBoundingBox">
      <stop offset="0" stop-color="#2eaa66"/>
      <stop offset="0.768" stop-color="#1ed37c"/>
      <stop offset="1" stop-color="#3ec76d"/>
    </linearGradient>
  </defs>
  <g id="Group_1358" data-name="Group 1358" transform="translate(-15.5 -16.358)">
    <path id="Path_1170" data-name="Path 1170" d="M30.658,79.332H24.309a.337.337,0,0,1,0-.672h5.97a8.258,8.258,0,0,1-.377-.84H24.309a.337.337,0,0,1,0-.672h5.4a6.5,6.5,0,0,1-.214-1.682,6.71,6.71,0,0,1,.675-2.966H18.4a.91.91,0,0,0-.886.957V91.539H30.5a1.308,1.308,0,0,1,.871.309,1.043,1.043,0,0,1,.138.13l.025.012a1.328,1.328,0,0,1,.317.845V94.23c0,.816.5,1.982,1.176,1.982V96.2a1.943,1.943,0,0,1-1.9-1.966V92.836a.593.593,0,0,0-.155-.365l-.072-.059a.6.6,0,0,0-.4-.145H16.068a.564.564,0,0,0-.568.569V94.19a1.992,1.992,0,0,0,2,2H33.012a1.946,1.946,0,0,0,1.243-.414,1.978,1.978,0,0,0,.788-1.543V82.2A6.645,6.645,0,0,1,30.658,79.332Zm-9.921-2.5a1.536,1.536,0,0,1,.921.306l-1.133,1.132-.2-.242a.346.346,0,0,0-.529.448L20.24,79a.346.346,0,0,0,.25.122H20.5a.346.346,0,0,0,.245-.1l1.36-1.36a1.545,1.545,0,1,1-1.372-.835Zm0,4.917a1.537,1.537,0,0,1,.921.306l-1.133,1.132-.2-.242a.346.346,0,0,0-.529.448l.448.529a.347.347,0,0,0,.25.122H20.5a.346.346,0,0,0,.245-.1l1.36-1.36a1.545,1.545,0,1,1-1.372-.835Zm0,8.007a1.545,1.545,0,1,1,.921-2.784L20.526,88.1l-.2-.242a.346.346,0,0,0-.529.447l.448.529a.347.347,0,0,0,.25.123H20.5a.346.346,0,0,0,.245-.1l1.36-1.36a1.544,1.544,0,0,1-1.372,2.255Zm11.39-.623H24.31a.308.308,0,1,1,0-.616h7.817a.308.308,0,1,1,0,.616Zm0-1.512H24.31a.308.308,0,1,1,0-.616h7.817a.308.308,0,1,1,0,.616Zm0-3.416H24.31a.308.308,0,1,1,0-.616h7.817a.308.308,0,1,1,0,.616Zm.315-1.82a.309.309,0,0,1-.315.308H24.31a.308.308,0,1,1,0-.616h7.817A.309.309,0,0,1,32.442,82.383Z" transform="translate(0 -52.998)" fill="url(#linear-gradient)"/>
    <path id="Path_1171" data-name="Path 1171" d="M283.765,16.358A6.14,6.14,0,1,0,289.9,22.5,6.14,6.14,0,0,0,283.765,16.358Zm.349,6.967a.074.074,0,0,1,0,.016.346.346,0,0,1-.2.3.354.354,0,0,1-.146.032.342.342,0,0,1-.213-.074l-.011-.009-1.81-1.54h0l-.145-.123a.344.344,0,0,1-.039-.488.3.3,0,0,1,.443-.04l1.343,1.179V18.964a.395.395,0,0,1,.784,0Z" transform="translate(-247.447)" fill="url(#linear-gradient)"/>
  </g>
</svg>
