<svg xmlns="http://www.w3.org/2000/svg" xmlns:xlink="http://www.w3.org/1999/xlink" width="72" height="72" viewBox="0 0 72 72">
  <defs>
    <linearGradient id="linear-gradient" x1="0.5" y1="1" x2="0.5" gradientUnits="objectBoundingBox">
      <stop offset="0" stop-color="#2eaa66"/>
      <stop offset="0.768" stop-color="#1ed37c"/>
      <stop offset="1" stop-color="#3ec76d"/>
    </linearGradient>
  </defs>
  <g id="Group_1365" data-name="Group 1365" transform="translate(-190.5 -945.5)">
    <rect id="Rectangle_64" data-name="Rectangle 64" width="71" height="71" rx="22" transform="translate(191 946)" stroke="rgba(0,0,0,0)" stroke-miterlimit="10" stroke-width="1" fill="url(#linear-gradient)"/>
    <path id="Path_932" data-name="Path 932" d="M376.287,272.647l2.139-2.139a3.157,3.157,0,0,0,0-4.464l-10.268-10.268a3.157,3.157,0,0,0-4.464,0l-10.268,10.268a3.157,3.157,0,0,0,0,4.464l2.047,2.047-2.139,2.139a3.157,3.157,0,0,0,0,4.464L363.6,289.426a3.157,3.157,0,0,0,4.464,0l10.268-10.268a3.157,3.157,0,0,0,0-4.464Zm-9.074-14.671a2.511,2.511,0,0,1,.485.378l8.149,8.15a2.506,2.506,0,0,1,0,3.543l-1.08,1.08-6.7-6.7a3.146,3.146,0,0,0-.853-.608ZM356.005,266.5l8.149-8.15a2.529,2.529,0,0,1,.3-.257v5.722a3.151,3.151,0,0,0-.853.608l-6.609,6.609-.988-.988A2.506,2.506,0,0,1,356.005,266.5Zm8.451,20.665a2.517,2.517,0,0,1-.393-.321l-8.15-8.149a2.506,2.506,0,0,1,0-3.543l1.08-1.08,6.7,6.7a3.156,3.156,0,0,0,.762.562ZM358.494,272.6l.032-.032-.013-.014,5.55-5.55a2.506,2.506,0,0,1,.223-.2l1.594-1.594,7.387,7.387-.032.032.014.014-5.55,5.55c-.06.06-.126.11-.19.163l-1.628,1.627Zm17.262,6.1-8.149,8.149a2.511,2.511,0,0,1-.393.321v-5.743a3.148,3.148,0,0,0,.945-.65l6.609-6.609.988.988A2.505,2.505,0,0,1,375.756,278.7Z" transform="translate(-139.41 709.149)" fill="#f4f8fa"/>
  </g>
</svg>
