<svg xmlns="http://www.w3.org/2000/svg" width="469.889" height="325.147" viewBox="0 0 469.889 325.147">
  <g id="Group_1697" data-name="Group 1697" transform="translate(-396.799 -541.761)" opacity="0.324">
    <g id="Group_1529" data-name="Group 1529" transform="translate(688.379 571.359)">
      <g id="Group_1520" data-name="Group 1520">
        <path id="Path_1773" data-name="Path 1773" d="M1415.594,738.133c-12.876,17.065-34.505,27.2-57.112,27.2-36.726,0-69.378-28.067-69.378-64.792,0-30.3,16.547-52.023,39.333-62.026a73.263,73.263,0,0,1,19.67-5.484,77.575,77.575,0,0,1,10.376-.694,67.528,67.528,0,0,1,25.872,5.154,70.235,70.235,0,0,1,43.229,61.344A59.8,59.8,0,0,1,1415.594,738.133Z" transform="translate(-1289.104 -632.338)" fill="#b8e34d"/>
      </g>
      <g id="Group_1525" data-name="Group 1525" transform="translate(9.827 5.154)">
        <g id="Group_1521" data-name="Group 1521" transform="translate(19.518 63.549)">
          <path id="Path_1774" data-name="Path 1774" d="M1380.7,846.217s2.59,6,0,9.3-2.825,9.535,2.354,13.656,7.417,4.473,6.239,8.593-2.413,9.153-.471,11.272,2.737,7.152,7.063,7.5-.353-3.443,2.472-6.975,13.773-4.238,12.714-11.213,9.005-7.593,10.418-12.184-4.591-7.416-9.624-7.063-1.942-7.5-7.416-8.652-8.035-5.563-11.213-5.033-6.71-3.973-10.33-2.561S1380.7,846.217,1380.7,846.217Z" transform="translate(-1378.906 -842.586)" fill="#4bae48"/>
        </g>
        <g id="Group_1522" data-name="Group 1522" transform="translate(0 9.047)">
          <path id="Path_1775" data-name="Path 1775" d="M1331.3,685.9a14.883,14.883,0,0,0-4.826,7.652c-1.06,4.709-6.357,7.652-7.181,14.127s2.914,6.651,1.589,10.183.322,5.3,4.354,7.063,4.386,4.481,6.771,5.375,1.766,3.278,2.56,3.542.441-1.8,1.266-4.5,1.53-3.826-1.472-3.708-2.06-2.3-.883-3.826-1.648-1.766-2.59-1.531-.706,4.591-2.649,2.531-2.884-4.415-1.295-7.122,5-.471,7.416-3.708,5.827-1.942,6,.648,5,2.649,5.827-.765.471-9.359,5.415-10.33,14.664-5.915,8.479-7.946-3.712-6.269-6.89-6-1.942,5.033-5.474,3.62-6.092-5.209-1.148-6.269,6.975-6.533,3.178-6.18-4.414-3.355-6.71-2.914-4.679,6-7.063,7.416S1331.3,685.9,1331.3,685.9Z" transform="translate(-1319.176 -675.798)" fill="#4bae48"/>
        </g>
        <g id="Group_1523" data-name="Group 1523" transform="translate(40.204 7.658)">
          <path id="Path_1776" data-name="Path 1776" d="M1445.977,672.149s4.885-1.354,7,0,5.415,5.18,2.649,6.592-5.653,1.884-4.3,4.532-3.884,3.531-5.355,0-1.472-4.827-3-6.475S1442.092,671.619,1445.977,672.149Z" transform="translate(-1442.209 -671.548)" fill="#4bae48"/>
        </g>
        <g id="Group_1524" data-name="Group 1524" transform="translate(55.997)">
          <path id="Path_1777" data-name="Path 1777" d="M1551.208,748.752c-20.215-5.3-3.451-13.621-10.535-23.193-4.038-5.455,3.147-12.017-1.446-12.92-2.666-.523-8.8,6.286-12.35,0s-9.853-6.326-11.692-2.516-9.591,6.438-14.678,3.678-2.139-6.437-6.54-9.328-4.73-7.488,0-11.036,2.562-8.672,9.656-7.094,5.715-14.78,5.715-14.78c-.108-2.86,2.66-3.351,1.083-6.011s-6.01-.493-8.375-6.4,3.745-9.46,8.672-8.882c1.436.167,4.922-.838,9.251-2.153a70.235,70.235,0,0,1,43.229,61.344A59.8,59.8,0,0,1,1551.208,748.752Z" transform="translate(-1490.541 -648.112)" fill="#4bae48"/>
        </g>
      </g>
      <g id="Group_1528" data-name="Group 1528" transform="translate(32.224 57.661)">
        <g id="Group_1526" data-name="Group 1526">
          <path id="Path_1778" data-name="Path 1778" d="M1388.066,809.959s4.079-2.272,6.248-.465,3.1,2.995,6.3,2.323,5.37.62,3.3,1.549-6.919,2.582-9.139.62S1386.161,810.751,1388.066,809.959Z" transform="translate(-1387.716 -808.796)" fill="#4bae48"/>
        </g>
        <g id="Group_1527" data-name="Group 1527" transform="translate(16.281 6.911)">
          <path id="Path_1779" data-name="Path 1779" d="M1438.028,831.53s2.891.517,3.563-.671-.671-.052-1.781-.671S1436.582,830.187,1438.028,831.53Z" transform="translate(-1437.539 -829.946)" fill="#4bae48"/>
        </g>
      </g>
    </g>
    <g id="Group_1530" data-name="Group 1530" transform="translate(740.307 700.261)" opacity="0.6">
      <path id="Path_1780" data-name="Path 1780" d="M1454.3,1074.279c26.048-26.626,62.6-58.083,78.512-43.977,19.17,17-27.388,38.381-62.39,60.281C1457.86,1098.439,1437.7,1091.248,1454.3,1074.279Z" transform="translate(-1448.016 -1026.811)" fill="#7fc064"/>
    </g>
    <g id="Group_1534" data-name="Group 1534" transform="translate(714.399 732.526)">
      <g id="Group_1531" data-name="Group 1531">
        <path id="Path_1781" data-name="Path 1781" d="M1368.733,1151.81s132.96-51.44,150.508-10.328-99.438,12.261-137.5,28.615Z" transform="translate(-1368.733 -1125.55)" fill="#ffc655"/>
      </g>
      <g id="Group_1533" data-name="Group 1533" transform="translate(6.715 18.465)">
        <g id="Group_1532" data-name="Group 1532">
          <path id="Path_1782" data-name="Path 1782" d="M1389.754,1200.146c26.081-11.772,58.247-15.5,80.637-16.547a342.9,342.9,0,0,1,42.779.547l.106-1.139a344.185,344.185,0,0,0-42.938-.551c-22.49,1.056-54.807,4.8-81.053,16.647Z" transform="translate(-1389.284 -1182.058)" fill="#f4f4f4"/>
        </g>
      </g>
    </g>
    <g id="Group_1548" data-name="Group 1548" transform="translate(698.324 750.036)">
      <g id="Group_1536" data-name="Group 1536">
        <g id="Group_1535" data-name="Group 1535">
          <path id="Path_1783" data-name="Path 1783" d="M1426.977,1272.618c-16.688-7.468-30.317,16.085-43.752-.019-11.357-13.628-11.584-15.767-19.326-15.3a28.133,28.133,0,0,0-7.767,1.63c-3,1.072-8.079,2.167-12.837-.191-29.067-14.409-36.28-78.361,6-79.6,3.054-.089,6.306,1.4,9.791,3.211,18.9,9.819,18.462,21.486,46.508,11.323s25.119,31.817,37.231,39.168,24.64,11.307,24.643,29.87S1443.659,1280.1,1426.977,1272.618Z" transform="translate(-1319.539 -1179.135)" fill="#7fc064"/>
        </g>
      </g>
      <g id="Group_1547" data-name="Group 1547" transform="translate(17.6 14.298)" opacity="0.5">
        <g id="Group_1538" data-name="Group 1538" transform="translate(0 18.235)">
          <g id="Group_1537" data-name="Group 1537">
            <path id="Path_1784" data-name="Path 1784" d="M1373.4,1279.9l.05-1.2c.529.022,53.866,2.816,129.809,55.964l-.689.986C1426.912,1282.7,1373.927,1279.918,1373.4,1279.9Z" transform="translate(-1373.4 -1278.695)" fill="#f4f4f4"/>
          </g>
        </g>
        <g id="Group_1540" data-name="Group 1540" transform="translate(66.202)">
          <g id="Group_1539" data-name="Group 1539">
            <path id="Path_1785" data-name="Path 1785" d="M1577.444,1247.65c-3.331-16.1.109-24.413.257-24.759l1.106.472c-.035.082-3.431,8.352-.185,24.044Z" transform="translate(-1575.996 -1222.891)" fill="#f4f4f4"/>
          </g>
        </g>
        <g id="Group_1542" data-name="Group 1542" transform="translate(61.671 9.652)">
          <g id="Group_1541" data-name="Group 1541">
            <path id="Path_1786" data-name="Path 1786" d="M1562.128,1279.241c.819-6.91,6.247-13.744,15.7-19.764a80.37,80.37,0,0,1,14.082-7.05l.407,1.131c-.271.1-27.11,9.935-28.992,25.825Z" transform="translate(-1562.128 -1252.427)" fill="#f4f4f4"/>
          </g>
        </g>
        <g id="Group_1544" data-name="Group 1544" transform="translate(81.936 46.064)">
          <g id="Group_1543" data-name="Group 1543">
            <path id="Path_1787" data-name="Path 1787" d="M1624.768,1367.021c-.451-1.842-.616-2.946-.623-3l1.19-.168c.032.233,3.527,23.463,23.675,37.362l-.683.989C1632.093,1391.009,1626.447,1373.886,1624.768,1367.021Z" transform="translate(-1624.145 -1363.857)" fill="#f4f4f4"/>
          </g>
        </g>
        <g id="Group_1546" data-name="Group 1546" transform="translate(75.609 55.161)">
          <g id="Group_1545" data-name="Group 1545">
            <path id="Path_1788" data-name="Path 1788" d="M1604.941,1415.285a28.369,28.369,0,0,1,3.754-17.817,21.009,21.009,0,0,1,4.98-5.771l.705.974c-.1.071-9.723,7.254-8.243,22.5Z" transform="translate(-1604.781 -1391.697)" fill="#f4f4f4"/>
          </g>
        </g>
      </g>
    </g>
    <g id="Group_1549" data-name="Group 1549" transform="translate(822.198 785.19)" opacity="0.6">
      <path id="Path_1789" data-name="Path 1789" d="M1709.9,1294.068c3.234,3.571,3.062,5.661,1.662,6.929s-3.5,1.233-6.73-2.338c-5.891-6.505-6.2-11.945-6.2-11.945S1703.919,1287.468,1709.9,1294.068Z" transform="translate(-1698.623 -1286.714)" fill="#7fc064"/>
    </g>
    <g id="Group_1550" data-name="Group 1550" transform="translate(824.022 777.955)" opacity="0.6">
      <path id="Path_1790" data-name="Path 1790" d="M1716.553,1264.591c4.529.154,5.827,1.639,5.767,3.414s-1.456,3.168-5.985,3.015c-8.251-.28-12.129-3.63-12.129-3.63S1708.182,1264.307,1716.553,1264.591Z" transform="translate(-1704.206 -1264.572)" fill="#7fc064"/>
    </g>
    <g id="Group_1551" data-name="Group 1551" transform="translate(459.923 564.766)" opacity="0.4">
      <path id="Path_1791" data-name="Path 1791" d="M613.346,619.852s4.514-8.685,15.936-7.6,10.062,9.794,15.5,8.978,13.054,0,14.685,5.441,8.974,2.448,9.246,7.073-8.43,7.89-18.492,3.809-14.957,3.17-29.1,1.857-15.894-2.945-24.264-2.129-8.172-4.917-4.364-8.726S611.715,625.112,613.346,619.852Z" transform="translate(-589.975 -612.161)" fill="#fff"/>
    </g>
    <g id="Group_1552" data-name="Group 1552" transform="translate(560.646 573.622)" opacity="0.6">
      <path id="Path_1792" data-name="Path 1792" d="M907.964,642.475a6.706,6.706,0,0,1,6.65-3.17c4.766.454,4.2,4.087,6.468,3.746s5.447,0,6.128,2.27,3.745,1.022,3.859,2.952-3.518,3.292-7.717,1.589-6.242,1.323-12.143.775-6.632-1.229-10.125-.889-3.41-2.052-1.821-3.641S907.283,644.67,907.964,642.475Z" transform="translate(-898.211 -639.265)" fill="#fff"/>
    </g>
    <g id="Group_1553" data-name="Group 1553" transform="translate(528.394 597.046)" opacity="0.6">
      <path id="Path_1793" data-name="Path 1793" d="M811.676,714.952A8.364,8.364,0,0,1,819.97,711c5.945.566,5.237,5.1,8.068,4.673s6.794,0,7.643,2.832,4.671,1.274,4.812,3.681-4.388,4.106-9.624,1.982-7.785,1.65-15.145.967-8.272-1.533-12.628-1.108-4.253-2.559-2.271-4.542S810.826,717.689,811.676,714.952Z" transform="translate(-799.512 -710.949)" fill="#fff"/>
    </g>
    <g id="Group_1602" data-name="Group 1602" transform="translate(396.799 599.884)">
      <g id="Group_1582" data-name="Group 1582" transform="translate(34.146)">
        <g id="Group_1581" data-name="Group 1581">
          <g id="Group_1554" data-name="Group 1554" transform="translate(43.045 19.624)">
            <path id="Path_1794" data-name="Path 1794" d="M638.989,789.1c-2.436,2.845-4.065,2.917-5.18,1.962s-1.294-2.575,1.142-5.42c4.438-5.182,8.6-5.958,8.6-5.958S643.492,783.845,638.989,789.1Z" transform="translate(-633.023 -779.687)" fill="#4db05b"/>
          </g>
          <g id="Group_1555" data-name="Group 1555" transform="translate(51.067 41.655)">
            <path id="Path_1795" data-name="Path 1795" d="M663.27,857.493c-1.385,3.48-2.9,4.075-4.267,3.533s-2.058-2.018-.673-5.5c2.522-6.34,6.212-8.421,6.212-8.421S665.829,851.061,663.27,857.493Z" transform="translate(-657.575 -847.106)" fill="#4db05b"/>
          </g>
          <g id="Group_1580" data-name="Group 1580">
            <g id="Group_1557" data-name="Group 1557" transform="translate(15.335 41.037)">
              <g id="Group_1556" data-name="Group 1556">
                <path id="Path_1796" data-name="Path 1796" d="M608.816,916.43l-.688.172c-.026-.105-2.755-10.764-11.471-24.751-8.042-12.9-22.972-31.365-48.43-46.02l.354-.615c25.6,14.736,40.61,33.3,48.7,46.287C606.041,905.579,608.789,916.322,608.816,916.43Z" transform="translate(-548.226 -845.216)" fill="#4db05b"/>
              </g>
            </g>
            <g id="Group_1559" data-name="Group 1559" transform="translate(31.487 13.288)">
              <g id="Group_1558" data-name="Group 1558">
                <path id="Path_1797" data-name="Path 1797" d="M608.928,808.3l-.689-.167c6.066-25.02-10.418-47.184-10.585-47.4l.565-.428C598.389,760.52,615.075,782.943,608.928,808.3Z" transform="translate(-597.654 -760.296)" fill="#4db05b"/>
              </g>
            </g>
            <g id="Group_1561" data-name="Group 1561" transform="translate(15.721 51.915)">
              <g id="Group_1560" data-name="Group 1560">
                <path id="Path_1798" data-name="Path 1798" d="M562.607,880.479a25.1,25.1,0,0,1-13.2.689l.183-.685a23.8,23.8,0,0,0,15.771-1.979l.336.624A20.852,20.852,0,0,1,562.607,880.479Z" transform="translate(-549.407 -878.505)" fill="#4db05b"/>
              </g>
            </g>
            <g id="Group_1563" data-name="Group 1563" transform="translate(28.627 87.678)">
              <g id="Group_1562" data-name="Group 1562">
                <path id="Path_1799" data-name="Path 1799" d="M629.868,997.81c-14.307,3.177-27.777.307-40.035-8.528a10.489,10.489,0,0,0-.929-.636.217.217,0,0,0,.081.012l-.007-.709c.209,0,.383.118,1.27.758,12.088,8.712,25.366,11.542,39.467,8.41Z" transform="translate(-588.903 -987.949)" fill="#4db05b"/>
              </g>
            </g>
            <g id="Group_1565" data-name="Group 1565" transform="translate(35.878 75.981)">
              <g id="Group_1564" data-name="Group 1564">
                <path id="Path_1800" data-name="Path 1800" d="M622.851,973.2l-.708.048c-.647-9.6-10.95-20.5-11.053-20.6l.512-.49a58.842,58.842,0,0,1,5.364,6.767C619.459,962.586,622.5,968.037,622.851,973.2Z" transform="translate(-611.09 -952.155)" fill="#4db05b"/>
              </g>
            </g>
            <g id="Group_1567" data-name="Group 1567" transform="translate(0 35.107)">
              <g id="Group_1566" data-name="Group 1566">
                <path id="Path_1801" data-name="Path 1801" d="M514.9,830.031c4.648,1.977,5.565,3.66,4.99,5.012s-2.423,1.858-7.071-.119c-8.467-3.6-11.519-7.789-11.519-7.789S506.306,826.377,514.9,830.031Z" transform="translate(-501.296 -827.069)" fill="#4db05b"/>
              </g>
            </g>
            <g id="Group_1569" data-name="Group 1569" transform="translate(2.932 51.581)">
              <g id="Group_1568" data-name="Group 1568">
                <path id="Path_1802" data-name="Path 1802" d="M524.109,877.7c5.028.484,6.41,1.812,6.269,3.274s-1.75,2.5-6.778,2.018c-9.159-.881-13.332-3.953-13.332-3.953S514.816,876.8,524.109,877.7Z" transform="translate(-510.268 -877.484)" fill="#4db05b"/>
              </g>
            </g>
            <g id="Group_1571" data-name="Group 1571" transform="translate(27.973 68.527)">
              <g id="Group_1570" data-name="Group 1570">
                <path id="Path_1803" data-name="Path 1803" d="M596.05,934.418c2.707,2.589,2.689,4.22,1.674,5.28s-2.643,1.151-5.349-1.438c-4.931-4.717-5.476-8.917-5.476-8.917S591.048,929.633,596.05,934.418Z" transform="translate(-586.899 -929.343)" fill="#4db05b"/>
              </g>
            </g>
            <g id="Group_1573" data-name="Group 1573" transform="translate(24.435 33.702)">
              <g id="Group_1572" data-name="Group 1572">
                <path id="Path_1804" data-name="Path 1804" d="M583.736,829.917c2,3.17,1.582,4.747.339,5.529s-2.843.473-4.839-2.7c-3.635-5.774-3.142-9.982-3.142-9.982S580.048,824.059,583.736,829.917Z" transform="translate(-576.072 -822.768)" fill="#4db05b"/>
              </g>
            </g>
            <g id="Group_1575" data-name="Group 1575" transform="translate(49.28 81.414)">
              <g id="Group_1574" data-name="Group 1574">
                <path id="Path_1805" data-name="Path 1805" d="M658.107,977.788c1.024,3.6.184,5-1.228,5.4s-2.862-.345-3.886-3.948c-1.866-6.563-.21-10.462-.21-10.462S656.214,971.13,658.107,977.788Z" transform="translate(-652.106 -968.78)" fill="#4db05b"/>
              </g>
            </g>
            <g id="Group_1577" data-name="Group 1577" transform="translate(22.352 84.332)">
              <g id="Group_1576" data-name="Group 1576">
                <path id="Path_1806" data-name="Path 1806" d="M579.726,980.747c3.2,1.95,3.53,3.546,2.766,4.8s-2.335,1.69-5.533-.26c-5.826-3.551-7.258-7.538-7.258-7.538S573.814,977.144,579.726,980.747Z" transform="translate(-569.7 -977.711)" fill="#4db05b"/>
              </g>
            </g>
            <g id="Group_1579" data-name="Group 1579" transform="translate(22.957)">
              <g id="Group_1578" data-name="Group 1578">
                <path id="Path_1807" data-name="Path 1807" d="M581.124,729.719c2.713,4.261,2.516,6.167,1.278,6.956s-3.049.16-5.762-4.1c-4.942-7.762-5.088-12.941-5.088-12.941S576.11,721.844,581.124,729.719Z" transform="translate(-571.551 -719.633)" fill="#4db05b"/>
              </g>
            </g>
          </g>
        </g>
      </g>
      <g id="Group_1583" data-name="Group 1583" transform="translate(54.586 104.269)">
        <path id="Path_1808" data-name="Path 1808" d="M673.776,1139.3s-72.167-118.935-103.7-98.14,66.017,68.982,85.928,104.271Z" transform="translate(-563.847 -1038.721)" fill="#7fc064"/>
      </g>
      <g id="Group_1587" data-name="Group 1587" transform="translate(14.312 116.116)">
        <g id="Group_1584" data-name="Group 1584">
          <path id="Path_1809" data-name="Path 1809" d="M557.219,1142.492s-83.062-88.105-111.563-63.024,71.717,45.806,94.9,72.276Z" transform="translate(-440.598 -1074.975)" fill="#4db05b"/>
        </g>
        <g id="Group_1586" data-name="Group 1586" transform="translate(18.622 14.413)">
          <g id="Group_1585" data-name="Group 1585">
            <path id="Path_1810" data-name="Path 1810" d="M586.308,1177.443c-15.677-18.572-38.964-33.2-55.738-42.206a291.312,291.312,0,0,0-32.984-15.245l.335-.911a292.3,292.3,0,0,1,33.108,15.3c16.849,9.044,40.245,23.747,56.021,42.436Z" transform="translate(-497.585 -1119.081)" fill="#f4f4f4"/>
          </g>
        </g>
      </g>
      <g id="Group_1601" data-name="Group 1601" transform="translate(0 154.5)">
        <g id="Group_1589" data-name="Group 1589">
          <g id="Group_1588" data-name="Group 1588">
            <path id="Path_1811" data-name="Path 1811" d="M428.47,1255.781c18.694,3.634,16.2,31.868,37.293,26.194s19.309-7.006,29.7,1.99c0,0,4.159,8.819,12.625,10.121,33.4,5.135,77.859-45.039,42.569-71.424-2.548-1.906-6.214-2.582-10.267-3.13-21.988-2.956-28.6,7.248-46.414-18.213s-40.465,12.064-55.19,11.071-27.77-5.126-38.892,10.689S409.774,1252.16,428.47,1255.781Z" transform="translate(-396.799 -1192.441)" fill="#ffc655"/>
          </g>
        </g>
        <g id="Group_1600" data-name="Group 1600" transform="translate(0.551 3.124)">
          <g id="Group_1591" data-name="Group 1591" transform="translate(0 31.992)">
            <g id="Group_1590" data-name="Group 1590">
              <path id="Path_1812" data-name="Path 1812" d="M541.952,1331.036l.677-1.054c-.464-.3-47.587-29.871-144.139-30.078l0,1.253C494.677,1301.364,541.49,1330.74,541.952,1331.036Z" transform="translate(-398.487 -1299.904)" fill="#f4f4f4"/>
            </g>
          </g>
          <g id="Group_1593" data-name="Group 1593" transform="translate(81.773 5.62)">
            <g id="Group_1592" data-name="Group 1592">
              <path id="Path_1813" data-name="Path 1813" d="M649.589,1240.711c12.486-11.726,14.533-20.868,14.614-21.252l-1.225-.26c-.019.09-2.079,9.172-14.247,20.6Z" transform="translate(-648.731 -1219.2)" fill="#f4f4f4"/>
            </g>
          </g>
          <g id="Group_1595" data-name="Group 1595" transform="translate(70.377)">
            <g id="Group_1594" data-name="Group 1594">
              <path id="Path_1814" data-name="Path 1814" d="M624.193,1242.69c3.442-6.379,2.911-15.454-1.536-26.245A83.677,83.677,0,0,0,614.881,1202l-1.024.72c.172.245,17.148,24.707,9.234,39.374Z" transform="translate(-613.857 -1202.002)" fill="#f4f4f4"/>
            </g>
          </g>
          <g id="Group_1597" data-name="Group 1597" transform="translate(14.113 36.013)">
            <g id="Group_1596" data-name="Group 1596">
              <path id="Path_1815" data-name="Path 1815" d="M482.832,1315.248c1.488-1.3,2.289-2.141,2.326-2.18l-.914-.856c-.167.179-17.062,17.88-42.556,17.654l-.011,1.252C462.22,1331.3,477.289,1320.092,482.832,1315.248Z" transform="translate(-441.677 -1312.212)" fill="#f4f4f4"/>
            </g>
          </g>
          <g id="Group_1599" data-name="Group 1599" transform="translate(42.418 42.941)">
            <g id="Group_1598" data-name="Group 1598">
              <path id="Path_1816" data-name="Path 1816" d="M529.248,1358.744a29.551,29.551,0,0,0,7.475-17.431,21.881,21.881,0,0,0-.787-7.9l-1.185.408c.041.119,3.939,12.006-6.454,24.109Z" transform="translate(-528.297 -1333.411)" fill="#f4f4f4"/>
            </g>
          </g>
        </g>
      </g>
    </g>
    <g id="Group_1608" data-name="Group 1608" transform="translate(499.297 618.43)">
      <g id="Group_1605" data-name="Group 1605" transform="translate(81.697 163.957)">
        <g id="Group_1603" data-name="Group 1603" transform="translate(1.849)">
          <path id="Path_1817" data-name="Path 1817" d="M1061.676,1316.589v-38.452H984.113v38.452c0,9.992-6.65,18.093-14.853,18.093h-3.125v4.964h113.519v-4.964h-3.125C1068.325,1334.681,1061.676,1326.581,1061.676,1316.589Z" transform="translate(-966.135 -1278.137)" fill="#00613e"/>
        </g>
        <g id="Group_1604" data-name="Group 1604" transform="translate(0 56.544)">
          <path id="Path_1818" data-name="Path 1818" d="M1075.212,1456.141H962.96a2.482,2.482,0,0,1-2.482-2.482h0a2.482,2.482,0,0,1,2.482-2.482h112.252a2.482,2.482,0,0,1,2.482,2.482h0A2.482,2.482,0,0,1,1075.212,1456.141Z" transform="translate(-960.478 -1451.177)" fill="#00784d"/>
        </g>
      </g>
      <g id="Group_1606" data-name="Group 1606" transform="translate(0 0)">
        <path id="Path_1819" data-name="Path 1819" d="M982.892,963.952,720.6,960.942a10.251,10.251,0,0,1-10.133-10.25V790.6a10.251,10.251,0,0,1,10.094-10.25l258.909-3.965a10.251,10.251,0,0,1,10.405,10.042l3.383,167.064A10.251,10.251,0,0,1,982.892,963.952Z" transform="translate(-710.466 -776.387)" fill="#00784d"/>
      </g>
      <g id="Group_1607" data-name="Group 1607" transform="translate(10.164 16.127)">
        <rect id="Rectangle_266" data-name="Rectangle 266" width="258.874" height="139.687" rx="16.824" fill="#e4f1ef"/>
      </g>
    </g>
    <g id="Group_1611" data-name="Group 1611" transform="translate(682.75 541.761)">
      <g id="Group_1609" data-name="Group 1609" transform="translate(0 0)">
        <path id="Path_1820" data-name="Path 1820" d="M1287.427,573.521a1.737,1.737,0,0,1-1.717-1.506l-.324-2.414a1.448,1.448,0,0,0-1-1.194c-.144-.045-.288-.092-.429-.143a1.438,1.438,0,0,0-1.538.387l-1.759,1.909a1.738,1.738,0,0,1-2.453.1l-2.058-1.9a1.736,1.736,0,0,1-.1-2.454l1.511-1.637a1.449,1.449,0,0,0,.2-1.679l-.012-.022a1.45,1.45,0,0,0-1.462-.738l-2.073.28a1.737,1.737,0,0,1-1.953-1.489l-.373-2.773a1.736,1.736,0,0,1,1.49-1.952l2.075-.278a1.464,1.464,0,0,0,.581-2.685l-1.891-1.182a1.737,1.737,0,0,1-.552-2.393l1.483-2.372a1.736,1.736,0,0,1,2.393-.552l2.2,1.376a1.438,1.438,0,0,0,1.585-.033q.186-.129.377-.251a1.45,1.45,0,0,0,.647-1.416l-.325-2.413a1.739,1.739,0,0,1,1.49-1.952l2.77-.373a1.736,1.736,0,0,1,1.953,1.49l.241,1.794a1.451,1.451,0,0,0,1.214,1.238,11.4,11.4,0,0,1,1.549.37,1.463,1.463,0,0,0,1.509-.4l1.56-1.691a1.738,1.738,0,0,1,2.453-.1l2.056,1.9a1.739,1.739,0,0,1,.1,2.454l-1.1,1.195a1.438,1.438,0,0,0-.182,1.717q.1.174.2.353a1.445,1.445,0,0,0,1.455.728l1.465-.2a1.739,1.739,0,0,1,1.951,1.489l.373,2.771a1.737,1.737,0,0,1-1.49,1.952l-1.463.2a1.442,1.442,0,0,0-1.213,1.088c-.031.133-.065.264-.1.4a1.437,1.437,0,0,0,.63,1.606l1.379.862a1.736,1.736,0,0,1,.552,2.393l-1.482,2.37a1.739,1.739,0,0,1-2.392.552l-1.95-1.218a1.463,1.463,0,0,0-1.561.018,11.35,11.35,0,0,1-1.395.766,1.451,1.451,0,0,0-.843,1.514l.241,1.8a1.736,1.736,0,0,1-1.49,1.952l-2.772.372A1.781,1.781,0,0,1,1287.427,573.521Zm-3.943-5.626a1.709,1.709,0,0,1,.572.1q.207.074.418.139a1.737,1.737,0,0,1,1.2,1.431l.324,2.414a1.448,1.448,0,0,0,1.628,1.243l2.772-.372a1.448,1.448,0,0,0,1.242-1.628l-.241-1.8a1.737,1.737,0,0,1,1.008-1.814,11.037,11.037,0,0,0,1.359-.747,1.751,1.751,0,0,1,1.87-.02l1.951,1.218a1.45,1.45,0,0,0,1.995-.46l1.482-2.37a1.449,1.449,0,0,0-.46-2l-1.38-.862a1.724,1.724,0,0,1-.755-1.926q.052-.191.1-.385a1.733,1.733,0,0,1,1.456-1.308l1.463-.2a1.448,1.448,0,0,0,1.242-1.628l-.372-2.771a1.452,1.452,0,0,0-1.627-1.242l-1.465.2a1.733,1.733,0,0,1-1.747-.876q-.094-.174-.195-.343a1.725,1.725,0,0,1,.219-2.059l1.1-1.2a1.448,1.448,0,0,0-.082-2.046l-2.056-1.9a1.45,1.45,0,0,0-2.046.082l-1.56,1.691a1.752,1.752,0,0,1-1.807.475,11.111,11.111,0,0,0-1.51-.361,1.737,1.737,0,0,1-1.453-1.484l-.241-1.794a1.448,1.448,0,0,0-1.628-1.242l-2.77.372a1.451,1.451,0,0,0-1.242,1.628l.324,2.413a1.74,1.74,0,0,1-.778,1.7c-.124.079-.246.161-.367.245a1.726,1.726,0,0,1-1.9.041l-2.2-1.376a1.447,1.447,0,0,0-2,.46l-1.483,2.372a1.448,1.448,0,0,0,.46,2l1.89,1.182a1.752,1.752,0,0,1-.695,3.215l-2.075.278a1.448,1.448,0,0,0-1.243,1.629l.373,2.773a1.448,1.448,0,0,0,1.629,1.242l2.073-.28a1.741,1.741,0,0,1,1.754.885l-.114.091.126-.069a1.737,1.737,0,0,1-.245,2.013l-1.511,1.637a1.448,1.448,0,0,0,.083,2.047l2.058,1.9a1.45,1.45,0,0,0,2.046-.084l1.759-1.909A1.734,1.734,0,0,1,1283.485,567.895Z" transform="translate(-1271.878 -541.761)" fill="#561c17"/>
      </g>
      <g id="Group_1610" data-name="Group 1610" transform="translate(8.969 9.249)">
        <path id="Path_1821" data-name="Path 1821" d="M1306.4,583.1a6.934,6.934,0,0,1-4.286-1.729,7.446,7.446,0,0,1-2.746-4.487,5.521,5.521,0,0,1,1.558-4.469,7.319,7.319,0,0,1,4.345-2.309,5.25,5.25,0,0,1,4.41,1.693,7.95,7.95,0,0,1,2.242,4.474,6.235,6.235,0,0,1-1.05,4.459,5.591,5.591,0,0,1-3.863,2.328h0A4.573,4.573,0,0,1,1306.4,583.1Zm-.532-12.746a4.178,4.178,0,0,0-.559.038,7.026,7.026,0,0,0-4.171,2.218,5.237,5.237,0,0,0-1.485,4.235,7.154,7.154,0,0,0,2.644,4.3,6.294,6.294,0,0,0,4.673,1.626,5.306,5.306,0,0,0,3.666-2.209,5.947,5.947,0,0,0,1-4.254,7.767,7.767,0,0,0-2.16-4.309A5.153,5.153,0,0,0,1305.87,570.352Z" transform="translate(-1299.326 -570.063)" fill="#561c17"/>
      </g>
    </g>
    <g id="Group_1613" data-name="Group 1613" transform="translate(619.56 549.588)">
      <path id="Path_1822" data-name="Path 1822" d="M1130.858,602.039l4.339-.118a3,3,0,0,0,2.923-3.084l-.141-5.274a3.005,3.005,0,0,0-3.085-2.924l-3.069.083a3,3,0,0,1-2.931-2.056q-.119-.36-.251-.716a2.985,2.985,0,0,1,.85-3.276l2.1-1.834a3.005,3.005,0,0,0,.282-4.241l-3.477-3.97a3.005,3.005,0,0,0-4.238-.283l-2.1,1.835a2.984,2.984,0,0,1-3.355.408q-.334-.177-.673-.341a3,3,0,0,1-1.653-3.179l.488-3.029a3,3,0,0,0-2.489-3.445l-5.212-.839a3.005,3.005,0,0,0-3.444,2.488l-.692,4.287a3.017,3.017,0,0,1-2.153,2.413,21.16,21.16,0,0,0-2.787,1.021,3.02,3.02,0,0,1-3.517-.751l-2.25-2.571a3.005,3.005,0,0,0-4.241-.282l-3.969,3.476a3.005,3.005,0,0,0-.281,4.24l3.027,3.458a3.005,3.005,0,0,1,.5,3.191q-.171.386-.327.778a2.991,2.991,0,0,1-2.705,1.877l-4.9.129a3.005,3.005,0,0,0-2.925,3.084l.141,5.278a3,3,0,0,0,3.084,2.924l4.207-.112a3.007,3.007,0,0,1,2.9,1.973l.015.039a3,3,0,0,1-.843,3.293l-2.974,2.6a3.005,3.005,0,0,0-.282,4.242l3.479,3.973a3,3,0,0,0,4.241.28l2.969-2.6a3,3,0,0,1,3.376-.4l.042.022a3.007,3.007,0,0,1,1.572,3.138l-.669,4.152a3.005,3.005,0,0,0,2.49,3.445l5.214.837a3,3,0,0,0,3.443-2.491l.777-4.837a2.991,2.991,0,0,1,2.219-2.433q.408-.1.813-.221a3,3,0,0,1,3.095.921l3.026,3.46a3,3,0,0,0,4.241.283l3.973-3.476a3.005,3.005,0,0,0,.282-4.24l-2.251-2.573a3.021,3.021,0,0,1-.28-3.583,21.084,21.084,0,0,0,1.377-2.626A3.018,3.018,0,0,1,1130.858,602.039Zm-14.321,2.463c-4.612,4.037-14.04,2.891-18.077-1.721s-2.421-12.4,2.191-16.433,12.475-1.873,16.511,2.739S1121.15,600.464,1116.538,604.5Z" transform="translate(-1078.502 -565.715)" fill="#7fc064"/>
      <g id="Group_1612" data-name="Group 1612" transform="translate(0.384 3.132)">
        <path id="Path_1823" data-name="Path 1823" d="M1109.209,635.478a3.106,3.106,0,0,1-.492-.04l-5.214-.836a3.1,3.1,0,0,1-2.566-3.549l.669-4.152a2.916,2.916,0,0,0-1.525-3.044l-.041-.022a2.921,2.921,0,0,0-3.274.388l-2.969,2.6a3.1,3.1,0,0,1-4.369-.289l-3.479-3.973a3.1,3.1,0,0,1,.291-4.369l2.974-2.6a2.922,2.922,0,0,0,.818-3.194l-.014-.039a2.914,2.914,0,0,0-2.815-1.915l-4.207.112a3.095,3.095,0,0,1-3.177-3.012l-.141-5.278a3.1,3.1,0,0,1,3.012-3.177l4.9-.129a2.894,2.894,0,0,0,2.624-1.82c.1-.262.214-.525.328-.781a2.921,2.921,0,0,0-.488-3.095l-3.027-3.458a3.1,3.1,0,0,1,.29-4.368l3.969-3.476a3.1,3.1,0,0,1,4.369.29l2.25,2.571a2.92,2.92,0,0,0,3.412.728,21.239,21.239,0,0,1,2.8-1.025,2.941,2.941,0,0,0,2.089-2.341l.692-4.287a3.1,3.1,0,0,1,3.548-2.563l5.212.839a3.1,3.1,0,0,1,2.564,3.548l-.488,3.03a2.894,2.894,0,0,0,1.6,3.083q.341.165.676.343a2.906,2.906,0,0,0,3.254-.4l2.1-1.835a3.1,3.1,0,0,1,4.366.291l3.477,3.97a3.1,3.1,0,0,1-.291,4.369l-2.1,1.834a2.906,2.906,0,0,0-.825,3.177q.133.358.252.719a2.887,2.887,0,0,0,2.843,1.994l3.069-.082a3.1,3.1,0,0,1,3.178,3.011l.141,5.275a3.1,3.1,0,0,1-3.01,3.177l-4.339.117a2.942,2.942,0,0,0-2.6,1.764,21.233,21.233,0,0,1-1.383,2.637,2.919,2.919,0,0,0,.271,3.476l2.251,2.572a3.1,3.1,0,0,1-.291,4.368L1126.4,630.1a3.1,3.1,0,0,1-4.368-.291l-3.026-3.46a2.917,2.917,0,0,0-3-.893c-.271.079-.545.154-.817.222a2.9,2.9,0,0,0-2.151,2.36l-.777,4.837A3.1,3.1,0,0,1,1109.209,635.478Zm-10.516-12.156a3.056,3.056,0,0,1,1.432.354l.041.022a3.1,3.1,0,0,1,1.619,3.233l-.669,4.152a2.914,2.914,0,0,0,2.416,3.342l5.214.837a2.917,2.917,0,0,0,3.34-2.416l.777-4.837a3.075,3.075,0,0,1,2.286-2.507c.269-.067.542-.141.81-.219a3.1,3.1,0,0,1,3.188.948l3.026,3.459a2.915,2.915,0,0,0,4.113.274l3.973-3.477a2.914,2.914,0,0,0,.273-4.113l-2.251-2.573a3.1,3.1,0,0,1-.289-3.69,21.11,21.11,0,0,0,1.371-2.615,3.123,3.123,0,0,1,2.759-1.872l4.339-.118a2.919,2.919,0,0,0,2.834-2.992l-.141-5.274a2.915,2.915,0,0,0-2.992-2.836l-3.069.083a3.083,3.083,0,0,1-3.019-2.118q-.119-.358-.251-.713a3.088,3.088,0,0,1,.875-3.375l2.1-1.834a2.914,2.914,0,0,0,.273-4.114l-3.477-3.97a2.919,2.919,0,0,0-4.111-.274l-2.1,1.835a3.087,3.087,0,0,1-3.457.42q-.333-.176-.67-.34a3.074,3.074,0,0,1-1.7-3.275l.488-3.029a2.915,2.915,0,0,0-2.414-3.341l-5.212-.839a2.92,2.92,0,0,0-3.341,2.414l-.692,4.287a3.123,3.123,0,0,1-2.217,2.486,21.132,21.132,0,0,0-2.775,1.016,3.1,3.1,0,0,1-3.622-.774l-2.25-2.571a2.915,2.915,0,0,0-4.114-.273l-3.969,3.476a2.918,2.918,0,0,0-.273,4.112l3.027,3.458a3.1,3.1,0,0,1,.517,3.287c-.113.254-.222.515-.326.775a3.074,3.074,0,0,1-2.787,1.934l-4.9.129a2.914,2.914,0,0,0-2.837,2.991l.141,5.279a2.915,2.915,0,0,0,2.992,2.836l4.206-.112a3.1,3.1,0,0,1,2.989,2.032l.011.031a3.107,3.107,0,0,1-.865,3.4l-2.974,2.6a2.915,2.915,0,0,0-.273,4.114l3.479,3.973a2.915,2.915,0,0,0,4.114.272l2.969-2.6A3.106,3.106,0,0,1,1098.693,623.322Zm33.431-11.608h0Z" transform="translate(-1079.677 -575.299)" fill="#561c17"/>
      </g>
    </g>
    <g id="Group_1614" data-name="Group 1614" transform="translate(527.632 651.12)" opacity="0.6">
      <rect id="Rectangle_267" data-name="Rectangle 267" width="222.243" height="46.877" rx="16.741" fill="#7fc064"/>
    </g>
    <g id="Group_1615" data-name="Group 1615" transform="translate(642.939 708.21)" opacity="0.6">
      <path id="Path_1824" data-name="Path 1824" d="M1253.664,1055.234H1151.626a1.58,1.58,0,0,1-1.58-1.58v-.936a1.581,1.581,0,0,1,1.595-1.58l102.037.936a1.58,1.58,0,0,1,1.566,1.58h0A1.58,1.58,0,0,1,1253.664,1055.234Z" transform="translate(-1150.046 -1051.138)" fill="#7fc064"/>
    </g>
    <g id="Group_1622" data-name="Group 1622" transform="translate(670.46 670.121)">
      <g id="Group_1616" data-name="Group 1616" transform="translate(0 0)">
        <path id="Path_1825" data-name="Path 1825" d="M1302.73,937.173h-68.462v-2.6l68.462.609Z" transform="translate(-1234.268 -934.576)" fill="#ffc655"/>
      </g>
      <g id="Group_1617" data-name="Group 1617" transform="translate(0 5.844)">
        <path id="Path_1826" data-name="Path 1826" d="M1264.845,955.058h-30.577v-2.6l30.577.609Z" transform="translate(-1234.268 -952.461)" fill="#00784d"/>
      </g>
      <g id="Group_1618" data-name="Group 1618" transform="translate(0 18.486)">
        <path id="Path_1827" data-name="Path 1827" d="M1274.773,993.744h-40.5v-2.6l40.5.609Z" transform="translate(-1234.268 -991.146)" fill="#00784d"/>
      </g>
      <g id="Group_1619" data-name="Group 1619" transform="translate(0 12.626)">
        <path id="Path_1828" data-name="Path 1828" d="M1264.845,975.812h-30.577v-2.6l30.577.609Z" transform="translate(-1234.268 -973.215)" fill="#561c17"/>
      </g>
      <g id="Group_1620" data-name="Group 1620" transform="translate(34.953 12.626)">
        <path id="Path_1829" data-name="Path 1829" d="M1359.156,975.812h-17.924v-2.6l17.924.609Z" transform="translate(-1341.232 -973.215)" fill="#ffc655"/>
      </g>
      <g id="Group_1621" data-name="Group 1621" transform="translate(34.953 5.844)">
        <path id="Path_1830" data-name="Path 1830" d="M1371.808,955.058h-30.577v-2.6l30.577.609Z" transform="translate(-1341.232 -952.461)" fill="#00784d"/>
      </g>
    </g>
    <g id="Group_1623" data-name="Group 1623" transform="translate(642.939 718.511)" opacity="0.6">
      <path id="Path_1831" data-name="Path 1831" d="M1253.815,1085.551l-102.306,1.2a1.446,1.446,0,0,1-1.463-1.446v-1.2a1.446,1.446,0,0,1,1.446-1.446H1253.8a1.446,1.446,0,0,1,1.446,1.446h0A1.446,1.446,0,0,1,1253.815,1085.551Z" transform="translate(-1150.046 -1082.659)" fill="#7fc064"/>
    </g>
    <g id="Group_1624" data-name="Group 1624" transform="translate(528.394 749.852)" opacity="0.6">
      <path id="Path_1832" data-name="Path 1832" d="M855.5,1181.906H799.512v-3.334l55.078.758a1.755,1.755,0,0,1,1.732,1.755h0A.82.82,0,0,1,855.5,1181.906Z" transform="translate(-799.512 -1178.572)" fill="#7fc064"/>
    </g>
    <g id="Group_1625" data-name="Group 1625" transform="translate(528.394 759.008)" opacity="0.6">
      <path id="Path_1833" data-name="Path 1833" d="M873,1208.915l-72.568.968a.91.91,0,0,1-.921-.91V1207.5a.909.909,0,0,1,.909-.909h72.568a.909.909,0,0,1,.909.909v.5A.91.91,0,0,1,873,1208.915Z" transform="translate(-799.512 -1206.592)" fill="#7fc064"/>
    </g>
    <g id="Group_1626" data-name="Group 1626" transform="translate(607.763 759.008)" opacity="0.6">
      <path id="Path_1834" data-name="Path 1834" d="M1094.357,1208.924l-50.768.949a1.166,1.166,0,0,1-1.188-1.166v-.949a1.166,1.166,0,0,1,1.166-1.166h50.769a1.166,1.166,0,0,1,1.166,1.166h0A1.166,1.166,0,0,1,1094.357,1208.924Z" transform="translate(-1042.401 -1206.592)" fill="#7fc064"/>
    </g>
    <g id="Group_1627" data-name="Group 1627" transform="translate(642.939 731.68)" opacity="0.6">
      <path id="Path_1835" data-name="Path 1835" d="M1253.815,1125.854l-102.306,1.2a1.446,1.446,0,0,1-1.463-1.446v-1.2a1.446,1.446,0,0,1,1.446-1.447H1253.8a1.446,1.446,0,0,1,1.446,1.447h0A1.446,1.446,0,0,1,1253.815,1125.854Z" transform="translate(-1150.046 -1122.961)" fill="#7fc064"/>
    </g>
    <g id="Group_1628" data-name="Group 1628" transform="translate(527.632 704.4)">
      <rect id="Rectangle_268" data-name="Rectangle 268" width="51.281" height="35.677" rx="14.733" transform="translate(0 0)" fill="#4db05b"/>
    </g>
    <g id="Group_1629" data-name="Group 1629" transform="translate(585.795 704.4)" opacity="0.6">
      <rect id="Rectangle_269" data-name="Rectangle 269" width="45.881" height="35.677" rx="12.536" transform="translate(0 0)" fill="#7fc064"/>
    </g>
    <g id="Group_1630" data-name="Group 1630" transform="translate(468.783 740.078)">
      <path id="Path_1836" data-name="Path 1836" d="M723.819,1168.481c-.274,14.852-1.346,35.186-4.72,53.017-5.625,29.751-40.251,50.163-46.647,53.705a2.273,2.273,0,0,1-2.049.079c-54.163-24.879-53.314-62.689-53.314-62.689v-44.41a2.283,2.283,0,0,1,2.247-2.281c8.246-.136,37.016-1.688,49.581-16.453a2.272,2.272,0,0,1,3.346-.108,66.981,66.981,0,0,0,51.455,19.146C723.752,1168.484,723.786,1168.484,723.819,1168.481Z" transform="translate(-617.089 -1148.659)" fill="#6aa319"/>
    </g>
    <g id="Group_1632" data-name="Group 1632" transform="translate(475.211 747.731)">
      <g id="Group_1631" data-name="Group 1631" transform="translate(0)">
        <path id="Path_1837" data-name="Path 1837" d="M684.557,1283.742a.248.248,0,0,1-.1-.022,103.747,103.747,0,0,1-27.873-17.858,67.6,67.6,0,0,1-14.132-18.042c-5.813-11.024-5.692-19.506-5.69-19.591V1191a3.886,3.886,0,0,1,3.771-3.9,100.363,100.363,0,0,0,20.235-2.731c9.743-2.455,16.925-6.317,21.347-11.477a2.3,2.3,0,0,1,3.4-.113c3,3.094,11.1,10.609,21.464,13.572a86.106,86.106,0,0,0,19.749,3.1,3.788,3.788,0,0,1,3.63,3.865c-.431,17.357-1.691,31.343-3.851,42.756a49.657,49.657,0,0,1-8.847,19.624,85.323,85.323,0,0,1-14.121,15.016,113.59,113.59,0,0,1-18.862,13A.247.247,0,0,1,684.557,1283.742Zm-.689-111.167h-.057a1.82,1.82,0,0,0-1.322.635c-4.49,5.24-11.758,9.154-21.6,11.635a100.862,100.862,0,0,1-20.339,2.746,3.394,3.394,0,0,0-3.294,3.406v37.238c0,.089-.115,8.468,5.649,19.384a67.131,67.131,0,0,0,14.032,17.9,103.19,103.19,0,0,0,27.613,17.7,113.945,113.945,0,0,0,18.673-12.892c8.859-7.527,20.005-19.6,22.795-34.348,2.154-11.387,3.411-25.346,3.842-42.676a3.292,3.292,0,0,0-3.155-3.359,86.608,86.608,0,0,1-19.866-3.121c-10.478-3-18.654-10.581-21.683-13.7A1.774,1.774,0,0,0,683.867,1172.575Z" transform="translate(-636.76 -1172.082)" fill="#f4f4f4"/>
      </g>
    </g>
    <g id="Group_1642" data-name="Group 1642" transform="translate(494.592 774.504)">
      <g id="Group_1633" data-name="Group 1633" transform="translate(0 3.102)">
        <path id="Path_1838" data-name="Path 1838" d="M736.1,1308.111H701.824a5.761,5.761,0,0,1-5.754-5.754v-21.146a5.761,5.761,0,0,1,5.754-5.755h1.933a15.651,15.651,0,0,1,30.409,0H736.1a5.761,5.761,0,0,1,5.754,5.755v21.146A5.761,5.761,0,0,1,736.1,1308.111Zm-34.275-32.161a5.266,5.266,0,0,0-5.26,5.26v21.146a5.267,5.267,0,0,0,5.26,5.26H736.1a5.267,5.267,0,0,0,5.261-5.26v-21.146a5.266,5.266,0,0,0-5.261-5.26h-2.128a.247.247,0,0,1-.24-.192,15.157,15.157,0,0,0-29.537,0,.247.247,0,0,1-.241.192Zm28.21,0H707.889a.247.247,0,0,1-.236-.321,11.846,11.846,0,0,1,22.617,0,.247.247,0,0,1-.236.321Zm-21.8-.494h21.463a11.352,11.352,0,0,0-21.463,0Z" transform="translate(-696.07 -1263.504)" fill="#f4f4f4"/>
      </g>
      <g id="Group_1638" data-name="Group 1638" transform="translate(5.172)">
        <g id="Group_1635" data-name="Group 1635" transform="translate(0 11.952)">
          <g id="Group_1634" data-name="Group 1634">
            <rect id="Rectangle_270" data-name="Rectangle 270" width="44.099" height="32.161" rx="16.08" fill="#f4f4f4"/>
          </g>
        </g>
        <g id="Group_1637" data-name="Group 1637" transform="translate(6.646)">
          <g id="Group_1636" data-name="Group 1636">
            <path id="Path_1839" data-name="Path 1839" d="M747.638,1284.82a15.4,15.4,0,1,1,15.4-15.4A15.421,15.421,0,0,1,747.638,1284.82Zm0-27a11.6,11.6,0,1,0,11.6,11.6A11.61,11.61,0,0,0,747.638,1257.819Z" transform="translate(-732.234 -1254.012)" fill="#f4f4f4"/>
          </g>
        </g>
      </g>
      <g id="Group_1641" data-name="Group 1641" transform="translate(22.892 18.287)">
        <g id="Group_1639" data-name="Group 1639" transform="translate(2.724)">
          <path id="Path_1840" data-name="Path 1840" d="M776.066,1320.979h0a1.611,1.611,0,0,1-1.606-1.606v-7.792a1.61,1.61,0,0,1,1.606-1.606h0a1.61,1.61,0,0,1,1.606,1.606v7.792A1.611,1.611,0,0,1,776.066,1320.979Z" transform="translate(-774.46 -1309.976)" fill="#6aa319"/>
        </g>
        <g id="Group_1640" data-name="Group 1640" transform="translate(0 9.404)">
          <circle id="Ellipse_400" data-name="Ellipse 400" cx="4.33" cy="4.33" r="4.33" fill="#6aa319"/>
        </g>
      </g>
    </g>
    <g id="Group_1656" data-name="Group 1656" transform="translate(591.178 676.472)">
      <g id="Group_1653" data-name="Group 1653" transform="translate(0 6.392)">
        <g id="Group_1643" data-name="Group 1643" transform="translate(2.59 6.628)">
          <path id="Path_1841" data-name="Path 1841" d="M1006.365,998.161a.608.608,0,0,1-.273-.064l-6.182-3.084a.612.612,0,0,1,.546-1.1l6.182,3.084a.612.612,0,0,1-.273,1.16Z" transform="translate(-999.572 -993.854)" fill="#561c17"/>
        </g>
        <g id="Group_1644" data-name="Group 1644" transform="translate(0 16.663)">
          <path id="Path_1842" data-name="Path 1842" d="M992.257,1026.253a.612.612,0,0,1-.041-1.223l6.862-.465a.612.612,0,0,1,.083,1.222l-6.862.465Z" transform="translate(-991.646 -1024.563)" fill="#561c17"/>
        </g>
        <g id="Group_1645" data-name="Group 1645" transform="translate(3.879 23.906)">
          <path id="Path_1843" data-name="Path 1843" d="M1004.131,1051.46a.612.612,0,0,1-.311-1.14l5.964-3.505a.612.612,0,0,1,.62,1.055l-5.964,3.505A.607.607,0,0,1,1004.131,1051.46Z" transform="translate(-1003.518 -1046.73)" fill="#561c17"/>
        </g>
        <g id="Group_1646" data-name="Group 1646" transform="translate(28.841 6.628)">
          <path id="Path_1844" data-name="Path 1844" d="M1080.52,998.162a.612.612,0,0,1-.274-1.16l6.182-3.084a.612.612,0,0,1,.546,1.1l-6.182,3.084A.61.61,0,0,1,1080.52,998.162Z" transform="translate(-1079.907 -993.854)" fill="#561c17"/>
        </g>
        <g id="Group_1647" data-name="Group 1647" transform="translate(30.752 16.663)">
          <path id="Path_1845" data-name="Path 1845" d="M1093.229,1026.253l-.042,0-6.862-.465a.612.612,0,0,1,.083-1.222l6.862.465a.612.612,0,0,1-.041,1.223Z" transform="translate(-1085.755 -1024.563)" fill="#561c17"/>
        </g>
        <g id="Group_1648" data-name="Group 1648" transform="translate(27.77 23.906)">
          <path id="Path_1846" data-name="Path 1846" d="M1083.2,1051.46a.606.606,0,0,1-.31-.085l-5.964-3.505a.612.612,0,1,1,.62-1.055l5.964,3.505a.612.612,0,0,1-.311,1.14Z" transform="translate(-1076.629 -1046.731)" fill="#561c17"/>
        </g>
        <g id="Group_1652" data-name="Group 1652" transform="translate(6.626)">
          <g id="Group_1649" data-name="Group 1649" transform="translate(0 0)">
            <path id="Path_1847" data-name="Path 1847" d="M1037,988.425c0,7.943-5.268,14.432-11.888,14.833-.216.012-.431.019-.649.019-6.923,0-12.537-6.651-12.537-14.852a16.54,16.54,0,0,1,2.758-9.291,11.9,11.9,0,0,1,9.779-5.563,10.705,10.705,0,0,1,3.193.487,12.566,12.566,0,0,1,6.586,5.076A16.543,16.543,0,0,1,1037,988.425Z" transform="translate(-1011.924 -973.571)" fill="#ffc655"/>
          </g>
          <g id="Group_1650" data-name="Group 1650" transform="translate(10.947 0.487)">
            <path id="Path_1848" data-name="Path 1848" d="M1059.553,989.429c0,7.943-5.268,14.432-11.888,14.833a39.57,39.57,0,0,1-1.828-7.559,35.839,35.839,0,0,1,.724-14.513,17.728,17.728,0,0,1,3.649-7.128,12.565,12.565,0,0,1,6.586,5.076A16.543,16.543,0,0,1,1059.553,989.429Z" transform="translate(-1045.426 -975.062)" fill="#ffc655"/>
          </g>
          <g id="Group_1651" data-name="Group 1651" transform="translate(2.758)">
            <ellipse id="Ellipse_401" data-name="Ellipse 401" cx="9.779" cy="5.563" rx="9.779" ry="5.563" fill="#561c17"/>
          </g>
        </g>
      </g>
      <g id="Group_1654" data-name="Group 1654" transform="translate(10.991)">
        <path id="Path_1849" data-name="Path 1849" d="M1030.708,962.333a.612.612,0,0,1-.611-.6c-.113-4.648-4.4-6.532-4.445-6.551a.612.612,0,1,1,.481-1.126,8.858,8.858,0,0,1,5.188,7.647.612.612,0,0,1-.6.627Z" transform="translate(-1025.28 -954.01)" fill="#561c17"/>
      </g>
      <g id="Group_1655" data-name="Group 1655" transform="translate(20.83 0)">
        <path id="Path_1850" data-name="Path 1850" d="M1056.043,963.907a.612.612,0,0,1-.609-.564c-.519-6.553,3.948-9.146,4.138-9.253a.612.612,0,0,1,.6,1.066c-.168.1-3.975,2.348-3.52,8.091a.612.612,0,0,1-.562.658Z" transform="translate(-1055.392 -954.011)" fill="#561c17"/>
      </g>
    </g>
    <g id="Group_1657" data-name="Group 1657" transform="translate(560.194 648.586)" opacity="0.4">
      <circle id="Ellipse_402" data-name="Ellipse 402" cx="50.937" cy="50.937" r="50.937" transform="translate(0 0)" fill="#4bae48"/>
    </g>
    <g id="Group_1658" data-name="Group 1658" transform="translate(610.391 657.552)">
      <path id="Path_1851" data-name="Path 1851" d="M1073.374,904.069a.738.738,0,0,1-.4-.117,40.353,40.353,0,0,0-21.792-6.359.741.741,0,0,1,0-1.482,41.831,41.831,0,0,1,22.591,6.592.741.741,0,0,1-.4,1.365Z" transform="translate(-1050.442 -896.112)" fill="#f4f4f4"/>
    </g>
    <g id="Group_1659" data-name="Group 1659" transform="translate(569.161 698.782)">
      <path id="Path_1852" data-name="Path 1852" d="M946.9,1060.188a.738.738,0,0,1-.347-.087,41.924,41.924,0,0,1-22.28-37.075.741.741,0,0,1,1.482,0,40.445,40.445,0,0,0,21.494,35.766.741.741,0,0,1-.349,1.4Z" transform="translate(-924.268 -1022.286)" fill="#561c17"/>
    </g>
    <g id="Group_1688" data-name="Group 1688" transform="translate(557.799 646.191)">
      <g id="Group_1660" data-name="Group 1660" transform="translate(98.982 85.618)">
        <path id="Path_1853" data-name="Path 1853" d="M1204.654,1134.482s-9,.195-11.47-3.75,1.719-7.376,1.719-7.376l13.391,7.241Z" transform="translate(-1192.406 -1123.355)" fill="#ffa076"/>
      </g>
      <g id="Group_1664" data-name="Group 1664" transform="translate(0 0)">
        <g id="Group_1661" data-name="Group 1661" transform="translate(93.325 76.153)">
          <rect id="Rectangle_271" data-name="Rectangle 271" width="7.439" height="116.869" transform="translate(0 6.325) rotate(-58.227)" fill="#8a4d27"/>
        </g>
        <g id="Group_1662" data-name="Group 1662" transform="translate(137.086 102.624)">
          <path id="Rectangle_272" data-name="Rectangle 272" d="M4.931,0h0A4.931,4.931,0,0,1,9.861,4.931V61.859A4.931,4.931,0,0,1,4.931,66.79h0A4.931,4.931,0,0,1,0,61.859V4.931A4.931,4.931,0,0,1,4.931,0Z" transform="matrix(0.527, -0.85, 0.85, 0.527, 0, 8.384)" fill="#561c17"/>
        </g>
        <g id="Group_1663" data-name="Group 1663">
          <path id="Path_1854" data-name="Path 1854" d="M897.5,886.6a53.326,53.326,0,1,0,73.414-17.253A53.326,53.326,0,0,0,897.5,886.6Zm86.694,53.7a48.651,48.651,0,1,1-15.74-66.978A48.649,48.649,0,0,1,984.189,940.292Z" transform="translate(-889.497 -861.343)" fill="#561c17"/>
        </g>
      </g>
      <g id="Group_1665" data-name="Group 1665" transform="translate(169.057 79.916)">
        <path id="Path_1855" data-name="Path 1855" d="M1429.466,1134.1c-2.4-18.021-22.613-28.2-22.613-28.2s1.712,40.159,5.174,38.972C1417.943,1142.849,1426.028,1142.813,1429.466,1134.1Z" transform="translate(-1406.853 -1105.905)" fill="#ffc655"/>
      </g>
      <g id="Group_1666" data-name="Group 1666" transform="translate(143.785 209.409)">
        <path id="Path_1856" data-name="Path 1856" d="M1337.918,1502.186s-.155,3.016-2.189,3.812-7.883,1.405-5.756,3.405c1.22,1.148,7.128.589,8.791.635s3.2.824,4.47-.272c1.392-1.206.2-7.43.2-7.43a6.562,6.562,0,0,1-2.745.65A5.242,5.242,0,0,1,1337.918,1502.186Z" transform="translate(-1329.514 -1502.186)" fill="#561c17"/>
      </g>
      <g id="Group_1667" data-name="Group 1667" transform="translate(137.582 128.733)">
        <path id="Path_1857" data-name="Path 1857" d="M1310.547,1259.938c.388,6.263,1.123,14.39,2.481,24.33,2.59,18.949,5.734,38.059,7.282,47.221a7.047,7.047,0,0,0,6.387,5.953l1.718.117a5.925,5.925,0,0,0,6.188-6.3l-2.705-61.775-.257-9.826S1309.91,1249.663,1310.547,1259.938Z" transform="translate(-1310.533 -1255.297)" fill="#83bb26"/>
      </g>
      <g id="Group_1668" data-name="Group 1668" transform="translate(162.836 209.931)">
        <path id="Path_1858" data-name="Path 1858" d="M1396.218,1503.782s-.155,3.016-2.189,3.813-7.883,1.4-5.756,3.4c1.22,1.148,7.128.59,8.791.635s3.2.824,4.47-.272c1.393-1.206.2-7.43.2-7.43a6.566,6.566,0,0,1-2.744.65A5.243,5.243,0,0,1,1396.218,1503.782Z" transform="translate(-1387.814 -1503.782)" fill="#561c17"/>
      </g>
      <g id="Group_1669" data-name="Group 1669" transform="translate(156.236 118.366)">
        <path id="Path_1859" data-name="Path 1859" d="M1367.686,1223.572s-.763,13.61,2.824,39.859c2.59,18.949,5.734,38.059,7.282,47.221a7.047,7.047,0,0,0,6.387,5.953l1.718.117a5.925,5.925,0,0,0,6.188-6.3l-2.705-61.775-.531-20.323Z" transform="translate(-1367.618 -1223.572)" fill="#83bb26"/>
      </g>
      <g id="Group_1670" data-name="Group 1670" transform="translate(159.708 140.692)">
        <path id="Path_1860" data-name="Path 1860" d="M1378.5,1314.768l-.26-.034c.015-.112,1.483-11.268,2.591-15.273,1.117-4.044,6.259-7.532,6.311-7.567l.146.218c-.051.034-5.113,3.47-6.2,7.419C1379.984,1303.519,1378.518,1314.656,1378.5,1314.768Z" transform="translate(-1378.243 -1291.894)" fill="#561c17"/>
      </g>
      <g id="Group_1671" data-name="Group 1671" transform="translate(153.154 64.295)">
        <path id="Path_1861" data-name="Path 1861" d="M1365.078,1070.331l-1.339-4.073-.39-1.186-2.29-6.971-.3,6.935-.18,4.162-.057,1.318c-.039.894-.617,1.082-1.321,1.86-.285.315-2.11,2.224-.039,3.087,2.579,1.075,7.4-.553,9.234-2.684C1368.381,1072.775,1365.51,1071.647,1365.078,1070.331Z" transform="translate(-1358.186 -1058.101)" fill="#ffa076"/>
      </g>
      <g id="Group_1672" data-name="Group 1672" transform="translate(148.527 58.316)">
        <ellipse id="Ellipse_403" data-name="Ellipse 403" cx="7.481" cy="6.561" rx="7.481" ry="6.561" transform="translate(0 14.696) rotate(-79.166)" fill="#ffa076"/>
      </g>
      <g id="Group_1673" data-name="Group 1673" transform="translate(147.054 55.217)">
        <path id="Path_1862" data-name="Path 1862" d="M1345.142,1039.4c-3.757.133-5.579-1.911-5.622-3.8-.055-2.427,1.565-4.576,3.452-3.674s1.077-1.31,2.891-1.545c3.391-.439,4.027,1.835,6.8,1.946,3.66.146,7.833,5.9,4.766,10.094C1357.431,1042.416,1348.109,1039.293,1345.142,1039.4Z" transform="translate(-1339.519 -1030.32)" fill="#561c17"/>
      </g>
      <g id="Group_1674" data-name="Group 1674" transform="translate(149.333 60.134)">
        <path id="Path_1863" data-name="Path 1863" d="M1346.491,1047.081s4.014,3.644,3.484,5.694-.4,2.854,1.949,3.947.275,2.87,3.4,3,6.952-3.353,6.951-9.075a8.326,8.326,0,0,0-1.944-5.278Z" transform="translate(-1346.491 -1045.367)" fill="#561c17"/>
      </g>
      <g id="Group_1675" data-name="Group 1675" transform="translate(150.505 66.843)">
        <path id="Path_1864" data-name="Path 1864" d="M1350.364,1066.508a1.41,1.41,0,0,1,1.868-.408,1.234,1.234,0,0,1,.22,1.8,1.41,1.41,0,0,1-1.868.408A1.234,1.234,0,0,1,1350.364,1066.508Z" transform="translate(-1350.078 -1065.899)" fill="#ffa076"/>
      </g>
      <g id="Group_1676" data-name="Group 1676" transform="translate(165.363 67.424)">
        <path id="Path_1865" data-name="Path 1865" d="M1396.657,1069.142a.094.094,0,0,1-.092-.073,2.169,2.169,0,0,0-.97-1.217.094.094,0,1,1,.091-.165,2.324,2.324,0,0,1,1.062,1.339.094.094,0,0,1-.07.113Z" transform="translate(-1395.547 -1067.677)" fill="#561c17"/>
      </g>
      <g id="Group_1677" data-name="Group 1677" transform="translate(165.363 66.094)">
        <path id="Path_1866" data-name="Path 1866" d="M1395.641,1064.681a.094.094,0,0,1-.006-.187c.01,0,1.026-.07,1.171-.809a.093.093,0,0,1,.111-.074.094.094,0,0,1,.074.11c-.173.883-1.3.958-1.345.961Z" transform="translate(-1395.547 -1063.608)" fill="#561c17"/>
      </g>
      <g id="Group_1678" data-name="Group 1678" transform="translate(148.419 55.123)">
        <path id="Path_1867" data-name="Path 1867" d="M1346.353,1031.584a.742.742,0,0,1-.2-.029,2.687,2.687,0,0,1-.77-.386,1.566,1.566,0,0,0-1.565-.271.094.094,0,0,1-.055-.18,1.759,1.759,0,0,1,1.723.293,2.524,2.524,0,0,0,.718.363.457.457,0,0,0,.4-.057c.413-.281.511-1.192.512-1.2a.1.1,0,0,1,.1-.084.094.094,0,0,1,.084.1c0,.041-.108,1.006-.593,1.336A.623.623,0,0,1,1346.353,1031.584Z" transform="translate(-1343.694 -1030.032)" fill="#561c17"/>
      </g>
      <g id="Group_1679" data-name="Group 1679" transform="translate(157.474 55.805)">
        <path id="Path_1868" data-name="Path 1868" d="M1373.847,1033.235a4,4,0,0,1-2.409-.951.094.094,0,1,1,.125-.14,3.7,3.7,0,0,0,2.682.873.094.094,0,1,1,.028.186A2.81,2.81,0,0,1,1373.847,1033.235Z" transform="translate(-1371.407 -1032.12)" fill="#561c17"/>
      </g>
      <g id="Group_1680" data-name="Group 1680" transform="translate(151.506 68.544)">
        <path id="Path_1869" data-name="Path 1869" d="M1353.43,1072.074a.944.944,0,0,1-.258-.031.045.045,0,0,1-.029-.057.046.046,0,0,1,.057-.029c.034.011.849.256,1.425-.827a.045.045,0,0,1,.061-.019.045.045,0,0,1,.019.061A1.442,1.442,0,0,1,1353.43,1072.074Z" transform="translate(-1353.141 -1071.105)" fill="#561c17"/>
      </g>
      <g id="Group_1681" data-name="Group 1681" transform="translate(137.528 125.832)">
        <path id="Path_1870" data-name="Path 1870" d="M1310.434,1253.961s27.25-1.512,40.182,1.654l.192-3.744-18.132-5.451-14.64.365-4.5.974-3.174,4.976Z" transform="translate(-1310.365 -1246.42)" fill="#561c17"/>
      </g>
      <g id="Group_1682" data-name="Group 1682" transform="translate(137.528 77.309)">
        <path id="Path_1871" data-name="Path 1871" d="M1348.2,1108.4s-2.4-10.472-17.07-10.471c-25.568,0-18.4,21.175-20.762,54.839,0,0,16.484-3.627,40.337,1.2,0,0,2.322-18.231-.678-33.643C1349.232,1116.253,1349.375,1111.936,1348.2,1108.4Z" transform="translate(-1310.365 -1097.927)" fill="#ffc655"/>
      </g>
      <g id="Group_1683" data-name="Group 1683" transform="translate(124.853 77.308)">
        <path id="Path_1872" data-name="Path 1872" d="M1302.07,1097.925a23.217,23.217,0,0,0-14.3,5.967c-6.1,5.844-13.953,13.9-15.62,18.528-2.052,5.7,1.726,11.427,6.523,11.548s9.1-3.409,9.1-3.409Z" transform="translate(-1271.577 -1097.925)" fill="#ffc655"/>
      </g>
      <g id="Group_1684" data-name="Group 1684" transform="translate(176.83 98.237)">
        <path id="Path_1873" data-name="Path 1873" d="M1432.434,1188.87l-.181-.01a138.506,138.506,0,0,0-1.613-26.859l.178-.031A138.739,138.739,0,0,1,1432.434,1188.87Z" transform="translate(-1430.639 -1161.971)" fill="#561c17"/>
      </g>
      <g id="Group_1685" data-name="Group 1685" transform="translate(138.108 101.117)">
        <path id="Path_1874" data-name="Path 1874" d="M1312.235,1181.508l-.093-.155c4.819-2.886,11.091-10.491,11.154-10.568l.14.115C1323.373,1170.977,1317.082,1178.606,1312.235,1181.508Z" transform="translate(-1312.142 -1170.785)" fill="#561c17"/>
      </g>
      <g id="Group_1686" data-name="Group 1686" transform="translate(104.731 92.805)">
        <path id="Path_1875" data-name="Path 1875" d="M1210,1150.8c-.06,3.733,18.431,17.381,29.525,15.1,11.8-2.423-2.758-15.546-2.758-15.546l-21.739-5S1210.06,1147.013,1210,1150.8Z" transform="translate(-1210 -1145.349)" fill="#ffc655"/>
      </g>
      <g id="Group_1687" data-name="Group 1687" transform="translate(104.597 85.912)">
        <path id="Path_1876" data-name="Path 1876" d="M1214.751,1131.147a2.709,2.709,0,0,0-.862-2.368c-1.113-.983-2.276-5.47-3-4.346s-.057,4.705-1.166,5.091S1214.751,1131.147,1214.751,1131.147Z" transform="translate(-1209.589 -1124.254)" fill="#ffa076"/>
      </g>
    </g>
    <g id="Group_1696" data-name="Group 1696" transform="translate(670.46 657.913)">
      <g id="Group_1689" data-name="Group 1689" transform="translate(0 0.097)">
        <path id="Path_1877" data-name="Path 1877" d="M1239.5,898.694H1238.4a.538.538,0,0,0-.538.538v4.825a.537.537,0,0,1-.538.537h-.384a.537.537,0,0,1-.538-.537v-4.825a.538.538,0,0,0-.538-.538h-1.065a.537.537,0,0,1-.537-.537v-.107a.538.538,0,0,1,.537-.538h4.693a.537.537,0,0,1,.537.538v.107A.537.537,0,0,1,1239.5,898.694Z" transform="translate(-1234.268 -897.512)" fill="#00784d"/>
      </g>
      <g id="Group_1690" data-name="Group 1690" transform="translate(6.6 0.097)">
        <path id="Path_1878" data-name="Path 1878" d="M1258.189,901.524h-1.727a.537.537,0,0,0-.537.537v.822a.537.537,0,0,0,.537.537h2.213a.537.537,0,0,1,.537.538v.1a.537.537,0,0,1-.537.537H1255a.537.537,0,0,1-.537-.537V898.05a.537.537,0,0,1,.537-.538h3.662a.537.537,0,0,1,.537.538v.107a.537.537,0,0,1-.537.537h-2.2a.537.537,0,0,0-.537.538v.613a.537.537,0,0,0,.537.537h1.727a.537.537,0,0,1,.537.538v.068A.537.537,0,0,1,1258.189,901.524Z" transform="translate(-1254.466 -897.512)" fill="#00784d"/>
      </g>
      <g id="Group_1691" data-name="Group 1691" transform="translate(11.983)">
        <path id="Path_1879" data-name="Path 1879" d="M1274.831,902.535a.969.969,0,0,0-.054-.333.646.646,0,0,0-.207-.275,1.912,1.912,0,0,0-.423-.248,6.787,6.787,0,0,0-.7-.258,8.527,8.527,0,0,1-.917-.35,3.377,3.377,0,0,1-.754-.46,2.047,2.047,0,0,1-.511-.61,1.668,1.668,0,0,1-.187-.807,1.718,1.718,0,0,1,.192-.81,1.826,1.826,0,0,1,.54-.625,2.659,2.659,0,0,1,.827-.4,3.673,3.673,0,0,1,1.053-.143,3.327,3.327,0,0,1,1.07.163,2.451,2.451,0,0,1,.822.455,2.01,2.01,0,0,1,.525.693c.026.056.049.113.07.172a.536.536,0,0,1-.511.706h-.378a.539.539,0,0,1-.511-.375l-.013-.038a.842.842,0,0,0-.217-.326,1.008,1.008,0,0,0-.365-.212,1.585,1.585,0,0,0-.516-.075,1.753,1.753,0,0,0-.5.063,1.015,1.015,0,0,0-.35.175.735.735,0,0,0-.209.263.748.748,0,0,0-.071.321.689.689,0,0,0,.358.586,4.011,4.011,0,0,0,1.048.44,6.907,6.907,0,0,1,1.019.4,3.021,3.021,0,0,1,.734.5,1.891,1.891,0,0,1,.445.622,1.932,1.932,0,0,1,.151.783,1.836,1.836,0,0,1-.182.832,1.716,1.716,0,0,1-.518.615,2.449,2.449,0,0,1-.81.384,3.893,3.893,0,0,1-1.058.134,4.087,4.087,0,0,1-.7-.061,3.369,3.369,0,0,1-.669-.187,2.89,2.89,0,0,1-.591-.316,2.181,2.181,0,0,1-.474-.447,2.026,2.026,0,0,1-.316-.586l-.011-.032a.536.536,0,0,1,.515-.7h.377a.535.535,0,0,1,.516.392.967.967,0,0,0,.055.153.925.925,0,0,0,.285.362,1.171,1.171,0,0,0,.44.2,2.406,2.406,0,0,0,.574.063,1.77,1.77,0,0,0,.491-.061,1,1,0,0,0,.345-.168.667.667,0,0,0,.2-.255A.784.784,0,0,0,1274.831,902.535Z" transform="translate(-1270.94 -897.214)" fill="#00784d"/>
      </g>
      <g id="Group_1692" data-name="Group 1692" transform="translate(17.888 0.097)">
        <path id="Path_1880" data-name="Path 1880" d="M1294.241,898.694h-1.094a.537.537,0,0,0-.537.538v4.825a.537.537,0,0,1-.538.537h-.384a.537.537,0,0,1-.538-.537v-4.825a.537.537,0,0,0-.537-.538h-1.065a.537.537,0,0,1-.538-.537v-.107a.538.538,0,0,1,.538-.538h4.693a.537.537,0,0,1,.537.538v.107A.537.537,0,0,1,1294.241,898.694Z" transform="translate(-1289.01 -897.512)" fill="#00784d"/>
      </g>
      <g id="Group_1693" data-name="Group 1693" transform="translate(24.58 0.097)">
        <path id="Path_1881" data-name="Path 1881" d="M1310.411,904.593h-.384a.537.537,0,0,1-.538-.537V898.05a.537.537,0,0,1,.538-.538h.384a.537.537,0,0,1,.538.538v6.006A.537.537,0,0,1,1310.411,904.593Z" transform="translate(-1309.49 -897.512)" fill="#00784d"/>
      </g>
      <g id="Group_1694" data-name="Group 1694" transform="translate(27.392 0.097)">
        <path id="Path_1882" data-name="Path 1882" d="M1323.314,904.593h-.619a.538.538,0,0,1-.459-.258l-1.687-2.767a.537.537,0,0,0-1,.28v2.208a.537.537,0,0,1-.538.537h-.384a.537.537,0,0,1-.538-.537V898.05a.537.537,0,0,1,.538-.538h.62a.538.538,0,0,1,.459.258l1.692,2.776a.537.537,0,0,0,1-.28V898.05a.537.537,0,0,1,.537-.538h.379a.537.537,0,0,1,.538.538v6.006A.537.537,0,0,1,1323.314,904.593Z" transform="translate(-1318.093 -897.512)" fill="#00784d"/>
      </g>
      <g id="Group_1695" data-name="Group 1695" transform="translate(34.249)">
        <path id="Path_1883" data-name="Path 1883" d="M1344.857,903.28a.539.539,0,0,1-.178.4c-.05.046-.106.093-.167.141a2.624,2.624,0,0,1-.55.321,4.057,4.057,0,0,1-.781.248,4.82,4.82,0,0,1-1.033.1,3.352,3.352,0,0,1-1.252-.226,2.626,2.626,0,0,1-.97-.664,3.03,3.03,0,0,1-.625-1.075,4.436,4.436,0,0,1-.221-1.459v-.418a4.658,4.658,0,0,1,.211-1.462,3.054,3.054,0,0,1,.6-1.077,2.525,2.525,0,0,1,.936-.666,3.145,3.145,0,0,1,1.221-.229,3.692,3.692,0,0,1,1.194.173,2.353,2.353,0,0,1,.842.484,2.21,2.21,0,0,1,.528.744q.051.118.094.242a.538.538,0,0,1-.512.706h-.339a.542.542,0,0,1-.508-.372c-.013-.038-.028-.075-.043-.111a1.109,1.109,0,0,0-.253-.37,1.084,1.084,0,0,0-.4-.236,1.708,1.708,0,0,0-.562-.083,1.294,1.294,0,0,0-1.138.567,2.976,2.976,0,0,0-.389,1.68v.428a2.8,2.8,0,0,0,.423,1.683,1.449,1.449,0,0,0,1.24.569,2.676,2.676,0,0,0,.457-.034,1.93,1.93,0,0,0,.333-.085,1.132,1.132,0,0,0,.231-.112,1,1,0,0,0,.151-.119v-.684a.537.537,0,0,0-.537-.537h-.253a.537.537,0,0,1-.537-.537h0a.538.538,0,0,1,.537-.538h1.712a.537.537,0,0,1,.537.538Z" transform="translate(-1339.079 -897.214)" fill="#00784d"/>
      </g>
    </g>
  </g>
</svg>
