<svg xmlns="http://www.w3.org/2000/svg" xmlns:xlink="http://www.w3.org/1999/xlink" width="35.704" height="41.158" viewBox="0 0 35.704 41.158">
  <defs>
    <linearGradient id="linear-gradient" x1="0.5" y1="1" x2="0.5" gradientUnits="objectBoundingBox">
      <stop offset="0" stop-color="#2eaa66"/>
      <stop offset="0.768" stop-color="#1ed37c"/>
      <stop offset="1" stop-color="#3ec76d"/>
    </linearGradient>
  </defs>
  <path id="two-factor-authentication-2fa-icon" d="M5.891,25.049H28.9c2.31-4.448,3.434-10.155,3.087-17.163-4.161.38-9.311-1.532-14.677-4.934A21.522,21.522,0,0,1,2.684,7.662c-.19,7.244.972,12.982,3.207,17.386Zm25.679.045a2.525,2.525,0,0,1,2.037,2.464v9.978A2.525,2.525,0,0,1,31.1,40.047H3.613A2.521,2.521,0,0,1,1.1,37.537V27.558a2.52,2.52,0,0,1,2.135-2.482C.955,19.992-.185,13.482.029,5.314A24.779,24.779,0,0,0,17.3,0c6.472,4.1,12.317,6.042,17.334,5.584C35.021,13.5,33.93,19.97,31.57,25.094ZM12.64,13.856h.47V12.769a4.475,4.475,0,0,1,1.238-3.1,4.124,4.124,0,0,1,6.015,0,4.47,4.47,0,0,1,1.239,3.1v1.087h.469a.7.7,0,0,1,.693.693v7.321a.7.7,0,0,1-.693.693H12.64a.7.7,0,0,1-.693-.693V14.548A.694.694,0,0,1,12.64,13.856Zm1.781,0h5.869V12.769a3.158,3.158,0,0,0-.871-2.192,2.822,2.822,0,0,0-4.128,0,3.155,3.155,0,0,0-.871,2.192v1.087Zm2.366,4.676-.747,1.958h2.632L17.979,18.5a1.363,1.363,0,1,0-1.193.027ZM8.226,31.1l-.283-1.618a9.407,9.407,0,0,1,2.727-.413q.543,0,.907.032a3.351,3.351,0,0,1,.755.163,1.554,1.554,0,0,1,.618.359,2.169,2.169,0,0,1,.522,1.6,1.956,1.956,0,0,1-.609,1.586A8.983,8.983,0,0,1,10.3,33.981v.3h3.062v1.738H7.791V34.666A3.032,3.032,0,0,1,8.019,33.5a2.432,2.432,0,0,1,.685-.761,3.434,3.434,0,0,1,.787-.478q.495-.229.935-.429t.711-.331v-.586a8.286,8.286,0,0,0-.9-.055,8.69,8.69,0,0,0-2.009.239Zm11,2.584H17.377v2.336H15.2V29.234h4.454l-.272,1.739H17.377v1.1h1.846Zm3.02,2.336h-2.2l1.76-6.789H25.16l1.759,6.789h-2.2l-.25-1.075H22.494Zm.948-4.7-.307,1.9h1.183l-.3-1.9h-.578Z" transform="translate(0.496 0.61)" stroke="rgba(0,0,0,0)" stroke-miterlimit="10" stroke-width="1" fill-rule="evenodd" fill="url(#linear-gradient)"/>
</svg>
