<svg xmlns="http://www.w3.org/2000/svg" width="16.128" height="21.251" viewBox="0 0 16.128 21.251">
  <path id="Path_8" data-name="Path 8" d="M366.7,265.5l1.281-1.281a1.89,1.89,0,0,0,0-2.673l-6.146-6.146a1.89,1.89,0,0,0-2.673,0l-6.146,6.146a1.89,1.89,0,0,0,0,2.673l1.226,1.226-1.281,1.281a1.89,1.89,0,0,0,0,2.673l6.146,6.147a1.89,1.89,0,0,0,2.673,0l6.147-6.147a1.89,1.89,0,0,0,0-2.673Zm-5.432-8.783a1.5,1.5,0,0,1,.29.227l4.878,4.879a1.5,1.5,0,0,1,0,2.121l-.647.647-4.011-4.011a1.885,1.885,0,0,0-.511-.364Zm-6.709,5.105,4.878-4.879a1.513,1.513,0,0,1,.18-.154v3.425a1.888,1.888,0,0,0-.511.364l-3.956,3.956-.592-.592A1.5,1.5,0,0,1,354.562,261.827Zm5.059,12.371a1.509,1.509,0,0,1-.235-.192l-4.879-4.878a1.5,1.5,0,0,1,0-2.121l.647-.647,4.011,4.011a1.89,1.89,0,0,0,.456.336Zm-3.569-8.721.019-.019-.008-.008,3.322-3.322a1.5,1.5,0,0,1,.134-.117l.954-.954,4.422,4.422-.019.019.008.008-3.322,3.322c-.036.036-.075.066-.114.1l-.974.974Zm10.333,3.65-4.878,4.878a1.5,1.5,0,0,1-.235.192v-3.438a1.884,1.884,0,0,0,.566-.389l3.956-3.956.592.592A1.5,1.5,0,0,1,366.385,269.127Z" transform="translate(-352.41 -254.851)" fill="#3be58d"/>
</svg>
