<svg xmlns="http://www.w3.org/2000/svg" xmlns:xlink="http://www.w3.org/1999/xlink" width="80" height="80" viewBox="0 0 80 80">
  <defs>
    <linearGradient id="linear-gradient" x1="0.5" y1="1" x2="0.5" gradientUnits="objectBoundingBox">
      <stop offset="0" stop-color="#2eaa66"/>
      <stop offset="0.768" stop-color="#1ed37c"/>
      <stop offset="1" stop-color="#3ec76d"/>
    </linearGradient>
  </defs>
  <g id="Group_1521" data-name="Group 1521" transform="translate(-185.5 -278.5)">
    <g id="Group_1520" data-name="Group 1520">
      <rect id="Rectangle_240" data-name="Rectangle 240" width="79" height="79" rx="22" transform="translate(186 279)" stroke="rgba(0,0,0,0)" stroke-miterlimit="10" stroke-width="1" fill="url(#linear-gradient)"/>
      <g id="Green_economic" transform="translate(73.011 231.83)">
        <path id="Path_1760" data-name="Path 1760" d="M194.678,109.154a9.714,9.714,0,1,0-9.714,9.714A9.714,9.714,0,0,0,194.678,109.154ZM182.04,114.1v-2.014H185a.9.9,0,0,0,.9-.9v-.268a.9.9,0,0,0-.9-.9h-.03a2.914,2.914,0,0,1-1.007-5.648v-1.443h2.014v1.264h2.035v2.014h-3.043a.9.9,0,0,0,0,1.8H185a2.918,2.918,0,0,1,2.914,2.914v.268a2.919,2.919,0,0,1-1.937,2.745v1.553h-2.014V114.1Z" transform="translate(-32.847 -31.973)" fill="#fff"/>
        <path id="Path_1761" data-name="Path 1761" d="M162.261,94.069c-2.153-.1-6.147.135-9.076,2.8V91.391a14.131,14.131,0,1,0-2.132,0V96.84c-2.926-2.642-6.907-2.876-9.052-2.774a2.829,2.829,0,0,0-2.7,2.7c-.1,2.2.145,6.333,2.983,9.277,2.045,2.122,5.029,3.226,8.875,3.287.118,0,2.193,0,2.481-.015,3.59-.152,6.391-1.25,8.341-3.272,2.843-2.944,3.086-7.076,2.982-9.277A2.828,2.828,0,0,0,162.261,94.069ZM140.512,77.181a11.61,11.61,0,1,1,11.61,11.61A11.61,11.61,0,0,1,140.512,77.181Zm.913,19.685a.711.711,0,0,1,.673-.673c1.858-.088,5.331.1,7.7,2.388a9.616,9.616,0,0,1,2.606,6.583,8.8,8.8,0,0,0-4.153-3.236l-.72,2.179a6.378,6.378,0,0,1,3.393,3.08c-3.123-.095-5.513-.977-7.108-2.628C141.534,102.194,141.342,98.724,141.425,96.866Zm19.015,7.7a9.263,9.263,0,0,1-5.948,2.552,3,3,0,0,0,.07-.608,15.015,15.015,0,0,0-1.221-6.535,7.278,7.278,0,0,1,1.12-1.39,10.093,10.093,0,0,1,7-2.4c.251,0,.486.007.7.017a.711.711,0,0,1,.672.673c.094,1.853-.1,5.323-2.382,7.691Z" fill="#fff"/>
      </g>
    </g>
  </g>
</svg>
