<svg xmlns="http://www.w3.org/2000/svg" width="43.189" height="55.547" viewBox="0 0 43.189 55.547">
  <g id="Group_1466" data-name="Group 1466" transform="translate(126.579 -34) rotate(90)">
    <path id="Path_1702" data-name="Path 1702" d="M57.068,156.471l3.551,3.552H49.388a11.635,11.635,0,1,1,0-23.27H51.64V133H49.388a15.388,15.388,0,1,0,0,30.776H60.619l-3.551,3.551,2.655,2.656,8.083-8.083-8.083-8.083Z" transform="translate(0 -43.403)" fill="#3be58d"/>
    <path id="Path_1703" data-name="Path 1703" d="M226.2,89.6H214.967l3.551-3.551-2.655-2.656-8.083,8.083,8.083,8.083,2.655-2.655-3.551-3.552H226.2a11.635,11.635,0,0,1,0,23.27h-2.322v3.753H226.2a15.388,15.388,0,0,0,0-30.776Z" transform="translate(-152.039)" fill="#3be58d"/>
  </g>
</svg>
