<svg xmlns="http://www.w3.org/2000/svg" xmlns:xlink="http://www.w3.org/1999/xlink" width="202.768" height="92.476" viewBox="0 0 202.768 92.476">
  <defs>
    <linearGradient id="linear-gradient" x1="0.5" y1="1" x2="0.5" gradientUnits="objectBoundingBox">
      <stop offset="0" stop-color="#2eaa66"/>
      <stop offset="0.33" stop-color="#1ed37c"/>
      <stop offset="0.73" stop-color="#fe8420"/>
      <stop offset="1" stop-color="#ff7d19"/>
    </linearGradient>
  </defs>
  <g id="Group_1355" data-name="Group 1355" transform="translate(-75.084 -69.875)">
    <path id="Path_1" data-name="Path 1" d="M414.609,301.209l5.572-5.573a8.223,8.223,0,0,0,0-11.63L393.434,257.26a8.224,8.224,0,0,0-11.63,0l-26.747,26.747a8.223,8.223,0,0,0,0,11.63l5.333,5.333-5.573,5.573a8.224,8.224,0,0,0,0,11.63l26.747,26.747a8.224,8.224,0,0,0,11.63,0l26.747-26.747a8.224,8.224,0,0,0,0-11.63Zm-23.637-38.218a6.534,6.534,0,0,1,1.263.986l21.229,21.229a6.527,6.527,0,0,1,0,9.231l-2.814,2.814L393.195,279.8a8.2,8.2,0,0,0-2.223-1.583Zm-29.2,22.215L383,263.977a6.583,6.583,0,0,1,.784-.669v14.905a8.209,8.209,0,0,0-2.223,1.583L364.35,297.011l-2.575-2.574A6.527,6.527,0,0,1,361.775,285.206Zm22.013,53.832a6.558,6.558,0,0,1-1.023-.837l-21.229-21.229a6.527,6.527,0,0,1,0-9.231l2.814-2.814L381.8,322.383a8.22,8.22,0,0,0,1.984,1.464Zm-15.53-37.949.084-.085-.035-.035,14.457-14.457a6.523,6.523,0,0,1,.582-.511l4.153-4.154,19.242,19.242-.085.084.035.035-14.457,14.457c-.157.157-.328.288-.5.425l-4.24,4.239Zm44.966,15.883L392,338.2a6.543,6.543,0,0,1-1.024.837v-14.96a8.2,8.2,0,0,0,2.463-1.694l17.216-17.216,2.574,2.575A6.527,6.527,0,0,1,413.225,316.972Z" transform="translate(-277.326 -184.976)" fill="url(#linear-gradient)"/>
    <g id="Group_6" data-name="Group 6" transform="translate(163.031 98.248)">
      <path id="Path_2" data-name="Path 2" d="M589.7,350.98a9.8,9.8,0,0,1-3.486,7.781,12.119,12.119,0,0,1-8.16,2.83h-9.12a2.177,2.177,0,0,1-2.476-2.45V327.132q0-2.425,2.325-2.425h8.286a9.3,9.3,0,0,1,8.388,4.32,8.316,8.316,0,0,1,1.389,4.548,9.2,9.2,0,0,1-1.288,4.875,6.666,6.666,0,0,1-3.84,3.107v.1q5.811,1.162,7.352,5.786A11.068,11.068,0,0,1,589.7,350.98Zm-7.4-16.548a5.879,5.879,0,0,0-1.528-4.168,5.218,5.218,0,0,0-4-1.642h-5.811v11.647h5.28a6.135,6.135,0,0,0,4.358-1.591A5.531,5.531,0,0,0,582.3,334.433Zm2.83,16.447a6.345,6.345,0,0,0-2.223-5.129,8,8,0,0,0-5.382-1.769h-6.568V357.65h6.114q5.2,0,7.124-3.36A6.711,6.711,0,0,0,585.129,350.88Z" transform="translate(-566.459 -324.379)" fill="#f2f2f2"/>
      <path id="Path_3" data-name="Path 3" d="M638.253,326.762a2.776,2.776,0,0,1-.834,2,2.654,2.654,0,0,1-1.971.86,2.7,2.7,0,0,1-2-.847,2.836,2.836,0,0,1,0-4.016,2.7,2.7,0,0,1,2-.846,2.664,2.664,0,0,1,1.983.846A2.788,2.788,0,0,1,638.253,326.762Zm-.53,32.336a2.044,2.044,0,0,1-2.274,2.35q-2.223,0-2.223-2.35V335.655q0-2.425,2.223-2.425a2.032,2.032,0,0,1,2.274,2.324Z" transform="translate(-605.436 -323.908)" fill="#f2f2f2"/>
      <path id="Path_4" data-name="Path 4" d="M680.469,372.566a13.705,13.705,0,0,1-3.158,9.4,11.425,11.425,0,0,1-9.044,3.764,15.79,15.79,0,0,1-8.589-2.451q-2.224-1.389-2.223-2.829a1.93,1.93,0,0,1,.594-1.263,1.66,1.66,0,0,1,1.2-.657,11.284,11.284,0,0,1,3.726,1.63,11.243,11.243,0,0,0,5.495,1.629,6.46,6.46,0,0,0,5.811-3.158,12.412,12.412,0,0,0,1.693-6.745c0-.1-.009-.269-.025-.5s-.025-.413-.025-.531h-.1q-2.2,3.967-7.352,3.967a10.353,10.353,0,0,1-8.766-4.573,16.138,16.138,0,0,1-2.981-9.726,15.186,15.186,0,0,1,3.082-9.651,10.783,10.783,0,0,1,8.918-4.269q5.229,0,7.1,3.815h.1a10.8,10.8,0,0,1,.177-2.552q.4-1.162,2.047-1.162a2.054,2.054,0,0,1,2.324,2.324Zm-4.042-11.545a13.171,13.171,0,0,0-1.793-7.049,6.7,6.7,0,0,0-6.013-3.435,6.3,6.3,0,0,0-5.659,3.335,12.666,12.666,0,0,0-1.692,6.67,13.474,13.474,0,0,0,1.642,6.871,6.359,6.359,0,0,0,5.786,3.461,6.711,6.711,0,0,0,5.912-3.133A11.847,11.847,0,0,0,676.427,361.021Z" transform="translate(-619.635 -337.274)" fill="#f2f2f2"/>
      <path id="Path_5" data-name="Path 5" d="M749.721,360.263q0,2.223-2.526,2.223H730.016a8.413,8.413,0,0,0,2.286,6.1,8.2,8.2,0,0,0,6.076,2.241,12.177,12.177,0,0,0,7.4-2.81,3.253,3.253,0,0,1,1.718-.827q1.591,0,1.591,1.92,0,2.325-4.951,4.472a14.719,14.719,0,0,1-6.012,1.238,11.69,11.69,0,0,1-9.449-4.117,15.379,15.379,0,0,1-3.335-9.98.624.624,0,0,0,.1-.253q.05-.807.253-2.45a13.673,13.673,0,0,1,5.558-9.4,10.548,10.548,0,0,1,6.366-2.021,10.91,10.91,0,0,1,8.817,4.218A14.345,14.345,0,0,1,749.721,360.263ZM745.173,359a9.543,9.543,0,0,0-1.894-5.937,6.755,6.755,0,0,0-5.583-2.526,6.983,6.983,0,0,0-5.684,2.5,9.63,9.63,0,0,0-2,5.963Z" transform="translate(-660.061 -337.274)" fill="#f2f2f2"/>
      <path id="Path_6" data-name="Path 6" d="M812.011,373.3q0,1.819-1.9,1.819a3.09,3.09,0,0,1-2.456-1.558l-7.507-10.418-7.541,10.51a2.6,2.6,0,0,1-2.223,1.163,1.8,1.8,0,0,1-2.021-2.047,3.63,3.63,0,0,1,.884-2.123l8.343-10.716-7.3-9.521a3.292,3.292,0,0,1-.837-1.893,1.782,1.782,0,0,1,.594-1.375,2.04,2.04,0,0,1,1.427-.543,2.331,2.331,0,0,1,1.971.985l6.72,8.994,6.695-8.893a2.332,2.332,0,0,1,1.895-1.086q1.97,0,1.97,2.126a2.684,2.684,0,0,1-.6,1.594l-7.307,9.622,8.285,10.81A4.191,4.191,0,0,1,812.011,373.3Z" transform="translate(-697.19 -337.274)" fill="#f2f2f2"/>
    </g>
  </g>
</svg>
